ISO-10303-21;
HEADER;
/* Generated by software containing ST-Developer
 * from STEP Tools, Inc. (www.steptools.com) 
 */

FILE_DESCRIPTION(
/* description */ (''),
/* implementation_level */ '2;1');

FILE_NAME(
/* name */ '10_Wellplate_base_Lasercover.stp',
/* time_stamp */ '2025-08-08T10:08:38+02:00',
/* author */ ('benir'),
/* organization */ (''),
/* preprocessor_version */ 'ST-DEVELOPER v20',
/* originating_system */ 'Autodesk Inventor 2025',
/* authorisation */ '');

FILE_SCHEMA (('AUTOMOTIVE_DESIGN { 1 0 10303 214 3 1 1 }'));
ENDSEC;

DATA;
#10=MECHANICAL_DESIGN_GEOMETRIC_PRESENTATION_REPRESENTATION('',(#13),#1627);
#11=SHAPE_REPRESENTATION_RELATIONSHIP('SRR','None',#1634,#12);
#12=ADVANCED_BREP_SHAPE_REPRESENTATION('',(#14),#1626);
#13=STYLED_ITEM('',(#1643),#14);
#14=MANIFOLD_SOLID_BREP('Volumenk\X\F6rper1',#925);
#15=(
BOUNDED_SURFACE()
B_SPLINE_SURFACE(2,2,((#1599,#1600,#1601),(#1602,#1603,#1604),(#1605,#1606,
#1607)),.UNSPECIFIED.,.F.,.F.,.F.)
B_SPLINE_SURFACE_WITH_KNOTS((3,3),(3,3),(0.,1.5707963267949),(0.,1.5707963267949),
 .UNSPECIFIED.)
GEOMETRIC_REPRESENTATION_ITEM()
RATIONAL_B_SPLINE_SURFACE(((1.,0.707106781186548,1.),(0.707106781186551,
0.500000000000002,0.707106781186551),(1.,0.707106781186548,1.)))
REPRESENTATION_ITEM('')
SURFACE()
);
#16=SPHERICAL_SURFACE('',#1029,3.);
#17=CONICAL_SURFACE('',#1010,0.875,1.02974425867665);
#18=CONICAL_SURFACE('',#1011,0.875,1.02974425867665);
#19=CONICAL_SURFACE('',#1014,0.875,1.02974425867665);
#20=CONICAL_SURFACE('',#1017,0.875,1.02974425867665);
#21=CONICAL_SURFACE('',#1020,0.875,1.02974425867665);
#22=CONICAL_SURFACE('',#1024,0.875,1.02974425867665);
#23=CONICAL_SURFACE('',#1028,0.875,1.02974425867665);
#24=FACE_BOUND('',#119,.T.);
#25=FACE_BOUND('',#120,.T.);
#26=FACE_BOUND('',#136,.T.);
#27=FACE_BOUND('',#137,.T.);
#28=FACE_BOUND('',#139,.T.);
#29=FACE_BOUND('',#163,.T.);
#30=(
BOUNDED_CURVE()
B_SPLINE_CURVE(2,(#1398,#1399,#1400),.UNSPECIFIED.,.F.,.F.)
B_SPLINE_CURVE_WITH_KNOTS((3,3),(0.,0.1827637374009),.UNSPECIFIED.)
CURVE()
GEOMETRIC_REPRESENTATION_ITEM()
RATIONAL_B_SPLINE_CURVE((1.,1.16666666666664,1.))
REPRESENTATION_ITEM('')
);
#31=(
BOUNDED_CURVE()
B_SPLINE_CURVE(2,(#1406,#1407,#1408),.UNSPECIFIED.,.F.,.F.)
B_SPLINE_CURVE_WITH_KNOTS((3,3),(0.,0.1827637374009),.UNSPECIFIED.)
CURVE()
GEOMETRIC_REPRESENTATION_ITEM()
RATIONAL_B_SPLINE_CURVE((1.,1.16666666666667,1.))
REPRESENTATION_ITEM('')
);
#32=(
BOUNDED_CURVE()
B_SPLINE_CURVE(2,(#1416,#1417,#1418),.UNSPECIFIED.,.F.,.F.)
B_SPLINE_CURVE_WITH_KNOTS((3,3),(0.144849438877084,0.182763737400897),
 .UNSPECIFIED.)
CURVE()
GEOMETRIC_REPRESENTATION_ITEM()
RATIONAL_B_SPLINE_CURVE((1.05480479109519,1.03457496461734,1.))
REPRESENTATION_ITEM('')
);
#33=ELLIPSE('',#961,4.24264068711929,3.);
#34=ELLIPSE('',#1036,4.24264068711929,3.);
#35=B_SPLINE_CURVE_WITH_KNOTS('',3,(#1384,#1385,#1386,#1387,#1388,#1389,
#1390,#1391),.UNSPECIFIED.,.F.,.F.,(4,2,2,4),(0.076031222923921,0.130378529932181,
0.260757059864362,0.309252179800337),.UNSPECIFIED.);
#36=CYLINDRICAL_SURFACE('',#960,3.);
#37=CYLINDRICAL_SURFACE('',#964,3.24814029856518);
#38=CYLINDRICAL_SURFACE('',#982,3.46263554173121);
#39=CYLINDRICAL_SURFACE('',#985,3.7166258191123);
#40=CYLINDRICAL_SURFACE('',#988,3.6913434955567);
#41=CYLINDRICAL_SURFACE('',#990,3.50185970143481);
#42=CYLINDRICAL_SURFACE('',#993,1.50185970143481);
#43=CYLINDRICAL_SURFACE('',#995,3.24814029856518);
#44=CYLINDRICAL_SURFACE('',#998,3.24814029856518);
#45=CYLINDRICAL_SURFACE('',#1001,4.36131272945604);
#46=CYLINDRICAL_SURFACE('',#1004,1.50185970143481);
#47=CYLINDRICAL_SURFACE('',#1013,1.75);
#48=CYLINDRICAL_SURFACE('',#1016,1.75);
#49=CYLINDRICAL_SURFACE('',#1019,1.75);
#50=CYLINDRICAL_SURFACE('',#1022,1.75);
#51=CYLINDRICAL_SURFACE('',#1027,1.75);
#52=CYLINDRICAL_SURFACE('',#1033,3.);
#53=CYLINDRICAL_SURFACE('',#1034,3.);
#54=CYLINDRICAL_SURFACE('',#1035,3.);
#55=CYLINDRICAL_SURFACE('',#1037,3.);
#56=CYLINDRICAL_SURFACE('',#1042,3.);
#57=CYLINDRICAL_SURFACE('',#1044,5.);
#58=FACE_OUTER_BOUND('',#109,.T.);
#59=FACE_OUTER_BOUND('',#110,.T.);
#60=FACE_OUTER_BOUND('',#111,.T.);
#61=FACE_OUTER_BOUND('',#112,.T.);
#62=FACE_OUTER_BOUND('',#113,.T.);
#63=FACE_OUTER_BOUND('',#114,.T.);
#64=FACE_OUTER_BOUND('',#115,.T.);
#65=FACE_OUTER_BOUND('',#116,.T.);
#66=FACE_OUTER_BOUND('',#117,.T.);
#67=FACE_OUTER_BOUND('',#118,.T.);
#68=FACE_OUTER_BOUND('',#121,.T.);
#69=FACE_OUTER_BOUND('',#122,.T.);
#70=FACE_OUTER_BOUND('',#123,.T.);
#71=FACE_OUTER_BOUND('',#124,.T.);
#72=FACE_OUTER_BOUND('',#125,.T.);
#73=FACE_OUTER_BOUND('',#126,.T.);
#74=FACE_OUTER_BOUND('',#127,.T.);
#75=FACE_OUTER_BOUND('',#128,.T.);
#76=FACE_OUTER_BOUND('',#129,.T.);
#77=FACE_OUTER_BOUND('',#130,.T.);
#78=FACE_OUTER_BOUND('',#131,.T.);
#79=FACE_OUTER_BOUND('',#132,.T.);
#80=FACE_OUTER_BOUND('',#133,.T.);
#81=FACE_OUTER_BOUND('',#134,.T.);
#82=FACE_OUTER_BOUND('',#135,.T.);
#83=FACE_OUTER_BOUND('',#138,.T.);
#84=FACE_OUTER_BOUND('',#140,.T.);
#85=FACE_OUTER_BOUND('',#141,.T.);
#86=FACE_OUTER_BOUND('',#142,.T.);
#87=FACE_OUTER_BOUND('',#143,.T.);
#88=FACE_OUTER_BOUND('',#144,.T.);
#89=FACE_OUTER_BOUND('',#145,.T.);
#90=FACE_OUTER_BOUND('',#146,.T.);
#91=FACE_OUTER_BOUND('',#147,.T.);
#92=FACE_OUTER_BOUND('',#148,.T.);
#93=FACE_OUTER_BOUND('',#149,.T.);
#94=FACE_OUTER_BOUND('',#150,.T.);
#95=FACE_OUTER_BOUND('',#151,.T.);
#96=FACE_OUTER_BOUND('',#152,.T.);
#97=FACE_OUTER_BOUND('',#153,.T.);
#98=FACE_OUTER_BOUND('',#154,.T.);
#99=FACE_OUTER_BOUND('',#155,.T.);
#100=FACE_OUTER_BOUND('',#156,.T.);
#101=FACE_OUTER_BOUND('',#157,.T.);
#102=FACE_OUTER_BOUND('',#158,.T.);
#103=FACE_OUTER_BOUND('',#159,.T.);
#104=FACE_OUTER_BOUND('',#160,.T.);
#105=FACE_OUTER_BOUND('',#161,.T.);
#106=FACE_OUTER_BOUND('',#162,.T.);
#107=FACE_OUTER_BOUND('',#164,.T.);
#108=FACE_OUTER_BOUND('',#165,.T.);
#109=EDGE_LOOP('',(#590,#591,#592,#593,#594,#595,#596,#597,#598,#599,#600,
#601,#602,#603,#604,#605));
#110=EDGE_LOOP('',(#606,#607,#608,#609));
#111=EDGE_LOOP('',(#610,#611,#612,#613));
#112=EDGE_LOOP('',(#614,#615,#616,#617));
#113=EDGE_LOOP('',(#618,#619,#620,#621,#622));
#114=EDGE_LOOP('',(#623,#624,#625,#626,#627,#628,#629,#630,#631,#632,#633,
#634,#635));
#115=EDGE_LOOP('',(#636,#637,#638,#639,#640,#641));
#116=EDGE_LOOP('',(#642,#643,#644,#645,#646,#647,#648,#649));
#117=EDGE_LOOP('',(#650,#651));
#118=EDGE_LOOP('',(#652,#653,#654,#655,#656,#657,#658,#659,#660,#661,#662,
#663,#664,#665,#666,#667,#668,#669,#670,#671,#672,#673,#674));
#119=EDGE_LOOP('',(#675));
#120=EDGE_LOOP('',(#676));
#121=EDGE_LOOP('',(#677,#678,#679,#680));
#122=EDGE_LOOP('',(#681,#682,#683,#684));
#123=EDGE_LOOP('',(#685,#686,#687,#688));
#124=EDGE_LOOP('',(#689,#690,#691,#692));
#125=EDGE_LOOP('',(#693,#694,#695,#696));
#126=EDGE_LOOP('',(#697,#698,#699,#700));
#127=EDGE_LOOP('',(#701,#702,#703,#704));
#128=EDGE_LOOP('',(#705,#706,#707,#708));
#129=EDGE_LOOP('',(#709,#710,#711,#712,#713,#714));
#130=EDGE_LOOP('',(#715,#716,#717,#718));
#131=EDGE_LOOP('',(#719,#720,#721,#722));
#132=EDGE_LOOP('',(#723,#724,#725,#726));
#133=EDGE_LOOP('',(#727,#728,#729,#730));
#134=EDGE_LOOP('',(#731,#732,#733,#734));
#135=EDGE_LOOP('',(#735,#736,#737,#738,#739,#740,#741,#742,#743,#744,#745,
#746,#747,#748));
#136=EDGE_LOOP('',(#749));
#137=EDGE_LOOP('',(#750));
#138=EDGE_LOOP('',(#751));
#139=EDGE_LOOP('',(#752));
#140=EDGE_LOOP('',(#753,#754,#755,#756,#757,#758));
#141=EDGE_LOOP('',(#759,#760,#761));
#142=EDGE_LOOP('',(#762,#763,#764,#765));
#143=EDGE_LOOP('',(#766,#767,#768));
#144=EDGE_LOOP('',(#769,#770,#771,#772));
#145=EDGE_LOOP('',(#773,#774,#775));
#146=EDGE_LOOP('',(#776,#777,#778,#779));
#147=EDGE_LOOP('',(#780,#781,#782));
#148=EDGE_LOOP('',(#783,#784,#785,#786));
#149=EDGE_LOOP('',(#787,#788,#789,#790,#791));
#150=EDGE_LOOP('',(#792,#793,#794,#795,#796));
#151=EDGE_LOOP('',(#797,#798,#799,#800,#801));
#152=EDGE_LOOP('',(#802,#803,#804));
#153=EDGE_LOOP('',(#805,#806,#807,#808));
#154=EDGE_LOOP('',(#809,#810,#811,#812));
#155=EDGE_LOOP('',(#813,#814,#815,#816));
#156=EDGE_LOOP('',(#817,#818,#819,#820));
#157=EDGE_LOOP('',(#821,#822,#823,#824));
#158=EDGE_LOOP('',(#825,#826,#827,#828));
#159=EDGE_LOOP('',(#829,#830,#831,#832));
#160=EDGE_LOOP('',(#833,#834,#835,#836));
#161=EDGE_LOOP('',(#837,#838,#839,#840));
#162=EDGE_LOOP('',(#841));
#163=EDGE_LOOP('',(#842));
#164=EDGE_LOOP('',(#843,#844,#845,#846,#847,#848));
#165=EDGE_LOOP('',(#849,#850,#851,#852,#853));
#166=CIRCLE('',#949,3.24814029856518);
#167=CIRCLE('',#950,3.24814029856518);
#168=CIRCLE('',#951,3.24814029856518);
#169=CIRCLE('',#952,1.75);
#170=CIRCLE('',#953,1.75);
#171=CIRCLE('',#954,1.75);
#172=CIRCLE('',#955,1.75);
#173=CIRCLE('',#956,3.);
#174=CIRCLE('',#965,3.24814029856518);
#175=CIRCLE('',#966,3.24814029856518);
#176=CIRCLE('',#969,3.);
#177=CIRCLE('',#970,5.);
#178=CIRCLE('',#971,3.);
#179=CIRCLE('',#972,1.75);
#180=CIRCLE('',#973,3.24814029856518);
#181=CIRCLE('',#974,1.50185970143481);
#182=CIRCLE('',#975,3.50185970143481);
#183=CIRCLE('',#976,3.6913434955567);
#184=CIRCLE('',#977,1.50185970143481);
#185=CIRCLE('',#978,4.36131272945604);
#186=CIRCLE('',#979,3.24814029856518);
#187=CIRCLE('',#980,1.75);
#188=CIRCLE('',#981,1.75);
#189=CIRCLE('',#983,3.46263554173121);
#190=CIRCLE('',#984,3.46263554173121);
#191=CIRCLE('',#986,3.7166258191123);
#192=CIRCLE('',#987,3.7166258191123);
#193=CIRCLE('',#989,3.6913434955567);
#194=CIRCLE('',#991,3.50185970143481);
#195=CIRCLE('',#994,1.50185970143481);
#196=CIRCLE('',#996,3.24814029856518);
#197=CIRCLE('',#999,3.24814029856518);
#198=CIRCLE('',#1002,4.36131272945604);
#199=CIRCLE('',#1005,1.50185970143481);
#200=CIRCLE('',#1009,1.75);
#201=CIRCLE('',#1012,1.75);
#202=CIRCLE('',#1015,1.75);
#203=CIRCLE('',#1018,1.75);
#204=CIRCLE('',#1021,1.75);
#205=CIRCLE('',#1023,1.75);
#206=CIRCLE('',#1025,1.75);
#207=CIRCLE('',#1026,1.75);
#208=CIRCLE('',#1030,3.);
#209=CIRCLE('',#1031,3.);
#210=CIRCLE('',#1032,3.);
#211=CIRCLE('',#1038,3.00000000000001);
#212=CIRCLE('',#1039,3.);
#213=CIRCLE('',#1040,2.);
#214=CIRCLE('',#1041,5.);
#215=LINE('',#1334,#292);
#216=LINE('',#1336,#293);
#217=LINE('',#1340,#294);
#218=LINE('',#1344,#295);
#219=LINE('',#1348,#296);
#220=LINE('',#1350,#297);
#221=LINE('',#1352,#298);
#222=LINE('',#1358,#299);
#223=LINE('',#1366,#300);
#224=LINE('',#1368,#301);
#225=LINE('',#1369,#302);
#226=LINE('',#1372,#303);
#227=LINE('',#1374,#304);
#228=LINE('',#1375,#305);
#229=LINE('',#1378,#306);
#230=LINE('',#1380,#307);
#231=LINE('',#1381,#308);
#232=LINE('',#1393,#309);
#233=LINE('',#1396,#310);
#234=LINE('',#1402,#311);
#235=LINE('',#1404,#312);
#236=LINE('',#1410,#313);
#237=LINE('',#1412,#314);
#238=LINE('',#1414,#315);
#239=LINE('',#1415,#316);
#240=LINE('',#1421,#317);
#241=LINE('',#1423,#318);
#242=LINE('',#1425,#319);
#243=LINE('',#1426,#320);
#244=LINE('',#1430,#321);
#245=LINE('',#1435,#322);
#246=LINE('',#1439,#323);
#247=LINE('',#1443,#324);
#248=LINE('',#1451,#325);
#249=LINE('',#1457,#326);
#250=LINE('',#1461,#327);
#251=LINE('',#1465,#328);
#252=LINE('',#1475,#329);
#253=LINE('',#1481,#330);
#254=LINE('',#1485,#331);
#255=LINE('',#1488,#332);
#256=LINE('',#1491,#333);
#257=LINE('',#1495,#334);
#258=LINE('',#1496,#335);
#259=LINE('',#1499,#336);
#260=LINE('',#1505,#337);
#261=LINE('',#1506,#338);
#262=LINE('',#1509,#339);
#263=LINE('',#1513,#340);
#264=LINE('',#1514,#341);
#265=LINE('',#1517,#342);
#266=LINE('',#1521,#343);
#267=LINE('',#1522,#344);
#268=LINE('',#1525,#345);
#269=LINE('',#1528,#346);
#270=LINE('',#1535,#347);
#271=LINE('',#1540,#348);
#272=LINE('',#1542,#349);
#273=LINE('',#1547,#350);
#274=LINE('',#1549,#351);
#275=LINE('',#1554,#352);
#276=LINE('',#1556,#353);
#277=LINE('',#1561,#354);
#278=LINE('',#1565,#355);
#279=LINE('',#1570,#356);
#280=LINE('',#1575,#357);
#281=LINE('',#1584,#358);
#282=LINE('',#1585,#359);
#283=LINE('',#1587,#360);
#284=LINE('',#1588,#361);
#285=LINE('',#1591,#362);
#286=LINE('',#1595,#363);
#287=LINE('',#1598,#364);
#288=LINE('',#1614,#365);
#289=LINE('',#1615,#366);
#290=LINE('',#1617,#367);
#291=LINE('',#1619,#368);
#292=VECTOR('',#1053,10.);
#293=VECTOR('',#1054,10.);
#294=VECTOR('',#1057,10.);
#295=VECTOR('',#1060,10.);
#296=VECTOR('',#1063,10.);
#297=VECTOR('',#1064,10.);
#298=VECTOR('',#1065,10.);
#299=VECTOR('',#1070,10.);
#300=VECTOR('',#1079,10.);
#301=VECTOR('',#1080,10.);
#302=VECTOR('',#1081,10.);
#303=VECTOR('',#1084,10.);
#304=VECTOR('',#1085,10.);
#305=VECTOR('',#1086,10.);
#306=VECTOR('',#1089,10.);
#307=VECTOR('',#1090,10.);
#308=VECTOR('',#1091,10.);
#309=VECTOR('',#1094,10.);
#310=VECTOR('',#1097,10.);
#311=VECTOR('',#1100,10.);
#312=VECTOR('',#1101,10.);
#313=VECTOR('',#1102,10.);
#314=VECTOR('',#1103,10.);
#315=VECTOR('',#1104,10.);
#316=VECTOR('',#1105,10.);
#317=VECTOR('',#1108,10.);
#318=VECTOR('',#1109,10.);
#319=VECTOR('',#1110,10.);
#320=VECTOR('',#1111,10.);
#321=VECTOR('',#1116,10.);
#322=VECTOR('',#1123,10.);
#323=VECTOR('',#1126,10.);
#324=VECTOR('',#1129,10.);
#325=VECTOR('',#1138,10.);
#326=VECTOR('',#1143,10.);
#327=VECTOR('',#1146,10.);
#328=VECTOR('',#1149,10.);
#329=VECTOR('',#1160,3.46263554173121);
#330=VECTOR('',#1167,3.7166258191123);
#331=VECTOR('',#1172,10.);
#332=VECTOR('',#1175,10.);
#333=VECTOR('',#1178,10.);
#334=VECTOR('',#1183,10.);
#335=VECTOR('',#1184,10.);
#336=VECTOR('',#1187,10.);
#337=VECTOR('',#1196,10.);
#338=VECTOR('',#1197,10.);
#339=VECTOR('',#1200,10.);
#340=VECTOR('',#1205,10.);
#341=VECTOR('',#1206,10.);
#342=VECTOR('',#1209,10.);
#343=VECTOR('',#1214,10.);
#344=VECTOR('',#1215,10.);
#345=VECTOR('',#1218,10.);
#346=VECTOR('',#1223,10.);
#347=VECTOR('',#1232,0.875);
#348=VECTOR('',#1237,0.875);
#349=VECTOR('',#1240,1.75);
#350=VECTOR('',#1245,0.875);
#351=VECTOR('',#1248,1.75);
#352=VECTOR('',#1253,0.875);
#353=VECTOR('',#1256,1.75);
#354=VECTOR('',#1261,0.875);
#355=VECTOR('',#1266,1.75);
#356=VECTOR('',#1271,0.875);
#357=VECTOR('',#1278,0.875);
#358=VECTOR('',#1289,10.);
#359=VECTOR('',#1290,10.);
#360=VECTOR('',#1293,10.);
#361=VECTOR('',#1294,10.);
#362=VECTOR('',#1297,10.);
#363=VECTOR('',#1302,10.);
#364=VECTOR('',#1305,10.);
#365=VECTOR('',#1314,10.);
#366=VECTOR('',#1315,10.);
#367=VECTOR('',#1318,10.);
#368=VECTOR('',#1321,10.);
#369=VERTEX_POINT('',#1332);
#370=VERTEX_POINT('',#1333);
#371=VERTEX_POINT('',#1335);
#372=VERTEX_POINT('',#1337);
#373=VERTEX_POINT('',#1339);
#374=VERTEX_POINT('',#1341);
#375=VERTEX_POINT('',#1343);
#376=VERTEX_POINT('',#1345);
#377=VERTEX_POINT('',#1347);
#378=VERTEX_POINT('',#1349);
#379=VERTEX_POINT('',#1351);
#380=VERTEX_POINT('',#1353);
#381=VERTEX_POINT('',#1355);
#382=VERTEX_POINT('',#1357);
#383=VERTEX_POINT('',#1359);
#384=VERTEX_POINT('',#1361);
#385=VERTEX_POINT('',#1365);
#386=VERTEX_POINT('',#1367);
#387=VERTEX_POINT('',#1371);
#388=VERTEX_POINT('',#1373);
#389=VERTEX_POINT('',#1377);
#390=VERTEX_POINT('',#1379);
#391=VERTEX_POINT('',#1383);
#392=VERTEX_POINT('',#1392);
#393=VERTEX_POINT('',#1394);
#394=VERTEX_POINT('',#1401);
#395=VERTEX_POINT('',#1403);
#396=VERTEX_POINT('',#1405);
#397=VERTEX_POINT('',#1409);
#398=VERTEX_POINT('',#1411);
#399=VERTEX_POINT('',#1413);
#400=VERTEX_POINT('',#1420);
#401=VERTEX_POINT('',#1422);
#402=VERTEX_POINT('',#1424);
#403=VERTEX_POINT('',#1429);
#404=VERTEX_POINT('',#1434);
#405=VERTEX_POINT('',#1436);
#406=VERTEX_POINT('',#1438);
#407=VERTEX_POINT('',#1440);
#408=VERTEX_POINT('',#1442);
#409=VERTEX_POINT('',#1446);
#410=VERTEX_POINT('',#1448);
#411=VERTEX_POINT('',#1450);
#412=VERTEX_POINT('',#1452);
#413=VERTEX_POINT('',#1454);
#414=VERTEX_POINT('',#1456);
#415=VERTEX_POINT('',#1458);
#416=VERTEX_POINT('',#1460);
#417=VERTEX_POINT('',#1462);
#418=VERTEX_POINT('',#1464);
#419=VERTEX_POINT('',#1467);
#420=VERTEX_POINT('',#1469);
#421=VERTEX_POINT('',#1472);
#422=VERTEX_POINT('',#1474);
#423=VERTEX_POINT('',#1478);
#424=VERTEX_POINT('',#1480);
#425=VERTEX_POINT('',#1484);
#426=VERTEX_POINT('',#1486);
#427=VERTEX_POINT('',#1490);
#428=VERTEX_POINT('',#1494);
#429=VERTEX_POINT('',#1498);
#430=VERTEX_POINT('',#1504);
#431=VERTEX_POINT('',#1508);
#432=VERTEX_POINT('',#1512);
#433=VERTEX_POINT('',#1516);
#434=VERTEX_POINT('',#1520);
#435=VERTEX_POINT('',#1524);
#436=VERTEX_POINT('',#1531);
#437=VERTEX_POINT('',#1534);
#438=VERTEX_POINT('',#1537);
#439=VERTEX_POINT('',#1539);
#440=VERTEX_POINT('',#1544);
#441=VERTEX_POINT('',#1546);
#442=VERTEX_POINT('',#1551);
#443=VERTEX_POINT('',#1553);
#444=VERTEX_POINT('',#1558);
#445=VERTEX_POINT('',#1560);
#446=VERTEX_POINT('',#1563);
#447=VERTEX_POINT('',#1567);
#448=VERTEX_POINT('',#1569);
#449=VERTEX_POINT('',#1574);
#450=VERTEX_POINT('',#1577);
#451=VERTEX_POINT('',#1578);
#452=VERTEX_POINT('',#1580);
#453=VERTEX_POINT('',#1590);
#454=VERTEX_POINT('',#1594);
#455=VERTEX_POINT('',#1596);
#456=VERTEX_POINT('',#1608);
#457=VERTEX_POINT('',#1609);
#458=EDGE_CURVE('',#369,#370,#215,.T.);
#459=EDGE_CURVE('',#369,#371,#216,.T.);
#460=EDGE_CURVE('',#372,#371,#166,.T.);
#461=EDGE_CURVE('',#373,#372,#217,.T.);
#462=EDGE_CURVE('',#374,#373,#167,.T.);
#463=EDGE_CURVE('',#374,#375,#218,.T.);
#464=EDGE_CURVE('',#376,#375,#168,.T.);
#465=EDGE_CURVE('',#377,#376,#219,.T.);
#466=EDGE_CURVE('',#378,#377,#220,.T.);
#467=EDGE_CURVE('',#379,#378,#221,.T.);
#468=EDGE_CURVE('',#380,#379,#169,.T.);
#469=EDGE_CURVE('',#381,#380,#170,.T.);
#470=EDGE_CURVE('',#382,#381,#222,.T.);
#471=EDGE_CURVE('',#383,#382,#171,.T.);
#472=EDGE_CURVE('',#384,#383,#172,.T.);
#473=EDGE_CURVE('',#370,#384,#173,.T.);
#474=EDGE_CURVE('',#375,#385,#223,.T.);
#475=EDGE_CURVE('',#386,#374,#224,.T.);
#476=EDGE_CURVE('',#385,#386,#225,.T.);
#477=EDGE_CURVE('',#387,#377,#226,.T.);
#478=EDGE_CURVE('',#388,#387,#227,.T.);
#479=EDGE_CURVE('',#378,#388,#228,.T.);
#480=EDGE_CURVE('',#389,#369,#229,.T.);
#481=EDGE_CURVE('',#390,#389,#230,.T.);
#482=EDGE_CURVE('',#371,#390,#231,.T.);
#483=EDGE_CURVE('',#384,#391,#35,.T.);
#484=EDGE_CURVE('',#391,#392,#232,.T.);
#485=EDGE_CURVE('',#392,#393,#33,.T.);
#486=EDGE_CURVE('',#393,#370,#233,.T.);
#487=EDGE_CURVE('',#381,#379,#30,.T.);
#488=EDGE_CURVE('',#388,#394,#234,.T.);
#489=EDGE_CURVE('',#394,#395,#235,.T.);
#490=EDGE_CURVE('',#395,#396,#31,.T.);
#491=EDGE_CURVE('',#396,#397,#236,.T.);
#492=EDGE_CURVE('',#397,#398,#237,.T.);
#493=EDGE_CURVE('',#399,#398,#238,.T.);
#494=EDGE_CURVE('',#392,#399,#239,.T.);
#495=EDGE_CURVE('',#391,#382,#32,.T.);
#496=EDGE_CURVE('',#376,#400,#240,.T.);
#497=EDGE_CURVE('',#400,#401,#241,.T.);
#498=EDGE_CURVE('',#402,#401,#242,.T.);
#499=EDGE_CURVE('',#387,#402,#243,.T.);
#500=EDGE_CURVE('',#386,#385,#174,.T.);
#501=EDGE_CURVE('',#373,#403,#244,.T.);
#502=EDGE_CURVE('',#403,#400,#175,.T.);
#503=EDGE_CURVE('',#404,#389,#245,.T.);
#504=EDGE_CURVE('',#405,#404,#176,.T.);
#505=EDGE_CURVE('',#406,#405,#246,.T.);
#506=EDGE_CURVE('',#407,#406,#177,.T.);
#507=EDGE_CURVE('',#408,#407,#247,.T.);
#508=EDGE_CURVE('',#398,#408,#178,.T.);
#509=EDGE_CURVE('',#397,#394,#179,.T.);
#510=EDGE_CURVE('',#402,#409,#180,.T.);
#511=EDGE_CURVE('',#409,#410,#181,.T.);
#512=EDGE_CURVE('',#410,#411,#248,.T.);
#513=EDGE_CURVE('',#411,#412,#182,.T.);
#514=EDGE_CURVE('',#412,#413,#183,.T.);
#515=EDGE_CURVE('',#413,#414,#249,.T.);
#516=EDGE_CURVE('',#414,#415,#184,.T.);
#517=EDGE_CURVE('',#415,#416,#250,.T.);
#518=EDGE_CURVE('',#416,#417,#185,.T.);
#519=EDGE_CURVE('',#417,#418,#251,.T.);
#520=EDGE_CURVE('',#418,#390,#186,.T.);
#521=EDGE_CURVE('',#419,#419,#187,.T.);
#522=EDGE_CURVE('',#420,#420,#188,.T.);
#523=EDGE_CURVE('',#421,#421,#189,.T.);
#524=EDGE_CURVE('',#421,#422,#252,.T.);
#525=EDGE_CURVE('',#422,#422,#190,.T.);
#526=EDGE_CURVE('',#423,#423,#191,.T.);
#527=EDGE_CURVE('',#423,#424,#253,.T.);
#528=EDGE_CURVE('',#424,#424,#192,.T.);
#529=EDGE_CURVE('',#412,#425,#254,.T.);
#530=EDGE_CURVE('',#425,#426,#193,.T.);
#531=EDGE_CURVE('',#413,#426,#255,.T.);
#532=EDGE_CURVE('',#411,#427,#256,.T.);
#533=EDGE_CURVE('',#427,#425,#194,.T.);
#534=EDGE_CURVE('',#410,#428,#257,.T.);
#535=EDGE_CURVE('',#428,#427,#258,.T.);
#536=EDGE_CURVE('',#409,#429,#259,.T.);
#537=EDGE_CURVE('',#429,#428,#195,.T.);
#538=EDGE_CURVE('',#401,#429,#196,.T.);
#539=EDGE_CURVE('',#372,#430,#260,.T.);
#540=EDGE_CURVE('',#430,#403,#261,.T.);
#541=EDGE_CURVE('',#418,#431,#262,.T.);
#542=EDGE_CURVE('',#431,#430,#197,.T.);
#543=EDGE_CURVE('',#417,#432,#263,.T.);
#544=EDGE_CURVE('',#432,#431,#264,.T.);
#545=EDGE_CURVE('',#416,#433,#265,.T.);
#546=EDGE_CURVE('',#433,#432,#198,.T.);
#547=EDGE_CURVE('',#415,#434,#266,.T.);
#548=EDGE_CURVE('',#434,#433,#267,.T.);
#549=EDGE_CURVE('',#414,#435,#268,.T.);
#550=EDGE_CURVE('',#435,#434,#199,.T.);
#551=EDGE_CURVE('',#426,#435,#269,.T.);
#552=EDGE_CURVE('',#436,#436,#200,.T.);
#553=EDGE_CURVE('',#383,#437,#270,.T.);
#554=EDGE_CURVE('',#438,#438,#201,.T.);
#555=EDGE_CURVE('',#438,#439,#271,.T.);
#556=EDGE_CURVE('',#420,#438,#272,.T.);
#557=EDGE_CURVE('',#440,#440,#202,.T.);
#558=EDGE_CURVE('',#440,#441,#273,.T.);
#559=EDGE_CURVE('',#419,#440,#274,.T.);
#560=EDGE_CURVE('',#442,#442,#203,.T.);
#561=EDGE_CURVE('',#442,#443,#275,.T.);
#562=EDGE_CURVE('',#436,#442,#276,.T.);
#563=EDGE_CURVE('',#444,#444,#204,.T.);
#564=EDGE_CURVE('',#444,#445,#277,.T.);
#565=EDGE_CURVE('',#446,#446,#205,.T.);
#566=EDGE_CURVE('',#446,#444,#278,.T.);
#567=EDGE_CURVE('',#395,#447,#206,.T.);
#568=EDGE_CURVE('',#447,#448,#279,.T.);
#569=EDGE_CURVE('',#447,#396,#207,.T.);
#570=EDGE_CURVE('',#380,#449,#280,.T.);
#571=EDGE_CURVE('',#450,#451,#208,.F.);
#572=EDGE_CURVE('',#452,#450,#209,.F.);
#573=EDGE_CURVE('',#451,#452,#210,.F.);
#574=EDGE_CURVE('',#404,#452,#281,.T.);
#575=EDGE_CURVE('',#450,#405,#282,.T.);
#576=EDGE_CURVE('',#392,#451,#283,.T.);
#577=EDGE_CURVE('',#452,#393,#284,.T.);
#578=EDGE_CURVE('',#408,#453,#285,.T.);
#579=EDGE_CURVE('',#453,#399,#34,.T.);
#580=EDGE_CURVE('',#453,#454,#286,.T.);
#581=EDGE_CURVE('',#454,#455,#211,.T.);
#582=EDGE_CURVE('',#455,#399,#287,.T.);
#583=EDGE_CURVE('',#456,#457,#212,.T.);
#584=EDGE_CURVE('',#457,#455,#213,.T.);
#585=EDGE_CURVE('',#454,#456,#214,.T.);
#586=EDGE_CURVE('',#451,#457,#288,.T.);
#587=EDGE_CURVE('',#456,#450,#289,.T.);
#588=EDGE_CURVE('',#406,#456,#290,.T.);
#589=EDGE_CURVE('',#407,#454,#291,.T.);
#590=ORIENTED_EDGE('',*,*,#458,.F.);
#591=ORIENTED_EDGE('',*,*,#459,.T.);
#592=ORIENTED_EDGE('',*,*,#460,.F.);
#593=ORIENTED_EDGE('',*,*,#461,.F.);
#594=ORIENTED_EDGE('',*,*,#462,.F.);
#595=ORIENTED_EDGE('',*,*,#463,.T.);
#596=ORIENTED_EDGE('',*,*,#464,.F.);
#597=ORIENTED_EDGE('',*,*,#465,.F.);
#598=ORIENTED_EDGE('',*,*,#466,.F.);
#599=ORIENTED_EDGE('',*,*,#467,.F.);
#600=ORIENTED_EDGE('',*,*,#468,.F.);
#601=ORIENTED_EDGE('',*,*,#469,.F.);
#602=ORIENTED_EDGE('',*,*,#470,.F.);
#603=ORIENTED_EDGE('',*,*,#471,.F.);
#604=ORIENTED_EDGE('',*,*,#472,.F.);
#605=ORIENTED_EDGE('',*,*,#473,.F.);
#606=ORIENTED_EDGE('',*,*,#474,.F.);
#607=ORIENTED_EDGE('',*,*,#463,.F.);
#608=ORIENTED_EDGE('',*,*,#475,.F.);
#609=ORIENTED_EDGE('',*,*,#476,.F.);
#610=ORIENTED_EDGE('',*,*,#477,.F.);
#611=ORIENTED_EDGE('',*,*,#478,.F.);
#612=ORIENTED_EDGE('',*,*,#479,.F.);
#613=ORIENTED_EDGE('',*,*,#466,.T.);
#614=ORIENTED_EDGE('',*,*,#480,.F.);
#615=ORIENTED_EDGE('',*,*,#481,.F.);
#616=ORIENTED_EDGE('',*,*,#482,.F.);
#617=ORIENTED_EDGE('',*,*,#459,.F.);
#618=ORIENTED_EDGE('',*,*,#473,.T.);
#619=ORIENTED_EDGE('',*,*,#483,.T.);
#620=ORIENTED_EDGE('',*,*,#484,.T.);
#621=ORIENTED_EDGE('',*,*,#485,.T.);
#622=ORIENTED_EDGE('',*,*,#486,.T.);
#623=ORIENTED_EDGE('',*,*,#470,.T.);
#624=ORIENTED_EDGE('',*,*,#487,.T.);
#625=ORIENTED_EDGE('',*,*,#467,.T.);
#626=ORIENTED_EDGE('',*,*,#479,.T.);
#627=ORIENTED_EDGE('',*,*,#488,.T.);
#628=ORIENTED_EDGE('',*,*,#489,.T.);
#629=ORIENTED_EDGE('',*,*,#490,.T.);
#630=ORIENTED_EDGE('',*,*,#491,.T.);
#631=ORIENTED_EDGE('',*,*,#492,.T.);
#632=ORIENTED_EDGE('',*,*,#493,.F.);
#633=ORIENTED_EDGE('',*,*,#494,.F.);
#634=ORIENTED_EDGE('',*,*,#484,.F.);
#635=ORIENTED_EDGE('',*,*,#495,.T.);
#636=ORIENTED_EDGE('',*,*,#477,.T.);
#637=ORIENTED_EDGE('',*,*,#465,.T.);
#638=ORIENTED_EDGE('',*,*,#496,.T.);
#639=ORIENTED_EDGE('',*,*,#497,.T.);
#640=ORIENTED_EDGE('',*,*,#498,.F.);
#641=ORIENTED_EDGE('',*,*,#499,.F.);
#642=ORIENTED_EDGE('',*,*,#464,.T.);
#643=ORIENTED_EDGE('',*,*,#474,.T.);
#644=ORIENTED_EDGE('',*,*,#500,.F.);
#645=ORIENTED_EDGE('',*,*,#475,.T.);
#646=ORIENTED_EDGE('',*,*,#462,.T.);
#647=ORIENTED_EDGE('',*,*,#501,.T.);
#648=ORIENTED_EDGE('',*,*,#502,.T.);
#649=ORIENTED_EDGE('',*,*,#496,.F.);
#650=ORIENTED_EDGE('',*,*,#476,.T.);
#651=ORIENTED_EDGE('',*,*,#500,.T.);
#652=ORIENTED_EDGE('',*,*,#481,.T.);
#653=ORIENTED_EDGE('',*,*,#503,.F.);
#654=ORIENTED_EDGE('',*,*,#504,.F.);
#655=ORIENTED_EDGE('',*,*,#505,.F.);
#656=ORIENTED_EDGE('',*,*,#506,.F.);
#657=ORIENTED_EDGE('',*,*,#507,.F.);
#658=ORIENTED_EDGE('',*,*,#508,.F.);
#659=ORIENTED_EDGE('',*,*,#492,.F.);
#660=ORIENTED_EDGE('',*,*,#509,.T.);
#661=ORIENTED_EDGE('',*,*,#488,.F.);
#662=ORIENTED_EDGE('',*,*,#478,.T.);
#663=ORIENTED_EDGE('',*,*,#499,.T.);
#664=ORIENTED_EDGE('',*,*,#510,.T.);
#665=ORIENTED_EDGE('',*,*,#511,.T.);
#666=ORIENTED_EDGE('',*,*,#512,.T.);
#667=ORIENTED_EDGE('',*,*,#513,.T.);
#668=ORIENTED_EDGE('',*,*,#514,.T.);
#669=ORIENTED_EDGE('',*,*,#515,.T.);
#670=ORIENTED_EDGE('',*,*,#516,.T.);
#671=ORIENTED_EDGE('',*,*,#517,.T.);
#672=ORIENTED_EDGE('',*,*,#518,.T.);
#673=ORIENTED_EDGE('',*,*,#519,.T.);
#674=ORIENTED_EDGE('',*,*,#520,.T.);
#675=ORIENTED_EDGE('',*,*,#521,.T.);
#676=ORIENTED_EDGE('',*,*,#522,.T.);
#677=ORIENTED_EDGE('',*,*,#523,.F.);
#678=ORIENTED_EDGE('',*,*,#524,.T.);
#679=ORIENTED_EDGE('',*,*,#525,.T.);
#680=ORIENTED_EDGE('',*,*,#524,.F.);
#681=ORIENTED_EDGE('',*,*,#526,.F.);
#682=ORIENTED_EDGE('',*,*,#527,.T.);
#683=ORIENTED_EDGE('',*,*,#528,.T.);
#684=ORIENTED_EDGE('',*,*,#527,.F.);
#685=ORIENTED_EDGE('',*,*,#514,.F.);
#686=ORIENTED_EDGE('',*,*,#529,.T.);
#687=ORIENTED_EDGE('',*,*,#530,.T.);
#688=ORIENTED_EDGE('',*,*,#531,.F.);
#689=ORIENTED_EDGE('',*,*,#513,.F.);
#690=ORIENTED_EDGE('',*,*,#532,.T.);
#691=ORIENTED_EDGE('',*,*,#533,.T.);
#692=ORIENTED_EDGE('',*,*,#529,.F.);
#693=ORIENTED_EDGE('',*,*,#512,.F.);
#694=ORIENTED_EDGE('',*,*,#534,.T.);
#695=ORIENTED_EDGE('',*,*,#535,.T.);
#696=ORIENTED_EDGE('',*,*,#532,.F.);
#697=ORIENTED_EDGE('',*,*,#511,.F.);
#698=ORIENTED_EDGE('',*,*,#536,.T.);
#699=ORIENTED_EDGE('',*,*,#537,.T.);
#700=ORIENTED_EDGE('',*,*,#534,.F.);
#701=ORIENTED_EDGE('',*,*,#510,.F.);
#702=ORIENTED_EDGE('',*,*,#498,.T.);
#703=ORIENTED_EDGE('',*,*,#538,.T.);
#704=ORIENTED_EDGE('',*,*,#536,.F.);
#705=ORIENTED_EDGE('',*,*,#461,.T.);
#706=ORIENTED_EDGE('',*,*,#539,.T.);
#707=ORIENTED_EDGE('',*,*,#540,.T.);
#708=ORIENTED_EDGE('',*,*,#501,.F.);
#709=ORIENTED_EDGE('',*,*,#482,.T.);
#710=ORIENTED_EDGE('',*,*,#520,.F.);
#711=ORIENTED_EDGE('',*,*,#541,.T.);
#712=ORIENTED_EDGE('',*,*,#542,.T.);
#713=ORIENTED_EDGE('',*,*,#539,.F.);
#714=ORIENTED_EDGE('',*,*,#460,.T.);
#715=ORIENTED_EDGE('',*,*,#519,.F.);
#716=ORIENTED_EDGE('',*,*,#543,.T.);
#717=ORIENTED_EDGE('',*,*,#544,.T.);
#718=ORIENTED_EDGE('',*,*,#541,.F.);
#719=ORIENTED_EDGE('',*,*,#518,.F.);
#720=ORIENTED_EDGE('',*,*,#545,.T.);
#721=ORIENTED_EDGE('',*,*,#546,.T.);
#722=ORIENTED_EDGE('',*,*,#543,.F.);
#723=ORIENTED_EDGE('',*,*,#517,.F.);
#724=ORIENTED_EDGE('',*,*,#547,.T.);
#725=ORIENTED_EDGE('',*,*,#548,.T.);
#726=ORIENTED_EDGE('',*,*,#545,.F.);
#727=ORIENTED_EDGE('',*,*,#516,.F.);
#728=ORIENTED_EDGE('',*,*,#549,.T.);
#729=ORIENTED_EDGE('',*,*,#550,.T.);
#730=ORIENTED_EDGE('',*,*,#547,.F.);
#731=ORIENTED_EDGE('',*,*,#515,.F.);
#732=ORIENTED_EDGE('',*,*,#531,.T.);
#733=ORIENTED_EDGE('',*,*,#551,.T.);
#734=ORIENTED_EDGE('',*,*,#549,.F.);
#735=ORIENTED_EDGE('',*,*,#551,.F.);
#736=ORIENTED_EDGE('',*,*,#530,.F.);
#737=ORIENTED_EDGE('',*,*,#533,.F.);
#738=ORIENTED_EDGE('',*,*,#535,.F.);
#739=ORIENTED_EDGE('',*,*,#537,.F.);
#740=ORIENTED_EDGE('',*,*,#538,.F.);
#741=ORIENTED_EDGE('',*,*,#497,.F.);
#742=ORIENTED_EDGE('',*,*,#502,.F.);
#743=ORIENTED_EDGE('',*,*,#540,.F.);
#744=ORIENTED_EDGE('',*,*,#542,.F.);
#745=ORIENTED_EDGE('',*,*,#544,.F.);
#746=ORIENTED_EDGE('',*,*,#546,.F.);
#747=ORIENTED_EDGE('',*,*,#548,.F.);
#748=ORIENTED_EDGE('',*,*,#550,.F.);
#749=ORIENTED_EDGE('',*,*,#528,.F.);
#750=ORIENTED_EDGE('',*,*,#525,.F.);
#751=ORIENTED_EDGE('',*,*,#526,.T.);
#752=ORIENTED_EDGE('',*,*,#552,.T.);
#753=ORIENTED_EDGE('',*,*,#483,.F.);
#754=ORIENTED_EDGE('',*,*,#472,.T.);
#755=ORIENTED_EDGE('',*,*,#553,.T.);
#756=ORIENTED_EDGE('',*,*,#553,.F.);
#757=ORIENTED_EDGE('',*,*,#471,.T.);
#758=ORIENTED_EDGE('',*,*,#495,.F.);
#759=ORIENTED_EDGE('',*,*,#554,.T.);
#760=ORIENTED_EDGE('',*,*,#555,.T.);
#761=ORIENTED_EDGE('',*,*,#555,.F.);
#762=ORIENTED_EDGE('',*,*,#522,.F.);
#763=ORIENTED_EDGE('',*,*,#556,.T.);
#764=ORIENTED_EDGE('',*,*,#554,.F.);
#765=ORIENTED_EDGE('',*,*,#556,.F.);
#766=ORIENTED_EDGE('',*,*,#557,.T.);
#767=ORIENTED_EDGE('',*,*,#558,.T.);
#768=ORIENTED_EDGE('',*,*,#558,.F.);
#769=ORIENTED_EDGE('',*,*,#521,.F.);
#770=ORIENTED_EDGE('',*,*,#559,.T.);
#771=ORIENTED_EDGE('',*,*,#557,.F.);
#772=ORIENTED_EDGE('',*,*,#559,.F.);
#773=ORIENTED_EDGE('',*,*,#560,.T.);
#774=ORIENTED_EDGE('',*,*,#561,.T.);
#775=ORIENTED_EDGE('',*,*,#561,.F.);
#776=ORIENTED_EDGE('',*,*,#552,.F.);
#777=ORIENTED_EDGE('',*,*,#562,.T.);
#778=ORIENTED_EDGE('',*,*,#560,.F.);
#779=ORIENTED_EDGE('',*,*,#562,.F.);
#780=ORIENTED_EDGE('',*,*,#563,.T.);
#781=ORIENTED_EDGE('',*,*,#564,.T.);
#782=ORIENTED_EDGE('',*,*,#564,.F.);
#783=ORIENTED_EDGE('',*,*,#565,.F.);
#784=ORIENTED_EDGE('',*,*,#566,.T.);
#785=ORIENTED_EDGE('',*,*,#563,.F.);
#786=ORIENTED_EDGE('',*,*,#566,.F.);
#787=ORIENTED_EDGE('',*,*,#490,.F.);
#788=ORIENTED_EDGE('',*,*,#567,.T.);
#789=ORIENTED_EDGE('',*,*,#568,.T.);
#790=ORIENTED_EDGE('',*,*,#568,.F.);
#791=ORIENTED_EDGE('',*,*,#569,.T.);
#792=ORIENTED_EDGE('',*,*,#489,.F.);
#793=ORIENTED_EDGE('',*,*,#509,.F.);
#794=ORIENTED_EDGE('',*,*,#491,.F.);
#795=ORIENTED_EDGE('',*,*,#569,.F.);
#796=ORIENTED_EDGE('',*,*,#567,.F.);
#797=ORIENTED_EDGE('',*,*,#487,.F.);
#798=ORIENTED_EDGE('',*,*,#469,.T.);
#799=ORIENTED_EDGE('',*,*,#570,.T.);
#800=ORIENTED_EDGE('',*,*,#570,.F.);
#801=ORIENTED_EDGE('',*,*,#468,.T.);
#802=ORIENTED_EDGE('',*,*,#571,.F.);
#803=ORIENTED_EDGE('',*,*,#572,.F.);
#804=ORIENTED_EDGE('',*,*,#573,.F.);
#805=ORIENTED_EDGE('',*,*,#504,.T.);
#806=ORIENTED_EDGE('',*,*,#574,.T.);
#807=ORIENTED_EDGE('',*,*,#572,.T.);
#808=ORIENTED_EDGE('',*,*,#575,.T.);
#809=ORIENTED_EDGE('',*,*,#576,.T.);
#810=ORIENTED_EDGE('',*,*,#573,.T.);
#811=ORIENTED_EDGE('',*,*,#577,.T.);
#812=ORIENTED_EDGE('',*,*,#485,.F.);
#813=ORIENTED_EDGE('',*,*,#493,.T.);
#814=ORIENTED_EDGE('',*,*,#508,.T.);
#815=ORIENTED_EDGE('',*,*,#578,.T.);
#816=ORIENTED_EDGE('',*,*,#579,.T.);
#817=ORIENTED_EDGE('',*,*,#580,.T.);
#818=ORIENTED_EDGE('',*,*,#581,.T.);
#819=ORIENTED_EDGE('',*,*,#582,.T.);
#820=ORIENTED_EDGE('',*,*,#579,.F.);
#821=ORIENTED_EDGE('',*,*,#583,.T.);
#822=ORIENTED_EDGE('',*,*,#584,.T.);
#823=ORIENTED_EDGE('',*,*,#581,.F.);
#824=ORIENTED_EDGE('',*,*,#585,.T.);
#825=ORIENTED_EDGE('',*,*,#571,.T.);
#826=ORIENTED_EDGE('',*,*,#586,.T.);
#827=ORIENTED_EDGE('',*,*,#583,.F.);
#828=ORIENTED_EDGE('',*,*,#587,.T.);
#829=ORIENTED_EDGE('',*,*,#575,.F.);
#830=ORIENTED_EDGE('',*,*,#587,.F.);
#831=ORIENTED_EDGE('',*,*,#588,.F.);
#832=ORIENTED_EDGE('',*,*,#505,.T.);
#833=ORIENTED_EDGE('',*,*,#585,.F.);
#834=ORIENTED_EDGE('',*,*,#589,.F.);
#835=ORIENTED_EDGE('',*,*,#506,.T.);
#836=ORIENTED_EDGE('',*,*,#588,.T.);
#837=ORIENTED_EDGE('',*,*,#580,.F.);
#838=ORIENTED_EDGE('',*,*,#578,.F.);
#839=ORIENTED_EDGE('',*,*,#507,.T.);
#840=ORIENTED_EDGE('',*,*,#589,.T.);
#841=ORIENTED_EDGE('',*,*,#523,.T.);
#842=ORIENTED_EDGE('',*,*,#565,.T.);
#843=ORIENTED_EDGE('',*,*,#458,.T.);
#844=ORIENTED_EDGE('',*,*,#486,.F.);
#845=ORIENTED_EDGE('',*,*,#577,.F.);
#846=ORIENTED_EDGE('',*,*,#574,.F.);
#847=ORIENTED_EDGE('',*,*,#503,.T.);
#848=ORIENTED_EDGE('',*,*,#480,.T.);
#849=ORIENTED_EDGE('',*,*,#576,.F.);
#850=ORIENTED_EDGE('',*,*,#494,.T.);
#851=ORIENTED_EDGE('',*,*,#582,.F.);
#852=ORIENTED_EDGE('',*,*,#584,.F.);
#853=ORIENTED_EDGE('',*,*,#586,.F.);
#854=PLANE('',#948);
#855=PLANE('',#957);
#856=PLANE('',#958);
#857=PLANE('',#959);
#858=PLANE('',#962);
#859=PLANE('',#963);
#860=PLANE('',#967);
#861=PLANE('',#968);
#862=PLANE('',#992);
#863=PLANE('',#997);
#864=PLANE('',#1000);
#865=PLANE('',#1003);
#866=PLANE('',#1006);
#867=PLANE('',#1007);
#868=PLANE('',#1008);
#869=PLANE('',#1043);
#870=PLANE('',#1045);
#871=PLANE('',#1046);
#872=PLANE('',#1047);
#873=PLANE('',#1048);
#874=ADVANCED_FACE('',(#58),#854,.F.);
#875=ADVANCED_FACE('',(#59),#855,.F.);
#876=ADVANCED_FACE('',(#60),#856,.F.);
#877=ADVANCED_FACE('',(#61),#857,.F.);
#878=ADVANCED_FACE('',(#62),#36,.T.);
#879=ADVANCED_FACE('',(#63),#858,.T.);
#880=ADVANCED_FACE('',(#64),#859,.F.);
#881=ADVANCED_FACE('',(#65),#37,.T.);
#882=ADVANCED_FACE('',(#66),#860,.F.);
#883=ADVANCED_FACE('',(#67,#24,#25),#861,.F.);
#884=ADVANCED_FACE('',(#68),#38,.T.);
#885=ADVANCED_FACE('',(#69),#39,.T.);
#886=ADVANCED_FACE('',(#70),#40,.T.);
#887=ADVANCED_FACE('',(#71),#41,.F.);
#888=ADVANCED_FACE('',(#72),#862,.F.);
#889=ADVANCED_FACE('',(#73),#42,.F.);
#890=ADVANCED_FACE('',(#74),#43,.T.);
#891=ADVANCED_FACE('',(#75),#863,.F.);
#892=ADVANCED_FACE('',(#76),#44,.T.);
#893=ADVANCED_FACE('',(#77),#864,.F.);
#894=ADVANCED_FACE('',(#78),#45,.T.);
#895=ADVANCED_FACE('',(#79),#865,.F.);
#896=ADVANCED_FACE('',(#80),#46,.F.);
#897=ADVANCED_FACE('',(#81),#866,.F.);
#898=ADVANCED_FACE('',(#82,#26,#27),#867,.T.);
#899=ADVANCED_FACE('',(#83,#28),#868,.F.);
#900=ADVANCED_FACE('',(#84),#17,.F.);
#901=ADVANCED_FACE('',(#85),#18,.F.);
#902=ADVANCED_FACE('',(#86),#47,.F.);
#903=ADVANCED_FACE('',(#87),#19,.F.);
#904=ADVANCED_FACE('',(#88),#48,.F.);
#905=ADVANCED_FACE('',(#89),#20,.F.);
#906=ADVANCED_FACE('',(#90),#49,.F.);
#907=ADVANCED_FACE('',(#91),#21,.F.);
#908=ADVANCED_FACE('',(#92),#50,.F.);
#909=ADVANCED_FACE('',(#93),#22,.F.);
#910=ADVANCED_FACE('',(#94),#51,.F.);
#911=ADVANCED_FACE('',(#95),#23,.F.);
#912=ADVANCED_FACE('',(#96),#16,.T.);
#913=ADVANCED_FACE('',(#97),#52,.T.);
#914=ADVANCED_FACE('',(#98),#53,.T.);
#915=ADVANCED_FACE('',(#99),#54,.T.);
#916=ADVANCED_FACE('',(#100),#55,.T.);
#917=ADVANCED_FACE('',(#101),#15,.F.);
#918=ADVANCED_FACE('',(#102),#56,.T.);
#919=ADVANCED_FACE('',(#103),#869,.T.);
#920=ADVANCED_FACE('',(#104),#57,.T.);
#921=ADVANCED_FACE('',(#105),#870,.T.);
#922=ADVANCED_FACE('',(#106,#29),#871,.F.);
#923=ADVANCED_FACE('',(#107),#872,.T.);
#924=ADVANCED_FACE('',(#108),#873,.T.);
#925=CLOSED_SHELL('',(#874,#875,#876,#877,#878,#879,#880,#881,#882,#883,
#884,#885,#886,#887,#888,#889,#890,#891,#892,#893,#894,#895,#896,#897,#898,
#899,#900,#901,#902,#903,#904,#905,#906,#907,#908,#909,#910,#911,#912,#913,
#914,#915,#916,#917,#918,#919,#920,#921,#922,#923,#924));
#926=DERIVED_UNIT_ELEMENT(#929,1.);
#927=DERIVED_UNIT_ELEMENT(#1629,-3.);
#928=DIMENSIONAL_EXPONENTS(0.,1.,0.,0.,0.,0.,0.);
#929=(
CONVERSION_BASED_UNIT('gram',#931)
MASS_UNIT()
NAMED_UNIT(#928)
);
#930=(
MASS_UNIT()
NAMED_UNIT(*)
SI_UNIT(.KILO.,.GRAM.)
);
#931=MASS_MEASURE_WITH_UNIT(MASS_MEASURE(0.001),#930);
#932=DERIVED_UNIT((#926,#927));
#933=MEASURE_REPRESENTATION_ITEM('density measure',
POSITIVE_RATIO_MEASURE(1.),#932);
#934=PROPERTY_DEFINITION_REPRESENTATION(#939,#936);
#935=PROPERTY_DEFINITION_REPRESENTATION(#940,#937);
#936=REPRESENTATION('material name',(#938),#1626);
#937=REPRESENTATION('density',(#933),#1626);
#938=DESCRIPTIVE_REPRESENTATION_ITEM('Generic','Generic');
#939=PROPERTY_DEFINITION('material property','material name',#1636);
#940=PROPERTY_DEFINITION('material property','density of part',#1636);
#941=DATE_TIME_ROLE('creation_date');
#942=APPLIED_DATE_AND_TIME_ASSIGNMENT(#943,#941,(#1636));
#943=DATE_AND_TIME(#944,#945);
#944=CALENDAR_DATE(2024,29,8);
#945=LOCAL_TIME(0,0,0.,#946);
#946=COORDINATED_UNIVERSAL_TIME_OFFSET(0,0,.BEHIND.);
#947=AXIS2_PLACEMENT_3D('',#1330,#1049,#1050);
#948=AXIS2_PLACEMENT_3D('',#1331,#1051,#1052);
#949=AXIS2_PLACEMENT_3D('',#1338,#1055,#1056);
#950=AXIS2_PLACEMENT_3D('',#1342,#1058,#1059);
#951=AXIS2_PLACEMENT_3D('',#1346,#1061,#1062);
#952=AXIS2_PLACEMENT_3D('',#1354,#1066,#1067);
#953=AXIS2_PLACEMENT_3D('',#1356,#1068,#1069);
#954=AXIS2_PLACEMENT_3D('',#1360,#1071,#1072);
#955=AXIS2_PLACEMENT_3D('',#1362,#1073,#1074);
#956=AXIS2_PLACEMENT_3D('',#1363,#1075,#1076);
#957=AXIS2_PLACEMENT_3D('',#1364,#1077,#1078);
#958=AXIS2_PLACEMENT_3D('',#1370,#1082,#1083);
#959=AXIS2_PLACEMENT_3D('',#1376,#1087,#1088);
#960=AXIS2_PLACEMENT_3D('',#1382,#1092,#1093);
#961=AXIS2_PLACEMENT_3D('',#1395,#1095,#1096);
#962=AXIS2_PLACEMENT_3D('',#1397,#1098,#1099);
#963=AXIS2_PLACEMENT_3D('',#1419,#1106,#1107);
#964=AXIS2_PLACEMENT_3D('',#1427,#1112,#1113);
#965=AXIS2_PLACEMENT_3D('',#1428,#1114,#1115);
#966=AXIS2_PLACEMENT_3D('',#1431,#1117,#1118);
#967=AXIS2_PLACEMENT_3D('',#1432,#1119,#1120);
#968=AXIS2_PLACEMENT_3D('',#1433,#1121,#1122);
#969=AXIS2_PLACEMENT_3D('',#1437,#1124,#1125);
#970=AXIS2_PLACEMENT_3D('',#1441,#1127,#1128);
#971=AXIS2_PLACEMENT_3D('',#1444,#1130,#1131);
#972=AXIS2_PLACEMENT_3D('',#1445,#1132,#1133);
#973=AXIS2_PLACEMENT_3D('',#1447,#1134,#1135);
#974=AXIS2_PLACEMENT_3D('',#1449,#1136,#1137);
#975=AXIS2_PLACEMENT_3D('',#1453,#1139,#1140);
#976=AXIS2_PLACEMENT_3D('',#1455,#1141,#1142);
#977=AXIS2_PLACEMENT_3D('',#1459,#1144,#1145);
#978=AXIS2_PLACEMENT_3D('',#1463,#1147,#1148);
#979=AXIS2_PLACEMENT_3D('',#1466,#1150,#1151);
#980=AXIS2_PLACEMENT_3D('',#1468,#1152,#1153);
#981=AXIS2_PLACEMENT_3D('',#1470,#1154,#1155);
#982=AXIS2_PLACEMENT_3D('',#1471,#1156,#1157);
#983=AXIS2_PLACEMENT_3D('',#1473,#1158,#1159);
#984=AXIS2_PLACEMENT_3D('',#1476,#1161,#1162);
#985=AXIS2_PLACEMENT_3D('',#1477,#1163,#1164);
#986=AXIS2_PLACEMENT_3D('',#1479,#1165,#1166);
#987=AXIS2_PLACEMENT_3D('',#1482,#1168,#1169);
#988=AXIS2_PLACEMENT_3D('',#1483,#1170,#1171);
#989=AXIS2_PLACEMENT_3D('',#1487,#1173,#1174);
#990=AXIS2_PLACEMENT_3D('',#1489,#1176,#1177);
#991=AXIS2_PLACEMENT_3D('',#1492,#1179,#1180);
#992=AXIS2_PLACEMENT_3D('',#1493,#1181,#1182);
#993=AXIS2_PLACEMENT_3D('',#1497,#1185,#1186);
#994=AXIS2_PLACEMENT_3D('',#1500,#1188,#1189);
#995=AXIS2_PLACEMENT_3D('',#1501,#1190,#1191);
#996=AXIS2_PLACEMENT_3D('',#1502,#1192,#1193);
#997=AXIS2_PLACEMENT_3D('',#1503,#1194,#1195);
#998=AXIS2_PLACEMENT_3D('',#1507,#1198,#1199);
#999=AXIS2_PLACEMENT_3D('',#1510,#1201,#1202);
#1000=AXIS2_PLACEMENT_3D('',#1511,#1203,#1204);
#1001=AXIS2_PLACEMENT_3D('',#1515,#1207,#1208);
#1002=AXIS2_PLACEMENT_3D('',#1518,#1210,#1211);
#1003=AXIS2_PLACEMENT_3D('',#1519,#1212,#1213);
#1004=AXIS2_PLACEMENT_3D('',#1523,#1216,#1217);
#1005=AXIS2_PLACEMENT_3D('',#1526,#1219,#1220);
#1006=AXIS2_PLACEMENT_3D('',#1527,#1221,#1222);
#1007=AXIS2_PLACEMENT_3D('',#1529,#1224,#1225);
#1008=AXIS2_PLACEMENT_3D('',#1530,#1226,#1227);
#1009=AXIS2_PLACEMENT_3D('',#1532,#1228,#1229);
#1010=AXIS2_PLACEMENT_3D('',#1533,#1230,#1231);
#1011=AXIS2_PLACEMENT_3D('',#1536,#1233,#1234);
#1012=AXIS2_PLACEMENT_3D('',#1538,#1235,#1236);
#1013=AXIS2_PLACEMENT_3D('',#1541,#1238,#1239);
#1014=AXIS2_PLACEMENT_3D('',#1543,#1241,#1242);
#1015=AXIS2_PLACEMENT_3D('',#1545,#1243,#1244);
#1016=AXIS2_PLACEMENT_3D('',#1548,#1246,#1247);
#1017=AXIS2_PLACEMENT_3D('',#1550,#1249,#1250);
#1018=AXIS2_PLACEMENT_3D('',#1552,#1251,#1252);
#1019=AXIS2_PLACEMENT_3D('',#1555,#1254,#1255);
#1020=AXIS2_PLACEMENT_3D('',#1557,#1257,#1258);
#1021=AXIS2_PLACEMENT_3D('',#1559,#1259,#1260);
#1022=AXIS2_PLACEMENT_3D('',#1562,#1262,#1263);
#1023=AXIS2_PLACEMENT_3D('',#1564,#1264,#1265);
#1024=AXIS2_PLACEMENT_3D('',#1566,#1267,#1268);
#1025=AXIS2_PLACEMENT_3D('',#1568,#1269,#1270);
#1026=AXIS2_PLACEMENT_3D('',#1571,#1272,#1273);
#1027=AXIS2_PLACEMENT_3D('',#1572,#1274,#1275);
#1028=AXIS2_PLACEMENT_3D('',#1573,#1276,#1277);
#1029=AXIS2_PLACEMENT_3D('',#1576,#1279,#1280);
#1030=AXIS2_PLACEMENT_3D('',#1579,#1281,#1282);
#1031=AXIS2_PLACEMENT_3D('',#1581,#1283,#1284);
#1032=AXIS2_PLACEMENT_3D('',#1582,#1285,#1286);
#1033=AXIS2_PLACEMENT_3D('',#1583,#1287,#1288);
#1034=AXIS2_PLACEMENT_3D('',#1586,#1291,#1292);
#1035=AXIS2_PLACEMENT_3D('',#1589,#1295,#1296);
#1036=AXIS2_PLACEMENT_3D('',#1592,#1298,#1299);
#1037=AXIS2_PLACEMENT_3D('',#1593,#1300,#1301);
#1038=AXIS2_PLACEMENT_3D('',#1597,#1303,#1304);
#1039=AXIS2_PLACEMENT_3D('',#1610,#1306,#1307);
#1040=AXIS2_PLACEMENT_3D('',#1611,#1308,#1309);
#1041=AXIS2_PLACEMENT_3D('',#1612,#1310,#1311);
#1042=AXIS2_PLACEMENT_3D('',#1613,#1312,#1313);
#1043=AXIS2_PLACEMENT_3D('',#1616,#1316,#1317);
#1044=AXIS2_PLACEMENT_3D('',#1618,#1319,#1320);
#1045=AXIS2_PLACEMENT_3D('',#1620,#1322,#1323);
#1046=AXIS2_PLACEMENT_3D('',#1621,#1324,#1325);
#1047=AXIS2_PLACEMENT_3D('',#1622,#1326,#1327);
#1048=AXIS2_PLACEMENT_3D('',#1623,#1328,#1329);
#1049=DIRECTION('axis',(0.,0.,1.));
#1050=DIRECTION('refdir',(1.,0.,0.));
#1051=DIRECTION('center_axis',(0.,0.,1.));
#1052=DIRECTION('ref_axis',(1.,1.73472347597681E-16,0.));
#1053=DIRECTION('',(6.93889390390723E-17,-1.,0.));
#1054=DIRECTION('',(1.,1.73472347597681E-16,0.));
#1055=DIRECTION('center_axis',(0.,0.,1.));
#1056=DIRECTION('ref_axis',(0.308441018350594,-0.951243469464495,0.));
#1057=DIRECTION('',(-1.,-1.73809733077967E-16,0.));
#1058=DIRECTION('center_axis',(0.,0.,1.));
#1059=DIRECTION('ref_axis',(0.999999836096989,0.000572543444518921,0.));
#1060=DIRECTION('',(1.,1.73472347597681E-16,0.));
#1061=DIRECTION('center_axis',(0.,0.,1.));
#1062=DIRECTION('ref_axis',(0.999999836096989,0.000572543444518921,0.));
#1063=DIRECTION('',(-1.,-1.94216771588221E-16,0.));
#1064=DIRECTION('',(0.,1.,0.));
#1065=DIRECTION('',(1.,1.73472347597681E-16,0.));
#1066=DIRECTION('center_axis',(0.,0.,-1.));
#1067=DIRECTION('ref_axis',(-1.,0.,0.));
#1068=DIRECTION('center_axis',(0.,0.,-1.));
#1069=DIRECTION('ref_axis',(-1.,0.,0.));
#1070=DIRECTION('',(1.,1.73472347597681E-16,0.));
#1071=DIRECTION('center_axis',(0.,0.,-1.));
#1072=DIRECTION('ref_axis',(-1.,0.,0.));
#1073=DIRECTION('center_axis',(0.,0.,-1.));
#1074=DIRECTION('ref_axis',(-1.,0.,0.));
#1075=DIRECTION('center_axis',(0.,0.,1.));
#1076=DIRECTION('ref_axis',(-0.707106781186547,-0.707106781186548,0.));
#1077=DIRECTION('center_axis',(0.,1.,0.));
#1078=DIRECTION('ref_axis',(0.,0.,1.));
#1079=DIRECTION('',(0.,0.,-1.));
#1080=DIRECTION('',(0.,0.,1.));
#1081=DIRECTION('',(-1.,0.,0.));
#1082=DIRECTION('center_axis',(1.,0.,0.));
#1083=DIRECTION('ref_axis',(0.,0.,-1.));
#1084=DIRECTION('',(0.,0.,1.));
#1085=DIRECTION('',(0.,1.,0.));
#1086=DIRECTION('',(0.,0.,-1.));
#1087=DIRECTION('center_axis',(0.,1.,0.));
#1088=DIRECTION('ref_axis',(0.,0.,1.));
#1089=DIRECTION('',(0.,0.,1.));
#1090=DIRECTION('',(-1.,0.,0.));
#1091=DIRECTION('',(0.,0.,-1.));
#1092=DIRECTION('center_axis',(0.,0.,1.));
#1093=DIRECTION('ref_axis',(-0.707106781186547,-0.707106781186548,0.));
#1094=DIRECTION('',(0.,0.,1.));
#1095=DIRECTION('center_axis',(5.23364152894592E-16,-0.707106781186548,
-0.707106781186548));
#1096=DIRECTION('ref_axis',(-5.23364152894592E-16,0.707106781186547,-0.707106781186547));
#1097=DIRECTION('',(0.,0.,-1.));
#1098=DIRECTION('center_axis',(1.73472347597681E-16,-1.,0.));
#1099=DIRECTION('ref_axis',(1.,1.73472347597681E-16,0.));
#1100=DIRECTION('',(1.,1.73472347597681E-16,0.));
#1101=DIRECTION('',(0.,0.,1.));
#1102=DIRECTION('',(0.,0.,-1.));
#1103=DIRECTION('',(1.,1.73472347597681E-16,0.));
#1104=DIRECTION('',(0.,0.,-1.));
#1105=DIRECTION('',(1.,1.73472347597681E-16,0.));
#1106=DIRECTION('center_axis',(1.94216771588221E-16,-1.,0.));
#1107=DIRECTION('ref_axis',(1.,1.94216771588221E-16,0.));
#1108=DIRECTION('',(0.,0.,1.));
#1109=DIRECTION('',(1.,1.94216771588221E-16,0.));
#1110=DIRECTION('',(0.,0.,1.));
#1111=DIRECTION('',(1.,1.94216771588221E-16,0.));
#1112=DIRECTION('center_axis',(0.,0.,1.));
#1113=DIRECTION('ref_axis',(0.999999836096989,0.000572543444518921,0.));
#1114=DIRECTION('center_axis',(0.,0.,-1.));
#1115=DIRECTION('ref_axis',(0.999999836096989,0.000572543444518921,0.));
#1116=DIRECTION('',(0.,0.,1.));
#1117=DIRECTION('center_axis',(0.,0.,-1.));
#1118=DIRECTION('ref_axis',(0.999999836096989,0.000572543444518921,0.));
#1119=DIRECTION('center_axis',(0.,0.,1.));
#1120=DIRECTION('ref_axis',(1.,0.,0.));
#1121=DIRECTION('center_axis',(0.,0.,1.));
#1122=DIRECTION('ref_axis',(1.,0.,0.));
#1123=DIRECTION('',(6.93889390390723E-17,-1.,0.));
#1124=DIRECTION('center_axis',(0.,0.,1.));
#1125=DIRECTION('ref_axis',(-0.707106781186547,0.707106781186547,0.));
#1126=DIRECTION('',(-1.,0.,0.));
#1127=DIRECTION('center_axis',(0.,0.,1.));
#1128=DIRECTION('ref_axis',(1.,0.,0.));
#1129=DIRECTION('',(-3.38999396832109E-16,1.,0.));
#1130=DIRECTION('center_axis',(0.,0.,1.));
#1131=DIRECTION('ref_axis',(0.707106781186548,-0.707106781186547,0.));
#1132=DIRECTION('center_axis',(0.,0.,1.));
#1133=DIRECTION('ref_axis',(-1.,0.,0.));
#1134=DIRECTION('center_axis',(0.,0.,-1.));
#1135=DIRECTION('ref_axis',(0.999999836096989,0.000572543444518066,0.));
#1136=DIRECTION('center_axis',(0.,0.,1.));
#1137=DIRECTION('ref_axis',(1.,0.,0.));
#1138=DIRECTION('',(0.,1.,0.));
#1139=DIRECTION('center_axis',(0.,0.,1.));
#1140=DIRECTION('ref_axis',(0.,1.,0.));
#1141=DIRECTION('center_axis',(0.,0.,-1.));
#1142=DIRECTION('ref_axis',(1.,0.,0.));
#1143=DIRECTION('',(-1.,-6.16790569236198E-17,0.));
#1144=DIRECTION('center_axis',(0.,0.,1.));
#1145=DIRECTION('ref_axis',(-1.,0.,0.));
#1146=DIRECTION('',(-1.81927515933943E-16,-1.,0.));
#1147=DIRECTION('center_axis',(0.,0.,-1.));
#1148=DIRECTION('ref_axis',(1.,0.,0.));
#1149=DIRECTION('',(-1.81927515933943E-16,-1.,0.));
#1150=DIRECTION('center_axis',(0.,0.,-1.));
#1151=DIRECTION('ref_axis',(0.308441018350594,-0.951243469464495,0.));
#1152=DIRECTION('center_axis',(0.,0.,1.));
#1153=DIRECTION('ref_axis',(-1.,0.,0.));
#1154=DIRECTION('center_axis',(0.,0.,1.));
#1155=DIRECTION('ref_axis',(-1.,0.,0.));
#1156=DIRECTION('center_axis',(0.,0.,1.));
#1157=DIRECTION('ref_axis',(1.,0.,0.));
#1158=DIRECTION('center_axis',(0.,0.,-1.));
#1159=DIRECTION('ref_axis',(1.,0.,0.));
#1160=DIRECTION('',(0.,0.,1.));
#1161=DIRECTION('center_axis',(0.,0.,-1.));
#1162=DIRECTION('ref_axis',(1.,0.,0.));
#1163=DIRECTION('center_axis',(0.,0.,1.));
#1164=DIRECTION('ref_axis',(1.,0.,0.));
#1165=DIRECTION('center_axis',(0.,0.,-1.));
#1166=DIRECTION('ref_axis',(1.,0.,0.));
#1167=DIRECTION('',(0.,0.,1.));
#1168=DIRECTION('center_axis',(0.,0.,-1.));
#1169=DIRECTION('ref_axis',(1.,0.,0.));
#1170=DIRECTION('center_axis',(0.,0.,1.));
#1171=DIRECTION('ref_axis',(-0.223649948938947,-0.974669533913729,0.));
#1172=DIRECTION('',(0.,0.,1.));
#1173=DIRECTION('center_axis',(0.,0.,-1.));
#1174=DIRECTION('ref_axis',(1.,0.,0.));
#1175=DIRECTION('',(0.,0.,1.));
#1176=DIRECTION('center_axis',(0.,0.,1.));
#1177=DIRECTION('ref_axis',(0.,1.,0.));
#1178=DIRECTION('',(0.,0.,1.));
#1179=DIRECTION('center_axis',(0.,0.,1.));
#1180=DIRECTION('ref_axis',(0.,1.,0.));
#1181=DIRECTION('center_axis',(1.,0.,0.));
#1182=DIRECTION('ref_axis',(0.,1.,0.));
#1183=DIRECTION('',(0.,0.,1.));
#1184=DIRECTION('',(0.,1.,0.));
#1185=DIRECTION('center_axis',(0.,0.,1.));
#1186=DIRECTION('ref_axis',(1.,0.,0.));
#1187=DIRECTION('',(0.,0.,1.));
#1188=DIRECTION('center_axis',(0.,0.,1.));
#1189=DIRECTION('ref_axis',(1.,0.,0.));
#1190=DIRECTION('center_axis',(0.,0.,1.));
#1191=DIRECTION('ref_axis',(0.999999836096989,0.000572543444518066,0.));
#1192=DIRECTION('center_axis',(0.,0.,-1.));
#1193=DIRECTION('ref_axis',(0.999999836096989,0.000572543444518066,0.));
#1194=DIRECTION('center_axis',(1.73809733077967E-16,-1.,0.));
#1195=DIRECTION('ref_axis',(1.,1.73809733077967E-16,0.));
#1196=DIRECTION('',(0.,0.,1.));
#1197=DIRECTION('',(1.,1.73809733077967E-16,0.));
#1198=DIRECTION('center_axis',(0.,0.,1.));
#1199=DIRECTION('ref_axis',(0.308441018350594,-0.951243469464495,0.));
#1200=DIRECTION('',(0.,0.,1.));
#1201=DIRECTION('center_axis',(0.,0.,-1.));
#1202=DIRECTION('ref_axis',(0.308441018350594,-0.951243469464495,0.));
#1203=DIRECTION('center_axis',(-1.,1.81927515933943E-16,0.));
#1204=DIRECTION('ref_axis',(-1.81927515933943E-16,-1.,0.));
#1205=DIRECTION('',(0.,0.,1.));
#1206=DIRECTION('',(-1.81927515933943E-16,-1.,0.));
#1207=DIRECTION('center_axis',(0.,0.,1.));
#1208=DIRECTION('ref_axis',(1.,0.,0.));
#1209=DIRECTION('',(0.,0.,1.));
#1210=DIRECTION('center_axis',(0.,0.,-1.));
#1211=DIRECTION('ref_axis',(1.,0.,0.));
#1212=DIRECTION('center_axis',(-1.,1.81927515933943E-16,0.));
#1213=DIRECTION('ref_axis',(-1.81927515933943E-16,-1.,0.));
#1214=DIRECTION('',(0.,0.,1.));
#1215=DIRECTION('',(-1.81927515933943E-16,-1.,0.));
#1216=DIRECTION('center_axis',(0.,0.,1.));
#1217=DIRECTION('ref_axis',(-1.,0.,0.));
#1218=DIRECTION('',(0.,0.,1.));
#1219=DIRECTION('center_axis',(0.,0.,1.));
#1220=DIRECTION('ref_axis',(-1.,0.,0.));
#1221=DIRECTION('center_axis',(-6.16790569236198E-17,1.,0.));
#1222=DIRECTION('ref_axis',(-1.,-6.16790569236198E-17,0.));
#1223=DIRECTION('',(-1.,-6.16790569236198E-17,0.));
#1224=DIRECTION('center_axis',(0.,0.,-1.));
#1225=DIRECTION('ref_axis',(-1.,0.,0.));
#1226=DIRECTION('center_axis',(0.,0.,1.));
#1227=DIRECTION('ref_axis',(1.,0.,0.));
#1228=DIRECTION('center_axis',(0.,0.,1.));
#1229=DIRECTION('ref_axis',(-1.,0.,0.));
#1230=DIRECTION('center_axis',(0.,0.,-1.));
#1231=DIRECTION('ref_axis',(-1.,0.,0.));
#1232=DIRECTION('',(-0.857167300702112,1.04972719113862E-16,0.515038074910054));
#1233=DIRECTION('center_axis',(0.,0.,-1.));
#1234=DIRECTION('ref_axis',(-1.,0.,0.));
#1235=DIRECTION('center_axis',(0.,0.,-1.));
#1236=DIRECTION('ref_axis',(-1.,0.,0.));
#1237=DIRECTION('',(-0.857167300702112,1.04972719113862E-16,0.515038074910054));
#1238=DIRECTION('center_axis',(0.,0.,-1.));
#1239=DIRECTION('ref_axis',(-1.,0.,0.));
#1240=DIRECTION('',(0.,0.,1.));
#1241=DIRECTION('center_axis',(0.,0.,-1.));
#1242=DIRECTION('ref_axis',(-1.,0.,0.));
#1243=DIRECTION('center_axis',(0.,0.,-1.));
#1244=DIRECTION('ref_axis',(-1.,0.,0.));
#1245=DIRECTION('',(-0.857167300702112,1.04972719113862E-16,0.515038074910054));
#1246=DIRECTION('center_axis',(0.,0.,-1.));
#1247=DIRECTION('ref_axis',(-1.,0.,0.));
#1248=DIRECTION('',(0.,0.,1.));
#1249=DIRECTION('center_axis',(0.,0.,-1.));
#1250=DIRECTION('ref_axis',(-1.,0.,0.));
#1251=DIRECTION('center_axis',(0.,0.,-1.));
#1252=DIRECTION('ref_axis',(-1.,0.,0.));
#1253=DIRECTION('',(-0.857167300702112,1.04972719113862E-16,0.515038074910054));
#1254=DIRECTION('center_axis',(0.,0.,-1.));
#1255=DIRECTION('ref_axis',(-1.,0.,0.));
#1256=DIRECTION('',(0.,0.,1.));
#1257=DIRECTION('center_axis',(0.,0.,-1.));
#1258=DIRECTION('ref_axis',(-1.,0.,0.));
#1259=DIRECTION('center_axis',(0.,0.,-1.));
#1260=DIRECTION('ref_axis',(-1.,0.,0.));
#1261=DIRECTION('',(-0.857167300702112,1.04972719113862E-16,0.515038074910054));
#1262=DIRECTION('center_axis',(0.,0.,-1.));
#1263=DIRECTION('ref_axis',(-1.,0.,0.));
#1264=DIRECTION('center_axis',(0.,0.,1.));
#1265=DIRECTION('ref_axis',(-1.,0.,0.));
#1266=DIRECTION('',(0.,0.,1.));
#1267=DIRECTION('center_axis',(0.,0.,-1.));
#1268=DIRECTION('ref_axis',(-1.,0.,0.));
#1269=DIRECTION('center_axis',(0.,0.,-1.));
#1270=DIRECTION('ref_axis',(-1.,0.,0.));
#1271=DIRECTION('',(-0.857167300702112,1.04972719113862E-16,0.515038074910054));
#1272=DIRECTION('center_axis',(0.,0.,-1.));
#1273=DIRECTION('ref_axis',(-1.,0.,0.));
#1274=DIRECTION('center_axis',(0.,0.,-1.));
#1275=DIRECTION('ref_axis',(-6.12323399573677E-17,1.,0.));
#1276=DIRECTION('center_axis',(0.,0.,-1.));
#1277=DIRECTION('ref_axis',(-1.,0.,0.));
#1278=DIRECTION('',(-0.857167300702112,1.04972719113862E-16,0.515038074910054));
#1279=DIRECTION('center_axis',(-0.408248290463863,-0.816496580927726,0.408248290463863));
#1280=DIRECTION('ref_axis',(-0.577350269189626,0.577350269189625,0.577350269189626));
#1281=DIRECTION('center_axis',(-1.,0.,0.));
#1282=DIRECTION('ref_axis',(0.,1.,0.));
#1283=DIRECTION('center_axis',(0.,0.,1.));
#1284=DIRECTION('ref_axis',(-1.,0.,0.));
#1285=DIRECTION('center_axis',(0.,1.,0.));
#1286=DIRECTION('ref_axis',(0.,0.,1.));
#1287=DIRECTION('center_axis',(0.,0.,1.));
#1288=DIRECTION('ref_axis',(-0.707106781186547,0.707106781186547,0.));
#1289=DIRECTION('',(0.,0.,1.));
#1290=DIRECTION('',(0.,0.,-1.));
#1291=DIRECTION('center_axis',(6.93889390390723E-17,-1.,0.));
#1292=DIRECTION('ref_axis',(-0.707106781186547,0.,0.707106781186548));
#1293=DIRECTION('',(-6.93889390390723E-17,1.,0.));
#1294=DIRECTION('',(6.93889390390723E-17,-1.,0.));
#1295=DIRECTION('center_axis',(0.,0.,1.));
#1296=DIRECTION('ref_axis',(0.707106781186548,-0.707106781186547,0.));
#1297=DIRECTION('',(0.,0.,1.));
#1298=DIRECTION('center_axis',(1.30841038223648E-16,-0.707106781186548,
-0.707106781186548));
#1299=DIRECTION('ref_axis',(-1.30841038223648E-16,0.707106781186547,-0.707106781186547));
#1300=DIRECTION('center_axis',(-3.38999396832109E-16,1.,0.));
#1301=DIRECTION('ref_axis',(0.707106781186548,5.23364152894591E-16,0.707106781186547));
#1302=DIRECTION('',(-3.38999396832109E-16,1.,0.));
#1303=DIRECTION('center_axis',(0.,-1.,0.));
#1304=DIRECTION('ref_axis',(1.,0.,0.));
#1305=DIRECTION('',(3.38999396832109E-16,-1.,0.));
#1306=DIRECTION('center_axis',(1.,0.,0.));
#1307=DIRECTION('ref_axis',(0.,1.,0.));
#1308=DIRECTION('center_axis',(0.,0.,-1.));
#1309=DIRECTION('ref_axis',(0.707106781186548,0.707106781186548,0.));
#1310=DIRECTION('center_axis',(0.,0.,1.));
#1311=DIRECTION('ref_axis',(0.707106781186547,0.707106781186547,0.));
#1312=DIRECTION('center_axis',(-1.,0.,0.));
#1313=DIRECTION('ref_axis',(0.,0.707106781186547,0.707106781186548));
#1314=DIRECTION('',(1.,0.,0.));
#1315=DIRECTION('',(-1.,0.,0.));
#1316=DIRECTION('center_axis',(0.,1.,0.));
#1317=DIRECTION('ref_axis',(-1.,0.,0.));
#1318=DIRECTION('',(0.,0.,1.));
#1319=DIRECTION('center_axis',(0.,0.,1.));
#1320=DIRECTION('ref_axis',(1.,0.,0.));
#1321=DIRECTION('',(0.,0.,1.));
#1322=DIRECTION('center_axis',(1.,3.38999396832109E-16,0.));
#1323=DIRECTION('ref_axis',(-3.38999396832109E-16,1.,0.));
#1324=DIRECTION('center_axis',(0.,0.,1.));
#1325=DIRECTION('ref_axis',(1.,0.,0.));
#1326=DIRECTION('center_axis',(-1.,-6.93889390390723E-17,0.));
#1327=DIRECTION('ref_axis',(6.93889390390723E-17,-1.,0.));
#1328=DIRECTION('center_axis',(0.,0.,1.));
#1329=DIRECTION('ref_axis',(1.,0.,0.));
#1330=CARTESIAN_POINT('',(0.,0.,0.));
#1331=CARTESIAN_POINT('Origin',(-18.1,0.749999999999979,10.));
#1332=CARTESIAN_POINT('',(-16.1,4.74999999999998,10.));
#1333=CARTESIAN_POINT('',(-16.1,3.74999999999998,10.));
#1334=CARTESIAN_POINT('',(-16.1,16.75,10.));
#1335=CARTESIAN_POINT('',(-11.5262557054535,4.74999999999998,10.));
#1336=CARTESIAN_POINT('',(47.9,4.74999999999999,10.));
#1337=CARTESIAN_POINT('',(-10.3518602338146,2.24814029856516,10.));
#1338=CARTESIAN_POINT('Origin',(-13.5999999999998,2.24999999999999,10.));
#1339=CARTESIAN_POINT('',(39.1518602338148,2.24814029856517,10.));
#1340=CARTESIAN_POINT('',(-14.2259301169073,2.24814029856516,10.));
#1341=CARTESIAN_POINT('',(40.3262557054537,4.74999999999999,10.));
#1342=CARTESIAN_POINT('Origin',(42.4,2.24999999999999,10.));
#1343=CARTESIAN_POINT('',(44.4737442945463,4.74999999999999,10.));
#1344=CARTESIAN_POINT('',(47.9,4.74999999999999,10.));
#1345=CARTESIAN_POINT('',(45.6481397661852,2.24814029856517,10.));
#1346=CARTESIAN_POINT('Origin',(42.4,2.24999999999999,10.));
#1347=CARTESIAN_POINT('',(47.9,2.24814029856517,10.));
#1348=CARTESIAN_POINT('',(13.7740698830926,2.24814029856517,10.));
#1349=CARTESIAN_POINT('',(47.9,0.74999999999999,10.));
#1350=CARTESIAN_POINT('',(47.9,0.74999999999999,10.));
#1351=CARTESIAN_POINT('',(43.301387818866,0.749999999999989,10.));
#1352=CARTESIAN_POINT('',(-17.1,0.749999999999979,10.));
#1353=CARTESIAN_POINT('',(44.15,2.24999999999999,10.));
#1354=CARTESIAN_POINT('Origin',(42.4,2.24999999999999,10.));
#1355=CARTESIAN_POINT('',(41.498612181134,0.749999999999989,10.));
#1356=CARTESIAN_POINT('Origin',(42.4,2.24999999999999,10.));
#1357=CARTESIAN_POINT('',(-12.6986121811338,0.74999999999998,10.));
#1358=CARTESIAN_POINT('',(-17.1,0.749999999999979,10.));
#1359=CARTESIAN_POINT('',(-11.8499999999998,2.24999999999999,10.));
#1360=CARTESIAN_POINT('Origin',(-13.5999999999998,2.24999999999999,10.));
#1361=CARTESIAN_POINT('',(-15.2448162694494,1.65243875648286,10.));
#1362=CARTESIAN_POINT('Origin',(-13.5999999999998,2.24999999999999,10.));
#1363=CARTESIAN_POINT('Origin',(-13.1,3.74999999999998,10.));
#1364=CARTESIAN_POINT('Origin',(14.9,4.74999999999999,5.));
#1365=CARTESIAN_POINT('',(44.4737442945463,4.74999999999999,0.));
#1366=CARTESIAN_POINT('',(44.4737442945463,4.74999999999999,0.));
#1367=CARTESIAN_POINT('',(40.3262557054537,4.74999999999999,0.));
#1368=CARTESIAN_POINT('',(40.3262557054537,4.74999999999999,0.));
#1369=CARTESIAN_POINT('',(19.4,4.74999999999999,0.));
#1370=CARTESIAN_POINT('Origin',(47.9,0.74999999999999,10.));
#1371=CARTESIAN_POINT('',(47.9,2.24814029856517,0.));
#1372=CARTESIAN_POINT('',(47.9,2.24814029856517,5.));
#1373=CARTESIAN_POINT('',(47.9,0.74999999999999,0.));
#1374=CARTESIAN_POINT('',(47.9,8.74999999999999,0.));
#1375=CARTESIAN_POINT('',(47.9,0.74999999999999,5.));
#1376=CARTESIAN_POINT('Origin',(14.9,4.74999999999999,5.));
#1377=CARTESIAN_POINT('',(-16.1,4.74999999999998,0.));
#1378=CARTESIAN_POINT('',(-16.1,4.74999999999999,2.5));
#1379=CARTESIAN_POINT('',(-11.5262557054535,4.74999999999998,0.));
#1380=CARTESIAN_POINT('',(19.4,4.74999999999999,0.));
#1381=CARTESIAN_POINT('',(-11.5262557054535,4.74999999999999,0.));
#1382=CARTESIAN_POINT('Origin',(-13.1,3.74999999999998,0.));
#1383=CARTESIAN_POINT('',(-13.1,0.74999999999998,10.1014620270854));
#1384=CARTESIAN_POINT('Ctrl Pts',(-15.2448162694494,1.65243875648286,10.));
#1385=CARTESIAN_POINT('Ctrl Pts',(-15.1166032723477,1.52133730569639,10.0455094159483));
#1386=CARTESIAN_POINT('Ctrl Pts',(-14.974799568134,1.40058587829014,10.0864011345445));
#1387=CARTESIAN_POINT('Ctrl Pts',(-14.4569964564469,1.03747257991444,10.1970346242161));
#1388=CARTESIAN_POINT('Ctrl Pts',(-14.0263838415046,0.864032132009151,10.2187325721849));
#1389=CARTESIAN_POINT('Ctrl Pts',(-13.4414038297308,0.765152462832858,10.1593196729544));
#1390=CARTESIAN_POINT('Ctrl Pts',(-13.2714000273575,0.74999999999998,10.1340295425305));
#1391=CARTESIAN_POINT('Ctrl Pts',(-13.1,0.74999999999998,10.1014620270854));
#1392=CARTESIAN_POINT('',(-13.1,0.74999999999998,20.));
#1393=CARTESIAN_POINT('',(-13.1,0.74999999999998,0.));
#1394=CARTESIAN_POINT('',(-16.1,3.74999999999998,17.));
#1395=CARTESIAN_POINT('Origin',(-13.1,3.74999999999998,17.));
#1396=CARTESIAN_POINT('',(-16.1,3.74999999999998,0.));
#1397=CARTESIAN_POINT('Origin',(-16.1,0.749999999999979,0.));
#1398=CARTESIAN_POINT('Ctrl Pts',(41.498612181134,0.749999999999989,10.));
#1399=CARTESIAN_POINT('Ctrl Pts',(42.4,0.749999999999989,10.2789710016914));
#1400=CARTESIAN_POINT('Ctrl Pts',(43.301387818866,0.749999999999989,10.));
#1401=CARTESIAN_POINT('',(57.998612181134,0.749999999999992,0.));
#1402=CARTESIAN_POINT('',(-16.1,0.749999999999979,0.));
#1403=CARTESIAN_POINT('',(57.998612181134,0.749999999999992,10.));
#1404=CARTESIAN_POINT('',(57.998612181134,0.749999999999992,5.));
#1405=CARTESIAN_POINT('',(59.801387818866,0.749999999999992,10.));
#1406=CARTESIAN_POINT('Ctrl Pts',(57.998612181134,0.749999999999992,10.));
#1407=CARTESIAN_POINT('Ctrl Pts',(58.9,0.749999999999992,10.2789710016914));
#1408=CARTESIAN_POINT('Ctrl Pts',(59.801387818866,0.749999999999992,10.));
#1409=CARTESIAN_POINT('',(59.801387818866,0.749999999999992,0.));
#1410=CARTESIAN_POINT('',(59.801387818866,0.749999999999992,5.));
#1411=CARTESIAN_POINT('',(60.9,0.749999999999992,0.));
#1412=CARTESIAN_POINT('',(-16.1,0.749999999999979,0.));
#1413=CARTESIAN_POINT('',(60.9,0.749999999999992,20.));
#1414=CARTESIAN_POINT('',(60.9,0.749999999999992,0.));
#1415=CARTESIAN_POINT('',(-16.1,0.749999999999979,20.));
#1416=CARTESIAN_POINT('Ctrl Pts',(-13.1,0.74999999999998,10.1014620270854));
#1417=CARTESIAN_POINT('Ctrl Pts',(-12.9094796108135,0.74999999999998,10.065261474419));
#1418=CARTESIAN_POINT('Ctrl Pts',(-12.6986121811338,0.74999999999998,10.));
#1419=CARTESIAN_POINT('Origin',(45.6481397661852,2.24814029856517,0.));
#1420=CARTESIAN_POINT('',(45.6481397661852,2.24814029856517,18.));
#1421=CARTESIAN_POINT('',(45.6481397661852,2.24814029856517,0.));
#1422=CARTESIAN_POINT('',(55.6518602338148,2.24814029856518,18.));
#1423=CARTESIAN_POINT('',(55.6518602338148,2.24814029856517,18.));
#1424=CARTESIAN_POINT('',(55.6518602338148,2.24814029856517,0.));
#1425=CARTESIAN_POINT('',(55.6518602338148,2.24814029856517,0.));
#1426=CARTESIAN_POINT('',(34.7740698830926,2.24814029856517,0.));
#1427=CARTESIAN_POINT('Origin',(42.4,2.24999999999999,0.));
#1428=CARTESIAN_POINT('Origin',(42.4,2.24999999999999,0.));
#1429=CARTESIAN_POINT('',(39.1518602338148,2.24814029856517,18.));
#1430=CARTESIAN_POINT('',(39.1518602338148,2.24814029856517,0.));
#1431=CARTESIAN_POINT('Origin',(42.4,2.24999999999999,18.));
#1432=CARTESIAN_POINT('Origin',(23.9,16.75,0.));
#1433=CARTESIAN_POINT('Origin',(23.9,16.75,0.));
#1434=CARTESIAN_POINT('',(-16.1,29.75,0.));
#1435=CARTESIAN_POINT('',(-16.1,32.75,0.));
#1436=CARTESIAN_POINT('',(-13.1,32.75,0.));
#1437=CARTESIAN_POINT('Origin',(-13.1,29.75,0.));
#1438=CARTESIAN_POINT('',(58.9,32.75,0.));
#1439=CARTESIAN_POINT('',(58.9,32.75,0.));
#1440=CARTESIAN_POINT('',(63.9,27.75,0.));
#1441=CARTESIAN_POINT('Origin',(58.9,27.75,0.));
#1442=CARTESIAN_POINT('',(63.9,3.74999999999999,0.));
#1443=CARTESIAN_POINT('',(63.9,-47.75,0.));
#1444=CARTESIAN_POINT('Origin',(60.9,3.74999999999999,0.));
#1445=CARTESIAN_POINT('Origin',(58.9,2.24999999999999,0.));
#1446=CARTESIAN_POINT('',(62.0942363469517,2.83929581618757,0.));
#1447=CARTESIAN_POINT('Origin',(58.9,2.24999999999999,0.));
#1448=CARTESIAN_POINT('',(62.4018597014348,3.74999999999999,0.));
#1449=CARTESIAN_POINT('Origin',(60.9,3.74999999999999,0.));
#1450=CARTESIAN_POINT('',(62.4018597014348,27.75,0.));
#1451=CARTESIAN_POINT('',(62.4018597014348,10.25,0.));
#1452=CARTESIAN_POINT('',(61.1978081237341,30.3925554289428,0.));
#1453=CARTESIAN_POINT('Origin',(58.9,27.75,0.));
#1454=CARTESIAN_POINT('',(57.4529483608171,31.2518597014348,0.));
#1455=CARTESIAN_POINT('Origin',(58.6204223149826,27.7499999999999,0.));
#1456=CARTESIAN_POINT('',(-13.1,31.2518597014348,0.));
#1457=CARTESIAN_POINT('',(40.6764741804086,31.2518597014348,0.));
#1458=CARTESIAN_POINT('',(-14.6018597014348,29.75,0.));
#1459=CARTESIAN_POINT('Origin',(-13.1,29.75,0.));
#1460=CARTESIAN_POINT('',(-14.6018597014348,20.494682068513,0.));
#1461=CARTESIAN_POINT('',(-14.6018597014348,23.25,0.));
#1462=CARTESIAN_POINT('',(-14.6018597014348,12.005317931487,0.));
#1463=CARTESIAN_POINT('Origin',(-13.5999999999998,16.25,0.));
#1464=CARTESIAN_POINT('',(-14.6018597014348,5.33977224691458,0.));
#1465=CARTESIAN_POINT('',(-14.6018597014348,14.3776589657435,0.));
#1466=CARTESIAN_POINT('Origin',(-13.5999999999998,2.24999999999999,0.));
#1467=CARTESIAN_POINT('',(60.3704223149826,27.7499999999999,0.));
#1468=CARTESIAN_POINT('Origin',(58.6204223149826,27.7499999999999,0.));
#1469=CARTESIAN_POINT('',(-11.8499999999998,16.25,0.));
#1470=CARTESIAN_POINT('Origin',(-13.5999999999998,16.25,0.));
#1471=CARTESIAN_POINT('Origin',(58.9,16.25,0.));
#1472=CARTESIAN_POINT('',(55.4373644582688,16.25,0.));
#1473=CARTESIAN_POINT('Origin',(58.9,16.25,0.));
#1474=CARTESIAN_POINT('',(55.4373644582688,16.25,18.));
#1475=CARTESIAN_POINT('',(55.4373644582688,16.25,0.));
#1476=CARTESIAN_POINT('Origin',(58.9,16.25,18.));
#1477=CARTESIAN_POINT('Origin',(42.4,16.25,0.));
#1478=CARTESIAN_POINT('',(38.6833741808877,16.25,0.));
#1479=CARTESIAN_POINT('Origin',(42.4,16.25,0.));
#1480=CARTESIAN_POINT('',(38.6833741808877,16.25,18.));
#1481=CARTESIAN_POINT('',(38.6833741808877,16.25,0.));
#1482=CARTESIAN_POINT('Origin',(42.4,16.25,18.));
#1483=CARTESIAN_POINT('Origin',(58.6204223149826,27.7499999999999,0.));
#1484=CARTESIAN_POINT('',(61.1978081237341,30.3925554289428,18.));
#1485=CARTESIAN_POINT('',(61.1978081237341,30.3925554289428,0.));
#1486=CARTESIAN_POINT('',(57.4529483608171,31.2518597014348,18.));
#1487=CARTESIAN_POINT('Origin',(58.6204223149826,27.7499999999999,18.));
#1488=CARTESIAN_POINT('',(57.4529483608171,31.2518597014348,0.));
#1489=CARTESIAN_POINT('Origin',(58.9,27.75,0.));
#1490=CARTESIAN_POINT('',(62.4018597014348,27.75,18.));
#1491=CARTESIAN_POINT('',(62.4018597014348,27.75,0.));
#1492=CARTESIAN_POINT('Origin',(58.9,27.75,18.));
#1493=CARTESIAN_POINT('Origin',(62.4018597014348,3.74999999999999,0.));
#1494=CARTESIAN_POINT('',(62.4018597014348,3.74999999999999,18.));
#1495=CARTESIAN_POINT('',(62.4018597014348,3.74999999999999,0.));
#1496=CARTESIAN_POINT('',(62.4018597014348,27.75,18.));
#1497=CARTESIAN_POINT('Origin',(60.9,3.74999999999999,0.));
#1498=CARTESIAN_POINT('',(62.0942363469517,2.83929581618756,18.));
#1499=CARTESIAN_POINT('',(62.0942363469517,2.83929581618757,0.));
#1500=CARTESIAN_POINT('Origin',(60.9,3.74999999999999,18.));
#1501=CARTESIAN_POINT('Origin',(58.9,2.24999999999999,0.));
#1502=CARTESIAN_POINT('Origin',(58.9,2.24999999999999,18.));
#1503=CARTESIAN_POINT('Origin',(-10.3518602338146,2.24814029856516,0.));
#1504=CARTESIAN_POINT('',(-10.3518602338146,2.24814029856516,18.));
#1505=CARTESIAN_POINT('',(-10.3518602338146,2.24814029856516,0.));
#1506=CARTESIAN_POINT('',(39.1518602338148,2.24814029856517,18.));
#1507=CARTESIAN_POINT('Origin',(-13.5999999999998,2.24999999999999,0.));
#1508=CARTESIAN_POINT('',(-14.6018597014348,5.33977224691458,18.));
#1509=CARTESIAN_POINT('',(-14.6018597014348,5.33977224691458,0.));
#1510=CARTESIAN_POINT('Origin',(-13.5999999999998,2.24999999999999,18.));
#1511=CARTESIAN_POINT('Origin',(-14.6018597014348,12.005317931487,0.));
#1512=CARTESIAN_POINT('',(-14.6018597014348,12.005317931487,18.));
#1513=CARTESIAN_POINT('',(-14.6018597014348,12.005317931487,0.));
#1514=CARTESIAN_POINT('',(-14.6018597014348,5.33977224691458,18.));
#1515=CARTESIAN_POINT('Origin',(-13.5999999999998,16.25,0.));
#1516=CARTESIAN_POINT('',(-14.6018597014348,20.494682068513,18.));
#1517=CARTESIAN_POINT('',(-14.6018597014348,20.494682068513,0.));
#1518=CARTESIAN_POINT('Origin',(-13.5999999999998,16.25,18.));
#1519=CARTESIAN_POINT('Origin',(-14.6018597014348,29.75,0.));
#1520=CARTESIAN_POINT('',(-14.6018597014348,29.75,18.));
#1521=CARTESIAN_POINT('',(-14.6018597014348,29.75,0.));
#1522=CARTESIAN_POINT('',(-14.6018597014348,5.33977224691458,18.));
#1523=CARTESIAN_POINT('Origin',(-13.1,29.75,0.));
#1524=CARTESIAN_POINT('',(-13.1,31.2518597014348,18.));
#1525=CARTESIAN_POINT('',(-13.1,31.2518597014348,0.));
#1526=CARTESIAN_POINT('Origin',(-13.1,29.75,18.));
#1527=CARTESIAN_POINT('Origin',(57.4529483608171,31.2518597014348,0.));
#1528=CARTESIAN_POINT('',(-13.1,31.2518597014348,18.));
#1529=CARTESIAN_POINT('Origin',(23.9,16.75,18.));
#1530=CARTESIAN_POINT('Origin',(23.9,16.75,0.));
#1531=CARTESIAN_POINT('',(44.15,16.25,0.));
#1532=CARTESIAN_POINT('Origin',(42.4,16.25,0.));
#1533=CARTESIAN_POINT('Origin',(-13.5999999999998,2.24999999999999,10.5257530416491));
#1534=CARTESIAN_POINT('',(-13.5999999999998,2.24999999999999,11.0515060832982));
#1535=CARTESIAN_POINT('',(-12.7249999999998,2.24999999999999,10.5257530416491));
#1536=CARTESIAN_POINT('Origin',(-13.5999999999998,16.25,10.5257530416491));
#1537=CARTESIAN_POINT('',(-11.8499999999998,16.25,10.));
#1538=CARTESIAN_POINT('Origin',(-13.5999999999998,16.25,10.));
#1539=CARTESIAN_POINT('',(-13.5999999999998,16.25,11.0515060832982));
#1540=CARTESIAN_POINT('',(-12.7249999999998,16.25,10.5257530416491));
#1541=CARTESIAN_POINT('Origin',(-13.5999999999998,16.25,5.));
#1542=CARTESIAN_POINT('',(-11.8499999999998,16.25,5.));
#1543=CARTESIAN_POINT('Origin',(58.6204223149826,27.7499999999999,10.5257530416491));
#1544=CARTESIAN_POINT('',(60.3704223149827,27.7499999999999,10.));
#1545=CARTESIAN_POINT('Origin',(58.6204223149826,27.7499999999999,10.));
#1546=CARTESIAN_POINT('',(58.6204223149826,27.7499999999999,11.0515060832982));
#1547=CARTESIAN_POINT('',(59.4954223149826,27.7499999999999,10.5257530416491));
#1548=CARTESIAN_POINT('Origin',(58.6204223149826,27.7499999999999,5.));
#1549=CARTESIAN_POINT('',(60.3704223149826,27.7499999999999,5.));
#1550=CARTESIAN_POINT('Origin',(42.4,16.25,10.5257530416491));
#1551=CARTESIAN_POINT('',(44.15,16.25,10.));
#1552=CARTESIAN_POINT('Origin',(42.4,16.25,10.));
#1553=CARTESIAN_POINT('',(42.4,16.25,11.0515060832982));
#1554=CARTESIAN_POINT('',(43.275,16.25,10.5257530416491));
#1555=CARTESIAN_POINT('Origin',(42.4,16.25,5.));
#1556=CARTESIAN_POINT('',(44.15,16.25,5.));
#1557=CARTESIAN_POINT('Origin',(58.9,16.25,10.5257530416491));
#1558=CARTESIAN_POINT('',(60.65,16.25,10.));
#1559=CARTESIAN_POINT('Origin',(58.9,16.25,10.));
#1560=CARTESIAN_POINT('',(58.9,16.25,11.0515060832982));
#1561=CARTESIAN_POINT('',(59.775,16.25,10.5257530416491));
#1562=CARTESIAN_POINT('Origin',(58.9,16.25,5.));
#1563=CARTESIAN_POINT('',(60.65,16.25,0.));
#1564=CARTESIAN_POINT('Origin',(58.9,16.25,0.));
#1565=CARTESIAN_POINT('',(60.65,16.25,5.));
#1566=CARTESIAN_POINT('Origin',(58.9,2.24999999999999,10.5257530416491));
#1567=CARTESIAN_POINT('',(60.65,2.24999999999999,10.));
#1568=CARTESIAN_POINT('Origin',(58.9,2.24999999999999,10.));
#1569=CARTESIAN_POINT('',(58.9,2.24999999999999,11.0515060832982));
#1570=CARTESIAN_POINT('',(59.775,2.24999999999999,10.5257530416491));
#1571=CARTESIAN_POINT('Origin',(58.9,2.24999999999999,10.));
#1572=CARTESIAN_POINT('Origin',(58.9,2.24999999999999,5.));
#1573=CARTESIAN_POINT('Origin',(42.4,2.24999999999999,10.5257530416491));
#1574=CARTESIAN_POINT('',(42.4,2.24999999999999,11.0515060832982));
#1575=CARTESIAN_POINT('',(43.275,2.24999999999999,10.5257530416491));
#1576=CARTESIAN_POINT('Origin',(-13.1,29.75,17.));
#1577=CARTESIAN_POINT('',(-13.1,32.75,17.));
#1578=CARTESIAN_POINT('',(-13.1,29.75,20.));
#1579=CARTESIAN_POINT('Origin',(-13.1,29.75,17.));
#1580=CARTESIAN_POINT('',(-16.1,29.75,17.));
#1581=CARTESIAN_POINT('Origin',(-13.1,29.75,17.));
#1582=CARTESIAN_POINT('Origin',(-13.1,29.75,17.));
#1583=CARTESIAN_POINT('Origin',(-13.1,29.75,0.));
#1584=CARTESIAN_POINT('',(-16.1,29.75,0.));
#1585=CARTESIAN_POINT('',(-13.1,32.75,0.));
#1586=CARTESIAN_POINT('Origin',(-13.1,24.75,17.));
#1587=CARTESIAN_POINT('',(-13.1,24.75,20.));
#1588=CARTESIAN_POINT('',(-16.1,24.75,17.));
#1589=CARTESIAN_POINT('Origin',(60.9,3.74999999999999,0.));
#1590=CARTESIAN_POINT('',(63.9,3.74999999999999,17.));
#1591=CARTESIAN_POINT('',(63.9,3.74999999999999,0.));
#1592=CARTESIAN_POINT('Origin',(60.9,3.74999999999999,17.));
#1593=CARTESIAN_POINT('Origin',(60.9,8.74999999999999,17.));
#1594=CARTESIAN_POINT('',(63.9,27.75,17.));
#1595=CARTESIAN_POINT('',(63.9,8.75,17.));
#1596=CARTESIAN_POINT('',(60.9,27.75,20.));
#1597=CARTESIAN_POINT('Origin',(60.9,27.75,17.));
#1598=CARTESIAN_POINT('',(60.9,8.74999999999999,20.));
#1599=CARTESIAN_POINT('Ctrl Pts',(63.9,27.75,17.));
#1600=CARTESIAN_POINT('Ctrl Pts',(63.9,32.75,17.));
#1601=CARTESIAN_POINT('Ctrl Pts',(58.9,32.75,17.));
#1602=CARTESIAN_POINT('Ctrl Pts',(63.9,27.75,20.));
#1603=CARTESIAN_POINT('Ctrl Pts',(63.9,32.75,20.));
#1604=CARTESIAN_POINT('Ctrl Pts',(58.9,32.75,20.));
#1605=CARTESIAN_POINT('Ctrl Pts',(60.9,27.75,20.));
#1606=CARTESIAN_POINT('Ctrl Pts',(60.9,29.75,20.));
#1607=CARTESIAN_POINT('Ctrl Pts',(58.9,29.75,20.));
#1608=CARTESIAN_POINT('',(58.9,32.75,17.));
#1609=CARTESIAN_POINT('',(58.9,29.75,20.));
#1610=CARTESIAN_POINT('Origin',(58.9,29.75,17.));
#1611=CARTESIAN_POINT('Origin',(58.9,27.75,20.));
#1612=CARTESIAN_POINT('Origin',(58.9,27.75,17.));
#1613=CARTESIAN_POINT('Origin',(41.4,29.75,17.));
#1614=CARTESIAN_POINT('',(41.4,29.75,20.));
#1615=CARTESIAN_POINT('',(41.4,32.75,17.));
#1616=CARTESIAN_POINT('Origin',(58.9,32.75,0.));
#1617=CARTESIAN_POINT('',(58.9,32.75,0.));
#1618=CARTESIAN_POINT('Origin',(58.9,27.75,0.));
#1619=CARTESIAN_POINT('',(63.9,27.75,0.));
#1620=CARTESIAN_POINT('Origin',(63.9,0.749999999999993,0.));
#1621=CARTESIAN_POINT('Origin',(23.9,16.75,0.));
#1622=CARTESIAN_POINT('Origin',(-16.1,32.75,0.));
#1623=CARTESIAN_POINT('Origin',(23.9,16.75,20.));
#1624=UNCERTAINTY_MEASURE_WITH_UNIT(LENGTH_MEASURE(0.01),#1628,
'DISTANCE_ACCURACY_VALUE',
'Maximum model space distance between geometric entities at asserted c
onnectivities');
#1625=UNCERTAINTY_MEASURE_WITH_UNIT(LENGTH_MEASURE(0.01),#1628,
'DISTANCE_ACCURACY_VALUE',
'Maximum model space distance between geometric entities at asserted c
onnectivities');
#1626=(
GEOMETRIC_REPRESENTATION_CONTEXT(3)
GLOBAL_UNCERTAINTY_ASSIGNED_CONTEXT((#1624))
GLOBAL_UNIT_ASSIGNED_CONTEXT((#1628,#1630,#1631))
REPRESENTATION_CONTEXT('','3D')
);
#1627=(
GEOMETRIC_REPRESENTATION_CONTEXT(3)
GLOBAL_UNCERTAINTY_ASSIGNED_CONTEXT((#1625))
GLOBAL_UNIT_ASSIGNED_CONTEXT((#1628,#1630,#1631))
REPRESENTATION_CONTEXT('','3D')
);
#1628=(
LENGTH_UNIT()
NAMED_UNIT(*)
SI_UNIT(.MILLI.,.METRE.)
);
#1629=(
LENGTH_UNIT()
NAMED_UNIT(*)
SI_UNIT(.CENTI.,.METRE.)
);
#1630=(
NAMED_UNIT(*)
PLANE_ANGLE_UNIT()
SI_UNIT($,.RADIAN.)
);
#1631=(
NAMED_UNIT(*)
SI_UNIT($,.STERADIAN.)
SOLID_ANGLE_UNIT()
);
#1632=SHAPE_DEFINITION_REPRESENTATION(#1633,#1634);
#1633=PRODUCT_DEFINITION_SHAPE('',$,#1636);
#1634=SHAPE_REPRESENTATION('',(#947),#1626);
#1635=PRODUCT_DEFINITION_CONTEXT('part definition',#1640,'design');
#1636=PRODUCT_DEFINITION('10_Wellplate_base_Lasercover',
'10_Wellplate_base_Lasercover',#1637,#1635);
#1637=PRODUCT_DEFINITION_FORMATION('',$,#1642);
#1638=PRODUCT_RELATED_PRODUCT_CATEGORY('10_Wellplate_base_Lasercover',
'10_Wellplate_base_Lasercover',(#1642));
#1639=APPLICATION_PROTOCOL_DEFINITION('international standard',
'automotive_design',2009,#1640);
#1640=APPLICATION_CONTEXT(
'Core Data for Automotive Mechanical Design Process');
#1641=PRODUCT_CONTEXT('part definition',#1640,'mechanical');
#1642=PRODUCT('10_Wellplate_base_Lasercover',
'10_Wellplate_base_Lasercover',$,(#1641));
#1643=PRESENTATION_STYLE_ASSIGNMENT((#1644));
#1644=SURFACE_STYLE_USAGE(.BOTH.,#1647);
#1645=SURFACE_STYLE_RENDERING_WITH_PROPERTIES($,#1651,(#1646));
#1646=SURFACE_STYLE_TRANSPARENT(0.);
#1647=SURFACE_SIDE_STYLE('',(#1648,#1645));
#1648=SURFACE_STYLE_FILL_AREA(#1649);
#1649=FILL_AREA_STYLE('',(#1650));
#1650=FILL_AREA_STYLE_COLOUR('',#1651);
#1651=COLOUR_RGB('',0.749019607843137,0.749019607843137,0.749019607843137);
ENDSEC;
END-ISO-10303-21;
