ISO-10303-21;
HEADER;
/* Generated by software containing ST-Developer
 * from STEP Tools, Inc. (www.steptools.com) 
 */

FILE_DESCRIPTION(
/* description */ (''),
/* implementation_level */ '2;1');

FILE_NAME(
/* name */ '30_Lightsheet_generator_passive_lid_v1_singlegalvo.stp',
/* time_stamp */ '2025-08-07T11:58:09+02:00',
/* author */ ('benir'),
/* organization */ (''),
/* preprocessor_version */ 'ST-DEVELOPER v20',
/* originating_system */ 'Autodesk Inventor 2025',
/* authorisation */ '');

FILE_SCHEMA (('AUTOMOTIVE_DESIGN { 1 0 10303 214 3 1 1 }'));
ENDSEC;

DATA;
#10=MECHANICAL_DESIGN_GEOMETRIC_PRESENTATION_REPRESENTATION('',(#13),#1606);
#11=SHAPE_REPRESENTATION_RELATIONSHIP('SRR','None',#1613,#12);
#12=ADVANCED_BREP_SHAPE_REPRESENTATION('',(#14),#1605);
#13=STYLED_ITEM('',(#1622),#14);
#14=MANIFOLD_SOLID_BREP('Volumenk\X\F6rper1',#955);
#15=B_SPLINE_CURVE_WITH_KNOTS('',3,(#1411,#1412,#1413,#1414,#1415,#1416,
#1417,#1418,#1419,#1420,#1421,#1422,#1423,#1424,#1425,#1426,#1427,#1428),
 .UNSPECIFIED.,.F.,.F.,(4,2,2,2,2,2,2,2,4),(0.38343018816503,0.479187296198123,
0.574944404231216,0.670902390280638,0.76686037633006,0.862818362379482,
0.958776348428904,1.054533456462,1.15029056449509),.UNSPECIFIED.);
#16=CYLINDRICAL_SURFACE('',#990,2.5);
#17=CYLINDRICAL_SURFACE('',#993,2.5);
#18=CYLINDRICAL_SURFACE('',#1001,5.3);
#19=CYLINDRICAL_SURFACE('',#1006,1.6);
#20=CYLINDRICAL_SURFACE('',#1009,1.6);
#21=CYLINDRICAL_SURFACE('',#1012,1.6);
#22=CYLINDRICAL_SURFACE('',#1015,1.6);
#23=CYLINDRICAL_SURFACE('',#1018,1.6);
#24=CYLINDRICAL_SURFACE('',#1021,1.6);
#25=CYLINDRICAL_SURFACE('',#1030,7.);
#26=CYLINDRICAL_SURFACE('',#1036,3.25);
#27=CYLINDRICAL_SURFACE('',#1038,1.45);
#28=CYLINDRICAL_SURFACE('',#1043,3.25);
#29=CYLINDRICAL_SURFACE('',#1045,1.45);
#30=CYLINDRICAL_SURFACE('',#1049,3.25);
#31=CYLINDRICAL_SURFACE('',#1051,1.45);
#32=FACE_BOUND('',#132,.T.);
#33=FACE_BOUND('',#133,.T.);
#34=FACE_BOUND('',#134,.T.);
#35=FACE_BOUND('',#140,.T.);
#36=FACE_BOUND('',#167,.T.);
#37=FACE_BOUND('',#171,.T.);
#38=FACE_BOUND('',#175,.T.);
#39=FACE_BOUND('',#180,.T.);
#40=FACE_BOUND('',#181,.T.);
#41=FACE_BOUND('',#182,.T.);
#42=FACE_BOUND('',#183,.T.);
#43=FACE_BOUND('',#184,.T.);
#44=FACE_BOUND('',#185,.T.);
#45=FACE_BOUND('',#186,.T.);
#46=FACE_BOUND('',#189,.T.);
#47=FACE_BOUND('',#190,.T.);
#48=CIRCLE('',#983,7.);
#49=CIRCLE('',#984,1.6);
#50=CIRCLE('',#985,1.6);
#51=CIRCLE('',#986,1.6);
#52=CIRCLE('',#987,1.6);
#53=CIRCLE('',#988,1.6);
#54=CIRCLE('',#989,1.6);
#55=CIRCLE('',#991,2.5);
#56=CIRCLE('',#992,2.5);
#57=CIRCLE('',#994,2.5);
#58=CIRCLE('',#998,1.45);
#59=CIRCLE('',#1000,5.3);
#60=CIRCLE('',#1002,5.3);
#61=CIRCLE('',#1007,1.6);
#62=CIRCLE('',#1010,1.6);
#63=CIRCLE('',#1013,1.6);
#64=CIRCLE('',#1016,1.6);
#65=CIRCLE('',#1019,1.6);
#66=CIRCLE('',#1022,1.6);
#67=CIRCLE('',#1031,7.);
#68=CIRCLE('',#1034,3.25);
#69=CIRCLE('',#1035,1.45);
#70=CIRCLE('',#1037,3.25);
#71=CIRCLE('',#1039,1.45);
#72=CIRCLE('',#1041,3.25);
#73=CIRCLE('',#1042,1.45);
#74=CIRCLE('',#1044,3.25);
#75=CIRCLE('',#1047,3.25);
#76=CIRCLE('',#1048,1.45);
#77=CIRCLE('',#1050,3.25);
#78=CIRCLE('',#1052,1.45);
#79=FACE_OUTER_BOUND('',#127,.T.);
#80=FACE_OUTER_BOUND('',#128,.T.);
#81=FACE_OUTER_BOUND('',#129,.T.);
#82=FACE_OUTER_BOUND('',#130,.T.);
#83=FACE_OUTER_BOUND('',#131,.T.);
#84=FACE_OUTER_BOUND('',#135,.T.);
#85=FACE_OUTER_BOUND('',#136,.T.);
#86=FACE_OUTER_BOUND('',#137,.T.);
#87=FACE_OUTER_BOUND('',#138,.T.);
#88=FACE_OUTER_BOUND('',#139,.T.);
#89=FACE_OUTER_BOUND('',#141,.T.);
#90=FACE_OUTER_BOUND('',#142,.T.);
#91=FACE_OUTER_BOUND('',#143,.T.);
#92=FACE_OUTER_BOUND('',#144,.T.);
#93=FACE_OUTER_BOUND('',#145,.T.);
#94=FACE_OUTER_BOUND('',#146,.T.);
#95=FACE_OUTER_BOUND('',#147,.T.);
#96=FACE_OUTER_BOUND('',#148,.T.);
#97=FACE_OUTER_BOUND('',#149,.T.);
#98=FACE_OUTER_BOUND('',#150,.T.);
#99=FACE_OUTER_BOUND('',#151,.T.);
#100=FACE_OUTER_BOUND('',#152,.T.);
#101=FACE_OUTER_BOUND('',#153,.T.);
#102=FACE_OUTER_BOUND('',#154,.T.);
#103=FACE_OUTER_BOUND('',#155,.T.);
#104=FACE_OUTER_BOUND('',#156,.T.);
#105=FACE_OUTER_BOUND('',#157,.T.);
#106=FACE_OUTER_BOUND('',#158,.T.);
#107=FACE_OUTER_BOUND('',#159,.T.);
#108=FACE_OUTER_BOUND('',#160,.T.);
#109=FACE_OUTER_BOUND('',#161,.T.);
#110=FACE_OUTER_BOUND('',#162,.T.);
#111=FACE_OUTER_BOUND('',#163,.T.);
#112=FACE_OUTER_BOUND('',#164,.T.);
#113=FACE_OUTER_BOUND('',#165,.T.);
#114=FACE_OUTER_BOUND('',#166,.T.);
#115=FACE_OUTER_BOUND('',#168,.T.);
#116=FACE_OUTER_BOUND('',#169,.T.);
#117=FACE_OUTER_BOUND('',#170,.T.);
#118=FACE_OUTER_BOUND('',#172,.T.);
#119=FACE_OUTER_BOUND('',#173,.T.);
#120=FACE_OUTER_BOUND('',#174,.T.);
#121=FACE_OUTER_BOUND('',#176,.T.);
#122=FACE_OUTER_BOUND('',#177,.T.);
#123=FACE_OUTER_BOUND('',#178,.T.);
#124=FACE_OUTER_BOUND('',#179,.T.);
#125=FACE_OUTER_BOUND('',#187,.T.);
#126=FACE_OUTER_BOUND('',#188,.T.);
#127=EDGE_LOOP('',(#611,#612,#613,#614));
#128=EDGE_LOOP('',(#615,#616,#617,#618,#619,#620));
#129=EDGE_LOOP('',(#621,#622,#623,#624));
#130=EDGE_LOOP('',(#625,#626,#627,#628));
#131=EDGE_LOOP('',(#629,#630,#631,#632,#633,#634,#635,#636,#637,#638,#639,
#640,#641,#642,#643,#644,#645));
#132=EDGE_LOOP('',(#646,#647,#648,#649));
#133=EDGE_LOOP('',(#650,#651,#652,#653));
#134=EDGE_LOOP('',(#654,#655,#656,#657));
#135=EDGE_LOOP('',(#658,#659,#660,#661));
#136=EDGE_LOOP('',(#662,#663,#664,#665));
#137=EDGE_LOOP('',(#666,#667,#668,#669,#670,#671,#672,#673,#674,#675));
#138=EDGE_LOOP('',(#676,#677,#678,#679,#680,#681,#682,#683,#684,#685));
#139=EDGE_LOOP('',(#686,#687,#688,#689,#690,#691,#692,#693));
#140=EDGE_LOOP('',(#694));
#141=EDGE_LOOP('',(#695,#696,#697,#698));
#142=EDGE_LOOP('',(#699,#700,#701,#702,#703,#704));
#143=EDGE_LOOP('',(#705,#706,#707,#708));
#144=EDGE_LOOP('',(#709,#710,#711,#712,#713,#714));
#145=EDGE_LOOP('',(#715,#716,#717,#718));
#146=EDGE_LOOP('',(#719,#720,#721,#722));
#147=EDGE_LOOP('',(#723,#724,#725,#726));
#148=EDGE_LOOP('',(#727,#728,#729,#730));
#149=EDGE_LOOP('',(#731,#732,#733,#734));
#150=EDGE_LOOP('',(#735,#736,#737,#738));
#151=EDGE_LOOP('',(#739,#740,#741,#742));
#152=EDGE_LOOP('',(#743,#744,#745,#746));
#153=EDGE_LOOP('',(#747,#748,#749,#750));
#154=EDGE_LOOP('',(#751,#752,#753,#754));
#155=EDGE_LOOP('',(#755,#756,#757,#758));
#156=EDGE_LOOP('',(#759,#760,#761,#762));
#157=EDGE_LOOP('',(#763,#764,#765,#766));
#158=EDGE_LOOP('',(#767,#768,#769,#770));
#159=EDGE_LOOP('',(#771,#772,#773,#774,#775,#776));
#160=EDGE_LOOP('',(#777,#778,#779,#780));
#161=EDGE_LOOP('',(#781,#782,#783,#784));
#162=EDGE_LOOP('',(#785,#786,#787,#788));
#163=EDGE_LOOP('',(#789,#790,#791,#792));
#164=EDGE_LOOP('',(#793,#794,#795,#796));
#165=EDGE_LOOP('',(#797,#798,#799,#800));
#166=EDGE_LOOP('',(#801));
#167=EDGE_LOOP('',(#802));
#168=EDGE_LOOP('',(#803,#804,#805,#806));
#169=EDGE_LOOP('',(#807,#808,#809,#810));
#170=EDGE_LOOP('',(#811));
#171=EDGE_LOOP('',(#812));
#172=EDGE_LOOP('',(#813,#814,#815,#816));
#173=EDGE_LOOP('',(#817,#818,#819,#820));
#174=EDGE_LOOP('',(#821));
#175=EDGE_LOOP('',(#822));
#176=EDGE_LOOP('',(#823,#824,#825,#826));
#177=EDGE_LOOP('',(#827,#828,#829,#830));
#178=EDGE_LOOP('',(#831,#832,#833,#834));
#179=EDGE_LOOP('',(#835,#836,#837,#838,#839,#840,#841,#842));
#180=EDGE_LOOP('',(#843,#844,#845,#846));
#181=EDGE_LOOP('',(#847,#848,#849,#850));
#182=EDGE_LOOP('',(#851,#852,#853,#854));
#183=EDGE_LOOP('',(#855));
#184=EDGE_LOOP('',(#856));
#185=EDGE_LOOP('',(#857));
#186=EDGE_LOOP('',(#858,#859,#860));
#187=EDGE_LOOP('',(#861,#862,#863,#864));
#188=EDGE_LOOP('',(#865,#866,#867,#868,#869,#870,#871,#872));
#189=EDGE_LOOP('',(#873));
#190=EDGE_LOOP('',(#874));
#191=LINE('',#1321,#291);
#192=LINE('',#1323,#292);
#193=LINE('',#1325,#293);
#194=LINE('',#1326,#294);
#195=LINE('',#1329,#295);
#196=LINE('',#1331,#296);
#197=LINE('',#1333,#297);
#198=LINE('',#1335,#298);
#199=LINE('',#1336,#299);
#200=LINE('',#1339,#300);
#201=LINE('',#1340,#301);
#202=LINE('',#1343,#302);
#203=LINE('',#1344,#303);
#204=LINE('',#1347,#304);
#205=LINE('',#1349,#305);
#206=LINE('',#1351,#306);
#207=LINE('',#1353,#307);
#208=LINE('',#1355,#308);
#209=LINE('',#1357,#309);
#210=LINE('',#1361,#310);
#211=LINE('',#1363,#311);
#212=LINE('',#1365,#312);
#213=LINE('',#1367,#313);
#214=LINE('',#1369,#314);
#215=LINE('',#1371,#315);
#216=LINE('',#1372,#316);
#217=LINE('',#1375,#317);
#218=LINE('',#1379,#318);
#219=LINE('',#1383,#319);
#220=LINE('',#1387,#320);
#221=LINE('',#1391,#321);
#222=LINE('',#1395,#322);
#223=LINE('',#1402,#323);
#224=LINE('',#1405,#324);
#225=LINE('',#1409,#325);
#226=LINE('',#1430,#326);
#227=LINE('',#1434,#327);
#228=LINE('',#1435,#328);
#229=LINE('',#1437,#329);
#230=LINE('',#1439,#330);
#231=LINE('',#1440,#331);
#232=LINE('',#1442,#332);
#233=LINE('',#1443,#333);
#234=LINE('',#1446,#334);
#235=LINE('',#1447,#335);
#236=LINE('',#1449,#336);
#237=LINE('',#1451,#337);
#238=LINE('',#1452,#338);
#239=LINE('',#1454,#339);
#240=LINE('',#1455,#340);
#241=LINE('',#1458,#341);
#242=LINE('',#1460,#342);
#243=LINE('',#1461,#343);
#244=LINE('',#1462,#344);
#245=LINE('',#1468,#345);
#246=LINE('',#1470,#346);
#247=LINE('',#1472,#347);
#248=LINE('',#1475,#348);
#249=LINE('',#1477,#349);
#250=LINE('',#1481,#350);
#251=LINE('',#1482,#351);
#252=LINE('',#1484,#352);
#253=LINE('',#1485,#353);
#254=LINE('',#1491,#354);
#255=LINE('',#1492,#355);
#256=LINE('',#1495,#356);
#257=LINE('',#1496,#357);
#258=LINE('',#1500,#358);
#259=LINE('',#1502,#359);
#260=LINE('',#1507,#360);
#261=LINE('',#1508,#361);
#262=LINE('',#1511,#362);
#263=LINE('',#1512,#363);
#264=LINE('',#1516,#364);
#265=LINE('',#1518,#365);
#266=LINE('',#1523,#366);
#267=LINE('',#1524,#367);
#268=LINE('',#1527,#368);
#269=LINE('',#1528,#369);
#270=LINE('',#1532,#370);
#271=LINE('',#1534,#371);
#272=LINE('',#1537,#372);
#273=LINE('',#1538,#373);
#274=LINE('',#1540,#374);
#275=LINE('',#1543,#375);
#276=LINE('',#1544,#376);
#277=LINE('',#1547,#377);
#278=LINE('',#1548,#378);
#279=LINE('',#1551,#379);
#280=LINE('',#1552,#380);
#281=LINE('',#1554,#381);
#282=LINE('',#1558,#382);
#283=LINE('',#1560,#383);
#284=LINE('',#1569,#384);
#285=LINE('',#1572,#385);
#286=LINE('',#1582,#386);
#287=LINE('',#1584,#387);
#288=LINE('',#1593,#388);
#289=LINE('',#1596,#389);
#290=LINE('',#1599,#390);
#291=VECTOR('',#1061,10.);
#292=VECTOR('',#1062,10.);
#293=VECTOR('',#1063,10.);
#294=VECTOR('',#1064,10.);
#295=VECTOR('',#1067,10.);
#296=VECTOR('',#1068,10.);
#297=VECTOR('',#1069,10.);
#298=VECTOR('',#1070,10.);
#299=VECTOR('',#1071,10.);
#300=VECTOR('',#1074,10.);
#301=VECTOR('',#1075,10.);
#302=VECTOR('',#1078,10.);
#303=VECTOR('',#1079,10.);
#304=VECTOR('',#1082,10.);
#305=VECTOR('',#1083,10.);
#306=VECTOR('',#1084,10.);
#307=VECTOR('',#1085,10.);
#308=VECTOR('',#1086,10.);
#309=VECTOR('',#1087,10.);
#310=VECTOR('',#1090,10.);
#311=VECTOR('',#1091,10.);
#312=VECTOR('',#1092,10.);
#313=VECTOR('',#1093,10.);
#314=VECTOR('',#1094,10.);
#315=VECTOR('',#1095,10.);
#316=VECTOR('',#1096,10.);
#317=VECTOR('',#1097,10.);
#318=VECTOR('',#1100,10.);
#319=VECTOR('',#1103,10.);
#320=VECTOR('',#1106,10.);
#321=VECTOR('',#1109,10.);
#322=VECTOR('',#1112,10.);
#323=VECTOR('',#1119,10.);
#324=VECTOR('',#1122,10.);
#325=VECTOR('',#1125,10.);
#326=VECTOR('',#1126,10.);
#327=VECTOR('',#1131,10.);
#328=VECTOR('',#1132,10.);
#329=VECTOR('',#1133,10.);
#330=VECTOR('',#1134,10.);
#331=VECTOR('',#1135,10.);
#332=VECTOR('',#1136,10.);
#333=VECTOR('',#1137,10.);
#334=VECTOR('',#1140,10.);
#335=VECTOR('',#1141,10.);
#336=VECTOR('',#1142,10.);
#337=VECTOR('',#1143,10.);
#338=VECTOR('',#1144,10.);
#339=VECTOR('',#1145,10.);
#340=VECTOR('',#1146,10.);
#341=VECTOR('',#1149,10.);
#342=VECTOR('',#1150,10.);
#343=VECTOR('',#1151,10.);
#344=VECTOR('',#1152,10.);
#345=VECTOR('',#1157,10.);
#346=VECTOR('',#1158,10.);
#347=VECTOR('',#1159,10.);
#348=VECTOR('',#1164,10.);
#349=VECTOR('',#1165,10.);
#350=VECTOR('',#1170,10.);
#351=VECTOR('',#1171,10.);
#352=VECTOR('',#1174,10.);
#353=VECTOR('',#1175,10.);
#354=VECTOR('',#1182,10.);
#355=VECTOR('',#1183,10.);
#356=VECTOR('',#1186,10.);
#357=VECTOR('',#1187,10.);
#358=VECTOR('',#1192,10.);
#359=VECTOR('',#1195,10.);
#360=VECTOR('',#1200,10.);
#361=VECTOR('',#1201,10.);
#362=VECTOR('',#1204,10.);
#363=VECTOR('',#1205,10.);
#364=VECTOR('',#1210,10.);
#365=VECTOR('',#1213,10.);
#366=VECTOR('',#1218,10.);
#367=VECTOR('',#1219,10.);
#368=VECTOR('',#1222,10.);
#369=VECTOR('',#1223,10.);
#370=VECTOR('',#1228,10.);
#371=VECTOR('',#1231,10.);
#372=VECTOR('',#1234,10.);
#373=VECTOR('',#1235,10.);
#374=VECTOR('',#1238,10.);
#375=VECTOR('',#1241,10.);
#376=VECTOR('',#1242,10.);
#377=VECTOR('',#1245,10.);
#378=VECTOR('',#1246,10.);
#379=VECTOR('',#1249,10.);
#380=VECTOR('',#1250,10.);
#381=VECTOR('',#1253,10.);
#382=VECTOR('',#1258,10.);
#383=VECTOR('',#1261,10.);
#384=VECTOR('',#1272,3.25);
#385=VECTOR('',#1275,1.45);
#386=VECTOR('',#1288,3.25);
#387=VECTOR('',#1291,1.45);
#388=VECTOR('',#1302,3.25);
#389=VECTOR('',#1305,1.45);
#390=VECTOR('',#1310,10.);
#391=VERTEX_POINT('',#1319);
#392=VERTEX_POINT('',#1320);
#393=VERTEX_POINT('',#1322);
#394=VERTEX_POINT('',#1324);
#395=VERTEX_POINT('',#1328);
#396=VERTEX_POINT('',#1330);
#397=VERTEX_POINT('',#1332);
#398=VERTEX_POINT('',#1334);
#399=VERTEX_POINT('',#1338);
#400=VERTEX_POINT('',#1342);
#401=VERTEX_POINT('',#1346);
#402=VERTEX_POINT('',#1348);
#403=VERTEX_POINT('',#1350);
#404=VERTEX_POINT('',#1352);
#405=VERTEX_POINT('',#1354);
#406=VERTEX_POINT('',#1356);
#407=VERTEX_POINT('',#1358);
#408=VERTEX_POINT('',#1360);
#409=VERTEX_POINT('',#1362);
#410=VERTEX_POINT('',#1364);
#411=VERTEX_POINT('',#1366);
#412=VERTEX_POINT('',#1368);
#413=VERTEX_POINT('',#1370);
#414=VERTEX_POINT('',#1373);
#415=VERTEX_POINT('',#1374);
#416=VERTEX_POINT('',#1376);
#417=VERTEX_POINT('',#1378);
#418=VERTEX_POINT('',#1381);
#419=VERTEX_POINT('',#1382);
#420=VERTEX_POINT('',#1384);
#421=VERTEX_POINT('',#1386);
#422=VERTEX_POINT('',#1389);
#423=VERTEX_POINT('',#1390);
#424=VERTEX_POINT('',#1392);
#425=VERTEX_POINT('',#1394);
#426=VERTEX_POINT('',#1398);
#427=VERTEX_POINT('',#1399);
#428=VERTEX_POINT('',#1401);
#429=VERTEX_POINT('',#1403);
#430=VERTEX_POINT('',#1407);
#431=VERTEX_POINT('',#1408);
#432=VERTEX_POINT('',#1410);
#433=VERTEX_POINT('',#1429);
#434=VERTEX_POINT('',#1433);
#435=VERTEX_POINT('',#1436);
#436=VERTEX_POINT('',#1438);
#437=VERTEX_POINT('',#1441);
#438=VERTEX_POINT('',#1445);
#439=VERTEX_POINT('',#1448);
#440=VERTEX_POINT('',#1450);
#441=VERTEX_POINT('',#1453);
#442=VERTEX_POINT('',#1457);
#443=VERTEX_POINT('',#1459);
#444=VERTEX_POINT('',#1463);
#445=VERTEX_POINT('',#1466);
#446=VERTEX_POINT('',#1467);
#447=VERTEX_POINT('',#1469);
#448=VERTEX_POINT('',#1471);
#449=VERTEX_POINT('',#1476);
#450=VERTEX_POINT('',#1480);
#451=VERTEX_POINT('',#1488);
#452=VERTEX_POINT('',#1489);
#453=VERTEX_POINT('',#1494);
#454=VERTEX_POINT('',#1498);
#455=VERTEX_POINT('',#1504);
#456=VERTEX_POINT('',#1505);
#457=VERTEX_POINT('',#1510);
#458=VERTEX_POINT('',#1514);
#459=VERTEX_POINT('',#1520);
#460=VERTEX_POINT('',#1521);
#461=VERTEX_POINT('',#1526);
#462=VERTEX_POINT('',#1530);
#463=VERTEX_POINT('',#1536);
#464=VERTEX_POINT('',#1542);
#465=VERTEX_POINT('',#1546);
#466=VERTEX_POINT('',#1550);
#467=VERTEX_POINT('',#1556);
#468=VERTEX_POINT('',#1562);
#469=VERTEX_POINT('',#1564);
#470=VERTEX_POINT('',#1567);
#471=VERTEX_POINT('',#1571);
#472=VERTEX_POINT('',#1575);
#473=VERTEX_POINT('',#1577);
#474=VERTEX_POINT('',#1580);
#475=VERTEX_POINT('',#1586);
#476=VERTEX_POINT('',#1588);
#477=VERTEX_POINT('',#1591);
#478=VERTEX_POINT('',#1595);
#479=EDGE_CURVE('',#391,#392,#191,.T.);
#480=EDGE_CURVE('',#393,#391,#192,.T.);
#481=EDGE_CURVE('',#393,#394,#193,.T.);
#482=EDGE_CURVE('',#392,#394,#194,.T.);
#483=EDGE_CURVE('',#395,#393,#195,.T.);
#484=EDGE_CURVE('',#391,#396,#196,.T.);
#485=EDGE_CURVE('',#397,#396,#197,.T.);
#486=EDGE_CURVE('',#398,#397,#198,.T.);
#487=EDGE_CURVE('',#395,#398,#199,.T.);
#488=EDGE_CURVE('',#392,#399,#200,.T.);
#489=EDGE_CURVE('',#396,#399,#201,.T.);
#490=EDGE_CURVE('',#400,#394,#202,.T.);
#491=EDGE_CURVE('',#399,#400,#203,.T.);
#492=EDGE_CURVE('',#400,#401,#204,.T.);
#493=EDGE_CURVE('',#401,#402,#205,.T.);
#494=EDGE_CURVE('',#402,#403,#206,.T.);
#495=EDGE_CURVE('',#404,#403,#207,.T.);
#496=EDGE_CURVE('',#405,#404,#208,.T.);
#497=EDGE_CURVE('',#405,#406,#209,.T.);
#498=EDGE_CURVE('',#406,#407,#48,.T.);
#499=EDGE_CURVE('',#408,#407,#210,.T.);
#500=EDGE_CURVE('',#409,#408,#211,.T.);
#501=EDGE_CURVE('',#409,#410,#212,.T.);
#502=EDGE_CURVE('',#410,#411,#213,.T.);
#503=EDGE_CURVE('',#411,#412,#214,.T.);
#504=EDGE_CURVE('',#412,#413,#215,.T.);
#505=EDGE_CURVE('',#413,#397,#216,.T.);
#506=EDGE_CURVE('',#414,#415,#217,.T.);
#507=EDGE_CURVE('',#415,#416,#49,.T.);
#508=EDGE_CURVE('',#416,#417,#218,.T.);
#509=EDGE_CURVE('',#417,#414,#50,.T.);
#510=EDGE_CURVE('',#418,#419,#219,.T.);
#511=EDGE_CURVE('',#419,#420,#51,.T.);
#512=EDGE_CURVE('',#420,#421,#220,.T.);
#513=EDGE_CURVE('',#421,#418,#52,.T.);
#514=EDGE_CURVE('',#422,#423,#221,.T.);
#515=EDGE_CURVE('',#423,#424,#53,.T.);
#516=EDGE_CURVE('',#424,#425,#222,.T.);
#517=EDGE_CURVE('',#425,#422,#54,.T.);
#518=EDGE_CURVE('',#426,#427,#55,.T.);
#519=EDGE_CURVE('',#428,#426,#223,.T.);
#520=EDGE_CURVE('',#429,#428,#56,.T.);
#521=EDGE_CURVE('',#427,#429,#224,.T.);
#522=EDGE_CURVE('',#430,#431,#225,.T.);
#523=EDGE_CURVE('',#432,#430,#15,.T.);
#524=EDGE_CURVE('',#433,#432,#226,.T.);
#525=EDGE_CURVE('',#431,#433,#57,.T.);
#526=EDGE_CURVE('',#434,#433,#227,.T.);
#527=EDGE_CURVE('',#408,#434,#228,.T.);
#528=EDGE_CURVE('',#407,#435,#229,.T.);
#529=EDGE_CURVE('',#436,#435,#230,.T.);
#530=EDGE_CURVE('',#436,#405,#231,.T.);
#531=EDGE_CURVE('',#437,#404,#232,.T.);
#532=EDGE_CURVE('',#431,#437,#233,.T.);
#533=EDGE_CURVE('',#428,#438,#234,.T.);
#534=EDGE_CURVE('',#438,#403,#235,.T.);
#535=EDGE_CURVE('',#439,#402,#236,.T.);
#536=EDGE_CURVE('',#439,#440,#237,.T.);
#537=EDGE_CURVE('',#440,#410,#238,.T.);
#538=EDGE_CURVE('',#409,#441,#239,.T.);
#539=EDGE_CURVE('',#441,#429,#240,.T.);
#540=EDGE_CURVE('',#432,#442,#241,.T.);
#541=EDGE_CURVE('',#442,#443,#242,.T.);
#542=EDGE_CURVE('',#443,#427,#243,.T.);
#543=EDGE_CURVE('',#441,#434,#244,.T.);
#544=EDGE_CURVE('',#444,#444,#58,.T.);
#545=EDGE_CURVE('',#445,#446,#245,.T.);
#546=EDGE_CURVE('',#447,#445,#246,.T.);
#547=EDGE_CURVE('',#448,#447,#247,.T.);
#548=EDGE_CURVE('',#446,#448,#59,.T.);
#549=EDGE_CURVE('',#446,#430,#248,.T.);
#550=EDGE_CURVE('',#449,#448,#249,.T.);
#551=EDGE_CURVE('',#449,#442,#60,.T.);
#552=EDGE_CURVE('',#450,#449,#250,.T.);
#553=EDGE_CURVE('',#443,#450,#251,.T.);
#554=EDGE_CURVE('',#450,#447,#252,.T.);
#555=EDGE_CURVE('',#426,#445,#253,.T.);
#556=EDGE_CURVE('',#451,#452,#61,.T.);
#557=EDGE_CURVE('',#451,#414,#254,.T.);
#558=EDGE_CURVE('',#452,#417,#255,.T.);
#559=EDGE_CURVE('',#452,#453,#256,.T.);
#560=EDGE_CURVE('',#453,#416,#257,.T.);
#561=EDGE_CURVE('',#453,#454,#62,.T.);
#562=EDGE_CURVE('',#454,#415,#258,.T.);
#563=EDGE_CURVE('',#454,#451,#259,.T.);
#564=EDGE_CURVE('',#455,#456,#63,.T.);
#565=EDGE_CURVE('',#455,#418,#260,.T.);
#566=EDGE_CURVE('',#456,#421,#261,.T.);
#567=EDGE_CURVE('',#456,#457,#262,.T.);
#568=EDGE_CURVE('',#457,#420,#263,.T.);
#569=EDGE_CURVE('',#457,#458,#64,.T.);
#570=EDGE_CURVE('',#458,#419,#264,.T.);
#571=EDGE_CURVE('',#458,#455,#265,.T.);
#572=EDGE_CURVE('',#459,#460,#65,.T.);
#573=EDGE_CURVE('',#459,#422,#266,.T.);
#574=EDGE_CURVE('',#460,#425,#267,.T.);
#575=EDGE_CURVE('',#460,#461,#268,.T.);
#576=EDGE_CURVE('',#461,#424,#269,.T.);
#577=EDGE_CURVE('',#461,#462,#66,.T.);
#578=EDGE_CURVE('',#462,#423,#270,.T.);
#579=EDGE_CURVE('',#462,#459,#271,.T.);
#580=EDGE_CURVE('',#439,#463,#272,.T.);
#581=EDGE_CURVE('',#463,#401,#273,.T.);
#582=EDGE_CURVE('',#463,#395,#274,.T.);
#583=EDGE_CURVE('',#398,#464,#275,.T.);
#584=EDGE_CURVE('',#464,#413,#276,.T.);
#585=EDGE_CURVE('',#464,#465,#277,.T.);
#586=EDGE_CURVE('',#465,#412,#278,.T.);
#587=EDGE_CURVE('',#465,#466,#279,.T.);
#588=EDGE_CURVE('',#466,#411,#280,.T.);
#589=EDGE_CURVE('',#466,#440,#281,.T.);
#590=EDGE_CURVE('',#435,#467,#67,.T.);
#591=EDGE_CURVE('',#467,#406,#282,.T.);
#592=EDGE_CURVE('',#467,#436,#283,.T.);
#593=EDGE_CURVE('',#468,#468,#68,.T.);
#594=EDGE_CURVE('',#469,#469,#69,.T.);
#595=EDGE_CURVE('',#470,#470,#70,.T.);
#596=EDGE_CURVE('',#470,#468,#284,.T.);
#597=EDGE_CURVE('',#469,#471,#285,.T.);
#598=EDGE_CURVE('',#471,#471,#71,.T.);
#599=EDGE_CURVE('',#472,#472,#72,.T.);
#600=EDGE_CURVE('',#473,#473,#73,.T.);
#601=EDGE_CURVE('',#474,#474,#74,.T.);
#602=EDGE_CURVE('',#474,#472,#286,.T.);
#603=EDGE_CURVE('',#473,#444,#287,.T.);
#604=EDGE_CURVE('',#475,#475,#75,.T.);
#605=EDGE_CURVE('',#476,#476,#76,.T.);
#606=EDGE_CURVE('',#477,#477,#77,.T.);
#607=EDGE_CURVE('',#477,#475,#288,.T.);
#608=EDGE_CURVE('',#476,#478,#289,.T.);
#609=EDGE_CURVE('',#478,#478,#78,.T.);
#610=EDGE_CURVE('',#438,#437,#290,.T.);
#611=ORIENTED_EDGE('',*,*,#479,.F.);
#612=ORIENTED_EDGE('',*,*,#480,.F.);
#613=ORIENTED_EDGE('',*,*,#481,.T.);
#614=ORIENTED_EDGE('',*,*,#482,.F.);
#615=ORIENTED_EDGE('',*,*,#483,.T.);
#616=ORIENTED_EDGE('',*,*,#480,.T.);
#617=ORIENTED_EDGE('',*,*,#484,.T.);
#618=ORIENTED_EDGE('',*,*,#485,.F.);
#619=ORIENTED_EDGE('',*,*,#486,.F.);
#620=ORIENTED_EDGE('',*,*,#487,.F.);
#621=ORIENTED_EDGE('',*,*,#479,.T.);
#622=ORIENTED_EDGE('',*,*,#488,.T.);
#623=ORIENTED_EDGE('',*,*,#489,.F.);
#624=ORIENTED_EDGE('',*,*,#484,.F.);
#625=ORIENTED_EDGE('',*,*,#482,.T.);
#626=ORIENTED_EDGE('',*,*,#490,.F.);
#627=ORIENTED_EDGE('',*,*,#491,.F.);
#628=ORIENTED_EDGE('',*,*,#488,.F.);
#629=ORIENTED_EDGE('',*,*,#485,.T.);
#630=ORIENTED_EDGE('',*,*,#489,.T.);
#631=ORIENTED_EDGE('',*,*,#491,.T.);
#632=ORIENTED_EDGE('',*,*,#492,.T.);
#633=ORIENTED_EDGE('',*,*,#493,.T.);
#634=ORIENTED_EDGE('',*,*,#494,.T.);
#635=ORIENTED_EDGE('',*,*,#495,.F.);
#636=ORIENTED_EDGE('',*,*,#496,.F.);
#637=ORIENTED_EDGE('',*,*,#497,.T.);
#638=ORIENTED_EDGE('',*,*,#498,.T.);
#639=ORIENTED_EDGE('',*,*,#499,.F.);
#640=ORIENTED_EDGE('',*,*,#500,.F.);
#641=ORIENTED_EDGE('',*,*,#501,.T.);
#642=ORIENTED_EDGE('',*,*,#502,.T.);
#643=ORIENTED_EDGE('',*,*,#503,.T.);
#644=ORIENTED_EDGE('',*,*,#504,.T.);
#645=ORIENTED_EDGE('',*,*,#505,.T.);
#646=ORIENTED_EDGE('',*,*,#506,.T.);
#647=ORIENTED_EDGE('',*,*,#507,.T.);
#648=ORIENTED_EDGE('',*,*,#508,.T.);
#649=ORIENTED_EDGE('',*,*,#509,.T.);
#650=ORIENTED_EDGE('',*,*,#510,.T.);
#651=ORIENTED_EDGE('',*,*,#511,.T.);
#652=ORIENTED_EDGE('',*,*,#512,.T.);
#653=ORIENTED_EDGE('',*,*,#513,.T.);
#654=ORIENTED_EDGE('',*,*,#514,.T.);
#655=ORIENTED_EDGE('',*,*,#515,.T.);
#656=ORIENTED_EDGE('',*,*,#516,.T.);
#657=ORIENTED_EDGE('',*,*,#517,.T.);
#658=ORIENTED_EDGE('',*,*,#518,.F.);
#659=ORIENTED_EDGE('',*,*,#519,.F.);
#660=ORIENTED_EDGE('',*,*,#520,.F.);
#661=ORIENTED_EDGE('',*,*,#521,.F.);
#662=ORIENTED_EDGE('',*,*,#522,.F.);
#663=ORIENTED_EDGE('',*,*,#523,.F.);
#664=ORIENTED_EDGE('',*,*,#524,.F.);
#665=ORIENTED_EDGE('',*,*,#525,.F.);
#666=ORIENTED_EDGE('',*,*,#525,.T.);
#667=ORIENTED_EDGE('',*,*,#526,.F.);
#668=ORIENTED_EDGE('',*,*,#527,.F.);
#669=ORIENTED_EDGE('',*,*,#499,.T.);
#670=ORIENTED_EDGE('',*,*,#528,.T.);
#671=ORIENTED_EDGE('',*,*,#529,.F.);
#672=ORIENTED_EDGE('',*,*,#530,.T.);
#673=ORIENTED_EDGE('',*,*,#496,.T.);
#674=ORIENTED_EDGE('',*,*,#531,.F.);
#675=ORIENTED_EDGE('',*,*,#532,.F.);
#676=ORIENTED_EDGE('',*,*,#520,.T.);
#677=ORIENTED_EDGE('',*,*,#533,.T.);
#678=ORIENTED_EDGE('',*,*,#534,.T.);
#679=ORIENTED_EDGE('',*,*,#494,.F.);
#680=ORIENTED_EDGE('',*,*,#535,.F.);
#681=ORIENTED_EDGE('',*,*,#536,.T.);
#682=ORIENTED_EDGE('',*,*,#537,.T.);
#683=ORIENTED_EDGE('',*,*,#501,.F.);
#684=ORIENTED_EDGE('',*,*,#538,.T.);
#685=ORIENTED_EDGE('',*,*,#539,.T.);
#686=ORIENTED_EDGE('',*,*,#524,.T.);
#687=ORIENTED_EDGE('',*,*,#540,.T.);
#688=ORIENTED_EDGE('',*,*,#541,.T.);
#689=ORIENTED_EDGE('',*,*,#542,.T.);
#690=ORIENTED_EDGE('',*,*,#521,.T.);
#691=ORIENTED_EDGE('',*,*,#539,.F.);
#692=ORIENTED_EDGE('',*,*,#543,.T.);
#693=ORIENTED_EDGE('',*,*,#526,.T.);
#694=ORIENTED_EDGE('',*,*,#544,.T.);
#695=ORIENTED_EDGE('',*,*,#545,.F.);
#696=ORIENTED_EDGE('',*,*,#546,.F.);
#697=ORIENTED_EDGE('',*,*,#547,.F.);
#698=ORIENTED_EDGE('',*,*,#548,.F.);
#699=ORIENTED_EDGE('',*,*,#523,.T.);
#700=ORIENTED_EDGE('',*,*,#549,.F.);
#701=ORIENTED_EDGE('',*,*,#548,.T.);
#702=ORIENTED_EDGE('',*,*,#550,.F.);
#703=ORIENTED_EDGE('',*,*,#551,.T.);
#704=ORIENTED_EDGE('',*,*,#540,.F.);
#705=ORIENTED_EDGE('',*,*,#541,.F.);
#706=ORIENTED_EDGE('',*,*,#551,.F.);
#707=ORIENTED_EDGE('',*,*,#552,.F.);
#708=ORIENTED_EDGE('',*,*,#553,.F.);
#709=ORIENTED_EDGE('',*,*,#518,.T.);
#710=ORIENTED_EDGE('',*,*,#542,.F.);
#711=ORIENTED_EDGE('',*,*,#553,.T.);
#712=ORIENTED_EDGE('',*,*,#554,.T.);
#713=ORIENTED_EDGE('',*,*,#546,.T.);
#714=ORIENTED_EDGE('',*,*,#555,.F.);
#715=ORIENTED_EDGE('',*,*,#554,.F.);
#716=ORIENTED_EDGE('',*,*,#552,.T.);
#717=ORIENTED_EDGE('',*,*,#550,.T.);
#718=ORIENTED_EDGE('',*,*,#547,.T.);
#719=ORIENTED_EDGE('',*,*,#556,.F.);
#720=ORIENTED_EDGE('',*,*,#557,.T.);
#721=ORIENTED_EDGE('',*,*,#509,.F.);
#722=ORIENTED_EDGE('',*,*,#558,.F.);
#723=ORIENTED_EDGE('',*,*,#559,.F.);
#724=ORIENTED_EDGE('',*,*,#558,.T.);
#725=ORIENTED_EDGE('',*,*,#508,.F.);
#726=ORIENTED_EDGE('',*,*,#560,.F.);
#727=ORIENTED_EDGE('',*,*,#561,.F.);
#728=ORIENTED_EDGE('',*,*,#560,.T.);
#729=ORIENTED_EDGE('',*,*,#507,.F.);
#730=ORIENTED_EDGE('',*,*,#562,.F.);
#731=ORIENTED_EDGE('',*,*,#563,.F.);
#732=ORIENTED_EDGE('',*,*,#562,.T.);
#733=ORIENTED_EDGE('',*,*,#506,.F.);
#734=ORIENTED_EDGE('',*,*,#557,.F.);
#735=ORIENTED_EDGE('',*,*,#564,.F.);
#736=ORIENTED_EDGE('',*,*,#565,.T.);
#737=ORIENTED_EDGE('',*,*,#513,.F.);
#738=ORIENTED_EDGE('',*,*,#566,.F.);
#739=ORIENTED_EDGE('',*,*,#567,.F.);
#740=ORIENTED_EDGE('',*,*,#566,.T.);
#741=ORIENTED_EDGE('',*,*,#512,.F.);
#742=ORIENTED_EDGE('',*,*,#568,.F.);
#743=ORIENTED_EDGE('',*,*,#569,.F.);
#744=ORIENTED_EDGE('',*,*,#568,.T.);
#745=ORIENTED_EDGE('',*,*,#511,.F.);
#746=ORIENTED_EDGE('',*,*,#570,.F.);
#747=ORIENTED_EDGE('',*,*,#571,.F.);
#748=ORIENTED_EDGE('',*,*,#570,.T.);
#749=ORIENTED_EDGE('',*,*,#510,.F.);
#750=ORIENTED_EDGE('',*,*,#565,.F.);
#751=ORIENTED_EDGE('',*,*,#572,.F.);
#752=ORIENTED_EDGE('',*,*,#573,.T.);
#753=ORIENTED_EDGE('',*,*,#517,.F.);
#754=ORIENTED_EDGE('',*,*,#574,.F.);
#755=ORIENTED_EDGE('',*,*,#575,.F.);
#756=ORIENTED_EDGE('',*,*,#574,.T.);
#757=ORIENTED_EDGE('',*,*,#516,.F.);
#758=ORIENTED_EDGE('',*,*,#576,.F.);
#759=ORIENTED_EDGE('',*,*,#577,.F.);
#760=ORIENTED_EDGE('',*,*,#576,.T.);
#761=ORIENTED_EDGE('',*,*,#515,.F.);
#762=ORIENTED_EDGE('',*,*,#578,.F.);
#763=ORIENTED_EDGE('',*,*,#579,.F.);
#764=ORIENTED_EDGE('',*,*,#578,.T.);
#765=ORIENTED_EDGE('',*,*,#514,.F.);
#766=ORIENTED_EDGE('',*,*,#573,.F.);
#767=ORIENTED_EDGE('',*,*,#580,.F.);
#768=ORIENTED_EDGE('',*,*,#535,.T.);
#769=ORIENTED_EDGE('',*,*,#493,.F.);
#770=ORIENTED_EDGE('',*,*,#581,.F.);
#771=ORIENTED_EDGE('',*,*,#490,.T.);
#772=ORIENTED_EDGE('',*,*,#481,.F.);
#773=ORIENTED_EDGE('',*,*,#483,.F.);
#774=ORIENTED_EDGE('',*,*,#582,.F.);
#775=ORIENTED_EDGE('',*,*,#581,.T.);
#776=ORIENTED_EDGE('',*,*,#492,.F.);
#777=ORIENTED_EDGE('',*,*,#583,.F.);
#778=ORIENTED_EDGE('',*,*,#486,.T.);
#779=ORIENTED_EDGE('',*,*,#505,.F.);
#780=ORIENTED_EDGE('',*,*,#584,.F.);
#781=ORIENTED_EDGE('',*,*,#585,.F.);
#782=ORIENTED_EDGE('',*,*,#584,.T.);
#783=ORIENTED_EDGE('',*,*,#504,.F.);
#784=ORIENTED_EDGE('',*,*,#586,.F.);
#785=ORIENTED_EDGE('',*,*,#587,.F.);
#786=ORIENTED_EDGE('',*,*,#586,.T.);
#787=ORIENTED_EDGE('',*,*,#503,.F.);
#788=ORIENTED_EDGE('',*,*,#588,.F.);
#789=ORIENTED_EDGE('',*,*,#589,.F.);
#790=ORIENTED_EDGE('',*,*,#588,.T.);
#791=ORIENTED_EDGE('',*,*,#502,.F.);
#792=ORIENTED_EDGE('',*,*,#537,.F.);
#793=ORIENTED_EDGE('',*,*,#590,.F.);
#794=ORIENTED_EDGE('',*,*,#528,.F.);
#795=ORIENTED_EDGE('',*,*,#498,.F.);
#796=ORIENTED_EDGE('',*,*,#591,.F.);
#797=ORIENTED_EDGE('',*,*,#592,.F.);
#798=ORIENTED_EDGE('',*,*,#591,.T.);
#799=ORIENTED_EDGE('',*,*,#497,.F.);
#800=ORIENTED_EDGE('',*,*,#530,.F.);
#801=ORIENTED_EDGE('',*,*,#593,.T.);
#802=ORIENTED_EDGE('',*,*,#594,.F.);
#803=ORIENTED_EDGE('',*,*,#595,.F.);
#804=ORIENTED_EDGE('',*,*,#596,.T.);
#805=ORIENTED_EDGE('',*,*,#593,.F.);
#806=ORIENTED_EDGE('',*,*,#596,.F.);
#807=ORIENTED_EDGE('',*,*,#594,.T.);
#808=ORIENTED_EDGE('',*,*,#597,.T.);
#809=ORIENTED_EDGE('',*,*,#598,.F.);
#810=ORIENTED_EDGE('',*,*,#597,.F.);
#811=ORIENTED_EDGE('',*,*,#599,.T.);
#812=ORIENTED_EDGE('',*,*,#600,.F.);
#813=ORIENTED_EDGE('',*,*,#601,.F.);
#814=ORIENTED_EDGE('',*,*,#602,.T.);
#815=ORIENTED_EDGE('',*,*,#599,.F.);
#816=ORIENTED_EDGE('',*,*,#602,.F.);
#817=ORIENTED_EDGE('',*,*,#600,.T.);
#818=ORIENTED_EDGE('',*,*,#603,.T.);
#819=ORIENTED_EDGE('',*,*,#544,.F.);
#820=ORIENTED_EDGE('',*,*,#603,.F.);
#821=ORIENTED_EDGE('',*,*,#604,.T.);
#822=ORIENTED_EDGE('',*,*,#605,.F.);
#823=ORIENTED_EDGE('',*,*,#606,.F.);
#824=ORIENTED_EDGE('',*,*,#607,.T.);
#825=ORIENTED_EDGE('',*,*,#604,.F.);
#826=ORIENTED_EDGE('',*,*,#607,.F.);
#827=ORIENTED_EDGE('',*,*,#605,.T.);
#828=ORIENTED_EDGE('',*,*,#608,.T.);
#829=ORIENTED_EDGE('',*,*,#609,.F.);
#830=ORIENTED_EDGE('',*,*,#608,.F.);
#831=ORIENTED_EDGE('',*,*,#495,.T.);
#832=ORIENTED_EDGE('',*,*,#534,.F.);
#833=ORIENTED_EDGE('',*,*,#610,.T.);
#834=ORIENTED_EDGE('',*,*,#531,.T.);
#835=ORIENTED_EDGE('',*,*,#487,.T.);
#836=ORIENTED_EDGE('',*,*,#583,.T.);
#837=ORIENTED_EDGE('',*,*,#585,.T.);
#838=ORIENTED_EDGE('',*,*,#587,.T.);
#839=ORIENTED_EDGE('',*,*,#589,.T.);
#840=ORIENTED_EDGE('',*,*,#536,.F.);
#841=ORIENTED_EDGE('',*,*,#580,.T.);
#842=ORIENTED_EDGE('',*,*,#582,.T.);
#843=ORIENTED_EDGE('',*,*,#563,.T.);
#844=ORIENTED_EDGE('',*,*,#556,.T.);
#845=ORIENTED_EDGE('',*,*,#559,.T.);
#846=ORIENTED_EDGE('',*,*,#561,.T.);
#847=ORIENTED_EDGE('',*,*,#571,.T.);
#848=ORIENTED_EDGE('',*,*,#564,.T.);
#849=ORIENTED_EDGE('',*,*,#567,.T.);
#850=ORIENTED_EDGE('',*,*,#569,.T.);
#851=ORIENTED_EDGE('',*,*,#579,.T.);
#852=ORIENTED_EDGE('',*,*,#572,.T.);
#853=ORIENTED_EDGE('',*,*,#575,.T.);
#854=ORIENTED_EDGE('',*,*,#577,.T.);
#855=ORIENTED_EDGE('',*,*,#595,.T.);
#856=ORIENTED_EDGE('',*,*,#601,.T.);
#857=ORIENTED_EDGE('',*,*,#606,.T.);
#858=ORIENTED_EDGE('',*,*,#590,.T.);
#859=ORIENTED_EDGE('',*,*,#592,.T.);
#860=ORIENTED_EDGE('',*,*,#529,.T.);
#861=ORIENTED_EDGE('',*,*,#500,.T.);
#862=ORIENTED_EDGE('',*,*,#527,.T.);
#863=ORIENTED_EDGE('',*,*,#543,.F.);
#864=ORIENTED_EDGE('',*,*,#538,.F.);
#865=ORIENTED_EDGE('',*,*,#522,.T.);
#866=ORIENTED_EDGE('',*,*,#532,.T.);
#867=ORIENTED_EDGE('',*,*,#610,.F.);
#868=ORIENTED_EDGE('',*,*,#533,.F.);
#869=ORIENTED_EDGE('',*,*,#519,.T.);
#870=ORIENTED_EDGE('',*,*,#555,.T.);
#871=ORIENTED_EDGE('',*,*,#545,.T.);
#872=ORIENTED_EDGE('',*,*,#549,.T.);
#873=ORIENTED_EDGE('',*,*,#598,.T.);
#874=ORIENTED_EDGE('',*,*,#609,.T.);
#875=PLANE('',#978);
#876=PLANE('',#979);
#877=PLANE('',#980);
#878=PLANE('',#981);
#879=PLANE('',#982);
#880=PLANE('',#995);
#881=PLANE('',#996);
#882=PLANE('',#997);
#883=PLANE('',#999);
#884=PLANE('',#1003);
#885=PLANE('',#1004);
#886=PLANE('',#1005);
#887=PLANE('',#1008);
#888=PLANE('',#1011);
#889=PLANE('',#1014);
#890=PLANE('',#1017);
#891=PLANE('',#1020);
#892=PLANE('',#1023);
#893=PLANE('',#1024);
#894=PLANE('',#1025);
#895=PLANE('',#1026);
#896=PLANE('',#1027);
#897=PLANE('',#1028);
#898=PLANE('',#1029);
#899=PLANE('',#1032);
#900=PLANE('',#1033);
#901=PLANE('',#1040);
#902=PLANE('',#1046);
#903=PLANE('',#1053);
#904=PLANE('',#1054);
#905=PLANE('',#1055);
#906=PLANE('',#1056);
#907=ADVANCED_FACE('',(#79),#875,.F.);
#908=ADVANCED_FACE('',(#80),#876,.T.);
#909=ADVANCED_FACE('',(#81),#877,.F.);
#910=ADVANCED_FACE('',(#82),#878,.F.);
#911=ADVANCED_FACE('',(#83,#32,#33,#34),#879,.F.);
#912=ADVANCED_FACE('',(#84),#16,.F.);
#913=ADVANCED_FACE('',(#85),#17,.F.);
#914=ADVANCED_FACE('',(#86),#880,.T.);
#915=ADVANCED_FACE('',(#87),#881,.T.);
#916=ADVANCED_FACE('',(#88,#35),#882,.T.);
#917=ADVANCED_FACE('',(#89),#883,.F.);
#918=ADVANCED_FACE('',(#90),#18,.F.);
#919=ADVANCED_FACE('',(#91),#884,.T.);
#920=ADVANCED_FACE('',(#92),#885,.F.);
#921=ADVANCED_FACE('',(#93),#886,.F.);
#922=ADVANCED_FACE('',(#94),#19,.F.);
#923=ADVANCED_FACE('',(#95),#887,.T.);
#924=ADVANCED_FACE('',(#96),#20,.F.);
#925=ADVANCED_FACE('',(#97),#888,.T.);
#926=ADVANCED_FACE('',(#98),#21,.F.);
#927=ADVANCED_FACE('',(#99),#889,.T.);
#928=ADVANCED_FACE('',(#100),#22,.F.);
#929=ADVANCED_FACE('',(#101),#890,.T.);
#930=ADVANCED_FACE('',(#102),#23,.F.);
#931=ADVANCED_FACE('',(#103),#891,.T.);
#932=ADVANCED_FACE('',(#104),#24,.F.);
#933=ADVANCED_FACE('',(#105),#892,.T.);
#934=ADVANCED_FACE('',(#106),#893,.T.);
#935=ADVANCED_FACE('',(#107),#894,.T.);
#936=ADVANCED_FACE('',(#108),#895,.T.);
#937=ADVANCED_FACE('',(#109),#896,.T.);
#938=ADVANCED_FACE('',(#110),#897,.T.);
#939=ADVANCED_FACE('',(#111),#898,.T.);
#940=ADVANCED_FACE('',(#112),#25,.T.);
#941=ADVANCED_FACE('',(#113),#899,.T.);
#942=ADVANCED_FACE('',(#114,#36),#900,.T.);
#943=ADVANCED_FACE('',(#115),#26,.F.);
#944=ADVANCED_FACE('',(#116),#27,.F.);
#945=ADVANCED_FACE('',(#117,#37),#901,.T.);
#946=ADVANCED_FACE('',(#118),#28,.F.);
#947=ADVANCED_FACE('',(#119),#29,.F.);
#948=ADVANCED_FACE('',(#120,#38),#902,.T.);
#949=ADVANCED_FACE('',(#121),#30,.F.);
#950=ADVANCED_FACE('',(#122),#31,.F.);
#951=ADVANCED_FACE('',(#123),#903,.T.);
#952=ADVANCED_FACE('',(#124,#39,#40,#41,#42,#43,#44,#45),#904,.T.);
#953=ADVANCED_FACE('',(#125),#905,.T.);
#954=ADVANCED_FACE('',(#126,#46,#47),#906,.T.);
#955=CLOSED_SHELL('',(#907,#908,#909,#910,#911,#912,#913,#914,#915,#916,
#917,#918,#919,#920,#921,#922,#923,#924,#925,#926,#927,#928,#929,#930,#931,
#932,#933,#934,#935,#936,#937,#938,#939,#940,#941,#942,#943,#944,#945,#946,
#947,#948,#949,#950,#951,#952,#953,#954));
#956=DERIVED_UNIT_ELEMENT(#959,1.);
#957=DERIVED_UNIT_ELEMENT(#1608,-3.);
#958=DIMENSIONAL_EXPONENTS(0.,1.,0.,0.,0.,0.,0.);
#959=(
CONVERSION_BASED_UNIT('gram',#961)
MASS_UNIT()
NAMED_UNIT(#958)
);
#960=(
MASS_UNIT()
NAMED_UNIT(*)
SI_UNIT(.KILO.,.GRAM.)
);
#961=MASS_MEASURE_WITH_UNIT(MASS_MEASURE(0.001),#960);
#962=DERIVED_UNIT((#956,#957));
#963=MEASURE_REPRESENTATION_ITEM('density measure',
POSITIVE_RATIO_MEASURE(1.),#962);
#964=PROPERTY_DEFINITION_REPRESENTATION(#969,#966);
#965=PROPERTY_DEFINITION_REPRESENTATION(#970,#967);
#966=REPRESENTATION('material name',(#968),#1605);
#967=REPRESENTATION('density',(#963),#1605);
#968=DESCRIPTIVE_REPRESENTATION_ITEM('Generic','Generic');
#969=PROPERTY_DEFINITION('material property','material name',#1615);
#970=PROPERTY_DEFINITION('material property','density of part',#1615);
#971=DATE_TIME_ROLE('creation_date');
#972=APPLIED_DATE_AND_TIME_ASSIGNMENT(#973,#971,(#1615));
#973=DATE_AND_TIME(#974,#975);
#974=CALENDAR_DATE(2022,18,12);
#975=LOCAL_TIME(0,0,0.,#976);
#976=COORDINATED_UNIVERSAL_TIME_OFFSET(0,0,.BEHIND.);
#977=AXIS2_PLACEMENT_3D('',#1317,#1057,#1058);
#978=AXIS2_PLACEMENT_3D('',#1318,#1059,#1060);
#979=AXIS2_PLACEMENT_3D('',#1327,#1065,#1066);
#980=AXIS2_PLACEMENT_3D('',#1337,#1072,#1073);
#981=AXIS2_PLACEMENT_3D('',#1341,#1076,#1077);
#982=AXIS2_PLACEMENT_3D('',#1345,#1080,#1081);
#983=AXIS2_PLACEMENT_3D('',#1359,#1088,#1089);
#984=AXIS2_PLACEMENT_3D('',#1377,#1098,#1099);
#985=AXIS2_PLACEMENT_3D('',#1380,#1101,#1102);
#986=AXIS2_PLACEMENT_3D('',#1385,#1104,#1105);
#987=AXIS2_PLACEMENT_3D('',#1388,#1107,#1108);
#988=AXIS2_PLACEMENT_3D('',#1393,#1110,#1111);
#989=AXIS2_PLACEMENT_3D('',#1396,#1113,#1114);
#990=AXIS2_PLACEMENT_3D('',#1397,#1115,#1116);
#991=AXIS2_PLACEMENT_3D('',#1400,#1117,#1118);
#992=AXIS2_PLACEMENT_3D('',#1404,#1120,#1121);
#993=AXIS2_PLACEMENT_3D('',#1406,#1123,#1124);
#994=AXIS2_PLACEMENT_3D('',#1431,#1127,#1128);
#995=AXIS2_PLACEMENT_3D('',#1432,#1129,#1130);
#996=AXIS2_PLACEMENT_3D('',#1444,#1138,#1139);
#997=AXIS2_PLACEMENT_3D('',#1456,#1147,#1148);
#998=AXIS2_PLACEMENT_3D('',#1464,#1153,#1154);
#999=AXIS2_PLACEMENT_3D('',#1465,#1155,#1156);
#1000=AXIS2_PLACEMENT_3D('',#1473,#1160,#1161);
#1001=AXIS2_PLACEMENT_3D('',#1474,#1162,#1163);
#1002=AXIS2_PLACEMENT_3D('',#1478,#1166,#1167);
#1003=AXIS2_PLACEMENT_3D('',#1479,#1168,#1169);
#1004=AXIS2_PLACEMENT_3D('',#1483,#1172,#1173);
#1005=AXIS2_PLACEMENT_3D('',#1486,#1176,#1177);
#1006=AXIS2_PLACEMENT_3D('',#1487,#1178,#1179);
#1007=AXIS2_PLACEMENT_3D('',#1490,#1180,#1181);
#1008=AXIS2_PLACEMENT_3D('',#1493,#1184,#1185);
#1009=AXIS2_PLACEMENT_3D('',#1497,#1188,#1189);
#1010=AXIS2_PLACEMENT_3D('',#1499,#1190,#1191);
#1011=AXIS2_PLACEMENT_3D('',#1501,#1193,#1194);
#1012=AXIS2_PLACEMENT_3D('',#1503,#1196,#1197);
#1013=AXIS2_PLACEMENT_3D('',#1506,#1198,#1199);
#1014=AXIS2_PLACEMENT_3D('',#1509,#1202,#1203);
#1015=AXIS2_PLACEMENT_3D('',#1513,#1206,#1207);
#1016=AXIS2_PLACEMENT_3D('',#1515,#1208,#1209);
#1017=AXIS2_PLACEMENT_3D('',#1517,#1211,#1212);
#1018=AXIS2_PLACEMENT_3D('',#1519,#1214,#1215);
#1019=AXIS2_PLACEMENT_3D('',#1522,#1216,#1217);
#1020=AXIS2_PLACEMENT_3D('',#1525,#1220,#1221);
#1021=AXIS2_PLACEMENT_3D('',#1529,#1224,#1225);
#1022=AXIS2_PLACEMENT_3D('',#1531,#1226,#1227);
#1023=AXIS2_PLACEMENT_3D('',#1533,#1229,#1230);
#1024=AXIS2_PLACEMENT_3D('',#1535,#1232,#1233);
#1025=AXIS2_PLACEMENT_3D('',#1539,#1236,#1237);
#1026=AXIS2_PLACEMENT_3D('',#1541,#1239,#1240);
#1027=AXIS2_PLACEMENT_3D('',#1545,#1243,#1244);
#1028=AXIS2_PLACEMENT_3D('',#1549,#1247,#1248);
#1029=AXIS2_PLACEMENT_3D('',#1553,#1251,#1252);
#1030=AXIS2_PLACEMENT_3D('',#1555,#1254,#1255);
#1031=AXIS2_PLACEMENT_3D('',#1557,#1256,#1257);
#1032=AXIS2_PLACEMENT_3D('',#1559,#1259,#1260);
#1033=AXIS2_PLACEMENT_3D('',#1561,#1262,#1263);
#1034=AXIS2_PLACEMENT_3D('',#1563,#1264,#1265);
#1035=AXIS2_PLACEMENT_3D('',#1565,#1266,#1267);
#1036=AXIS2_PLACEMENT_3D('',#1566,#1268,#1269);
#1037=AXIS2_PLACEMENT_3D('',#1568,#1270,#1271);
#1038=AXIS2_PLACEMENT_3D('',#1570,#1273,#1274);
#1039=AXIS2_PLACEMENT_3D('',#1573,#1276,#1277);
#1040=AXIS2_PLACEMENT_3D('',#1574,#1278,#1279);
#1041=AXIS2_PLACEMENT_3D('',#1576,#1280,#1281);
#1042=AXIS2_PLACEMENT_3D('',#1578,#1282,#1283);
#1043=AXIS2_PLACEMENT_3D('',#1579,#1284,#1285);
#1044=AXIS2_PLACEMENT_3D('',#1581,#1286,#1287);
#1045=AXIS2_PLACEMENT_3D('',#1583,#1289,#1290);
#1046=AXIS2_PLACEMENT_3D('',#1585,#1292,#1293);
#1047=AXIS2_PLACEMENT_3D('',#1587,#1294,#1295);
#1048=AXIS2_PLACEMENT_3D('',#1589,#1296,#1297);
#1049=AXIS2_PLACEMENT_3D('',#1590,#1298,#1299);
#1050=AXIS2_PLACEMENT_3D('',#1592,#1300,#1301);
#1051=AXIS2_PLACEMENT_3D('',#1594,#1303,#1304);
#1052=AXIS2_PLACEMENT_3D('',#1597,#1306,#1307);
#1053=AXIS2_PLACEMENT_3D('',#1598,#1308,#1309);
#1054=AXIS2_PLACEMENT_3D('',#1600,#1311,#1312);
#1055=AXIS2_PLACEMENT_3D('',#1601,#1313,#1314);
#1056=AXIS2_PLACEMENT_3D('',#1602,#1315,#1316);
#1057=DIRECTION('axis',(0.,0.,1.));
#1058=DIRECTION('refdir',(1.,0.,0.));
#1059=DIRECTION('center_axis',(-6.1253708142372E-17,1.46985110515442E-30,
1.));
#1060=DIRECTION('ref_axis',(1.,0.,6.1253708142372E-17));
#1061=DIRECTION('',(1.,-2.16746837398357E-16,6.1253708142372E-17));
#1062=DIRECTION('',(3.87511973528891E-17,-1.,1.47222475968724E-30));
#1063=DIRECTION('',(1.,2.37299577782476E-16,6.1253708142372E-17));
#1064=DIRECTION('',(1.39695661955186E-15,1.,-1.38428233209283E-30));
#1065=DIRECTION('center_axis',(1.,3.87511973528891E-17,-7.40148683083438E-16));
#1066=DIRECTION('ref_axis',(3.87511973528891E-17,-1.,1.55640657352069E-31));
#1067=DIRECTION('',(-7.40148683083438E-16,2.5902126301504E-44,-1.));
#1068=DIRECTION('',(-4.44089209850063E-16,0.,-1.));
#1069=DIRECTION('',(3.87511973528891E-17,-1.,1.55640657352069E-31));
#1070=DIRECTION('',(-7.40148683083438E-16,0.,-1.));
#1071=DIRECTION('',(-3.4092773520323E-15,1.,1.88312356249878E-30));
#1072=DIRECTION('center_axis',(-2.16746837398357E-16,-1.,9.62549317577366E-32));
#1073=DIRECTION('ref_axis',(-1.,2.16746837398357E-16,6.04880106632718E-16));
#1074=DIRECTION('',(-4.44089209850063E-16,0.,-1.));
#1075=DIRECTION('',(1.,-2.16746837398357E-16,-6.04880106632718E-16));
#1076=DIRECTION('center_axis',(1.,-1.39695661955186E-15,-4.44089209850063E-16));
#1077=DIRECTION('ref_axis',(-1.39695661955186E-15,-1.,1.02407175473484E-30));
#1078=DIRECTION('',(4.44089209850063E-16,-7.22400096356238E-32,1.));
#1079=DIRECTION('',(1.39695661955186E-15,1.,-1.02407175473484E-30));
#1080=DIRECTION('center_axis',(6.04880106632718E-16,1.7908048573903E-31,
1.));
#1081=DIRECTION('ref_axis',(1.,0.,-6.04880106632718E-16));
#1082=DIRECTION('',(1.,2.44005060357177E-16,-6.04880106632718E-16));
#1083=DIRECTION('',(2.44005060357177E-16,-1.,3.14866788112578E-32));
#1084=DIRECTION('',(-1.,-2.44005060357177E-16,6.04880106632718E-16));
#1085=DIRECTION('',(2.96059473233375E-16,-1.,0.));
#1086=DIRECTION('',(1.,-1.62483334964496E-46,-6.04880106632718E-16));
#1087=DIRECTION('',(3.4506008464858E-17,1.,-1.99952483818723E-31));
#1088=DIRECTION('center_axis',(-6.04880106632718E-16,-1.97215226305253E-31,
-1.));
#1089=DIRECTION('ref_axis',(0.710423637294806,-0.703774293060508,-4.29721125481286E-16));
#1090=DIRECTION('',(1.,-1.62483334964496E-46,-6.04880106632718E-16));
#1091=DIRECTION('',(-2.96059473233375E-16,1.,0.));
#1092=DIRECTION('',(-1.,-2.44005060357177E-16,6.04880106632718E-16));
#1093=DIRECTION('',(-2.44005060357177E-16,1.,-3.14866788112578E-32));
#1094=DIRECTION('',(1.,2.44005060357177E-16,-6.04880106632718E-16));
#1095=DIRECTION('',(-2.44005060357177E-16,1.,-3.14866788112578E-32));
#1096=DIRECTION('',(1.,2.44005060357177E-16,-6.04880106632718E-16));
#1097=DIRECTION('',(2.44005060357177E-16,-1.,3.14866788112578E-32));
#1098=DIRECTION('center_axis',(6.04880106632718E-16,1.7908048573903E-31,
1.));
#1099=DIRECTION('ref_axis',(1.,2.44005060357177E-16,-6.04880106632718E-16));
#1100=DIRECTION('',(-2.44005060357177E-16,1.,-3.14866788112578E-32));
#1101=DIRECTION('center_axis',(6.04880106632718E-16,1.7908048573903E-31,
1.));
#1102=DIRECTION('ref_axis',(-1.,-2.44005060357177E-16,6.04880106632718E-16));
#1103=DIRECTION('',(-7.32015181071532E-17,1.,-1.34802343660698E-31));
#1104=DIRECTION('center_axis',(6.04880106632718E-16,1.7908048573903E-31,
1.));
#1105=DIRECTION('ref_axis',(-1.,-2.44005060357177E-16,6.04880106632718E-16));
#1106=DIRECTION('',(7.32015181071532E-17,-1.,1.34802343660698E-31));
#1107=DIRECTION('center_axis',(6.04880106632718E-16,1.7908048573903E-31,
1.));
#1108=DIRECTION('ref_axis',(1.,2.44005060357177E-16,-6.04880106632718E-16));
#1109=DIRECTION('',(2.44005060357177E-16,-1.,3.14866788112578E-32));
#1110=DIRECTION('center_axis',(6.04880106632718E-16,1.7908048573903E-31,
1.));
#1111=DIRECTION('ref_axis',(1.,2.44005060357177E-16,-6.04880106632718E-16));
#1112=DIRECTION('',(-2.44005060357177E-16,1.,-3.14866788112578E-32));
#1113=DIRECTION('center_axis',(6.04880106632718E-16,1.7908048573903E-31,
1.));
#1114=DIRECTION('ref_axis',(-1.,-2.44005060357177E-16,6.04880106632718E-16));
#1115=DIRECTION('center_axis',(0.,-1.,0.));
#1116=DIRECTION('ref_axis',(1.,0.,-6.10012650892943E-16));
#1117=DIRECTION('center_axis',(1.77635683940025E-16,-1.,1.94870103070909E-31));
#1118=DIRECTION('ref_axis',(1.,0.,-6.10012650892943E-16));
#1119=DIRECTION('',(0.,1.,0.));
#1120=DIRECTION('center_axis',(-2.22044604925032E-16,1.,-1.82178137679314E-31));
#1121=DIRECTION('ref_axis',(1.,0.,-6.10012650892943E-16));
#1122=DIRECTION('',(0.,-1.,0.));
#1123=DIRECTION('center_axis',(0.,-1.,0.));
#1124=DIRECTION('ref_axis',(1.,0.,-6.10012650892943E-16));
#1125=DIRECTION('',(0.,1.,0.));
#1126=DIRECTION('',(0.,-1.,0.));
#1127=DIRECTION('center_axis',(0.,-1.,2.68620728608545E-31));
#1128=DIRECTION('ref_axis',(1.,0.,-6.10012650892943E-16));
#1129=DIRECTION('center_axis',(0.,1.,-2.68620728608545E-31));
#1130=DIRECTION('ref_axis',(0.,2.68620728608545E-31,1.));
#1131=DIRECTION('',(1.,-1.62483334964496E-46,-6.04880106632719E-16));
#1132=DIRECTION('',(-6.04880106632718E-16,-2.68620728608545E-31,-1.));
#1133=DIRECTION('',(7.40148683083438E-16,0.,1.));
#1134=DIRECTION('',(-1.,1.62483334964496E-46,6.04880106632718E-16));
#1135=DIRECTION('',(-7.40148683083438E-16,-2.68620728608545E-31,-1.));
#1136=DIRECTION('',(6.04880106632718E-16,2.68620728608545E-31,1.));
#1137=DIRECTION('',(1.,-1.62483334964496E-46,-6.04880106632719E-16));
#1138=DIRECTION('center_axis',(2.22044604925032E-16,-1.,1.82178137679314E-31));
#1139=DIRECTION('ref_axis',(0.,-1.82178137679314E-31,-1.));
#1140=DIRECTION('',(1.,2.22044604925032E-16,-6.04880106632719E-16));
#1141=DIRECTION('',(6.04880106632718E-16,3.16488501983587E-31,1.));
#1142=DIRECTION('',(-7.40148683083438E-16,0.,-1.));
#1143=DIRECTION('',(-1.,-2.22044604925032E-16,6.04880106632718E-16));
#1144=DIRECTION('',(-7.40148683083438E-16,0.,-1.));
#1145=DIRECTION('',(-6.04880106632718E-16,-3.16488501983587E-31,-1.));
#1146=DIRECTION('',(1.,2.22044604925032E-16,-6.04880106632719E-16));
#1147=DIRECTION('center_axis',(-6.04880106632719E-16,-1.7908048573903E-31,
-1.));
#1148=DIRECTION('ref_axis',(-1.,-2.22044604925032E-16,6.04880106632719E-16));
#1149=DIRECTION('',(-1.,-1.77635683940025E-16,5.32907051820075E-16));
#1150=DIRECTION('',(2.22044604925032E-16,-1.,4.47701214347571E-32));
#1151=DIRECTION('',(1.,1.77635683940025E-16,-6.04880106632719E-16));
#1152=DIRECTION('',(-2.96059473233375E-16,1.,0.));
#1153=DIRECTION('center_axis',(6.04880106632719E-16,1.7908048573903E-31,
1.));
#1154=DIRECTION('ref_axis',(1.,2.44005060357177E-16,-6.04880106632718E-16));
#1155=DIRECTION('center_axis',(1.,2.22044604925032E-16,-6.04880106632719E-16));
#1156=DIRECTION('ref_axis',(-6.04880106632719E-16,0.,-1.));
#1157=DIRECTION('',(-2.22044604925032E-16,1.,-4.47701214347571E-32));
#1158=DIRECTION('',(-6.04880106632719E-16,-3.02318394514327E-31,-1.));
#1159=DIRECTION('',(2.22044604925032E-16,-1.,1.68008030210054E-31));
#1160=DIRECTION('center_axis',(1.,2.22044604925032E-16,-6.04880106632719E-16));
#1161=DIRECTION('ref_axis',(-6.4247657117468E-16,0.272117077393509,-0.962264150943396));
#1162=DIRECTION('center_axis',(1.,1.77635683940025E-16,-5.32907051820075E-16));
#1163=DIRECTION('ref_axis',(-5.6113505490595E-16,0.272117077393509,-0.962264150943396));
#1164=DIRECTION('',(-1.,-1.77635683940025E-16,5.32907051820075E-16));
#1165=DIRECTION('',(1.,1.77635683940025E-16,-5.32907051820075E-16));
#1166=DIRECTION('center_axis',(-1.,-2.22044604925032E-16,6.04880106632719E-16));
#1167=DIRECTION('ref_axis',(-6.4247657117468E-16,0.272117077393509,-0.962264150943396));
#1168=DIRECTION('center_axis',(1.,2.22044604925032E-16,-6.04880106632719E-16));
#1169=DIRECTION('ref_axis',(-6.04880106632719E-16,0.,-1.));
#1170=DIRECTION('',(-2.22044604925032E-16,1.,-1.68008030210054E-31));
#1171=DIRECTION('',(6.04880106632719E-16,3.02318394514327E-31,1.));
#1172=DIRECTION('center_axis',(1.77635683940025E-16,-1.,1.94870103070909E-31));
#1173=DIRECTION('ref_axis',(-6.04880106632719E-16,-3.02318394514327E-31,
-1.));
#1174=DIRECTION('',(1.,1.77635683940025E-16,-5.32907051820075E-16));
#1175=DIRECTION('',(1.,1.77635683940025E-16,-6.04880106632719E-16));
#1176=DIRECTION('center_axis',(5.32907051820075E-16,2.86337165993206E-31,
1.));
#1177=DIRECTION('ref_axis',(2.22044604925032E-16,-1.,1.68008030210054E-31));
#1178=DIRECTION('center_axis',(-7.40148683083438E-16,0.,-1.));
#1179=DIRECTION('ref_axis',(-1.,-2.44005060357177E-16,7.40148683083438E-16));
#1180=DIRECTION('center_axis',(-6.04880106632718E-16,-1.7908048573903E-31,
-1.));
#1181=DIRECTION('ref_axis',(-1.,-2.44005060357177E-16,6.04880106632718E-16));
#1182=DIRECTION('',(-7.40148683083438E-16,0.,-1.));
#1183=DIRECTION('',(-7.40148683083438E-16,0.,-1.));
#1184=DIRECTION('center_axis',(-1.,-2.44005060357177E-16,7.40148683083438E-16));
#1185=DIRECTION('ref_axis',(-2.44005060357177E-16,1.,-3.14866788112578E-32));
#1186=DIRECTION('',(2.44005060357177E-16,-1.,3.14866788112578E-32));
#1187=DIRECTION('',(-7.40148683083438E-16,0.,-1.));
#1188=DIRECTION('center_axis',(-7.40148683083438E-16,0.,-1.));
#1189=DIRECTION('ref_axis',(1.,2.44005060357177E-16,-7.40148683083438E-16));
#1190=DIRECTION('center_axis',(-6.04880106632718E-16,-1.7908048573903E-31,
-1.));
#1191=DIRECTION('ref_axis',(1.,2.44005060357177E-16,-6.04880106632718E-16));
#1192=DIRECTION('',(-7.40148683083438E-16,0.,-1.));
#1193=DIRECTION('center_axis',(1.,2.44005060357177E-16,-7.40148683083438E-16));
#1194=DIRECTION('ref_axis',(2.44005060357177E-16,-1.,3.14866788112578E-32));
#1195=DIRECTION('',(-2.44005060357177E-16,1.,-3.14866788112578E-32));
#1196=DIRECTION('center_axis',(-7.40148683083438E-16,0.,-1.));
#1197=DIRECTION('ref_axis',(1.,2.44005060357177E-16,-7.40148683083438E-16));
#1198=DIRECTION('center_axis',(-6.04880106632718E-16,-1.7908048573903E-31,
-1.));
#1199=DIRECTION('ref_axis',(1.,2.44005060357177E-16,-6.04880106632718E-16));
#1200=DIRECTION('',(-7.40148683083438E-16,0.,-1.));
#1201=DIRECTION('',(-7.40148683083438E-16,0.,-1.));
#1202=DIRECTION('center_axis',(1.,7.32015181071532E-17,-7.40148683083438E-16));
#1203=DIRECTION('ref_axis',(7.32015181071532E-17,-1.,1.34802343660698E-31));
#1204=DIRECTION('',(-7.32015181071532E-17,1.,-1.34802343660698E-31));
#1205=DIRECTION('',(-7.40148683083438E-16,0.,-1.));
#1206=DIRECTION('center_axis',(-7.40148683083438E-16,0.,-1.));
#1207=DIRECTION('ref_axis',(-1.,-2.44005060357177E-16,7.40148683083438E-16));
#1208=DIRECTION('center_axis',(-6.04880106632718E-16,-1.7908048573903E-31,
-1.));
#1209=DIRECTION('ref_axis',(-1.,-2.44005060357177E-16,6.04880106632718E-16));
#1210=DIRECTION('',(-7.40148683083438E-16,0.,-1.));
#1211=DIRECTION('center_axis',(-1.,-7.32015181071532E-17,7.40148683083438E-16));
#1212=DIRECTION('ref_axis',(-7.32015181071532E-17,1.,-1.34802343660698E-31));
#1213=DIRECTION('',(7.32015181071532E-17,-1.,1.34802343660698E-31));
#1214=DIRECTION('center_axis',(-7.40148683083438E-16,0.,-1.));
#1215=DIRECTION('ref_axis',(-1.,-2.44005060357177E-16,7.40148683083438E-16));
#1216=DIRECTION('center_axis',(-6.04880106632718E-16,-1.7908048573903E-31,
-1.));
#1217=DIRECTION('ref_axis',(-1.,-2.44005060357177E-16,6.04880106632718E-16));
#1218=DIRECTION('',(-7.40148683083438E-16,0.,-1.));
#1219=DIRECTION('',(-7.40148683083438E-16,0.,-1.));
#1220=DIRECTION('center_axis',(-1.,-2.44005060357177E-16,7.40148683083438E-16));
#1221=DIRECTION('ref_axis',(-2.44005060357177E-16,1.,-3.14866788112578E-32));
#1222=DIRECTION('',(2.44005060357177E-16,-1.,3.14866788112578E-32));
#1223=DIRECTION('',(-7.40148683083438E-16,0.,-1.));
#1224=DIRECTION('center_axis',(-7.40148683083438E-16,0.,-1.));
#1225=DIRECTION('ref_axis',(1.,2.44005060357177E-16,-7.40148683083438E-16));
#1226=DIRECTION('center_axis',(-6.04880106632718E-16,-1.7908048573903E-31,
-1.));
#1227=DIRECTION('ref_axis',(1.,2.44005060357177E-16,-6.04880106632718E-16));
#1228=DIRECTION('',(-7.40148683083438E-16,0.,-1.));
#1229=DIRECTION('center_axis',(1.,2.44005060357177E-16,-7.40148683083438E-16));
#1230=DIRECTION('ref_axis',(2.44005060357177E-16,-1.,3.14866788112578E-32));
#1231=DIRECTION('',(-2.44005060357177E-16,1.,-3.14866788112578E-32));
#1232=DIRECTION('center_axis',(1.,2.44005060357177E-16,-7.40148683083438E-16));
#1233=DIRECTION('ref_axis',(2.44005060357177E-16,-1.,3.14866788112578E-32));
#1234=DIRECTION('',(-2.44005060357177E-16,1.,-3.14866788112578E-32));
#1235=DIRECTION('',(-7.40148683083438E-16,0.,-1.));
#1236=DIRECTION('center_axis',(-2.44005060357177E-16,1.,1.80600024089059E-31));
#1237=DIRECTION('ref_axis',(1.,2.44005060357177E-16,-6.04880106632718E-16));
#1238=DIRECTION('',(-1.,-2.44005060357177E-16,6.04880106632718E-16));
#1239=DIRECTION('center_axis',(-2.44005060357177E-16,1.,1.80600024089059E-31));
#1240=DIRECTION('ref_axis',(1.,2.44005060357177E-16,-6.04880106632718E-16));
#1241=DIRECTION('',(-1.,-2.44005060357177E-16,6.04880106632718E-16));
#1242=DIRECTION('',(-7.40148683083438E-16,0.,-1.));
#1243=DIRECTION('center_axis',(-1.,-2.44005060357177E-16,7.40148683083438E-16));
#1244=DIRECTION('ref_axis',(-2.44005060357177E-16,1.,-3.14866788112578E-32));
#1245=DIRECTION('',(2.44005060357177E-16,-1.,3.14866788112578E-32));
#1246=DIRECTION('',(-7.40148683083438E-16,0.,-1.));
#1247=DIRECTION('center_axis',(-2.44005060357177E-16,1.,1.80600024089059E-31));
#1248=DIRECTION('ref_axis',(1.,2.44005060357177E-16,-6.04880106632718E-16));
#1249=DIRECTION('',(-1.,-2.44005060357177E-16,6.04880106632718E-16));
#1250=DIRECTION('',(-7.40148683083438E-16,0.,-1.));
#1251=DIRECTION('center_axis',(-1.,-2.44005060357177E-16,7.40148683083438E-16));
#1252=DIRECTION('ref_axis',(-2.44005060357177E-16,1.,-3.14866788112578E-32));
#1253=DIRECTION('',(2.44005060357177E-16,-1.,3.14866788112578E-32));
#1254=DIRECTION('center_axis',(-7.40148683083438E-16,0.,-1.));
#1255=DIRECTION('ref_axis',(0.710423637294806,-0.703774293060508,-5.25819119575096E-16));
#1256=DIRECTION('center_axis',(6.04880106632718E-16,1.97215226305253E-31,
1.));
#1257=DIRECTION('ref_axis',(0.710423637294806,-0.703774293060508,-4.29721125481286E-16));
#1258=DIRECTION('',(-7.40148683083438E-16,0.,-1.));
#1259=DIRECTION('center_axis',(-1.,3.4506008464858E-17,7.40148683083438E-16));
#1260=DIRECTION('ref_axis',(3.4506008464858E-17,1.,-1.99952483818723E-31));
#1261=DIRECTION('',(-3.4506008464858E-17,-1.,1.99952483818723E-31));
#1262=DIRECTION('center_axis',(6.04880106632718E-16,1.7908048573903E-31,
1.));
#1263=DIRECTION('ref_axis',(1.,2.44005060357177E-16,-6.04880106632718E-16));
#1264=DIRECTION('center_axis',(6.04880106632718E-16,1.7908048573903E-31,
1.));
#1265=DIRECTION('ref_axis',(1.,2.44005060357177E-16,-6.04880106632719E-16));
#1266=DIRECTION('center_axis',(6.04880106632718E-16,1.7908048573903E-31,
1.));
#1267=DIRECTION('ref_axis',(1.,2.44005060357177E-16,-6.04880106632718E-16));
#1268=DIRECTION('center_axis',(6.04880106632718E-16,1.7908048573903E-31,
1.));
#1269=DIRECTION('ref_axis',(1.,2.44005060357177E-16,-6.04880106632719E-16));
#1270=DIRECTION('center_axis',(-6.04880106632718E-16,-1.7908048573903E-31,
-1.));
#1271=DIRECTION('ref_axis',(1.,2.44005060357177E-16,-6.04880106632719E-16));
#1272=DIRECTION('',(-6.04880106632719E-16,-1.7908048573903E-31,-1.));
#1273=DIRECTION('center_axis',(6.04880106632718E-16,1.7908048573903E-31,
1.));
#1274=DIRECTION('ref_axis',(1.,2.44005060357177E-16,-6.04880106632718E-16));
#1275=DIRECTION('',(-6.04880106632718E-16,-1.7908048573903E-31,-1.));
#1276=DIRECTION('center_axis',(6.04880106632719E-16,1.7908048573903E-31,
1.));
#1277=DIRECTION('ref_axis',(1.,2.44005060357177E-16,-6.04880106632718E-16));
#1278=DIRECTION('center_axis',(6.04880106632718E-16,1.7908048573903E-31,
1.));
#1279=DIRECTION('ref_axis',(1.,2.44005060357177E-16,-6.04880106632718E-16));
#1280=DIRECTION('center_axis',(6.04880106632718E-16,1.7908048573903E-31,
1.));
#1281=DIRECTION('ref_axis',(1.,2.44005060357177E-16,-6.04880106632719E-16));
#1282=DIRECTION('center_axis',(6.04880106632718E-16,1.7908048573903E-31,
1.));
#1283=DIRECTION('ref_axis',(1.,2.44005060357177E-16,-6.04880106632718E-16));
#1284=DIRECTION('center_axis',(6.04880106632718E-16,1.7908048573903E-31,
1.));
#1285=DIRECTION('ref_axis',(1.,2.44005060357177E-16,-6.04880106632719E-16));
#1286=DIRECTION('center_axis',(-6.04880106632718E-16,-1.7908048573903E-31,
-1.));
#1287=DIRECTION('ref_axis',(1.,2.44005060357177E-16,-6.04880106632719E-16));
#1288=DIRECTION('',(-6.04880106632719E-16,-1.7908048573903E-31,-1.));
#1289=DIRECTION('center_axis',(6.04880106632718E-16,1.7908048573903E-31,
1.));
#1290=DIRECTION('ref_axis',(1.,2.44005060357177E-16,-6.04880106632718E-16));
#1291=DIRECTION('',(-6.04880106632718E-16,-1.7908048573903E-31,-1.));
#1292=DIRECTION('center_axis',(6.04880106632718E-16,1.7908048573903E-31,
1.));
#1293=DIRECTION('ref_axis',(1.,2.44005060357177E-16,-6.04880106632718E-16));
#1294=DIRECTION('center_axis',(6.04880106632718E-16,1.7908048573903E-31,
1.));
#1295=DIRECTION('ref_axis',(1.,2.44005060357177E-16,-6.04880106632719E-16));
#1296=DIRECTION('center_axis',(6.04880106632718E-16,1.7908048573903E-31,
1.));
#1297=DIRECTION('ref_axis',(1.,2.44005060357177E-16,-6.04880106632718E-16));
#1298=DIRECTION('center_axis',(6.04880106632718E-16,1.7908048573903E-31,
1.));
#1299=DIRECTION('ref_axis',(1.,2.44005060357177E-16,-6.04880106632719E-16));
#1300=DIRECTION('center_axis',(-6.04880106632718E-16,-1.7908048573903E-31,
-1.));
#1301=DIRECTION('ref_axis',(1.,2.44005060357177E-16,-6.04880106632719E-16));
#1302=DIRECTION('',(-6.04880106632719E-16,-1.7908048573903E-31,-1.));
#1303=DIRECTION('center_axis',(6.04880106632718E-16,1.7908048573903E-31,
1.));
#1304=DIRECTION('ref_axis',(1.,2.44005060357177E-16,-6.04880106632718E-16));
#1305=DIRECTION('',(-6.04880106632718E-16,-1.7908048573903E-31,-1.));
#1306=DIRECTION('center_axis',(6.04880106632719E-16,1.7908048573903E-31,
1.));
#1307=DIRECTION('ref_axis',(1.,2.44005060357177E-16,-6.04880106632718E-16));
#1308=DIRECTION('center_axis',(1.,2.96059473233375E-16,-6.04880106632718E-16));
#1309=DIRECTION('ref_axis',(-6.04880106632718E-16,-3.16488501983587E-31,
-1.));
#1310=DIRECTION('',(-2.96059473233375E-16,1.,0.));
#1311=DIRECTION('center_axis',(6.04880106632718E-16,1.7908048573903E-31,
1.));
#1312=DIRECTION('ref_axis',(1.,2.22044604925032E-16,-6.04880106632718E-16));
#1313=DIRECTION('center_axis',(-1.,-2.96059473233375E-16,6.04880106632718E-16));
#1314=DIRECTION('ref_axis',(6.04880106632718E-16,3.16488501983587E-31,1.));
#1315=DIRECTION('center_axis',(-6.04880106632719E-16,-1.7908048573903E-31,
-1.));
#1316=DIRECTION('ref_axis',(-1.,-2.22044604925032E-16,6.04880106632719E-16));
#1317=CARTESIAN_POINT('',(0.,0.,0.));
#1318=CARTESIAN_POINT('Origin',(9.84999981800859,5.25,8.79850993337723));
#1319=CARTESIAN_POINT('',(-12.9000001819914,0.499999999999988,8.79850993337722));
#1320=CARTESIAN_POINT('',(32.5999998180086,0.499999999999979,8.79850993337723));
#1321=CARTESIAN_POINT('',(21.2249998180086,0.499999999999982,8.79850993337723));
#1322=CARTESIAN_POINT('',(-12.9000001819914,10.,8.79850993337722));
#1323=CARTESIAN_POINT('',(-12.9000001819915,17.625,8.79850993337722));
#1324=CARTESIAN_POINT('',(32.5999998180086,10.,8.79850993337723));
#1325=CARTESIAN_POINT('',(-1.52500018199139,10.,8.79850993337722));
#1326=CARTESIAN_POINT('',(32.5999998180086,17.625,8.79850993337723));
#1327=CARTESIAN_POINT('Origin',(-12.9000001819915,30.,12.7985099333766));
#1328=CARTESIAN_POINT('',(-12.9000001819914,10.,12.7985099333766));
#1329=CARTESIAN_POINT('',(-12.9000001819915,10.,12.7985099333766));
#1330=CARTESIAN_POINT('',(-12.9000001819914,0.499999999999989,6.79850993337656));
#1331=CARTESIAN_POINT('',(-12.9000001819914,0.499999999999989,12.7985099333766));
#1332=CARTESIAN_POINT('',(-12.9000001819916,30.,6.79850993337656));
#1333=CARTESIAN_POINT('',(-12.9000001819915,0.0274405658572074,6.79850993337656));
#1334=CARTESIAN_POINT('',(-12.9000001819916,30.,12.7985099333766));
#1335=CARTESIAN_POINT('',(-12.9000001819916,30.,12.7985099333766));
#1336=CARTESIAN_POINT('',(-12.9000001819914,-4.75,12.7985099333766));
#1337=CARTESIAN_POINT('Origin',(32.5999998180086,0.499999999999979,12.7985099333765));
#1338=CARTESIAN_POINT('',(32.5999998180086,0.499999999999979,6.79850993337653));
#1339=CARTESIAN_POINT('',(32.5999998180086,0.499999999999979,12.7985099333765));
#1340=CARTESIAN_POINT('',(35.0999998180085,0.499999999999979,6.79850993337653));
#1341=CARTESIAN_POINT('Origin',(32.5999998180086,30.,12.7985099333765));
#1342=CARTESIAN_POINT('',(32.5999998180086,10.,6.79850993337653));
#1343=CARTESIAN_POINT('',(32.5999998180086,10.,12.7985099333765));
#1344=CARTESIAN_POINT('',(32.5999998180086,15.,6.79850993337653));
#1345=CARTESIAN_POINT('Origin',(37.5999998180084,2.16493489801906E-14,6.79850993337653));
#1346=CARTESIAN_POINT('',(42.5999998180084,10.,6.79850993337653));
#1347=CARTESIAN_POINT('',(-12.8729656430551,10.,6.79850993337656));
#1348=CARTESIAN_POINT('',(42.5999998180085,-9.99999999999998,6.79850993337653));
#1349=CARTESIAN_POINT('',(42.5999998180085,-9.99999999999998,6.79850993337653));
#1350=CARTESIAN_POINT('',(32.5999998180084,-9.99999999999998,6.79850993337654));
#1351=CARTESIAN_POINT('',(32.5999998180084,-9.99999999999998,6.79850993337654));
#1352=CARTESIAN_POINT('',(32.5999998180084,1.4432899320127E-14,6.79850993337654));
#1353=CARTESIAN_POINT('',(32.5999998180084,-4.99999999999998,6.79850993337653));
#1354=CARTESIAN_POINT('',(-2.90000018199148,1.4432899320127E-14,6.79850993337656));
#1355=CARTESIAN_POINT('',(23.7249998180084,4.44089209850063E-15,6.79850993337654));
#1356=CARTESIAN_POINT('',(-2.90000018199148,0.0274405658572097,6.79850993337656));
#1357=CARTESIAN_POINT('',(-2.90000018199148,8.00000000000001,6.79850993337656));
#1358=CARTESIAN_POINT('',(-2.92703472092783,7.7715611723761E-15,6.79850993337656));
#1359=CARTESIAN_POINT('Origin',(-7.90000018199148,4.92642005142357,6.79850993337656));
#1360=CARTESIAN_POINT('',(-12.9000001819916,4.44089209850063E-15,6.79850993337656));
#1361=CARTESIAN_POINT('',(23.7249998180084,4.44089209850063E-15,6.79850993337654));
#1362=CARTESIAN_POINT('',(-12.9000001819916,-9.99999999999999,6.79850993337656));
#1363=CARTESIAN_POINT('',(-12.9000001819916,-4.99999999999999,6.79850993337656));
#1364=CARTESIAN_POINT('',(-22.9000001819916,-9.99999999999999,6.79850993337657));
#1365=CARTESIAN_POINT('',(-22.9000001819916,-9.99999999999999,6.79850993337657));
#1366=CARTESIAN_POINT('',(-22.9000001819916,5.55111512312578E-15,6.79850993337657));
#1367=CARTESIAN_POINT('',(-22.9000001819916,5.55111512312578E-15,6.79850993337657));
#1368=CARTESIAN_POINT('',(-22.8729656430551,3.33066907387547E-15,6.79850993337657));
#1369=CARTESIAN_POINT('',(-12.9000001819916,7.99116572669756E-15,6.79850993337656));
#1370=CARTESIAN_POINT('',(-22.8729656430551,30.,6.79850993337657));
#1371=CARTESIAN_POINT('',(-22.8729656430551,10.,6.79850993337657));
#1372=CARTESIAN_POINT('',(-12.9000001819916,30.,6.79850993337656));
#1373=CARTESIAN_POINT('',(-19.4729656430551,6.5,6.79850993337657));
#1374=CARTESIAN_POINT('',(-19.4729656430551,-6.5,6.79850993337657));
#1375=CARTESIAN_POINT('',(-19.4729656430551,-6.5,6.79850993337657));
#1376=CARTESIAN_POINT('',(-16.2729656430551,-6.5,6.79850993337656));
#1377=CARTESIAN_POINT('Origin',(-17.8729656430551,-6.5,6.79850993337656));
#1378=CARTESIAN_POINT('',(-16.2729656430551,6.50000000000001,6.79850993337656));
#1379=CARTESIAN_POINT('',(-16.2729656430551,6.50000000000001,6.79850993337656));
#1380=CARTESIAN_POINT('Origin',(-17.8729656430551,6.5,6.79850993337656));
#1381=CARTESIAN_POINT('',(-16.2864829125233,13.1111499605627,6.79850993337656));
#1382=CARTESIAN_POINT('',(-16.2864829125233,26.1111499605627,6.79850993337656));
#1383=CARTESIAN_POINT('',(-16.2864829125233,26.1111499605627,6.79850993337656));
#1384=CARTESIAN_POINT('',(-19.4864829125233,26.1111499605627,6.79850993337657));
#1385=CARTESIAN_POINT('Origin',(-17.8864829125233,26.1111499605627,6.79850993337656));
#1386=CARTESIAN_POINT('',(-19.4864829125233,13.1111499605627,6.79850993337657));
#1387=CARTESIAN_POINT('',(-19.4864829125233,13.1111499605627,6.79850993337657));
#1388=CARTESIAN_POINT('Origin',(-17.8864829125233,13.1111499605627,6.79850993337656));
#1389=CARTESIAN_POINT('',(35.9999998180084,6.50000000000002,6.79850993337653));
#1390=CARTESIAN_POINT('',(35.9999998180084,-6.49999999999998,6.79850993337653));
#1391=CARTESIAN_POINT('',(35.9999998180085,-6.49999999999998,6.79850993337653));
#1392=CARTESIAN_POINT('',(39.1999998180085,-6.49999999999998,6.79850993337653));
#1393=CARTESIAN_POINT('Origin',(37.5999998180084,-6.49999999999998,6.79850993337653));
#1394=CARTESIAN_POINT('',(39.1999998180085,6.50000000000002,6.79850993337653));
#1395=CARTESIAN_POINT('',(39.1999998180085,6.50000000000002,6.79850993337653));
#1396=CARTESIAN_POINT('Origin',(37.5999998180084,6.50000000000002,6.79850993337653));
#1397=CARTESIAN_POINT('Origin',(5.92042213299119,4.44089209850062E-15,-0.00149006662343503));
#1398=CARTESIAN_POINT('',(8.42042213299119,-9.09999999999999,-0.00149006662343642));
#1399=CARTESIAN_POINT('',(3.42042213299119,-9.09999999999999,-0.00149006662343339));
#1400=CARTESIAN_POINT('Origin',(5.92042213299119,-9.09999999999999,-0.00149006662343503));
#1401=CARTESIAN_POINT('',(8.42042213299119,-9.99999999999999,-0.00149006662343668));
#1402=CARTESIAN_POINT('',(8.42042213299119,4.44089209850063E-15,-0.00149006662343668));
#1403=CARTESIAN_POINT('',(3.42042213299119,-9.99999999999999,-0.00149006662343365));
#1404=CARTESIAN_POINT('Origin',(5.92042213299119,-9.99999999999999,-0.00149006662343503));
#1405=CARTESIAN_POINT('',(3.42042213299119,4.44089209850063E-15,-0.00149006662343365));
#1406=CARTESIAN_POINT('Origin',(5.92042213299119,4.44089209850062E-15,-0.00149006662343503));
#1407=CARTESIAN_POINT('',(8.42042213299119,-3.12828568570855,-0.0014900666234365));
#1408=CARTESIAN_POINT('',(8.42042213299119,4.44089209850062E-15,-0.00149006662343655));
#1409=CARTESIAN_POINT('',(8.42042213299119,4.44089209850063E-15,-0.00149006662343668));
#1410=CARTESIAN_POINT('',(3.42042213299119,-3.12828568570855,-0.00149006662343383));
#1411=CARTESIAN_POINT('Ctrl Pts',(3.42042213299119,-3.12828568570855,-0.00149006662343375));
#1412=CARTESIAN_POINT('Ctrl Pts',(3.42042213299119,-3.12828568570855,0.317700293486876));
#1413=CARTESIAN_POINT('Ctrl Pts',(3.4852356644612,-3.15980584777166,0.6548599382318));
#1414=CARTESIAN_POINT('Ctrl Pts',(3.74200308877996,-3.27345722794605,1.26950114709266));
#1415=CARTESIAN_POINT('Ctrl Pts',(3.93370142762099,-3.35432082476806,1.5473231339391));
#1416=CARTESIAN_POINT('Ctrl Pts',(4.37206825076391,-3.50941550571533,1.98568995708202));
#1417=CARTESIAN_POINT('Ctrl Pts',(4.64972925246246,-3.59462617560598,2.17704759656842));
#1418=CARTESIAN_POINT('Ctrl Pts',(5.26369327551209,-3.71862530406603,2.43354414497622));
#1419=CARTESIAN_POINT('Ctrl Pts',(5.60056217949312,-3.75495710748938,2.49850993337656));
#1420=CARTESIAN_POINT('Ctrl Pts',(6.24028208648926,-3.75495710748938,2.49850993337656));
#1421=CARTESIAN_POINT('Ctrl Pts',(6.57715099047029,-3.71862530406603,2.43354414497622));
#1422=CARTESIAN_POINT('Ctrl Pts',(7.19111501351992,-3.59462617560598,2.17704759656842));
#1423=CARTESIAN_POINT('Ctrl Pts',(7.46877601521847,-3.50941550571533,1.98568995708202));
#1424=CARTESIAN_POINT('Ctrl Pts',(7.90714283836139,-3.35432082476806,1.5473231339391));
#1425=CARTESIAN_POINT('Ctrl Pts',(8.09884117720242,-3.27345722794605,1.26950114709266));
#1426=CARTESIAN_POINT('Ctrl Pts',(8.35560860152118,-3.15980584777166,0.654859938231799));
#1427=CARTESIAN_POINT('Ctrl Pts',(8.42042213299119,-3.12828568570855,0.317700293486875));
#1428=CARTESIAN_POINT('Ctrl Pts',(8.42042213299119,-3.12828568570855,-0.00149006662343569));
#1429=CARTESIAN_POINT('',(3.42042213299119,4.44089209850063E-15,-0.00149006662343365));
#1430=CARTESIAN_POINT('',(3.42042213299119,4.44089209850063E-15,-0.00149006662343365));
#1431=CARTESIAN_POINT('Origin',(5.92042213299119,4.44089209850063E-15,-0.00149006662343503));
#1432=CARTESIAN_POINT('Origin',(9.84999981800844,4.44089209850063E-15,6.39850993337656));
#1433=CARTESIAN_POINT('',(-12.9000001819916,4.44089209850063E-15,-0.00149006662342355));
#1434=CARTESIAN_POINT('',(21.2249998180084,4.44089209850063E-15,-0.0014900666234452));
#1435=CARTESIAN_POINT('',(-12.9000001819916,4.9960036108132E-15,3.19850993337657));
#1436=CARTESIAN_POINT('',(-2.92703472092783,7.7715611723761E-15,12.7985099333766));
#1437=CARTESIAN_POINT('',(-2.92703472092784,4.44089209850063E-15,12.7985099333766));
#1438=CARTESIAN_POINT('',(-2.90000018199148,1.4432899320127E-14,12.7985099333766));
#1439=CARTESIAN_POINT('',(-1.52500018199155,4.44089209850063E-15,12.7985099333766));
#1440=CARTESIAN_POINT('',(-2.90000018199148,4.44089209850063E-15,9.59850993337656));
#1441=CARTESIAN_POINT('',(32.5999998180084,4.44089209850063E-15,-0.0014900666234513));
#1442=CARTESIAN_POINT('',(32.5999998180084,4.44089209850063E-15,9.59850993337654));
#1443=CARTESIAN_POINT('',(21.2249998180084,4.44089209850063E-15,-0.0014900666234452));
#1444=CARTESIAN_POINT('Origin',(9.84999981800844,-9.99999999999999,7.39925496668827));
#1445=CARTESIAN_POINT('',(32.5999998180084,-9.99999999999998,-0.0014900666234513));
#1446=CARTESIAN_POINT('',(-12.9000001819916,-9.99999999999999,-0.00149006662342378));
#1447=CARTESIAN_POINT('',(32.5999998180084,-9.99999999999998,1.99999999999996));
#1448=CARTESIAN_POINT('',(42.5999998180085,-9.99999999999998,12.7985099333765));
#1449=CARTESIAN_POINT('',(42.5999998180085,-9.99999999999998,12.7985099333765));
#1450=CARTESIAN_POINT('',(-22.9000001819916,-9.99999999999999,12.7985099333766));
#1451=CARTESIAN_POINT('',(32.5999998180084,-9.99999999999998,12.7985099333765));
#1452=CARTESIAN_POINT('',(-22.9000001819916,-9.99999999999999,12.7985099333766));
#1453=CARTESIAN_POINT('',(-12.9000001819916,-9.99999999999999,-0.00149006662342355));
#1454=CARTESIAN_POINT('',(-12.9000001819916,-9.99999999999999,12.7985099333766));
#1455=CARTESIAN_POINT('',(-12.9000001819916,-9.99999999999999,-0.00149006662342378));
#1456=CARTESIAN_POINT('Origin',(32.5999998180084,-9.99999999999998,-0.0014900666234513));
#1457=CARTESIAN_POINT('',(-0.329577867008807,-3.12828568570855,-0.00149006662343138));
#1458=CARTESIAN_POINT('',(5.92042213299119,-3.12828568570855,-0.00149006662343516));
#1459=CARTESIAN_POINT('',(-0.329577867008806,-9.09999999999999,-0.00149006662343076));
#1460=CARTESIAN_POINT('',(-0.329577867008806,-8.05707142142713,-0.00149006662343138));
#1461=CARTESIAN_POINT('',(19.2602109754998,-9.09999999999999,-0.00149006662344298));
#1462=CARTESIAN_POINT('',(-12.9000001819916,-9.99999999999999,-0.00149006662342355));
#1463=CARTESIAN_POINT('',(-9.35000018199157,-4.99999999999998,-0.00149006662342545));
#1464=CARTESIAN_POINT('Origin',(-7.90000018199157,-4.99999999999998,-0.00149006662342632));
#1465=CARTESIAN_POINT('Origin',(12.1704221329912,-6.11414284285427,-0.00149006662343909));
#1466=CARTESIAN_POINT('',(12.1704221329912,-9.09999999999999,-0.00149006662343854));
#1467=CARTESIAN_POINT('',(12.1704221329912,-3.12828568570855,-0.00149006662343895));
#1468=CARTESIAN_POINT('',(12.1704221329912,-8.05707142142713,-0.00149006662343895));
#1469=CARTESIAN_POINT('',(12.1704221329912,-9.09999999999999,5.09850993337656));
#1470=CARTESIAN_POINT('',(12.1704221329912,-9.09999999999999,5.09850993337656));
#1471=CARTESIAN_POINT('',(12.1704221329912,-6.98606517552295,5.09850993337656));
#1472=CARTESIAN_POINT('',(12.1704221329912,-6.98606517552295,5.09850993337656));
#1473=CARTESIAN_POINT('Origin',(12.1704221329912,-8.42828568570856,-0.00149006662343854));
#1474=CARTESIAN_POINT('Origin',(5.92042213299119,-8.42828568570856,-0.0014900666234352));
#1475=CARTESIAN_POINT('',(5.92042213299119,-3.12828568570855,-0.00149006662343516));
#1476=CARTESIAN_POINT('',(-0.329577867008803,-6.98606517552295,5.09850993337657));
#1477=CARTESIAN_POINT('',(5.9204221329912,-6.98606517552295,5.09850993337657));
#1478=CARTESIAN_POINT('Origin',(-0.329577867008807,-8.42828568570856,-0.00149006662343187));
#1479=CARTESIAN_POINT('Origin',(-0.329577867008807,-6.11414284285427,-0.00149006662343243));
#1480=CARTESIAN_POINT('',(-0.329577867008803,-9.09999999999999,5.09850993337657));
#1481=CARTESIAN_POINT('',(-0.329577867008803,-6.98606517552295,5.09850993337657));
#1482=CARTESIAN_POINT('',(-0.329577867008803,-9.09999999999999,5.09850993337657));
#1483=CARTESIAN_POINT('Origin',(5.9204221329912,-9.09999999999999,5.09850993337657));
#1484=CARTESIAN_POINT('',(5.9204221329912,-9.09999999999999,5.09850993337657));
#1485=CARTESIAN_POINT('',(19.2602109754998,-9.09999999999999,-0.00149006662344298));
#1486=CARTESIAN_POINT('Origin',(5.9204221329912,-6.98606517552295,5.09850993337657));
#1487=CARTESIAN_POINT('Origin',(-17.8729656430551,6.5,12.7985099333766));
#1488=CARTESIAN_POINT('',(-19.4729656430551,6.5,12.7985099333766));
#1489=CARTESIAN_POINT('',(-16.2729656430551,6.50000000000001,12.7985099333766));
#1490=CARTESIAN_POINT('Origin',(-17.8729656430551,6.5,12.7985099333766));
#1491=CARTESIAN_POINT('',(-19.4729656430551,6.5,12.7985099333766));
#1492=CARTESIAN_POINT('',(-16.2729656430551,6.50000000000001,12.7985099333766));
#1493=CARTESIAN_POINT('Origin',(-16.2729656430551,-6.5,12.7985099333766));
#1494=CARTESIAN_POINT('',(-16.2729656430551,-6.5,12.7985099333766));
#1495=CARTESIAN_POINT('',(-16.2729656430551,6.50000000000001,12.7985099333766));
#1496=CARTESIAN_POINT('',(-16.2729656430551,-6.5,12.7985099333766));
#1497=CARTESIAN_POINT('Origin',(-17.8729656430551,-6.5,12.7985099333766));
#1498=CARTESIAN_POINT('',(-19.4729656430551,-6.5,12.7985099333766));
#1499=CARTESIAN_POINT('Origin',(-17.8729656430551,-6.5,12.7985099333766));
#1500=CARTESIAN_POINT('',(-19.4729656430551,-6.5,12.7985099333766));
#1501=CARTESIAN_POINT('Origin',(-19.4729656430551,6.5,12.7985099333766));
#1502=CARTESIAN_POINT('',(-19.4729656430551,-6.5,12.7985099333766));
#1503=CARTESIAN_POINT('Origin',(-17.8864829125233,13.1111499605627,12.7985099333766));
#1504=CARTESIAN_POINT('',(-16.2864829125233,13.1111499605627,12.7985099333766));
#1505=CARTESIAN_POINT('',(-19.4864829125233,13.1111499605627,12.7985099333766));
#1506=CARTESIAN_POINT('Origin',(-17.8864829125233,13.1111499605627,12.7985099333766));
#1507=CARTESIAN_POINT('',(-16.2864829125233,13.1111499605627,12.7985099333766));
#1508=CARTESIAN_POINT('',(-19.4864829125233,13.1111499605627,12.7985099333766));
#1509=CARTESIAN_POINT('Origin',(-19.4864829125233,26.1111499605627,12.7985099333766));
#1510=CARTESIAN_POINT('',(-19.4864829125233,26.1111499605627,12.7985099333766));
#1511=CARTESIAN_POINT('',(-19.4864829125233,13.1111499605627,12.7985099333766));
#1512=CARTESIAN_POINT('',(-19.4864829125233,26.1111499605627,12.7985099333766));
#1513=CARTESIAN_POINT('Origin',(-17.8864829125233,26.1111499605627,12.7985099333766));
#1514=CARTESIAN_POINT('',(-16.2864829125233,26.1111499605627,12.7985099333766));
#1515=CARTESIAN_POINT('Origin',(-17.8864829125233,26.1111499605627,12.7985099333766));
#1516=CARTESIAN_POINT('',(-16.2864829125233,26.1111499605627,12.7985099333766));
#1517=CARTESIAN_POINT('Origin',(-16.2864829125233,13.1111499605627,12.7985099333766));
#1518=CARTESIAN_POINT('',(-16.2864829125233,26.1111499605627,12.7985099333766));
#1519=CARTESIAN_POINT('Origin',(37.5999998180085,6.50000000000002,12.7985099333765));
#1520=CARTESIAN_POINT('',(35.9999998180085,6.50000000000002,12.7985099333765));
#1521=CARTESIAN_POINT('',(39.1999998180085,6.50000000000002,12.7985099333765));
#1522=CARTESIAN_POINT('Origin',(37.5999998180085,6.50000000000002,12.7985099333765));
#1523=CARTESIAN_POINT('',(35.9999998180085,6.50000000000002,12.7985099333765));
#1524=CARTESIAN_POINT('',(39.1999998180085,6.50000000000002,12.7985099333765));
#1525=CARTESIAN_POINT('Origin',(39.1999998180085,-6.49999999999998,12.7985099333765));
#1526=CARTESIAN_POINT('',(39.1999998180085,-6.49999999999998,12.7985099333765));
#1527=CARTESIAN_POINT('',(39.1999998180085,6.50000000000002,12.7985099333765));
#1528=CARTESIAN_POINT('',(39.1999998180085,-6.49999999999998,12.7985099333765));
#1529=CARTESIAN_POINT('Origin',(37.5999998180085,-6.49999999999998,12.7985099333765));
#1530=CARTESIAN_POINT('',(35.9999998180085,-6.49999999999998,12.7985099333765));
#1531=CARTESIAN_POINT('Origin',(37.5999998180085,-6.49999999999998,12.7985099333765));
#1532=CARTESIAN_POINT('',(35.9999998180085,-6.49999999999998,12.7985099333765));
#1533=CARTESIAN_POINT('Origin',(35.9999998180085,6.50000000000002,12.7985099333765));
#1534=CARTESIAN_POINT('',(35.9999998180085,-6.49999999999998,12.7985099333765));
#1535=CARTESIAN_POINT('Origin',(42.5999998180084,10.,12.7985099333765));
#1536=CARTESIAN_POINT('',(42.5999998180084,10.,12.7985099333765));
#1537=CARTESIAN_POINT('',(42.5999998180085,-9.99999999999998,12.7985099333765));
#1538=CARTESIAN_POINT('',(42.5999998180084,10.,12.7985099333765));
#1539=CARTESIAN_POINT('Origin',(-12.9000001819915,10.,12.7985099333766));
#1540=CARTESIAN_POINT('',(-12.8729656430551,10.,12.7985099333766));
#1541=CARTESIAN_POINT('Origin',(-22.8729656430551,30.,12.7985099333766));
#1542=CARTESIAN_POINT('',(-22.8729656430551,30.,12.7985099333766));
#1543=CARTESIAN_POINT('',(-12.9000001819916,30.,12.7985099333766));
#1544=CARTESIAN_POINT('',(-22.8729656430551,30.,12.7985099333766));
#1545=CARTESIAN_POINT('Origin',(-22.8729656430551,4.44089209850063E-15,
12.7985099333766));
#1546=CARTESIAN_POINT('',(-22.8729656430551,3.33066907387547E-15,12.7985099333766));
#1547=CARTESIAN_POINT('',(-22.8729656430551,10.,12.7985099333766));
#1548=CARTESIAN_POINT('',(-22.8729656430551,3.33066907387547E-15,12.7985099333766));
#1549=CARTESIAN_POINT('Origin',(-22.9000001819916,5.55111512312578E-15,
12.7985099333766));
#1550=CARTESIAN_POINT('',(-22.9000001819916,5.55111512312578E-15,12.7985099333766));
#1551=CARTESIAN_POINT('',(-12.9000001819916,7.99116572669756E-15,12.7985099333766));
#1552=CARTESIAN_POINT('',(-22.9000001819916,5.55111512312578E-15,12.7985099333766));
#1553=CARTESIAN_POINT('Origin',(-22.9000001819916,-9.99999999999999,12.7985099333766));
#1554=CARTESIAN_POINT('',(-22.9000001819916,5.55111512312578E-15,12.7985099333766));
#1555=CARTESIAN_POINT('Origin',(-7.90000018199147,4.92642005142357,12.7985099333766));
#1556=CARTESIAN_POINT('',(-2.90000018199147,0.0274405658572097,12.7985099333766));
#1557=CARTESIAN_POINT('Origin',(-7.90000018199147,4.92642005142357,12.7985099333766));
#1558=CARTESIAN_POINT('',(-2.90000018199147,0.0274405658572097,12.7985099333766));
#1559=CARTESIAN_POINT('Origin',(-2.90000018199147,1.4432899320127E-14,12.7985099333766));
#1560=CARTESIAN_POINT('',(-2.90000018199147,8.00000000000001,12.7985099333766));
#1561=CARTESIAN_POINT('Origin',(17.6801485586777,-4.99999999999998,9.79850993337655));
#1562=CARTESIAN_POINT('',(14.4301485586777,-4.99999999999998,9.79850993337655));
#1563=CARTESIAN_POINT('Origin',(17.6801485586777,-4.99999999999998,9.79850993337655));
#1564=CARTESIAN_POINT('',(16.2301485586777,-4.99999999999998,9.79850993337655));
#1565=CARTESIAN_POINT('Origin',(17.6801485586777,-4.99999999999998,9.79850993337655));
#1566=CARTESIAN_POINT('Origin',(17.6801485586777,-4.99999999999998,11.2985099333765));
#1567=CARTESIAN_POINT('',(14.4301485586777,-4.99999999999998,12.7985099333765));
#1568=CARTESIAN_POINT('Origin',(17.6801485586777,-4.99999999999998,12.7985099333765));
#1569=CARTESIAN_POINT('',(14.4301485586777,-4.99999999999998,11.2985099333765));
#1570=CARTESIAN_POINT('Origin',(17.6801485586776,-4.99999999999998,-35.5139108298185));
#1571=CARTESIAN_POINT('',(16.2301485586777,-4.99999999999998,-0.00149006662344321));
#1572=CARTESIAN_POINT('',(16.2301485586776,-4.99999999999998,-35.5139108298185));
#1573=CARTESIAN_POINT('Origin',(17.6801485586777,-4.99999999999998,-0.00149006662344409));
#1574=CARTESIAN_POINT('Origin',(-7.90000018199156,-4.99999999999998,9.79850993337656));
#1575=CARTESIAN_POINT('',(-11.1500001819916,-4.99999999999999,9.79850993337656));
#1576=CARTESIAN_POINT('Origin',(-7.90000018199156,-4.99999999999998,9.79850993337656));
#1577=CARTESIAN_POINT('',(-9.35000018199156,-4.99999999999998,9.79850993337656));
#1578=CARTESIAN_POINT('Origin',(-7.90000018199156,-4.99999999999998,9.79850993337656));
#1579=CARTESIAN_POINT('Origin',(-7.90000018199156,-4.99999999999998,11.2985099333766));
#1580=CARTESIAN_POINT('',(-11.1500001819916,-4.99999999999999,12.7985099333766));
#1581=CARTESIAN_POINT('Origin',(-7.90000018199156,-4.99999999999998,12.7985099333766));
#1582=CARTESIAN_POINT('',(-11.1500001819916,-4.99999999999999,11.2985099333766));
#1583=CARTESIAN_POINT('Origin',(-7.90000018199159,-4.99999999999998,-35.5139108298185));
#1584=CARTESIAN_POINT('',(-9.35000018199159,-4.99999999999998,-35.5139108298185));
#1585=CARTESIAN_POINT('Origin',(27.5198510773392,-4.99999999999998,9.79850993337654));
#1586=CARTESIAN_POINT('',(24.2698510773392,-4.99999999999998,9.79850993337654));
#1587=CARTESIAN_POINT('Origin',(27.5198510773392,-4.99999999999998,9.79850993337654));
#1588=CARTESIAN_POINT('',(26.0698510773392,-4.99999999999998,9.79850993337654));
#1589=CARTESIAN_POINT('Origin',(27.5198510773392,-4.99999999999998,9.79850993337654));
#1590=CARTESIAN_POINT('Origin',(27.5198510773392,-4.99999999999998,11.2985099333765));
#1591=CARTESIAN_POINT('',(24.2698510773392,-4.99999999999998,12.7985099333765));
#1592=CARTESIAN_POINT('Origin',(27.5198510773392,-4.99999999999998,12.7985099333765));
#1593=CARTESIAN_POINT('',(24.2698510773392,-4.99999999999998,11.2985099333765));
#1594=CARTESIAN_POINT('Origin',(27.5198510773392,-4.99999999999998,-35.5139108298185));
#1595=CARTESIAN_POINT('',(26.0698510773392,-4.99999999999998,-0.00149006662344765));
#1596=CARTESIAN_POINT('',(26.0698510773392,-4.99999999999998,-35.5139108298185));
#1597=CARTESIAN_POINT('Origin',(27.5198510773392,-4.99999999999998,-0.00149006662344853));
#1598=CARTESIAN_POINT('Origin',(32.5999998180084,-9.99999999999998,12.7985099333765));
#1599=CARTESIAN_POINT('',(32.5999998180084,-9.99999999999998,-0.0014900666234513));
#1600=CARTESIAN_POINT('Origin',(-12.9000001819916,-9.99999999999999,12.7985099333766));
#1601=CARTESIAN_POINT('Origin',(-12.9000001819916,-9.99999999999999,-0.00149006662342188));
#1602=CARTESIAN_POINT('Origin',(32.5999998180084,-9.99999999999998,-0.0014900666234513));
#1603=UNCERTAINTY_MEASURE_WITH_UNIT(LENGTH_MEASURE(0.01),#1607,
'DISTANCE_ACCURACY_VALUE',
'Maximum model space distance between geometric entities at asserted c
onnectivities');
#1604=UNCERTAINTY_MEASURE_WITH_UNIT(LENGTH_MEASURE(0.01),#1607,
'DISTANCE_ACCURACY_VALUE',
'Maximum model space distance between geometric entities at asserted c
onnectivities');
#1605=(
GEOMETRIC_REPRESENTATION_CONTEXT(3)
GLOBAL_UNCERTAINTY_ASSIGNED_CONTEXT((#1603))
GLOBAL_UNIT_ASSIGNED_CONTEXT((#1607,#1609,#1610))
REPRESENTATION_CONTEXT('','3D')
);
#1606=(
GEOMETRIC_REPRESENTATION_CONTEXT(3)
GLOBAL_UNCERTAINTY_ASSIGNED_CONTEXT((#1604))
GLOBAL_UNIT_ASSIGNED_CONTEXT((#1607,#1609,#1610))
REPRESENTATION_CONTEXT('','3D')
);
#1607=(
LENGTH_UNIT()
NAMED_UNIT(*)
SI_UNIT(.MILLI.,.METRE.)
);
#1608=(
LENGTH_UNIT()
NAMED_UNIT(*)
SI_UNIT(.CENTI.,.METRE.)
);
#1609=(
NAMED_UNIT(*)
PLANE_ANGLE_UNIT()
SI_UNIT($,.RADIAN.)
);
#1610=(
NAMED_UNIT(*)
SI_UNIT($,.STERADIAN.)
SOLID_ANGLE_UNIT()
);
#1611=SHAPE_DEFINITION_REPRESENTATION(#1612,#1613);
#1612=PRODUCT_DEFINITION_SHAPE('',$,#1615);
#1613=SHAPE_REPRESENTATION('',(#977),#1605);
#1614=PRODUCT_DEFINITION_CONTEXT('part definition',#1619,'design');
#1615=PRODUCT_DEFINITION(
'30_Lightsheet_generator_passive_lid_v1_singlegalvo',
'30_Lightsheet_generator_passive_lid_v1_singlegalvo',#1616,#1614);
#1616=PRODUCT_DEFINITION_FORMATION('',$,#1621);
#1617=PRODUCT_RELATED_PRODUCT_CATEGORY(
'30_Lightsheet_generator_passive_lid_v1_singlegalvo',
'30_Lightsheet_generator_passive_lid_v1_singlegalvo',(#1621));
#1618=APPLICATION_PROTOCOL_DEFINITION('international standard',
'automotive_design',2009,#1619);
#1619=APPLICATION_CONTEXT(
'Core Data for Automotive Mechanical Design Process');
#1620=PRODUCT_CONTEXT('part definition',#1619,'mechanical');
#1621=PRODUCT('30_Lightsheet_generator_passive_lid_v1_singlegalvo',
'30_Lightsheet_generator_passive_lid_v1_singlegalvo',$,(#1620));
#1622=PRESENTATION_STYLE_ASSIGNMENT((#1623));
#1623=SURFACE_STYLE_USAGE(.BOTH.,#1626);
#1624=SURFACE_STYLE_RENDERING_WITH_PROPERTIES($,#1630,(#1625));
#1625=SURFACE_STYLE_TRANSPARENT(0.);
#1626=SURFACE_SIDE_STYLE('',(#1627,#1624));
#1627=SURFACE_STYLE_FILL_AREA(#1628);
#1628=FILL_AREA_STYLE('',(#1629));
#1629=FILL_AREA_STYLE_COLOUR('',#1630);
#1630=COLOUR_RGB('',0.8,0.,0.);
ENDSEC;
END-ISO-10303-21;
