ISO-10303-21;
HEADER;
/* Generated by software containing ST-Developer
 * from STEP Tools, Inc. (www.steptools.com) 
 */

FILE_DESCRIPTION(
/* description */ (''),
/* implementation_level */ '2;1');

FILE_NAME(
/* name */ 'HolisheetCageSampleWater.stp',
/* time_stamp */ '2024-08-13T11:36:45+02:00',
/* author */ ('diederichbenedict'),
/* organization */ (''),
/* preprocessor_version */ 'ST-DEVELOPER v20',
/* originating_system */ 'Autodesk Inventor 2024',
/* authorisation */ '');

FILE_SCHEMA (('AUTOMOTIVE_DESIGN { 1 0 10303 214 3 1 1 }'));
ENDSEC;

DATA;
#10=MECHANICAL_DESIGN_GEOMETRIC_PRESENTATION_REPRESENTATION('',(#13),#528);
#11=SHAPE_REPRESENTATION_RELATIONSHIP('SRR','None',#535,#12);
#12=ADVANCED_BREP_SHAPE_REPRESENTATION('',(#14),#527);
#13=STYLED_ITEM('',(#544),#14);
#14=MANIFOLD_SOLID_BREP('Volumenk\X\F6rper1',#319);
#15=FACE_BOUND('',#50,.T.);
#16=FACE_BOUND('',#52,.T.);
#17=FACE_BOUND('',#59,.T.);
#18=FACE_BOUND('',#63,.T.);
#19=FACE_BOUND('',#67,.T.);
#20=PLANE('',#345);
#21=PLANE('',#346);
#22=PLANE('',#347);
#23=PLANE('',#348);
#24=PLANE('',#349);
#25=PLANE('',#350);
#26=PLANE('',#351);
#27=PLANE('',#352);
#28=PLANE('',#356);
#29=PLANE('',#357);
#30=PLANE('',#358);
#31=PLANE('',#359);
#32=PLANE('',#360);
#33=FACE_OUTER_BOUND('',#48,.T.);
#34=FACE_OUTER_BOUND('',#49,.T.);
#35=FACE_OUTER_BOUND('',#51,.T.);
#36=FACE_OUTER_BOUND('',#53,.T.);
#37=FACE_OUTER_BOUND('',#54,.T.);
#38=FACE_OUTER_BOUND('',#55,.T.);
#39=FACE_OUTER_BOUND('',#56,.T.);
#40=FACE_OUTER_BOUND('',#57,.T.);
#41=FACE_OUTER_BOUND('',#58,.T.);
#42=FACE_OUTER_BOUND('',#60,.T.);
#43=FACE_OUTER_BOUND('',#61,.T.);
#44=FACE_OUTER_BOUND('',#62,.T.);
#45=FACE_OUTER_BOUND('',#64,.T.);
#46=FACE_OUTER_BOUND('',#65,.T.);
#47=FACE_OUTER_BOUND('',#66,.T.);
#48=EDGE_LOOP('',(#218,#219,#220,#221));
#49=EDGE_LOOP('',(#222,#223,#224,#225));
#50=EDGE_LOOP('',(#226));
#51=EDGE_LOOP('',(#227,#228,#229,#230,#231,#232,#233,#234));
#52=EDGE_LOOP('',(#235));
#53=EDGE_LOOP('',(#236,#237,#238,#239));
#54=EDGE_LOOP('',(#240,#241,#242,#243));
#55=EDGE_LOOP('',(#244,#245,#246,#247));
#56=EDGE_LOOP('',(#248,#249,#250,#251));
#57=EDGE_LOOP('',(#252,#253,#254,#255));
#58=EDGE_LOOP('',(#256,#257,#258,#259,#260,#261,#262,#263));
#59=EDGE_LOOP('',(#264));
#60=EDGE_LOOP('',(#265,#266,#267,#268));
#61=EDGE_LOOP('',(#269,#270,#271,#272));
#62=EDGE_LOOP('',(#273,#274,#275,#276));
#63=EDGE_LOOP('',(#277,#278,#279,#280));
#64=EDGE_LOOP('',(#281,#282,#283,#284,#285,#286,#287,#288));
#65=EDGE_LOOP('',(#289,#290,#291,#292,#293,#294,#295,#296));
#66=EDGE_LOOP('',(#297,#298,#299,#300));
#67=EDGE_LOOP('',(#301));
#68=LINE('',#444,#106);
#69=LINE('',#449,#107);
#70=LINE('',#451,#108);
#71=LINE('',#453,#109);
#72=LINE('',#454,#110);
#73=LINE('',#458,#111);
#74=LINE('',#460,#112);
#75=LINE('',#462,#113);
#76=LINE('',#464,#114);
#77=LINE('',#466,#115);
#78=LINE('',#468,#116);
#79=LINE('',#470,#117);
#80=LINE('',#471,#118);
#81=LINE('',#475,#119);
#82=LINE('',#476,#120);
#83=LINE('',#477,#121);
#84=LINE('',#481,#122);
#85=LINE('',#482,#123);
#86=LINE('',#483,#124);
#87=LINE('',#485,#125);
#88=LINE('',#489,#126);
#89=LINE('',#490,#127);
#90=LINE('',#491,#128);
#91=LINE('',#494,#129);
#92=LINE('',#495,#130);
#93=LINE('',#497,#131);
#94=LINE('',#499,#132);
#95=LINE('',#500,#133);
#96=LINE('',#506,#134);
#97=LINE('',#509,#135);
#98=LINE('',#511,#136);
#99=LINE('',#512,#137);
#100=LINE('',#515,#138);
#101=LINE('',#516,#139);
#102=LINE('',#518,#140);
#103=LINE('',#520,#141);
#104=LINE('',#521,#142);
#105=LINE('',#523,#143);
#106=VECTOR('',#367,4.1);
#107=VECTOR('',#372,10.);
#108=VECTOR('',#373,10.);
#109=VECTOR('',#374,10.);
#110=VECTOR('',#375,10.);
#111=VECTOR('',#378,10.);
#112=VECTOR('',#379,10.);
#113=VECTOR('',#380,10.);
#114=VECTOR('',#381,10.);
#115=VECTOR('',#382,10.);
#116=VECTOR('',#383,10.);
#117=VECTOR('',#384,10.);
#118=VECTOR('',#385,10.);
#119=VECTOR('',#388,10.);
#120=VECTOR('',#389,10.);
#121=VECTOR('',#390,10.);
#122=VECTOR('',#393,10.);
#123=VECTOR('',#394,10.);
#124=VECTOR('',#395,10.);
#125=VECTOR('',#398,10.);
#126=VECTOR('',#401,10.);
#127=VECTOR('',#402,10.);
#128=VECTOR('',#403,10.);
#129=VECTOR('',#406,10.);
#130=VECTOR('',#407,10.);
#131=VECTOR('',#410,10.);
#132=VECTOR('',#411,10.);
#133=VECTOR('',#412,10.);
#134=VECTOR('',#419,4.1);
#135=VECTOR('',#422,10.);
#136=VECTOR('',#423,10.);
#137=VECTOR('',#424,10.);
#138=VECTOR('',#427,10.);
#139=VECTOR('',#428,10.);
#140=VECTOR('',#431,10.);
#141=VECTOR('',#432,10.);
#142=VECTOR('',#433,10.);
#143=VECTOR('',#436,10.);
#144=CIRCLE('',#343,4.1);
#145=CIRCLE('',#344,4.1);
#146=CIRCLE('',#353,4.1);
#147=CIRCLE('',#355,4.1);
#148=VERTEX_POINT('',#441);
#149=VERTEX_POINT('',#443);
#150=VERTEX_POINT('',#447);
#151=VERTEX_POINT('',#448);
#152=VERTEX_POINT('',#450);
#153=VERTEX_POINT('',#452);
#154=VERTEX_POINT('',#456);
#155=VERTEX_POINT('',#457);
#156=VERTEX_POINT('',#459);
#157=VERTEX_POINT('',#461);
#158=VERTEX_POINT('',#463);
#159=VERTEX_POINT('',#465);
#160=VERTEX_POINT('',#467);
#161=VERTEX_POINT('',#469);
#162=VERTEX_POINT('',#473);
#163=VERTEX_POINT('',#474);
#164=VERTEX_POINT('',#479);
#165=VERTEX_POINT('',#480);
#166=VERTEX_POINT('',#487);
#167=VERTEX_POINT('',#488);
#168=VERTEX_POINT('',#493);
#169=VERTEX_POINT('',#498);
#170=VERTEX_POINT('',#501);
#171=VERTEX_POINT('',#504);
#172=VERTEX_POINT('',#508);
#173=VERTEX_POINT('',#510);
#174=VERTEX_POINT('',#514);
#175=VERTEX_POINT('',#519);
#176=EDGE_CURVE('',#148,#148,#144,.T.);
#177=EDGE_CURVE('',#148,#149,#68,.T.);
#178=EDGE_CURVE('',#149,#149,#145,.T.);
#179=EDGE_CURVE('',#150,#151,#69,.T.);
#180=EDGE_CURVE('',#151,#152,#70,.T.);
#181=EDGE_CURVE('',#152,#153,#71,.T.);
#182=EDGE_CURVE('',#153,#150,#72,.T.);
#183=EDGE_CURVE('',#154,#155,#73,.T.);
#184=EDGE_CURVE('',#156,#155,#74,.T.);
#185=EDGE_CURVE('',#156,#157,#75,.T.);
#186=EDGE_CURVE('',#157,#158,#76,.T.);
#187=EDGE_CURVE('',#158,#159,#77,.T.);
#188=EDGE_CURVE('',#160,#159,#78,.T.);
#189=EDGE_CURVE('',#161,#160,#79,.T.);
#190=EDGE_CURVE('',#161,#154,#80,.T.);
#191=EDGE_CURVE('',#162,#163,#81,.T.);
#192=EDGE_CURVE('',#162,#157,#82,.T.);
#193=EDGE_CURVE('',#163,#156,#83,.T.);
#194=EDGE_CURVE('',#164,#165,#84,.T.);
#195=EDGE_CURVE('',#164,#159,#85,.T.);
#196=EDGE_CURVE('',#165,#158,#86,.T.);
#197=EDGE_CURVE('',#165,#162,#87,.T.);
#198=EDGE_CURVE('',#166,#167,#88,.T.);
#199=EDGE_CURVE('',#166,#155,#89,.T.);
#200=EDGE_CURVE('',#167,#154,#90,.T.);
#201=EDGE_CURVE('',#167,#168,#91,.T.);
#202=EDGE_CURVE('',#168,#161,#92,.T.);
#203=EDGE_CURVE('',#166,#163,#93,.T.);
#204=EDGE_CURVE('',#169,#168,#94,.T.);
#205=EDGE_CURVE('',#164,#169,#95,.T.);
#206=EDGE_CURVE('',#170,#170,#146,.T.);
#207=EDGE_CURVE('',#171,#171,#147,.T.);
#208=EDGE_CURVE('',#171,#170,#96,.T.);
#209=EDGE_CURVE('',#172,#151,#97,.T.);
#210=EDGE_CURVE('',#173,#172,#98,.T.);
#211=EDGE_CURVE('',#152,#173,#99,.T.);
#212=EDGE_CURVE('',#153,#174,#100,.T.);
#213=EDGE_CURVE('',#174,#173,#101,.T.);
#214=EDGE_CURVE('',#160,#150,#102,.T.);
#215=EDGE_CURVE('',#175,#174,#103,.T.);
#216=EDGE_CURVE('',#169,#175,#104,.T.);
#217=EDGE_CURVE('',#172,#175,#105,.T.);
#218=ORIENTED_EDGE('',*,*,#176,.F.);
#219=ORIENTED_EDGE('',*,*,#177,.T.);
#220=ORIENTED_EDGE('',*,*,#178,.T.);
#221=ORIENTED_EDGE('',*,*,#177,.F.);
#222=ORIENTED_EDGE('',*,*,#179,.T.);
#223=ORIENTED_EDGE('',*,*,#180,.T.);
#224=ORIENTED_EDGE('',*,*,#181,.T.);
#225=ORIENTED_EDGE('',*,*,#182,.T.);
#226=ORIENTED_EDGE('',*,*,#176,.T.);
#227=ORIENTED_EDGE('',*,*,#183,.T.);
#228=ORIENTED_EDGE('',*,*,#184,.F.);
#229=ORIENTED_EDGE('',*,*,#185,.T.);
#230=ORIENTED_EDGE('',*,*,#186,.T.);
#231=ORIENTED_EDGE('',*,*,#187,.T.);
#232=ORIENTED_EDGE('',*,*,#188,.F.);
#233=ORIENTED_EDGE('',*,*,#189,.F.);
#234=ORIENTED_EDGE('',*,*,#190,.T.);
#235=ORIENTED_EDGE('',*,*,#178,.F.);
#236=ORIENTED_EDGE('',*,*,#191,.F.);
#237=ORIENTED_EDGE('',*,*,#192,.T.);
#238=ORIENTED_EDGE('',*,*,#185,.F.);
#239=ORIENTED_EDGE('',*,*,#193,.F.);
#240=ORIENTED_EDGE('',*,*,#194,.F.);
#241=ORIENTED_EDGE('',*,*,#195,.T.);
#242=ORIENTED_EDGE('',*,*,#187,.F.);
#243=ORIENTED_EDGE('',*,*,#196,.F.);
#244=ORIENTED_EDGE('',*,*,#197,.F.);
#245=ORIENTED_EDGE('',*,*,#196,.T.);
#246=ORIENTED_EDGE('',*,*,#186,.F.);
#247=ORIENTED_EDGE('',*,*,#192,.F.);
#248=ORIENTED_EDGE('',*,*,#198,.F.);
#249=ORIENTED_EDGE('',*,*,#199,.T.);
#250=ORIENTED_EDGE('',*,*,#183,.F.);
#251=ORIENTED_EDGE('',*,*,#200,.F.);
#252=ORIENTED_EDGE('',*,*,#201,.F.);
#253=ORIENTED_EDGE('',*,*,#200,.T.);
#254=ORIENTED_EDGE('',*,*,#190,.F.);
#255=ORIENTED_EDGE('',*,*,#202,.F.);
#256=ORIENTED_EDGE('',*,*,#194,.T.);
#257=ORIENTED_EDGE('',*,*,#197,.T.);
#258=ORIENTED_EDGE('',*,*,#191,.T.);
#259=ORIENTED_EDGE('',*,*,#203,.F.);
#260=ORIENTED_EDGE('',*,*,#198,.T.);
#261=ORIENTED_EDGE('',*,*,#201,.T.);
#262=ORIENTED_EDGE('',*,*,#204,.F.);
#263=ORIENTED_EDGE('',*,*,#205,.F.);
#264=ORIENTED_EDGE('',*,*,#206,.F.);
#265=ORIENTED_EDGE('',*,*,#207,.F.);
#266=ORIENTED_EDGE('',*,*,#208,.T.);
#267=ORIENTED_EDGE('',*,*,#206,.T.);
#268=ORIENTED_EDGE('',*,*,#208,.F.);
#269=ORIENTED_EDGE('',*,*,#209,.F.);
#270=ORIENTED_EDGE('',*,*,#210,.F.);
#271=ORIENTED_EDGE('',*,*,#211,.F.);
#272=ORIENTED_EDGE('',*,*,#180,.F.);
#273=ORIENTED_EDGE('',*,*,#212,.F.);
#274=ORIENTED_EDGE('',*,*,#181,.F.);
#275=ORIENTED_EDGE('',*,*,#211,.T.);
#276=ORIENTED_EDGE('',*,*,#213,.F.);
#277=ORIENTED_EDGE('',*,*,#199,.F.);
#278=ORIENTED_EDGE('',*,*,#203,.T.);
#279=ORIENTED_EDGE('',*,*,#193,.T.);
#280=ORIENTED_EDGE('',*,*,#184,.T.);
#281=ORIENTED_EDGE('',*,*,#204,.T.);
#282=ORIENTED_EDGE('',*,*,#202,.T.);
#283=ORIENTED_EDGE('',*,*,#189,.T.);
#284=ORIENTED_EDGE('',*,*,#214,.T.);
#285=ORIENTED_EDGE('',*,*,#182,.F.);
#286=ORIENTED_EDGE('',*,*,#212,.T.);
#287=ORIENTED_EDGE('',*,*,#215,.F.);
#288=ORIENTED_EDGE('',*,*,#216,.F.);
#289=ORIENTED_EDGE('',*,*,#205,.T.);
#290=ORIENTED_EDGE('',*,*,#216,.T.);
#291=ORIENTED_EDGE('',*,*,#217,.F.);
#292=ORIENTED_EDGE('',*,*,#209,.T.);
#293=ORIENTED_EDGE('',*,*,#179,.F.);
#294=ORIENTED_EDGE('',*,*,#214,.F.);
#295=ORIENTED_EDGE('',*,*,#188,.T.);
#296=ORIENTED_EDGE('',*,*,#195,.F.);
#297=ORIENTED_EDGE('',*,*,#217,.T.);
#298=ORIENTED_EDGE('',*,*,#215,.T.);
#299=ORIENTED_EDGE('',*,*,#213,.T.);
#300=ORIENTED_EDGE('',*,*,#210,.T.);
#301=ORIENTED_EDGE('',*,*,#207,.T.);
#302=CYLINDRICAL_SURFACE('',#342,4.1);
#303=CYLINDRICAL_SURFACE('',#354,4.1);
#304=ADVANCED_FACE('',(#33),#302,.F.);
#305=ADVANCED_FACE('',(#34,#15),#20,.T.);
#306=ADVANCED_FACE('',(#35,#16),#21,.F.);
#307=ADVANCED_FACE('',(#36),#22,.T.);
#308=ADVANCED_FACE('',(#37),#23,.T.);
#309=ADVANCED_FACE('',(#38),#24,.T.);
#310=ADVANCED_FACE('',(#39),#25,.T.);
#311=ADVANCED_FACE('',(#40),#26,.T.);
#312=ADVANCED_FACE('',(#41,#17),#27,.F.);
#313=ADVANCED_FACE('',(#42),#303,.F.);
#314=ADVANCED_FACE('',(#43),#28,.T.);
#315=ADVANCED_FACE('',(#44,#18),#29,.T.);
#316=ADVANCED_FACE('',(#45),#30,.T.);
#317=ADVANCED_FACE('',(#46),#31,.T.);
#318=ADVANCED_FACE('',(#47,#19),#32,.T.);
#319=CLOSED_SHELL('',(#304,#305,#306,#307,#308,#309,#310,#311,#312,#313,
#314,#315,#316,#317,#318));
#320=DERIVED_UNIT_ELEMENT(#323,1.);
#321=DERIVED_UNIT_ELEMENT(#530,-3.);
#322=DIMENSIONAL_EXPONENTS(0.,1.,0.,0.,0.,0.,0.);
#323=(
CONVERSION_BASED_UNIT('gram',#325)
MASS_UNIT()
NAMED_UNIT(#322)
);
#324=(
MASS_UNIT()
NAMED_UNIT(*)
SI_UNIT(.KILO.,.GRAM.)
);
#325=MASS_MEASURE_WITH_UNIT(MASS_MEASURE(0.001),#324);
#326=DERIVED_UNIT((#320,#321));
#327=MEASURE_REPRESENTATION_ITEM('density measure',
POSITIVE_RATIO_MEASURE(1.),#326);
#328=PROPERTY_DEFINITION_REPRESENTATION(#333,#330);
#329=PROPERTY_DEFINITION_REPRESENTATION(#334,#331);
#330=REPRESENTATION('material name',(#332),#527);
#331=REPRESENTATION('density',(#327),#527);
#332=DESCRIPTIVE_REPRESENTATION_ITEM('Generisch','Generisch');
#333=PROPERTY_DEFINITION('material property','material name',#537);
#334=PROPERTY_DEFINITION('material property','density of part',#537);
#335=DATE_TIME_ROLE('creation_date');
#336=APPLIED_DATE_AND_TIME_ASSIGNMENT(#337,#335,(#537));
#337=DATE_AND_TIME(#338,#339);
#338=CALENDAR_DATE(2024,13,8);
#339=LOCAL_TIME(0,0,0.,#340);
#340=COORDINATED_UNIVERSAL_TIME_OFFSET(0,0,.BEHIND.);
#341=AXIS2_PLACEMENT_3D('',#439,#361,#362);
#342=AXIS2_PLACEMENT_3D('',#440,#363,#364);
#343=AXIS2_PLACEMENT_3D('',#442,#365,#366);
#344=AXIS2_PLACEMENT_3D('',#445,#368,#369);
#345=AXIS2_PLACEMENT_3D('',#446,#370,#371);
#346=AXIS2_PLACEMENT_3D('',#455,#376,#377);
#347=AXIS2_PLACEMENT_3D('',#472,#386,#387);
#348=AXIS2_PLACEMENT_3D('',#478,#391,#392);
#349=AXIS2_PLACEMENT_3D('',#484,#396,#397);
#350=AXIS2_PLACEMENT_3D('',#486,#399,#400);
#351=AXIS2_PLACEMENT_3D('',#492,#404,#405);
#352=AXIS2_PLACEMENT_3D('',#496,#408,#409);
#353=AXIS2_PLACEMENT_3D('',#502,#413,#414);
#354=AXIS2_PLACEMENT_3D('',#503,#415,#416);
#355=AXIS2_PLACEMENT_3D('',#505,#417,#418);
#356=AXIS2_PLACEMENT_3D('',#507,#420,#421);
#357=AXIS2_PLACEMENT_3D('',#513,#425,#426);
#358=AXIS2_PLACEMENT_3D('',#517,#429,#430);
#359=AXIS2_PLACEMENT_3D('',#522,#434,#435);
#360=AXIS2_PLACEMENT_3D('',#524,#437,#438);
#361=DIRECTION('axis',(0.,0.,1.));
#362=DIRECTION('refdir',(1.,0.,0.));
#363=DIRECTION('center_axis',(0.,0.,-1.));
#364=DIRECTION('ref_axis',(1.,0.,0.));
#365=DIRECTION('center_axis',(0.,0.,1.));
#366=DIRECTION('ref_axis',(1.,0.,0.));
#367=DIRECTION('',(0.,0.,1.));
#368=DIRECTION('center_axis',(0.,0.,1.));
#369=DIRECTION('ref_axis',(1.,0.,0.));
#370=DIRECTION('center_axis',(0.,0.,-1.));
#371=DIRECTION('ref_axis',(-1.,0.,0.));
#372=DIRECTION('',(-1.,-1.1686558153949E-16,0.));
#373=DIRECTION('',(-2.3373116307898E-16,1.,0.));
#374=DIRECTION('',(1.,0.,0.));
#375=DIRECTION('',(1.1686558153949E-16,-1.,0.));
#376=DIRECTION('center_axis',(0.,0.,-1.));
#377=DIRECTION('ref_axis',(-1.,0.,0.));
#378=DIRECTION('',(0.,1.,0.));
#379=DIRECTION('',(1.,0.,0.));
#380=DIRECTION('',(0.,-1.,0.));
#381=DIRECTION('',(1.,1.2427869678652E-16,0.));
#382=DIRECTION('',(-6.16790569236198E-17,-1.,0.));
#383=DIRECTION('',(-1.,-1.1686558153949E-16,0.));
#384=DIRECTION('',(1.1686558153949E-16,-1.,0.));
#385=DIRECTION('',(-1.,1.85037170770859E-16,0.));
#386=DIRECTION('center_axis',(1.,0.,0.));
#387=DIRECTION('ref_axis',(0.,-1.,0.));
#388=DIRECTION('',(0.,1.,0.));
#389=DIRECTION('',(0.,0.,-1.));
#390=DIRECTION('',(0.,0.,-1.));
#391=DIRECTION('center_axis',(1.,-6.16790569236198E-17,0.));
#392=DIRECTION('ref_axis',(-6.16790569236198E-17,-1.,0.));
#393=DIRECTION('',(6.16790569236198E-17,1.,0.));
#394=DIRECTION('',(0.,0.,-1.));
#395=DIRECTION('',(0.,0.,-1.));
#396=DIRECTION('center_axis',(-1.2427869678652E-16,1.,0.));
#397=DIRECTION('ref_axis',(1.,1.2427869678652E-16,0.));
#398=DIRECTION('',(-1.,-1.2427869678652E-16,0.));
#399=DIRECTION('center_axis',(-1.,0.,0.));
#400=DIRECTION('ref_axis',(0.,1.,0.));
#401=DIRECTION('',(0.,-1.,0.));
#402=DIRECTION('',(0.,0.,-1.));
#403=DIRECTION('',(0.,0.,-1.));
#404=DIRECTION('center_axis',(-1.85037170770859E-16,-1.,0.));
#405=DIRECTION('ref_axis',(-1.,1.85037170770859E-16,0.));
#406=DIRECTION('',(1.,-1.85037170770859E-16,0.));
#407=DIRECTION('',(0.,0.,-1.));
#408=DIRECTION('center_axis',(0.,0.,1.));
#409=DIRECTION('ref_axis',(1.,0.,0.));
#410=DIRECTION('',(-1.,0.,0.));
#411=DIRECTION('',(-2.92163953848725E-17,1.,0.));
#412=DIRECTION('',(1.,1.1686558153949E-16,0.));
#413=DIRECTION('center_axis',(0.,0.,-1.));
#414=DIRECTION('ref_axis',(-1.,0.,0.));
#415=DIRECTION('center_axis',(0.,0.,1.));
#416=DIRECTION('ref_axis',(-1.,0.,0.));
#417=DIRECTION('center_axis',(0.,0.,-1.));
#418=DIRECTION('ref_axis',(-1.,0.,0.));
#419=DIRECTION('',(0.,0.,-1.));
#420=DIRECTION('center_axis',(-1.,-2.3373116307898E-16,0.));
#421=DIRECTION('ref_axis',(2.3373116307898E-16,-1.,0.));
#422=DIRECTION('',(0.,0.,-1.));
#423=DIRECTION('',(2.3373116307898E-16,-1.,0.));
#424=DIRECTION('',(0.,0.,1.));
#425=DIRECTION('center_axis',(0.,1.,0.));
#426=DIRECTION('ref_axis',(-1.,0.,0.));
#427=DIRECTION('',(0.,0.,1.));
#428=DIRECTION('',(-1.,0.,0.));
#429=DIRECTION('center_axis',(1.,2.92163953848725E-17,0.));
#430=DIRECTION('ref_axis',(-2.92163953848725E-17,1.,0.));
#431=DIRECTION('',(0.,0.,-1.));
#432=DIRECTION('',(-2.92163953848725E-17,1.,0.));
#433=DIRECTION('',(0.,0.,1.));
#434=DIRECTION('center_axis',(1.1686558153949E-16,-1.,0.));
#435=DIRECTION('ref_axis',(1.,1.1686558153949E-16,0.));
#436=DIRECTION('',(1.,1.1686558153949E-16,0.));
#437=DIRECTION('center_axis',(0.,0.,1.));
#438=DIRECTION('ref_axis',(1.,0.,0.));
#439=CARTESIAN_POINT('',(0.,0.,0.));
#440=CARTESIAN_POINT('Origin',(0.,0.,-15.));
#441=CARTESIAN_POINT('',(-4.1,5.55111512312578E-16,-18.));
#442=CARTESIAN_POINT('Origin',(0.,0.,-18.));
#443=CARTESIAN_POINT('',(-4.1,5.02105187650415E-16,-15.));
#444=CARTESIAN_POINT('',(-4.1,5.02105187650415E-16,-15.));
#445=CARTESIAN_POINT('Origin',(0.,0.,-15.));
#446=CARTESIAN_POINT('Origin',(-5.,5.,-18.));
#447=CARTESIAN_POINT('',(4.5,-4.5,-18.));
#448=CARTESIAN_POINT('',(-14.5,-4.5,-18.));
#449=CARTESIAN_POINT('',(4.5,-4.5,-18.));
#450=CARTESIAN_POINT('',(-14.5,14.5,-18.));
#451=CARTESIAN_POINT('',(-14.5,-4.5,-18.));
#452=CARTESIAN_POINT('',(4.5,14.5,-18.));
#453=CARTESIAN_POINT('',(-14.5,14.5,-18.));
#454=CARTESIAN_POINT('',(4.5,14.5,-18.));
#455=CARTESIAN_POINT('Origin',(-5.,5.,-15.));
#456=CARTESIAN_POINT('',(2.9999999999869,4.5,-15.));
#457=CARTESIAN_POINT('',(2.99999999998691,14.5,-15.));
#458=CARTESIAN_POINT('',(2.9999999999869,-4.5,-15.));
#459=CARTESIAN_POINT('',(-12.9999999999825,14.5,-15.));
#460=CARTESIAN_POINT('',(-14.5,14.5,-15.));
#461=CARTESIAN_POINT('',(-12.9999999999869,-2.9999999999869,-15.));
#462=CARTESIAN_POINT('',(-12.9999999999825,14.5,-15.));
#463=CARTESIAN_POINT('',(-4.5,-2.9999999999869,-15.));
#464=CARTESIAN_POINT('',(-12.9999999999869,-2.9999999999869,-15.));
#465=CARTESIAN_POINT('',(-4.5,-4.5,-15.));
#466=CARTESIAN_POINT('',(-4.5,4.5,-15.));
#467=CARTESIAN_POINT('',(4.5,-4.5,-15.));
#468=CARTESIAN_POINT('',(4.5,-4.5,-15.));
#469=CARTESIAN_POINT('',(4.5,4.5,-15.));
#470=CARTESIAN_POINT('',(4.5,14.5,-15.));
#471=CARTESIAN_POINT('',(4.5,4.5,-15.));
#472=CARTESIAN_POINT('Origin',(-12.9999999999825,14.5,0.));
#473=CARTESIAN_POINT('',(-12.9999999999869,-2.9999999999869,0.));
#474=CARTESIAN_POINT('',(-12.9999999999825,14.5,0.));
#475=CARTESIAN_POINT('',(-12.9999999999825,9.75,0.));
#476=CARTESIAN_POINT('',(-12.9999999999869,-2.9999999999869,0.));
#477=CARTESIAN_POINT('',(-12.9999999999825,14.5,0.));
#478=CARTESIAN_POINT('Origin',(-4.5,-2.9999999999869,0.));
#479=CARTESIAN_POINT('',(-4.5,-4.5,0.));
#480=CARTESIAN_POINT('',(-4.5,-2.9999999999869,0.));
#481=CARTESIAN_POINT('',(-4.5,1.00000000000655,0.));
#482=CARTESIAN_POINT('',(-4.5,-4.5,0.));
#483=CARTESIAN_POINT('',(-4.5,-2.9999999999869,0.));
#484=CARTESIAN_POINT('Origin',(-12.9999999999869,-2.9999999999869,0.));
#485=CARTESIAN_POINT('',(-8.99999999999345,-2.9999999999869,0.));
#486=CARTESIAN_POINT('Origin',(2.9999999999869,4.5,0.));
#487=CARTESIAN_POINT('',(2.99999999998691,14.5,0.));
#488=CARTESIAN_POINT('',(2.9999999999869,4.5,0.));
#489=CARTESIAN_POINT('',(2.9999999999869,4.75,0.));
#490=CARTESIAN_POINT('',(2.99999999998691,14.5,0.));
#491=CARTESIAN_POINT('',(2.9999999999869,4.5,0.));
#492=CARTESIAN_POINT('Origin',(4.5,4.5,0.));
#493=CARTESIAN_POINT('',(4.5,4.5,0.));
#494=CARTESIAN_POINT('',(-0.250000000000001,4.5,0.));
#495=CARTESIAN_POINT('',(4.5,4.5,0.));
#496=CARTESIAN_POINT('Origin',(-5.,5.,0.));
#497=CARTESIAN_POINT('',(4.5,14.5,0.));
#498=CARTESIAN_POINT('',(4.5,-4.5,0.));
#499=CARTESIAN_POINT('',(4.5,-4.5,0.));
#500=CARTESIAN_POINT('',(-14.5,-4.5,0.));
#501=CARTESIAN_POINT('',(4.1,5.02105187650415E-16,0.));
#502=CARTESIAN_POINT('Origin',(0.,0.,0.));
#503=CARTESIAN_POINT('Origin',(0.,0.,0.));
#504=CARTESIAN_POINT('',(4.1,5.55111512312578E-16,3.));
#505=CARTESIAN_POINT('Origin',(0.,0.,3.));
#506=CARTESIAN_POINT('',(4.1,5.02105187650415E-16,0.));
#507=CARTESIAN_POINT('Origin',(-14.5,14.5,0.));
#508=CARTESIAN_POINT('',(-14.5,-4.5,3.));
#509=CARTESIAN_POINT('',(-14.5,-4.5,0.));
#510=CARTESIAN_POINT('',(-14.5,14.5,3.));
#511=CARTESIAN_POINT('',(-14.5,14.5,3.));
#512=CARTESIAN_POINT('',(-14.5,14.5,0.));
#513=CARTESIAN_POINT('Origin',(4.5,14.5,0.));
#514=CARTESIAN_POINT('',(4.5,14.5,3.));
#515=CARTESIAN_POINT('',(4.5,14.5,0.));
#516=CARTESIAN_POINT('',(4.5,14.5,3.));
#517=CARTESIAN_POINT('Origin',(4.5,-4.5,0.));
#518=CARTESIAN_POINT('',(4.5,-4.5,-15.));
#519=CARTESIAN_POINT('',(4.5,-4.5,3.));
#520=CARTESIAN_POINT('',(4.5,-4.5,3.));
#521=CARTESIAN_POINT('',(4.5,-4.5,0.));
#522=CARTESIAN_POINT('Origin',(-14.5,-4.5,0.));
#523=CARTESIAN_POINT('',(-14.5,-4.5,3.));
#524=CARTESIAN_POINT('Origin',(-5.,5.,3.));
#525=UNCERTAINTY_MEASURE_WITH_UNIT(LENGTH_MEASURE(0.01),#529,
'DISTANCE_ACCURACY_VALUE',
'Maximum model space distance between geometric entities at asserted c
onnectivities');
#526=UNCERTAINTY_MEASURE_WITH_UNIT(LENGTH_MEASURE(0.01),#529,
'DISTANCE_ACCURACY_VALUE',
'Maximum model space distance between geometric entities at asserted c
onnectivities');
#527=(
GEOMETRIC_REPRESENTATION_CONTEXT(3)
GLOBAL_UNCERTAINTY_ASSIGNED_CONTEXT((#525))
GLOBAL_UNIT_ASSIGNED_CONTEXT((#529,#531,#532))
REPRESENTATION_CONTEXT('','3D')
);
#528=(
GEOMETRIC_REPRESENTATION_CONTEXT(3)
GLOBAL_UNCERTAINTY_ASSIGNED_CONTEXT((#526))
GLOBAL_UNIT_ASSIGNED_CONTEXT((#529,#531,#532))
REPRESENTATION_CONTEXT('','3D')
);
#529=(
LENGTH_UNIT()
NAMED_UNIT(*)
SI_UNIT(.MILLI.,.METRE.)
);
#530=(
LENGTH_UNIT()
NAMED_UNIT(*)
SI_UNIT(.CENTI.,.METRE.)
);
#531=(
NAMED_UNIT(*)
PLANE_ANGLE_UNIT()
SI_UNIT($,.RADIAN.)
);
#532=(
NAMED_UNIT(*)
SI_UNIT($,.STERADIAN.)
SOLID_ANGLE_UNIT()
);
#533=SHAPE_DEFINITION_REPRESENTATION(#534,#535);
#534=PRODUCT_DEFINITION_SHAPE('',$,#537);
#535=SHAPE_REPRESENTATION('',(#341),#527);
#536=PRODUCT_DEFINITION_CONTEXT('part definition',#541,'design');
#537=PRODUCT_DEFINITION('HolisheetCageSampleWater',
'HolisheetCageSampleWater',#538,#536);
#538=PRODUCT_DEFINITION_FORMATION('',$,#543);
#539=PRODUCT_RELATED_PRODUCT_CATEGORY('HolisheetCageSampleWater',
'HolisheetCageSampleWater',(#543));
#540=APPLICATION_PROTOCOL_DEFINITION('international standard',
'automotive_design',2009,#541);
#541=APPLICATION_CONTEXT(
'Core Data for Automotive Mechanical Design Process');
#542=PRODUCT_CONTEXT('part definition',#541,'mechanical');
#543=PRODUCT('HolisheetCageSampleWater','HolisheetCageSampleWater',$,(#542));
#544=PRESENTATION_STYLE_ASSIGNMENT((#545));
#545=SURFACE_STYLE_USAGE(.BOTH.,#548);
#546=SURFACE_STYLE_RENDERING_WITH_PROPERTIES($,#552,(#547));
#547=SURFACE_STYLE_TRANSPARENT(0.);
#548=SURFACE_SIDE_STYLE('',(#549,#546));
#549=SURFACE_STYLE_FILL_AREA(#550);
#550=FILL_AREA_STYLE('',(#551));
#551=FILL_AREA_STYLE_COLOUR('',#552);
#552=COLOUR_RGB('',0.749019607843137,0.749019607843137,0.749019607843137);
ENDSEC;
END-ISO-10303-21;
