ISO-10303-21;
HEADER;
/* Generated by software containing ST-Developer
 * from STEP Tools, Inc. (www.steptools.com) 
 */

FILE_DESCRIPTION(
/* description */ (''),
/* implementation_level */ '2;1');

FILE_NAME(
/* name */ 'Holisheet_tubeclamp.stp',
/* time_stamp */ '2024-08-13T14:25:51+02:00',
/* author */ ('diederichbenedict'),
/* organization */ (''),
/* preprocessor_version */ 'ST-DEVELOPER v20',
/* originating_system */ 'Autodesk Inventor 2024',
/* authorisation */ '');

FILE_SCHEMA (('AUTOMOTIVE_DESIGN { 1 0 10303 214 3 1 1 }'));
ENDSEC;

DATA;
#10=MECHANICAL_DESIGN_GEOMETRIC_PRESENTATION_REPRESENTATION('',(#13),#564);
#11=SHAPE_REPRESENTATION_RELATIONSHIP('SRR','None',#571,#12);
#12=ADVANCED_BREP_SHAPE_REPRESENTATION('',(#14),#563);
#13=STYLED_ITEM('',(#580),#14);
#14=MANIFOLD_SOLID_BREP('Volumenk\X\F6rper1',#323);
#15=FACE_BOUND('',#55,.T.);
#16=FACE_BOUND('',#59,.T.);
#17=FACE_BOUND('',#64,.T.);
#18=FACE_BOUND('',#67,.T.);
#19=FACE_BOUND('',#68,.T.);
#20=FACE_BOUND('',#71,.T.);
#21=PLANE('',#352);
#22=PLANE('',#356);
#23=PLANE('',#363);
#24=PLANE('',#370);
#25=PLANE('',#371);
#26=PLANE('',#372);
#27=PLANE('',#373);
#28=PLANE('',#374);
#29=PLANE('',#375);
#30=PLANE('',#376);
#31=PLANE('',#377);
#32=FACE_OUTER_BOUND('',#50,.T.);
#33=FACE_OUTER_BOUND('',#51,.T.);
#34=FACE_OUTER_BOUND('',#52,.T.);
#35=FACE_OUTER_BOUND('',#53,.T.);
#36=FACE_OUTER_BOUND('',#54,.T.);
#37=FACE_OUTER_BOUND('',#56,.T.);
#38=FACE_OUTER_BOUND('',#57,.T.);
#39=FACE_OUTER_BOUND('',#58,.T.);
#40=FACE_OUTER_BOUND('',#60,.T.);
#41=FACE_OUTER_BOUND('',#61,.T.);
#42=FACE_OUTER_BOUND('',#62,.T.);
#43=FACE_OUTER_BOUND('',#63,.T.);
#44=FACE_OUTER_BOUND('',#65,.T.);
#45=FACE_OUTER_BOUND('',#66,.T.);
#46=FACE_OUTER_BOUND('',#69,.T.);
#47=FACE_OUTER_BOUND('',#70,.T.);
#48=FACE_OUTER_BOUND('',#72,.T.);
#49=FACE_OUTER_BOUND('',#73,.T.);
#50=EDGE_LOOP('',(#214,#215,#216,#217));
#51=EDGE_LOOP('',(#218,#219,#220,#221));
#52=EDGE_LOOP('',(#222,#223,#224,#225,#226,#227,#228,#229,#230,#231));
#53=EDGE_LOOP('',(#232,#233,#234,#235));
#54=EDGE_LOOP('',(#236));
#55=EDGE_LOOP('',(#237));
#56=EDGE_LOOP('',(#238,#239,#240,#241));
#57=EDGE_LOOP('',(#242,#243,#244,#245));
#58=EDGE_LOOP('',(#246));
#59=EDGE_LOOP('',(#247));
#60=EDGE_LOOP('',(#248,#249,#250,#251));
#61=EDGE_LOOP('',(#252,#253,#254,#255));
#62=EDGE_LOOP('',(#256,#257,#258,#259));
#63=EDGE_LOOP('',(#260,#261,#262,#263));
#64=EDGE_LOOP('',(#264));
#65=EDGE_LOOP('',(#265,#266,#267,#268));
#66=EDGE_LOOP('',(#269,#270,#271,#272));
#67=EDGE_LOOP('',(#273));
#68=EDGE_LOOP('',(#274));
#69=EDGE_LOOP('',(#275,#276,#277,#278));
#70=EDGE_LOOP('',(#279,#280,#281,#282));
#71=EDGE_LOOP('',(#283));
#72=EDGE_LOOP('',(#284,#285,#286,#287));
#73=EDGE_LOOP('',(#288,#289,#290,#291,#292,#293,#294,#295,#296,#297));
#74=LINE('',#478,#102);
#75=LINE('',#481,#103);
#76=LINE('',#486,#104);
#77=LINE('',#490,#105);
#78=LINE('',#492,#106);
#79=LINE('',#494,#107);
#80=LINE('',#496,#108);
#81=LINE('',#498,#109);
#82=LINE('',#500,#110);
#83=LINE('',#502,#111);
#84=LINE('',#507,#112);
#85=LINE('',#516,#113);
#86=LINE('',#519,#114);
#87=LINE('',#529,#115);
#88=LINE('',#532,#116);
#89=LINE('',#536,#117);
#90=LINE('',#537,#118);
#91=LINE('',#540,#119);
#92=LINE('',#541,#120);
#93=LINE('',#544,#121);
#94=LINE('',#545,#122);
#95=LINE('',#548,#123);
#96=LINE('',#549,#124);
#97=LINE('',#552,#125);
#98=LINE('',#553,#126);
#99=LINE('',#556,#127);
#100=LINE('',#557,#128);
#101=LINE('',#559,#129);
#102=VECTOR('',#384,10.);
#103=VECTOR('',#387,10.);
#104=VECTOR('',#392,10.);
#105=VECTOR('',#397,10.);
#106=VECTOR('',#398,10.);
#107=VECTOR('',#399,10.);
#108=VECTOR('',#400,10.);
#109=VECTOR('',#401,10.);
#110=VECTOR('',#402,10.);
#111=VECTOR('',#403,10.);
#112=VECTOR('',#410,10.);
#113=VECTOR('',#421,3.25);
#114=VECTOR('',#424,1.4);
#115=VECTOR('',#437,3.25);
#116=VECTOR('',#440,1.4);
#117=VECTOR('',#445,10.);
#118=VECTOR('',#446,10.);
#119=VECTOR('',#449,10.);
#120=VECTOR('',#450,10.);
#121=VECTOR('',#453,10.);
#122=VECTOR('',#454,10.);
#123=VECTOR('',#457,10.);
#124=VECTOR('',#458,10.);
#125=VECTOR('',#461,10.);
#126=VECTOR('',#462,10.);
#127=VECTOR('',#465,10.);
#128=VECTOR('',#466,10.);
#129=VECTOR('',#469,10.);
#130=CIRCLE('',#347,1.);
#131=CIRCLE('',#348,1.);
#132=CIRCLE('',#350,4.);
#133=CIRCLE('',#351,4.);
#134=CIRCLE('',#353,1.);
#135=CIRCLE('',#355,1.);
#136=CIRCLE('',#357,3.25);
#137=CIRCLE('',#358,1.4);
#138=CIRCLE('',#360,3.25);
#139=CIRCLE('',#362,1.4);
#140=CIRCLE('',#364,3.25);
#141=CIRCLE('',#365,1.4);
#142=CIRCLE('',#367,3.25);
#143=CIRCLE('',#369,1.4);
#144=VERTEX_POINT('',#474);
#145=VERTEX_POINT('',#475);
#146=VERTEX_POINT('',#477);
#147=VERTEX_POINT('',#479);
#148=VERTEX_POINT('',#483);
#149=VERTEX_POINT('',#485);
#150=VERTEX_POINT('',#489);
#151=VERTEX_POINT('',#491);
#152=VERTEX_POINT('',#493);
#153=VERTEX_POINT('',#495);
#154=VERTEX_POINT('',#497);
#155=VERTEX_POINT('',#499);
#156=VERTEX_POINT('',#501);
#157=VERTEX_POINT('',#505);
#158=VERTEX_POINT('',#509);
#159=VERTEX_POINT('',#511);
#160=VERTEX_POINT('',#514);
#161=VERTEX_POINT('',#518);
#162=VERTEX_POINT('',#522);
#163=VERTEX_POINT('',#524);
#164=VERTEX_POINT('',#527);
#165=VERTEX_POINT('',#531);
#166=VERTEX_POINT('',#535);
#167=VERTEX_POINT('',#539);
#168=VERTEX_POINT('',#543);
#169=VERTEX_POINT('',#547);
#170=VERTEX_POINT('',#551);
#171=VERTEX_POINT('',#555);
#172=EDGE_CURVE('',#144,#145,#130,.T.);
#173=EDGE_CURVE('',#145,#146,#74,.T.);
#174=EDGE_CURVE('',#146,#147,#131,.T.);
#175=EDGE_CURVE('',#147,#144,#75,.T.);
#176=EDGE_CURVE('',#148,#147,#132,.T.);
#177=EDGE_CURVE('',#149,#148,#76,.T.);
#178=EDGE_CURVE('',#144,#149,#133,.T.);
#179=EDGE_CURVE('',#146,#150,#77,.T.);
#180=EDGE_CURVE('',#150,#151,#78,.T.);
#181=EDGE_CURVE('',#151,#152,#79,.T.);
#182=EDGE_CURVE('',#152,#153,#80,.T.);
#183=EDGE_CURVE('',#153,#154,#81,.T.);
#184=EDGE_CURVE('',#154,#155,#82,.T.);
#185=EDGE_CURVE('',#155,#156,#83,.T.);
#186=EDGE_CURVE('',#148,#156,#134,.T.);
#187=EDGE_CURVE('',#157,#149,#135,.T.);
#188=EDGE_CURVE('',#156,#157,#84,.T.);
#189=EDGE_CURVE('',#158,#158,#136,.T.);
#190=EDGE_CURVE('',#159,#159,#137,.T.);
#191=EDGE_CURVE('',#160,#160,#138,.T.);
#192=EDGE_CURVE('',#160,#158,#85,.T.);
#193=EDGE_CURVE('',#159,#161,#86,.T.);
#194=EDGE_CURVE('',#161,#161,#139,.T.);
#195=EDGE_CURVE('',#162,#162,#140,.T.);
#196=EDGE_CURVE('',#163,#163,#141,.T.);
#197=EDGE_CURVE('',#164,#164,#142,.T.);
#198=EDGE_CURVE('',#164,#162,#87,.T.);
#199=EDGE_CURVE('',#163,#165,#88,.T.);
#200=EDGE_CURVE('',#165,#165,#143,.T.);
#201=EDGE_CURVE('',#166,#145,#89,.T.);
#202=EDGE_CURVE('',#150,#166,#90,.T.);
#203=EDGE_CURVE('',#167,#166,#91,.T.);
#204=EDGE_CURVE('',#151,#167,#92,.T.);
#205=EDGE_CURVE('',#168,#167,#93,.T.);
#206=EDGE_CURVE('',#152,#168,#94,.T.);
#207=EDGE_CURVE('',#169,#168,#95,.T.);
#208=EDGE_CURVE('',#153,#169,#96,.T.);
#209=EDGE_CURVE('',#170,#169,#97,.T.);
#210=EDGE_CURVE('',#154,#170,#98,.T.);
#211=EDGE_CURVE('',#171,#170,#99,.T.);
#212=EDGE_CURVE('',#155,#171,#100,.T.);
#213=EDGE_CURVE('',#157,#171,#101,.T.);
#214=ORIENTED_EDGE('',*,*,#172,.T.);
#215=ORIENTED_EDGE('',*,*,#173,.T.);
#216=ORIENTED_EDGE('',*,*,#174,.T.);
#217=ORIENTED_EDGE('',*,*,#175,.T.);
#218=ORIENTED_EDGE('',*,*,#175,.F.);
#219=ORIENTED_EDGE('',*,*,#176,.F.);
#220=ORIENTED_EDGE('',*,*,#177,.F.);
#221=ORIENTED_EDGE('',*,*,#178,.F.);
#222=ORIENTED_EDGE('',*,*,#174,.F.);
#223=ORIENTED_EDGE('',*,*,#179,.T.);
#224=ORIENTED_EDGE('',*,*,#180,.T.);
#225=ORIENTED_EDGE('',*,*,#181,.T.);
#226=ORIENTED_EDGE('',*,*,#182,.T.);
#227=ORIENTED_EDGE('',*,*,#183,.T.);
#228=ORIENTED_EDGE('',*,*,#184,.T.);
#229=ORIENTED_EDGE('',*,*,#185,.T.);
#230=ORIENTED_EDGE('',*,*,#186,.F.);
#231=ORIENTED_EDGE('',*,*,#176,.T.);
#232=ORIENTED_EDGE('',*,*,#187,.T.);
#233=ORIENTED_EDGE('',*,*,#177,.T.);
#234=ORIENTED_EDGE('',*,*,#186,.T.);
#235=ORIENTED_EDGE('',*,*,#188,.T.);
#236=ORIENTED_EDGE('',*,*,#189,.T.);
#237=ORIENTED_EDGE('',*,*,#190,.F.);
#238=ORIENTED_EDGE('',*,*,#191,.F.);
#239=ORIENTED_EDGE('',*,*,#192,.T.);
#240=ORIENTED_EDGE('',*,*,#189,.F.);
#241=ORIENTED_EDGE('',*,*,#192,.F.);
#242=ORIENTED_EDGE('',*,*,#190,.T.);
#243=ORIENTED_EDGE('',*,*,#193,.T.);
#244=ORIENTED_EDGE('',*,*,#194,.F.);
#245=ORIENTED_EDGE('',*,*,#193,.F.);
#246=ORIENTED_EDGE('',*,*,#195,.T.);
#247=ORIENTED_EDGE('',*,*,#196,.F.);
#248=ORIENTED_EDGE('',*,*,#197,.F.);
#249=ORIENTED_EDGE('',*,*,#198,.T.);
#250=ORIENTED_EDGE('',*,*,#195,.F.);
#251=ORIENTED_EDGE('',*,*,#198,.F.);
#252=ORIENTED_EDGE('',*,*,#196,.T.);
#253=ORIENTED_EDGE('',*,*,#199,.T.);
#254=ORIENTED_EDGE('',*,*,#200,.F.);
#255=ORIENTED_EDGE('',*,*,#199,.F.);
#256=ORIENTED_EDGE('',*,*,#173,.F.);
#257=ORIENTED_EDGE('',*,*,#201,.F.);
#258=ORIENTED_EDGE('',*,*,#202,.F.);
#259=ORIENTED_EDGE('',*,*,#179,.F.);
#260=ORIENTED_EDGE('',*,*,#180,.F.);
#261=ORIENTED_EDGE('',*,*,#202,.T.);
#262=ORIENTED_EDGE('',*,*,#203,.F.);
#263=ORIENTED_EDGE('',*,*,#204,.F.);
#264=ORIENTED_EDGE('',*,*,#200,.T.);
#265=ORIENTED_EDGE('',*,*,#181,.F.);
#266=ORIENTED_EDGE('',*,*,#204,.T.);
#267=ORIENTED_EDGE('',*,*,#205,.F.);
#268=ORIENTED_EDGE('',*,*,#206,.F.);
#269=ORIENTED_EDGE('',*,*,#182,.F.);
#270=ORIENTED_EDGE('',*,*,#206,.T.);
#271=ORIENTED_EDGE('',*,*,#207,.F.);
#272=ORIENTED_EDGE('',*,*,#208,.F.);
#273=ORIENTED_EDGE('',*,*,#191,.T.);
#274=ORIENTED_EDGE('',*,*,#197,.T.);
#275=ORIENTED_EDGE('',*,*,#183,.F.);
#276=ORIENTED_EDGE('',*,*,#208,.T.);
#277=ORIENTED_EDGE('',*,*,#209,.F.);
#278=ORIENTED_EDGE('',*,*,#210,.F.);
#279=ORIENTED_EDGE('',*,*,#184,.F.);
#280=ORIENTED_EDGE('',*,*,#210,.T.);
#281=ORIENTED_EDGE('',*,*,#211,.F.);
#282=ORIENTED_EDGE('',*,*,#212,.F.);
#283=ORIENTED_EDGE('',*,*,#194,.T.);
#284=ORIENTED_EDGE('',*,*,#188,.F.);
#285=ORIENTED_EDGE('',*,*,#185,.F.);
#286=ORIENTED_EDGE('',*,*,#212,.T.);
#287=ORIENTED_EDGE('',*,*,#213,.F.);
#288=ORIENTED_EDGE('',*,*,#172,.F.);
#289=ORIENTED_EDGE('',*,*,#178,.T.);
#290=ORIENTED_EDGE('',*,*,#187,.F.);
#291=ORIENTED_EDGE('',*,*,#213,.T.);
#292=ORIENTED_EDGE('',*,*,#211,.T.);
#293=ORIENTED_EDGE('',*,*,#209,.T.);
#294=ORIENTED_EDGE('',*,*,#207,.T.);
#295=ORIENTED_EDGE('',*,*,#205,.T.);
#296=ORIENTED_EDGE('',*,*,#203,.T.);
#297=ORIENTED_EDGE('',*,*,#201,.T.);
#298=CYLINDRICAL_SURFACE('',#346,1.);
#299=CYLINDRICAL_SURFACE('',#349,4.);
#300=CYLINDRICAL_SURFACE('',#354,1.);
#301=CYLINDRICAL_SURFACE('',#359,3.25);
#302=CYLINDRICAL_SURFACE('',#361,1.4);
#303=CYLINDRICAL_SURFACE('',#366,3.25);
#304=CYLINDRICAL_SURFACE('',#368,1.4);
#305=ADVANCED_FACE('',(#32),#298,.T.);
#306=ADVANCED_FACE('',(#33),#299,.F.);
#307=ADVANCED_FACE('',(#34),#21,.T.);
#308=ADVANCED_FACE('',(#35),#300,.T.);
#309=ADVANCED_FACE('',(#36,#15),#22,.T.);
#310=ADVANCED_FACE('',(#37),#301,.F.);
#311=ADVANCED_FACE('',(#38),#302,.F.);
#312=ADVANCED_FACE('',(#39,#16),#23,.T.);
#313=ADVANCED_FACE('',(#40),#303,.F.);
#314=ADVANCED_FACE('',(#41),#304,.F.);
#315=ADVANCED_FACE('',(#42),#24,.T.);
#316=ADVANCED_FACE('',(#43,#17),#25,.T.);
#317=ADVANCED_FACE('',(#44),#26,.T.);
#318=ADVANCED_FACE('',(#45,#18,#19),#27,.T.);
#319=ADVANCED_FACE('',(#46),#28,.T.);
#320=ADVANCED_FACE('',(#47,#20),#29,.T.);
#321=ADVANCED_FACE('',(#48),#30,.T.);
#322=ADVANCED_FACE('',(#49),#31,.F.);
#323=CLOSED_SHELL('',(#305,#306,#307,#308,#309,#310,#311,#312,#313,#314,
#315,#316,#317,#318,#319,#320,#321,#322));
#324=DERIVED_UNIT_ELEMENT(#327,1.);
#325=DERIVED_UNIT_ELEMENT(#566,-3.);
#326=DIMENSIONAL_EXPONENTS(0.,1.,0.,0.,0.,0.,0.);
#327=(
CONVERSION_BASED_UNIT('gram',#329)
MASS_UNIT()
NAMED_UNIT(#326)
);
#328=(
MASS_UNIT()
NAMED_UNIT(*)
SI_UNIT(.KILO.,.GRAM.)
);
#329=MASS_MEASURE_WITH_UNIT(MASS_MEASURE(0.001),#328);
#330=DERIVED_UNIT((#324,#325));
#331=MEASURE_REPRESENTATION_ITEM('density measure',
POSITIVE_RATIO_MEASURE(1.),#330);
#332=PROPERTY_DEFINITION_REPRESENTATION(#337,#334);
#333=PROPERTY_DEFINITION_REPRESENTATION(#338,#335);
#334=REPRESENTATION('material name',(#336),#563);
#335=REPRESENTATION('density',(#331),#563);
#336=DESCRIPTIVE_REPRESENTATION_ITEM('Generisch','Generisch');
#337=PROPERTY_DEFINITION('material property','material name',#573);
#338=PROPERTY_DEFINITION('material property','density of part',#573);
#339=DATE_TIME_ROLE('creation_date');
#340=APPLIED_DATE_AND_TIME_ASSIGNMENT(#341,#339,(#573));
#341=DATE_AND_TIME(#342,#343);
#342=CALENDAR_DATE(2023,24,3);
#343=LOCAL_TIME(0,0,0.,#344);
#344=COORDINATED_UNIVERSAL_TIME_OFFSET(0,0,.BEHIND.);
#345=AXIS2_PLACEMENT_3D('',#472,#378,#379);
#346=AXIS2_PLACEMENT_3D('',#473,#380,#381);
#347=AXIS2_PLACEMENT_3D('',#476,#382,#383);
#348=AXIS2_PLACEMENT_3D('',#480,#385,#386);
#349=AXIS2_PLACEMENT_3D('',#482,#388,#389);
#350=AXIS2_PLACEMENT_3D('',#484,#390,#391);
#351=AXIS2_PLACEMENT_3D('',#487,#393,#394);
#352=AXIS2_PLACEMENT_3D('',#488,#395,#396);
#353=AXIS2_PLACEMENT_3D('',#503,#404,#405);
#354=AXIS2_PLACEMENT_3D('',#504,#406,#407);
#355=AXIS2_PLACEMENT_3D('',#506,#408,#409);
#356=AXIS2_PLACEMENT_3D('',#508,#411,#412);
#357=AXIS2_PLACEMENT_3D('',#510,#413,#414);
#358=AXIS2_PLACEMENT_3D('',#512,#415,#416);
#359=AXIS2_PLACEMENT_3D('',#513,#417,#418);
#360=AXIS2_PLACEMENT_3D('',#515,#419,#420);
#361=AXIS2_PLACEMENT_3D('',#517,#422,#423);
#362=AXIS2_PLACEMENT_3D('',#520,#425,#426);
#363=AXIS2_PLACEMENT_3D('',#521,#427,#428);
#364=AXIS2_PLACEMENT_3D('',#523,#429,#430);
#365=AXIS2_PLACEMENT_3D('',#525,#431,#432);
#366=AXIS2_PLACEMENT_3D('',#526,#433,#434);
#367=AXIS2_PLACEMENT_3D('',#528,#435,#436);
#368=AXIS2_PLACEMENT_3D('',#530,#438,#439);
#369=AXIS2_PLACEMENT_3D('',#533,#441,#442);
#370=AXIS2_PLACEMENT_3D('',#534,#443,#444);
#371=AXIS2_PLACEMENT_3D('',#538,#447,#448);
#372=AXIS2_PLACEMENT_3D('',#542,#451,#452);
#373=AXIS2_PLACEMENT_3D('',#546,#455,#456);
#374=AXIS2_PLACEMENT_3D('',#550,#459,#460);
#375=AXIS2_PLACEMENT_3D('',#554,#463,#464);
#376=AXIS2_PLACEMENT_3D('',#558,#467,#468);
#377=AXIS2_PLACEMENT_3D('',#560,#470,#471);
#378=DIRECTION('axis',(0.,0.,1.));
#379=DIRECTION('refdir',(1.,0.,0.));
#380=DIRECTION('center_axis',(1.,0.,0.));
#381=DIRECTION('ref_axis',(0.,-0.447213595499956,-0.894427190999917));
#382=DIRECTION('center_axis',(-1.,-9.90165462318989E-17,0.));
#383=DIRECTION('ref_axis',(0.,-0.447213595499956,-0.894427190999917));
#384=DIRECTION('',(-1.,0.,0.));
#385=DIRECTION('center_axis',(1.,9.90165462318989E-17,0.));
#386=DIRECTION('ref_axis',(0.,-0.447213595499956,-0.894427190999917));
#387=DIRECTION('',(1.,0.,0.));
#388=DIRECTION('center_axis',(1.,0.,0.));
#389=DIRECTION('ref_axis',(0.,1.,0.));
#390=DIRECTION('center_axis',(1.,9.90165462318989E-17,0.));
#391=DIRECTION('ref_axis',(-9.90165462318989E-17,1.,0.));
#392=DIRECTION('',(-1.,0.,0.));
#393=DIRECTION('center_axis',(-1.,-9.90165462318989E-17,0.));
#394=DIRECTION('ref_axis',(-9.90165462318989E-17,1.,0.));
#395=DIRECTION('center_axis',(-1.,-9.90165462318989E-17,0.));
#396=DIRECTION('ref_axis',(0.,0.,1.));
#397=DIRECTION('',(0.,0.,1.));
#398=DIRECTION('',(9.90165462318989E-17,-1.,0.));
#399=DIRECTION('',(0.,0.,1.));
#400=DIRECTION('',(-9.90165462318989E-17,1.,0.));
#401=DIRECTION('',(-7.85217496039396E-33,7.93016446160826E-17,-1.));
#402=DIRECTION('',(9.90165462318989E-17,-1.,0.));
#403=DIRECTION('',(1.87115658630664E-32,-1.8897413185109E-16,-1.));
#404=DIRECTION('center_axis',(1.,9.90165462318989E-17,0.));
#405=DIRECTION('ref_axis',(0.,0.447213595499958,-0.894427190999916));
#406=DIRECTION('center_axis',(1.,0.,0.));
#407=DIRECTION('ref_axis',(0.,0.447213595499958,-0.894427190999916));
#408=DIRECTION('center_axis',(-1.,-9.90165462318989E-17,0.));
#409=DIRECTION('ref_axis',(0.,0.447213595499958,-0.894427190999916));
#410=DIRECTION('',(1.,0.,0.));
#411=DIRECTION('center_axis',(0.,0.,1.));
#412=DIRECTION('ref_axis',(1.,0.,0.));
#413=DIRECTION('center_axis',(0.,0.,1.));
#414=DIRECTION('ref_axis',(1.,0.,0.));
#415=DIRECTION('center_axis',(0.,0.,1.));
#416=DIRECTION('ref_axis',(1.,0.,0.));
#417=DIRECTION('center_axis',(0.,0.,1.));
#418=DIRECTION('ref_axis',(1.,0.,0.));
#419=DIRECTION('center_axis',(0.,0.,-1.));
#420=DIRECTION('ref_axis',(1.,0.,0.));
#421=DIRECTION('',(0.,0.,-1.));
#422=DIRECTION('center_axis',(0.,0.,1.));
#423=DIRECTION('ref_axis',(1.,0.,0.));
#424=DIRECTION('',(0.,0.,-1.));
#425=DIRECTION('center_axis',(0.,0.,1.));
#426=DIRECTION('ref_axis',(1.,0.,0.));
#427=DIRECTION('center_axis',(0.,0.,1.));
#428=DIRECTION('ref_axis',(1.,0.,0.));
#429=DIRECTION('center_axis',(0.,0.,1.));
#430=DIRECTION('ref_axis',(1.,0.,0.));
#431=DIRECTION('center_axis',(0.,0.,1.));
#432=DIRECTION('ref_axis',(1.,0.,0.));
#433=DIRECTION('center_axis',(0.,0.,1.));
#434=DIRECTION('ref_axis',(1.,0.,0.));
#435=DIRECTION('center_axis',(0.,0.,-1.));
#436=DIRECTION('ref_axis',(1.,0.,0.));
#437=DIRECTION('',(0.,0.,-1.));
#438=DIRECTION('center_axis',(0.,0.,1.));
#439=DIRECTION('ref_axis',(1.,0.,0.));
#440=DIRECTION('',(0.,0.,-1.));
#441=DIRECTION('center_axis',(0.,0.,1.));
#442=DIRECTION('ref_axis',(1.,0.,0.));
#443=DIRECTION('center_axis',(0.,-1.,0.));
#444=DIRECTION('ref_axis',(0.,0.,-1.));
#445=DIRECTION('',(0.,0.,-1.));
#446=DIRECTION('',(1.,0.,0.));
#447=DIRECTION('center_axis',(0.,0.,-1.));
#448=DIRECTION('ref_axis',(-9.90165462318989E-17,1.,0.));
#449=DIRECTION('',(-9.90165462318989E-17,1.,0.));
#450=DIRECTION('',(1.,0.,0.));
#451=DIRECTION('center_axis',(0.,-1.,0.));
#452=DIRECTION('ref_axis',(0.,0.,-1.));
#453=DIRECTION('',(0.,0.,-1.));
#454=DIRECTION('',(1.,0.,0.));
#455=DIRECTION('center_axis',(0.,0.,1.));
#456=DIRECTION('ref_axis',(9.90165462318989E-17,-1.,0.));
#457=DIRECTION('',(9.90165462318989E-17,-1.,0.));
#458=DIRECTION('',(1.,0.,0.));
#459=DIRECTION('center_axis',(0.,1.,7.93016446160826E-17));
#460=DIRECTION('ref_axis',(7.85217496039396E-33,-7.93016446160826E-17,1.));
#461=DIRECTION('',(7.85217496039396E-33,-7.93016446160826E-17,1.));
#462=DIRECTION('',(1.,0.,0.));
#463=DIRECTION('center_axis',(0.,0.,-1.));
#464=DIRECTION('ref_axis',(-9.90165462318989E-17,1.,0.));
#465=DIRECTION('',(-9.90165462318989E-17,1.,0.));
#466=DIRECTION('',(1.,0.,0.));
#467=DIRECTION('center_axis',(0.,1.,-1.8897413185109E-16));
#468=DIRECTION('ref_axis',(-1.87115658630664E-32,1.8897413185109E-16,1.));
#469=DIRECTION('',(-1.87115658630664E-32,1.8897413185109E-16,1.));
#470=DIRECTION('center_axis',(-1.,-9.90165462318989E-17,0.));
#471=DIRECTION('ref_axis',(0.,0.,1.));
#472=CARTESIAN_POINT('',(0.,0.,0.));
#473=CARTESIAN_POINT('Origin',(37.8999999999999,6.25,-0.875000000000012));
#474=CARTESIAN_POINT('',(46.8999999999999,6.85,-1.67500000000001));
#475=CARTESIAN_POINT('',(46.8999999999999,5.25,-0.875000000000012));
#476=CARTESIAN_POINT('Origin',(46.8999999999999,6.25,-0.875000000000012));
#477=CARTESIAN_POINT('',(37.8999999999999,5.25,-0.875000000000012));
#478=CARTESIAN_POINT('',(37.8999999999999,5.25,-0.875000000000012));
#479=CARTESIAN_POINT('',(37.8999999999999,6.85,-1.67500000000001));
#480=CARTESIAN_POINT('Origin',(37.8999999999999,6.25,-0.875000000000012));
#481=CARTESIAN_POINT('',(37.8999999999999,6.85,-1.67500000000001));
#482=CARTESIAN_POINT('Origin',(37.8999999999999,9.25,-4.87500000000001));
#483=CARTESIAN_POINT('',(37.8999999999999,11.65,-1.67500000000001));
#484=CARTESIAN_POINT('Origin',(37.8999999999999,9.25,-4.87500000000001));
#485=CARTESIAN_POINT('',(46.8999999999999,11.65,-1.67500000000001));
#486=CARTESIAN_POINT('',(37.8999999999999,11.65,-1.67500000000001));
#487=CARTESIAN_POINT('Origin',(46.8999999999999,9.25,-4.87500000000001));
#488=CARTESIAN_POINT('Origin',(37.8999999999999,9.25,-0.187500000000005));
#489=CARTESIAN_POINT('',(37.8999999999999,5.25,1.));
#490=CARTESIAN_POINT('',(37.8999999999999,5.25,-4.87500000000001));
#491=CARTESIAN_POINT('',(37.8999999999999,-2.75000000000001,1.));
#492=CARTESIAN_POINT('',(37.8999999999999,20.25,1.));
#493=CARTESIAN_POINT('',(37.8999999999999,-2.75000000000001,4.5));
#494=CARTESIAN_POINT('',(37.8999999999999,-2.75000000000001,1.));
#495=CARTESIAN_POINT('',(37.8999999999999,20.25,4.5));
#496=CARTESIAN_POINT('',(37.8999999999999,-1.75000000000001,4.5));
#497=CARTESIAN_POINT('',(37.8999999999999,20.25,1.));
#498=CARTESIAN_POINT('',(37.8999999999999,20.25,4.5));
#499=CARTESIAN_POINT('',(37.8999999999999,13.25,1.));
#500=CARTESIAN_POINT('',(37.8999999999999,20.25,1.));
#501=CARTESIAN_POINT('',(37.8999999999999,13.25,-0.875000000000011));
#502=CARTESIAN_POINT('',(37.8999999999999,13.25,1.));
#503=CARTESIAN_POINT('Origin',(37.8999999999999,12.25,-0.875000000000011));
#504=CARTESIAN_POINT('Origin',(37.8999999999999,12.25,-0.875000000000011));
#505=CARTESIAN_POINT('',(46.8999999999999,13.25,-0.875000000000011));
#506=CARTESIAN_POINT('Origin',(46.8999999999999,12.25,-0.875000000000011));
#507=CARTESIAN_POINT('',(37.8999999999999,13.25,-0.875000000000011));
#508=CARTESIAN_POINT('Origin',(42.4,16.25,4.));
#509=CARTESIAN_POINT('',(39.15,16.25,4.));
#510=CARTESIAN_POINT('Origin',(42.4,16.25,4.));
#511=CARTESIAN_POINT('',(41.,16.25,4.));
#512=CARTESIAN_POINT('Origin',(42.4,16.25,4.));
#513=CARTESIAN_POINT('Origin',(42.4,16.25,4.25));
#514=CARTESIAN_POINT('',(39.15,16.25,4.5));
#515=CARTESIAN_POINT('Origin',(42.4,16.25,4.5));
#516=CARTESIAN_POINT('',(39.15,16.25,4.25));
#517=CARTESIAN_POINT('Origin',(42.4,16.25,0.5));
#518=CARTESIAN_POINT('',(41.,16.25,1.));
#519=CARTESIAN_POINT('',(41.,16.25,0.5));
#520=CARTESIAN_POINT('Origin',(42.4,16.25,1.));
#521=CARTESIAN_POINT('Origin',(42.4,2.24999999999999,4.));
#522=CARTESIAN_POINT('',(39.15,2.24999999999998,4.));
#523=CARTESIAN_POINT('Origin',(42.4,2.24999999999999,4.));
#524=CARTESIAN_POINT('',(41.,2.24999999999998,4.));
#525=CARTESIAN_POINT('Origin',(42.4,2.24999999999999,4.));
#526=CARTESIAN_POINT('Origin',(42.4,2.24999999999999,4.25));
#527=CARTESIAN_POINT('',(39.15,2.24999999999998,4.5));
#528=CARTESIAN_POINT('Origin',(42.4,2.24999999999999,4.5));
#529=CARTESIAN_POINT('',(39.15,2.24999999999998,4.25));
#530=CARTESIAN_POINT('Origin',(42.4,2.24999999999999,0.5));
#531=CARTESIAN_POINT('',(41.,2.24999999999998,1.));
#532=CARTESIAN_POINT('',(41.,2.24999999999998,0.5));
#533=CARTESIAN_POINT('Origin',(42.4,2.24999999999999,1.));
#534=CARTESIAN_POINT('Origin',(37.8999999999999,5.25,1.));
#535=CARTESIAN_POINT('',(46.8999999999999,5.25,1.));
#536=CARTESIAN_POINT('',(46.8999999999999,5.25,-4.87500000000001));
#537=CARTESIAN_POINT('',(37.8999999999999,5.25,1.));
#538=CARTESIAN_POINT('Origin',(37.8999999999999,-2.75000000000001,1.));
#539=CARTESIAN_POINT('',(46.8999999999999,-2.75000000000001,1.));
#540=CARTESIAN_POINT('',(46.8999999999999,20.25,1.));
#541=CARTESIAN_POINT('',(37.8999999999999,-2.75000000000001,1.));
#542=CARTESIAN_POINT('Origin',(37.8999999999999,-2.75000000000001,4.5));
#543=CARTESIAN_POINT('',(46.8999999999999,-2.75000000000001,4.5));
#544=CARTESIAN_POINT('',(46.8999999999999,-2.75000000000001,1.));
#545=CARTESIAN_POINT('',(37.8999999999999,-2.75000000000001,4.5));
#546=CARTESIAN_POINT('Origin',(37.8999999999999,20.25,4.5));
#547=CARTESIAN_POINT('',(46.8999999999999,20.25,4.5));
#548=CARTESIAN_POINT('',(46.8999999999999,-1.75000000000001,4.5));
#549=CARTESIAN_POINT('',(37.8999999999999,20.25,4.5));
#550=CARTESIAN_POINT('Origin',(37.8999999999999,20.25,1.));
#551=CARTESIAN_POINT('',(46.8999999999999,20.25,1.));
#552=CARTESIAN_POINT('',(46.8999999999999,20.25,4.5));
#553=CARTESIAN_POINT('',(37.8999999999999,20.25,1.));
#554=CARTESIAN_POINT('Origin',(37.8999999999999,13.25,1.));
#555=CARTESIAN_POINT('',(46.8999999999999,13.25,1.));
#556=CARTESIAN_POINT('',(46.8999999999999,20.25,1.));
#557=CARTESIAN_POINT('',(37.8999999999999,13.25,1.));
#558=CARTESIAN_POINT('Origin',(37.8999999999999,13.25,-4.87500000000001));
#559=CARTESIAN_POINT('',(46.8999999999999,13.25,1.));
#560=CARTESIAN_POINT('Origin',(46.8999999999999,9.25,-0.187500000000005));
#561=UNCERTAINTY_MEASURE_WITH_UNIT(LENGTH_MEASURE(0.01),#565,
'DISTANCE_ACCURACY_VALUE',
'Maximum model space distance between geometric entities at asserted c
onnectivities');
#562=UNCERTAINTY_MEASURE_WITH_UNIT(LENGTH_MEASURE(0.01),#565,
'DISTANCE_ACCURACY_VALUE',
'Maximum model space distance between geometric entities at asserted c
onnectivities');
#563=(
GEOMETRIC_REPRESENTATION_CONTEXT(3)
GLOBAL_UNCERTAINTY_ASSIGNED_CONTEXT((#561))
GLOBAL_UNIT_ASSIGNED_CONTEXT((#565,#567,#568))
REPRESENTATION_CONTEXT('','3D')
);
#564=(
GEOMETRIC_REPRESENTATION_CONTEXT(3)
GLOBAL_UNCERTAINTY_ASSIGNED_CONTEXT((#562))
GLOBAL_UNIT_ASSIGNED_CONTEXT((#565,#567,#568))
REPRESENTATION_CONTEXT('','3D')
);
#565=(
LENGTH_UNIT()
NAMED_UNIT(*)
SI_UNIT(.MILLI.,.METRE.)
);
#566=(
LENGTH_UNIT()
NAMED_UNIT(*)
SI_UNIT(.CENTI.,.METRE.)
);
#567=(
NAMED_UNIT(*)
PLANE_ANGLE_UNIT()
SI_UNIT($,.RADIAN.)
);
#568=(
NAMED_UNIT(*)
SI_UNIT($,.STERADIAN.)
SOLID_ANGLE_UNIT()
);
#569=SHAPE_DEFINITION_REPRESENTATION(#570,#571);
#570=PRODUCT_DEFINITION_SHAPE('',$,#573);
#571=SHAPE_REPRESENTATION('',(#345),#563);
#572=PRODUCT_DEFINITION_CONTEXT('part definition',#577,'design');
#573=PRODUCT_DEFINITION('Holisheet_tubeclamp','Holisheet_tubeclamp',#574,
#572);
#574=PRODUCT_DEFINITION_FORMATION('',$,#579);
#575=PRODUCT_RELATED_PRODUCT_CATEGORY('Holisheet_tubeclamp',
'Holisheet_tubeclamp',(#579));
#576=APPLICATION_PROTOCOL_DEFINITION('international standard',
'automotive_design',2009,#577);
#577=APPLICATION_CONTEXT(
'Core Data for Automotive Mechanical Design Process');
#578=PRODUCT_CONTEXT('part definition',#577,'mechanical');
#579=PRODUCT('Holisheet_tubeclamp','Holisheet_tubeclamp',$,(#578));
#580=PRESENTATION_STYLE_ASSIGNMENT((#581));
#581=SURFACE_STYLE_USAGE(.BOTH.,#584);
#582=SURFACE_STYLE_RENDERING_WITH_PROPERTIES($,#588,(#583));
#583=SURFACE_STYLE_TRANSPARENT(0.);
#584=SURFACE_SIDE_STYLE('',(#585,#582));
#585=SURFACE_STYLE_FILL_AREA(#586);
#586=FILL_AREA_STYLE('',(#587));
#587=FILL_AREA_STYLE_COLOUR('',#588);
#588=COLOUR_RGB('',0.749019607843137,0.749019607843137,0.749019607843137);
ENDSEC;
END-ISO-10303-21;
