%TF.GenerationSoftware,KiCad,Pcbnew,(6.0.1)*%
%TF.CreationDate,2023-01-13T10:44:30+01:00*%
%TF.ProjectId,HoLiSheet,486f4c69-5368-4656-9574-2e6b69636164,rev?*%
%TF.SameCoordinates,Original*%
%TF.FileFunction,Copper,L1,Top*%
%TF.FilePolarity,Positive*%
%FSLAX46Y46*%
G04 Gerber Fmt 4.6, Leading zero omitted, Abs format (unit mm)*
G04 Created by KiCad (PCBNEW (6.0.1)) date 2023-01-13 10:44:30*
%MOMM*%
%LPD*%
G01*
G04 APERTURE LIST*
%TA.AperFunction,NonConductor*%
%ADD10C,0.200000*%
%TD*%
%TA.AperFunction,SMDPad,CuDef*%
%ADD11R,0.500000X2.000000*%
%TD*%
%TA.AperFunction,SMDPad,CuDef*%
%ADD12R,0.600000X1.750000*%
%TD*%
%TA.AperFunction,ComponentPad*%
%ADD13R,1.700000X1.700000*%
%TD*%
%TA.AperFunction,ComponentPad*%
%ADD14O,1.700000X1.700000*%
%TD*%
%TA.AperFunction,Conductor*%
%ADD15C,0.700000*%
%TD*%
%TA.AperFunction,Conductor*%
%ADD16C,0.750000*%
%TD*%
%TA.AperFunction,Conductor*%
%ADD17C,0.500000*%
%TD*%
G04 APERTURE END LIST*
D10*
X16002000Y-22885400D02*
X14884400Y-22860000D01*
X16002000Y-12166600D02*
X16002000Y-22885400D01*
X14528800Y-12141200D02*
X16052800Y-12141200D01*
X6197600Y-23012400D02*
X7620000Y-23012400D01*
X5994400Y-12369800D02*
X5994400Y-22783800D01*
X7467600Y-12344400D02*
X5994400Y-12369800D01*
X8178800Y-2641600D02*
X8331200Y-2844800D01*
X13411200Y-11887200D02*
X12903200Y-11887200D01*
X12903200Y-11887200D02*
X12903200Y-14579600D01*
X12903200Y-14579600D02*
X13411200Y-14579600D01*
X13411200Y-14579600D02*
X13411200Y-11887200D01*
G36*
X13411200Y-11887200D02*
G01*
X12903200Y-11887200D01*
X12903200Y-14579600D01*
X13411200Y-14579600D01*
X13411200Y-11887200D01*
G37*
X12496800Y-11887200D02*
X11988800Y-11887200D01*
X11988800Y-11887200D02*
X11988800Y-14579600D01*
X11988800Y-14579600D02*
X12496800Y-14579600D01*
X12496800Y-14579600D02*
X12496800Y-11887200D01*
G36*
X12496800Y-11887200D02*
G01*
X11988800Y-11887200D01*
X11988800Y-14579600D01*
X12496800Y-14579600D01*
X12496800Y-11887200D01*
G37*
X11582400Y-11887200D02*
X11074400Y-11887200D01*
X11074400Y-11887200D02*
X11074400Y-14579600D01*
X11074400Y-14579600D02*
X11582400Y-14579600D01*
X11582400Y-14579600D02*
X11582400Y-11887200D01*
G36*
X11582400Y-11887200D02*
G01*
X11074400Y-11887200D01*
X11074400Y-14579600D01*
X11582400Y-14579600D01*
X11582400Y-11887200D01*
G37*
X10668000Y-11887200D02*
X10160000Y-11887200D01*
X10160000Y-11887200D02*
X10160000Y-14579600D01*
X10160000Y-14579600D02*
X10668000Y-14579600D01*
X10668000Y-14579600D02*
X10668000Y-11887200D01*
G36*
X10668000Y-11887200D02*
G01*
X10160000Y-11887200D01*
X10160000Y-14579600D01*
X10668000Y-14579600D01*
X10668000Y-11887200D01*
G37*
X9804400Y-11887200D02*
X9296400Y-11887200D01*
X9296400Y-11887200D02*
X9296400Y-14579600D01*
X9296400Y-14579600D02*
X9804400Y-14579600D01*
X9804400Y-14579600D02*
X9804400Y-11887200D01*
G36*
X9804400Y-11887200D02*
G01*
X9296400Y-11887200D01*
X9296400Y-14579600D01*
X9804400Y-14579600D01*
X9804400Y-11887200D01*
G37*
X8890000Y-11887200D02*
X8382000Y-11887200D01*
X8382000Y-11887200D02*
X8382000Y-14579600D01*
X8382000Y-14579600D02*
X8890000Y-14579600D01*
X8890000Y-14579600D02*
X8890000Y-11887200D01*
G36*
X8890000Y-11887200D02*
G01*
X8382000Y-11887200D01*
X8382000Y-14579600D01*
X8890000Y-14579600D01*
X8890000Y-11887200D01*
G37*
D11*
%TO.P,J8,1,Pin_1*%
%TO.N,Net-(J1-Pad1)*%
X13181200Y-12368400D03*
%TD*%
%TO.P,J7,1,Pin_1*%
%TO.N,Net-(J1-Pad2)*%
X12216000Y-12622400D03*
%TD*%
%TO.P,J6,1,Pin_1*%
%TO.N,Net-(J1-Pad3)*%
X11348300Y-12495400D03*
%TD*%
%TO.P,J5,1,Pin_1*%
%TO.N,Net-(J1-Pad4)*%
X10383100Y-12495400D03*
%TD*%
%TO.P,J4,1,Pin_1*%
%TO.N,Net-(J1-Pad5)*%
X9625200Y-12520800D03*
%TD*%
%TO.P,J2,1,Pin_1*%
%TO.N,Net-(J1-Pad6)*%
X8710800Y-12571600D03*
%TD*%
D12*
%TO.P,J3,1,Pin_1*%
%TO.N,unconnected-(J3-Pad1)*%
X8628672Y-24700200D03*
%TO.P,J3,2,Pin_2*%
%TO.N,unconnected-(J3-Pad2)*%
X9628672Y-22950200D03*
%TO.P,J3,3,Pin_3*%
%TO.N,unconnected-(J3-Pad3)*%
X10628672Y-24700200D03*
%TO.P,J3,4,Pin_4*%
%TO.N,unconnected-(J3-Pad4)*%
X11628672Y-22950200D03*
%TO.P,J3,5,Pin_5*%
%TO.N,unconnected-(J3-Pad5)*%
X12628672Y-24700200D03*
%TO.P,J3,6,Pin_6*%
%TO.N,unconnected-(J3-Pad6)*%
X13628672Y-22950200D03*
%TD*%
D13*
%TO.P,J1,1,Pin_1*%
%TO.N,Net-(J1-Pad1)*%
X17627600Y-3149600D03*
D14*
%TO.P,J1,2,Pin_2*%
%TO.N,Net-(J1-Pad2)*%
X15087600Y-3149600D03*
%TO.P,J1,3,Pin_3*%
%TO.N,Net-(J1-Pad3)*%
X12547600Y-3149600D03*
%TO.P,J1,4,Pin_4*%
%TO.N,Net-(J1-Pad4)*%
X10007600Y-3149600D03*
%TO.P,J1,5,Pin_5*%
%TO.N,Net-(J1-Pad5)*%
X7467600Y-3149600D03*
%TO.P,J1,6,Pin_6*%
%TO.N,Net-(J1-Pad6)*%
X4927600Y-3149600D03*
%TD*%
D15*
%TO.N,Net-(J1-Pad5)*%
X8991600Y-4673600D02*
X8864600Y-4546600D01*
X8991600Y-8432800D02*
X8991600Y-4673600D01*
D16*
X7467600Y-3149600D02*
X8864600Y-4546600D01*
D15*
X9560520Y-11310529D02*
X9560520Y-12446000D01*
X9375191Y-11125200D02*
X9560520Y-11310529D01*
X9375191Y-8816391D02*
X9375191Y-11125200D01*
X8991600Y-8432800D02*
X9375191Y-8816391D01*
D16*
%TO.N,Net-(J1-Pad2)*%
X12141200Y-11023600D02*
X12141200Y-12547600D01*
X12750800Y-5486400D02*
X12750800Y-10414000D01*
X12750800Y-10414000D02*
X12141200Y-11023600D01*
X15087600Y-3149600D02*
X12750800Y-5486400D01*
%TO.N,Net-(J1-Pad1)*%
X13970000Y-11430000D02*
X13106400Y-12293600D01*
X14034920Y-11430000D02*
X13970000Y-11430000D01*
%TO.N,Net-(J1-Pad3)*%
X11684000Y-4423700D02*
X11273500Y-4834200D01*
X11273500Y-4834200D02*
X11273500Y-12420600D01*
%TO.N,Net-(J1-Pad4)*%
X10360040Y-4875992D02*
X10360040Y-12420600D01*
X10007600Y-4523552D02*
X10360040Y-4875992D01*
X10007600Y-3149600D02*
X10007600Y-4523552D01*
%TO.N,Net-(J1-Pad3)*%
X11684000Y-4013200D02*
X11684000Y-4423700D01*
X12547600Y-3149600D02*
X11684000Y-4013200D01*
%TO.N,Net-(J1-Pad6)*%
X8070317Y-11988800D02*
X8578317Y-12496800D01*
X7924800Y-11848216D02*
X8070317Y-11988800D01*
X8578317Y-12496800D02*
X8636000Y-12496800D01*
X4927600Y-3149600D02*
X7924800Y-6146800D01*
X7924800Y-6146800D02*
X7924800Y-11848216D01*
%TO.N,Net-(J1-Pad1)*%
X14034920Y-6742280D02*
X14034920Y-11430000D01*
X17627600Y-3149600D02*
X14034920Y-6742280D01*
D17*
%TO.N,Net-(J1-Pad2)*%
X15087600Y-3149600D02*
X15087600Y-3454400D01*
%TO.N,Net-(J1-Pad4)*%
X10007600Y-3149600D02*
X10324711Y-3466711D01*
%TO.N,Net-(J1-Pad6)*%
X8788400Y-12979400D02*
X8686800Y-13081000D01*
%TO.N,unconnected-(J3-Pad6)*%
X13628672Y-25309200D02*
X13668672Y-25349200D01*
X13628672Y-22950200D02*
X13628672Y-25309200D01*
%TO.N,unconnected-(J3-Pad5)*%
X12628672Y-22325200D02*
X12652672Y-22301200D01*
X12628672Y-24700200D02*
X12628672Y-22325200D01*
%TO.N,unconnected-(J3-Pad4)*%
X11636672Y-25349200D02*
X11628672Y-25341200D01*
X11628672Y-22950200D02*
X11628672Y-25341200D01*
%TO.N,unconnected-(J3-Pad3)*%
X10628672Y-22309200D02*
X10620672Y-22301200D01*
X10628672Y-24700200D02*
X10628672Y-22309200D01*
%TO.N,unconnected-(J3-Pad2)*%
X9628672Y-25325200D02*
X9604672Y-25349200D01*
X9628672Y-22950200D02*
X9628672Y-25325200D01*
%TO.N,unconnected-(J3-Pad1)*%
X8628672Y-22341200D02*
X8588672Y-22301200D01*
X8628672Y-24700200D02*
X8628672Y-22341200D01*
%TD*%
%TA.AperFunction,NonConductor*%
G36*
X14206960Y-12665755D02*
G01*
X14208475Y-12663131D01*
X14215623Y-12667258D01*
X14222177Y-12672287D01*
X14296129Y-12702919D01*
X14362450Y-12730390D01*
X14362453Y-12730391D01*
X14370080Y-12733550D01*
X14378268Y-12734628D01*
X14484866Y-12748662D01*
X14484867Y-12748662D01*
X14488953Y-12749200D01*
X15268000Y-12749200D01*
X15336121Y-12769202D01*
X15382614Y-12822858D01*
X15394000Y-12875200D01*
X15394000Y-22134529D01*
X15373998Y-22202650D01*
X15320342Y-22249143D01*
X15265137Y-22260496D01*
X14962309Y-22253614D01*
X14858378Y-22251252D01*
X14854272Y-22251698D01*
X14854270Y-22251698D01*
X14747391Y-22263305D01*
X14747389Y-22263306D01*
X14739180Y-22264197D01*
X14678950Y-22287556D01*
X14608732Y-22314788D01*
X14537988Y-22320770D01*
X14475239Y-22287556D01*
X14440409Y-22225691D01*
X14437172Y-22197313D01*
X14437172Y-22027066D01*
X14430417Y-21964884D01*
X14379287Y-21828495D01*
X14291933Y-21711939D01*
X14175377Y-21624585D01*
X14038988Y-21573455D01*
X13976806Y-21566700D01*
X13280538Y-21566700D01*
X13218356Y-21573455D01*
X13210960Y-21576227D01*
X13210954Y-21576229D01*
X13086945Y-21622718D01*
X13016138Y-21627901D01*
X12995618Y-21621602D01*
X12860976Y-21567340D01*
X12854182Y-21564602D01*
X12769681Y-21551747D01*
X12686557Y-21539101D01*
X12686553Y-21539101D01*
X12679323Y-21538001D01*
X12672031Y-21538594D01*
X12672028Y-21538594D01*
X12589058Y-21545343D01*
X12503035Y-21552340D01*
X12496076Y-21554594D01*
X12496073Y-21554595D01*
X12341739Y-21604592D01*
X12341736Y-21604593D01*
X12334773Y-21606849D01*
X12328518Y-21610645D01*
X12328513Y-21610647D01*
X12304680Y-21625110D01*
X12236066Y-21643350D01*
X12180385Y-21628338D01*
X12175377Y-21624585D01*
X12166976Y-21621436D01*
X12166973Y-21621434D01*
X12055585Y-21579677D01*
X12038988Y-21573455D01*
X11976806Y-21566700D01*
X11280538Y-21566700D01*
X11218356Y-21573455D01*
X11081967Y-21624585D01*
X11081285Y-21625096D01*
X11015920Y-21639389D01*
X10971423Y-21627848D01*
X10947975Y-21616889D01*
X10940489Y-21612975D01*
X10939507Y-21612548D01*
X10933182Y-21608874D01*
X10926514Y-21606854D01*
X10926207Y-21606716D01*
X10868353Y-21579677D01*
X10868352Y-21579677D01*
X10861722Y-21576578D01*
X10854557Y-21575088D01*
X10854555Y-21575087D01*
X10710600Y-21545145D01*
X10688557Y-21540560D01*
X10511751Y-21545343D01*
X10504669Y-21547221D01*
X10504668Y-21547221D01*
X10347870Y-21588796D01*
X10347868Y-21588797D01*
X10340788Y-21590674D01*
X10334329Y-21594130D01*
X10284601Y-21620738D01*
X10215102Y-21635240D01*
X10175787Y-21623490D01*
X10175377Y-21624585D01*
X10038988Y-21573455D01*
X9976806Y-21566700D01*
X9280538Y-21566700D01*
X9218356Y-21573455D01*
X9201759Y-21579677D01*
X9090371Y-21621434D01*
X9090368Y-21621436D01*
X9081967Y-21624585D01*
X9074785Y-21629967D01*
X9070545Y-21632289D01*
X9001187Y-21647458D01*
X8956691Y-21635919D01*
X8829722Y-21576578D01*
X8822560Y-21575088D01*
X8822559Y-21575088D01*
X8743140Y-21558569D01*
X8656557Y-21540560D01*
X8479751Y-21545343D01*
X8472669Y-21547221D01*
X8472668Y-21547221D01*
X8315870Y-21588796D01*
X8315868Y-21588797D01*
X8308788Y-21590674D01*
X8302329Y-21594130D01*
X8159298Y-21670661D01*
X8159295Y-21670663D01*
X8152838Y-21674118D01*
X8147350Y-21678965D01*
X8147347Y-21678967D01*
X8110014Y-21711939D01*
X8020268Y-21791200D01*
X7918188Y-21935640D01*
X7915453Y-21942426D01*
X7915451Y-21942430D01*
X7909384Y-21957485D01*
X7852074Y-22099689D01*
X7850973Y-22106926D01*
X7826594Y-22267183D01*
X7825473Y-22274549D01*
X7826066Y-22281844D01*
X7825887Y-22286988D01*
X7803522Y-22354370D01*
X7748277Y-22398963D01*
X7683519Y-22407516D01*
X7663937Y-22404938D01*
X7663930Y-22404938D01*
X7659847Y-22404400D01*
X6728400Y-22404400D01*
X6660279Y-22384398D01*
X6613786Y-22330742D01*
X6602400Y-22278400D01*
X6602400Y-13091254D01*
X6622402Y-13023133D01*
X6676058Y-12976640D01*
X6726228Y-12965273D01*
X7517922Y-12951623D01*
X7629404Y-12934986D01*
X7699729Y-12944714D01*
X7753632Y-12990920D01*
X7774000Y-13059606D01*
X7774000Y-14531495D01*
X7772922Y-14547941D01*
X7768754Y-14579600D01*
X7774000Y-14619447D01*
X7789650Y-14738320D01*
X7850913Y-14886223D01*
X7948370Y-15013230D01*
X8075377Y-15110687D01*
X8149328Y-15141318D01*
X8215650Y-15168790D01*
X8215653Y-15168791D01*
X8223280Y-15171950D01*
X8382000Y-15192846D01*
X8390188Y-15191768D01*
X8413659Y-15188678D01*
X8430105Y-15187600D01*
X8717299Y-15187600D01*
X8785420Y-15207602D01*
X8831913Y-15261258D01*
X8842017Y-15331532D01*
X8812523Y-15396112D01*
X8799882Y-15408763D01*
X8650919Y-15538026D01*
X8407464Y-15801395D01*
X8405411Y-15804175D01*
X8405404Y-15804183D01*
X8196438Y-16087100D01*
X8194379Y-16089888D01*
X8014239Y-16400022D01*
X7869220Y-16728050D01*
X7761071Y-17070011D01*
X7691101Y-17421775D01*
X7660154Y-17779092D01*
X7660236Y-17782560D01*
X7664986Y-17984108D01*
X7668604Y-18137648D01*
X7716349Y-18493111D01*
X7802812Y-18841188D01*
X7926948Y-19177675D01*
X7928497Y-19180775D01*
X8085716Y-19495421D01*
X8085720Y-19495428D01*
X8087259Y-19498508D01*
X8281809Y-19799811D01*
X8508246Y-20077947D01*
X8763838Y-20329554D01*
X9045496Y-20551596D01*
X9349818Y-20741388D01*
X9673129Y-20896640D01*
X9676398Y-20897788D01*
X10008266Y-21014332D01*
X10008274Y-21014334D01*
X10011525Y-21015476D01*
X10014887Y-21016255D01*
X10014893Y-21016257D01*
X10153514Y-21048387D01*
X10360917Y-21096461D01*
X10364334Y-21096865D01*
X10364343Y-21096867D01*
X10714382Y-21138296D01*
X10717086Y-21138616D01*
X10719801Y-21138701D01*
X10719810Y-21138702D01*
X10744784Y-21139487D01*
X10764305Y-21140100D01*
X11012055Y-21140100D01*
X11013774Y-21140005D01*
X11013789Y-21140005D01*
X11156648Y-21132143D01*
X11280113Y-21125348D01*
X11283527Y-21124780D01*
X11283534Y-21124779D01*
X11500863Y-21088605D01*
X11633901Y-21066461D01*
X11979090Y-20969108D01*
X12311512Y-20834463D01*
X12487425Y-20739546D01*
X12624101Y-20665800D01*
X12624105Y-20665797D01*
X12627151Y-20664154D01*
X12787349Y-20553434D01*
X12919352Y-20462201D01*
X12919353Y-20462200D01*
X12922195Y-20460236D01*
X13193081Y-20225174D01*
X13436536Y-19961805D01*
X13438589Y-19959025D01*
X13438596Y-19959017D01*
X13647562Y-19676100D01*
X13647564Y-19676097D01*
X13649621Y-19673312D01*
X13829761Y-19363178D01*
X13974780Y-19035150D01*
X14082929Y-18693189D01*
X14152899Y-18341425D01*
X14183846Y-17984108D01*
X14179096Y-17782560D01*
X14175478Y-17629016D01*
X14175477Y-17629009D01*
X14175396Y-17625552D01*
X14127651Y-17270089D01*
X14041188Y-16922012D01*
X13917052Y-16585525D01*
X13909803Y-16571017D01*
X13758284Y-16267779D01*
X13758280Y-16267772D01*
X13756741Y-16264692D01*
X13562191Y-15963389D01*
X13335754Y-15685253D01*
X13080162Y-15433646D01*
X13053402Y-15412550D01*
X13012289Y-15354669D01*
X13008995Y-15283748D01*
X13044567Y-15222306D01*
X13107710Y-15189849D01*
X13131408Y-15187600D01*
X13363095Y-15187600D01*
X13379541Y-15188678D01*
X13411200Y-15192846D01*
X13419388Y-15191768D01*
X13451047Y-15187600D01*
X13561732Y-15173028D01*
X13569920Y-15171950D01*
X13577547Y-15168791D01*
X13577550Y-15168790D01*
X13643872Y-15141318D01*
X13717823Y-15110687D01*
X13844830Y-15013230D01*
X13942287Y-14886223D01*
X14003550Y-14738320D01*
X14024446Y-14579600D01*
X14020278Y-14547941D01*
X14019200Y-14531495D01*
X14019200Y-12772040D01*
X14039202Y-12703919D01*
X14092858Y-12657426D01*
X14163132Y-12647322D01*
X14206960Y-12665755D01*
G37*
%TD.AperFunction*%
%TA.AperFunction,NonConductor*%
G36*
X21888016Y-680402D02*
G01*
X21934509Y-734058D01*
X21945895Y-786189D01*
X21964718Y-12061237D01*
X21996189Y-30912590D01*
X21976301Y-30980744D01*
X21922723Y-31027326D01*
X21870189Y-31038800D01*
X840435Y-31038800D01*
X772314Y-31018798D01*
X725821Y-30965142D01*
X714443Y-30911340D01*
X770220Y-26098653D01*
X792992Y-24133768D01*
X3060182Y-24133768D01*
X3060763Y-24138788D01*
X3060763Y-24138792D01*
X3065188Y-24177032D01*
X3089008Y-24382899D01*
X3090387Y-24387773D01*
X3090388Y-24387777D01*
X3132133Y-24535299D01*
X3157294Y-24624217D01*
X3159428Y-24628792D01*
X3159430Y-24628799D01*
X3228359Y-24776617D01*
X3263284Y-24851513D01*
X3266126Y-24855694D01*
X3266126Y-24855695D01*
X3401405Y-25054752D01*
X3401408Y-25054756D01*
X3404251Y-25058939D01*
X3407728Y-25062616D01*
X3407729Y-25062617D01*
X3508038Y-25168691D01*
X3576567Y-25241159D01*
X3580593Y-25244237D01*
X3580594Y-25244238D01*
X3771781Y-25390412D01*
X3771785Y-25390415D01*
X3775801Y-25393485D01*
X3996826Y-25511997D01*
X4001607Y-25513643D01*
X4001611Y-25513645D01*
X4227338Y-25591369D01*
X4233956Y-25593648D01*
X4337489Y-25611531D01*
X4477180Y-25635660D01*
X4477186Y-25635661D01*
X4481090Y-25636335D01*
X4485051Y-25636515D01*
X4485052Y-25636515D01*
X4509731Y-25637636D01*
X4509750Y-25637636D01*
X4511150Y-25637700D01*
X4685815Y-25637700D01*
X4688323Y-25637498D01*
X4688328Y-25637498D01*
X4867744Y-25623063D01*
X4867749Y-25623062D01*
X4872785Y-25622657D01*
X4877693Y-25621452D01*
X4877696Y-25621451D01*
X5111425Y-25564041D01*
X5116339Y-25562834D01*
X5120991Y-25560859D01*
X5120995Y-25560858D01*
X5342541Y-25466817D01*
X5342542Y-25466817D01*
X5347196Y-25464841D01*
X5488510Y-25375851D01*
X5555134Y-25333896D01*
X5555135Y-25333895D01*
X5559415Y-25331200D01*
X5747538Y-25165347D01*
X5906724Y-24971551D01*
X6032878Y-24754796D01*
X6064254Y-24673061D01*
X6120943Y-24525381D01*
X6122755Y-24520661D01*
X6141169Y-24432521D01*
X6173006Y-24280121D01*
X6174041Y-24275167D01*
X6185418Y-24024632D01*
X6175963Y-23942911D01*
X6157173Y-23780520D01*
X6157172Y-23780517D01*
X6156592Y-23775501D01*
X6155267Y-23770817D01*
X6161654Y-23700160D01*
X6205260Y-23644133D01*
X6278863Y-23620400D01*
X7659847Y-23620400D01*
X7680732Y-23617650D01*
X7750878Y-23628588D01*
X7803978Y-23675715D01*
X7823169Y-23744069D01*
X7822441Y-23756178D01*
X7820172Y-23777066D01*
X7820172Y-25623334D01*
X7826927Y-25685516D01*
X7878057Y-25821905D01*
X7965411Y-25938461D01*
X8081967Y-26025815D01*
X8218356Y-26076945D01*
X8280538Y-26083700D01*
X8976806Y-26083700D01*
X9038988Y-26076945D01*
X9046384Y-26074173D01*
X9046390Y-26074171D01*
X9170398Y-26027682D01*
X9241205Y-26022499D01*
X9261726Y-26028798D01*
X9329900Y-26056273D01*
X9403161Y-26085798D01*
X9410398Y-26086899D01*
X9570787Y-26111299D01*
X9570791Y-26111299D01*
X9578021Y-26112399D01*
X9585313Y-26111806D01*
X9585316Y-26111806D01*
X9676326Y-26104403D01*
X9754309Y-26098060D01*
X9761268Y-26095806D01*
X9761271Y-26095805D01*
X9915605Y-26045808D01*
X9915608Y-26045807D01*
X9922571Y-26043551D01*
X9928826Y-26039755D01*
X9928831Y-26039753D01*
X9952664Y-26025290D01*
X10021278Y-26007050D01*
X10076959Y-26022062D01*
X10081967Y-26025815D01*
X10090368Y-26028964D01*
X10090371Y-26028966D01*
X10163219Y-26056275D01*
X10218356Y-26076945D01*
X10280538Y-26083700D01*
X10976806Y-26083700D01*
X11038988Y-26076945D01*
X11175377Y-26025815D01*
X11176059Y-26025304D01*
X11241424Y-26011011D01*
X11285921Y-26022552D01*
X11309369Y-26033511D01*
X11316855Y-26037425D01*
X11317837Y-26037852D01*
X11324162Y-26041526D01*
X11330830Y-26043546D01*
X11331137Y-26043684D01*
X11365464Y-26059727D01*
X11395622Y-26073822D01*
X11402787Y-26075312D01*
X11402789Y-26075313D01*
X11526130Y-26100968D01*
X11568787Y-26109841D01*
X11687908Y-26106618D01*
X11738277Y-26105255D01*
X11745593Y-26105057D01*
X11916556Y-26059727D01*
X11923009Y-26056274D01*
X11923012Y-26056273D01*
X11972744Y-26029663D01*
X12042243Y-26015161D01*
X12081557Y-26026910D01*
X12081967Y-26025815D01*
X12218356Y-26076945D01*
X12280538Y-26083700D01*
X12976806Y-26083700D01*
X13038988Y-26076945D01*
X13175377Y-26025815D01*
X13182564Y-26020429D01*
X13186794Y-26018113D01*
X13256151Y-26002942D01*
X13300655Y-26014483D01*
X13420984Y-26070720D01*
X13420987Y-26070721D01*
X13427622Y-26073822D01*
X13434787Y-26075312D01*
X13434789Y-26075313D01*
X13558130Y-26100968D01*
X13600787Y-26109841D01*
X13719908Y-26106618D01*
X13770277Y-26105255D01*
X13777593Y-26105057D01*
X13948557Y-26059727D01*
X14104506Y-25976282D01*
X14237077Y-25859200D01*
X14258356Y-25829091D01*
X14334932Y-25720739D01*
X14334934Y-25720736D01*
X14339157Y-25714760D01*
X14374633Y-25626731D01*
X14402532Y-25557506D01*
X14402533Y-25557503D01*
X14405270Y-25550711D01*
X14428825Y-25395876D01*
X14430771Y-25383085D01*
X14430771Y-25383081D01*
X14431871Y-25375851D01*
X14428459Y-25333896D01*
X14425357Y-25295760D01*
X14417532Y-25199564D01*
X14393303Y-25124771D01*
X14387172Y-25085946D01*
X14387172Y-24073713D01*
X14395190Y-24029484D01*
X14427645Y-23942911D01*
X14427645Y-23942909D01*
X14430417Y-23935516D01*
X14437172Y-23873334D01*
X14437172Y-23520541D01*
X14457174Y-23452420D01*
X14510830Y-23405927D01*
X14581104Y-23395823D01*
X14614019Y-23405257D01*
X14712262Y-23448591D01*
X14830749Y-23466938D01*
X14834880Y-23467032D01*
X14834881Y-23467032D01*
X15948454Y-23492340D01*
X15962037Y-23493385D01*
X15993811Y-23497568D01*
X15993812Y-23497568D01*
X16002000Y-23498646D01*
X16073120Y-23489283D01*
X16075909Y-23488947D01*
X16147220Y-23481203D01*
X16153761Y-23478666D01*
X16160720Y-23477750D01*
X16215390Y-23455105D01*
X16226957Y-23450314D01*
X16229615Y-23449248D01*
X16288780Y-23426302D01*
X16288779Y-23426302D01*
X16296477Y-23423317D01*
X16302141Y-23419172D01*
X16308623Y-23416487D01*
X16365564Y-23372794D01*
X16367705Y-23371189D01*
X16425666Y-23328771D01*
X16427637Y-23331463D01*
X16476925Y-23306027D01*
X16547603Y-23312746D01*
X16603429Y-23356610D01*
X16626678Y-23423692D01*
X16609721Y-23493120D01*
X16573122Y-23556004D01*
X16571309Y-23560727D01*
X16571308Y-23560729D01*
X16539846Y-23642691D01*
X16483245Y-23790139D01*
X16482212Y-23795085D01*
X16482210Y-23795091D01*
X16455484Y-23923023D01*
X16431959Y-24035633D01*
X16431730Y-24040682D01*
X16431729Y-24040688D01*
X16427732Y-24128714D01*
X16420582Y-24286168D01*
X16449408Y-24535299D01*
X16450787Y-24540173D01*
X16450788Y-24540177D01*
X16489726Y-24677781D01*
X16517694Y-24776617D01*
X16519828Y-24781192D01*
X16519830Y-24781199D01*
X16621547Y-24999331D01*
X16623684Y-25003913D01*
X16626526Y-25008094D01*
X16626526Y-25008095D01*
X16761805Y-25207152D01*
X16761808Y-25207156D01*
X16764651Y-25211339D01*
X16768128Y-25215016D01*
X16768129Y-25215017D01*
X16868438Y-25321091D01*
X16936967Y-25393559D01*
X16940993Y-25396637D01*
X16940994Y-25396638D01*
X17132181Y-25542812D01*
X17132185Y-25542815D01*
X17136201Y-25545885D01*
X17140659Y-25548275D01*
X17140660Y-25548276D01*
X17167811Y-25562834D01*
X17357226Y-25664397D01*
X17362007Y-25666043D01*
X17362011Y-25666045D01*
X17520854Y-25720739D01*
X17594356Y-25746048D01*
X17697889Y-25763931D01*
X17837580Y-25788060D01*
X17837586Y-25788061D01*
X17841490Y-25788735D01*
X17845451Y-25788915D01*
X17845452Y-25788915D01*
X17870131Y-25790036D01*
X17870150Y-25790036D01*
X17871550Y-25790100D01*
X18046215Y-25790100D01*
X18048723Y-25789898D01*
X18048728Y-25789898D01*
X18228144Y-25775463D01*
X18228149Y-25775462D01*
X18233185Y-25775057D01*
X18238093Y-25773852D01*
X18238096Y-25773851D01*
X18471825Y-25716441D01*
X18476739Y-25715234D01*
X18481391Y-25713259D01*
X18481395Y-25713258D01*
X18702941Y-25619217D01*
X18702942Y-25619217D01*
X18707596Y-25617241D01*
X18919815Y-25483600D01*
X19107938Y-25317747D01*
X19267124Y-25123951D01*
X19393278Y-24907196D01*
X19483155Y-24673061D01*
X19494377Y-24619348D01*
X19533406Y-24432521D01*
X19534441Y-24427567D01*
X19536470Y-24382899D01*
X19540862Y-24286168D01*
X19545818Y-24177032D01*
X19541394Y-24138792D01*
X19532276Y-24059993D01*
X19516992Y-23927901D01*
X19504353Y-23883233D01*
X19450084Y-23691452D01*
X19450083Y-23691450D01*
X19448706Y-23686583D01*
X19446572Y-23682008D01*
X19446570Y-23682001D01*
X19344853Y-23463869D01*
X19344851Y-23463865D01*
X19342716Y-23459287D01*
X19336243Y-23449762D01*
X19204595Y-23256048D01*
X19204592Y-23256044D01*
X19201749Y-23251861D01*
X19101125Y-23145453D01*
X19032913Y-23073321D01*
X19029433Y-23069641D01*
X19004531Y-23050602D01*
X18834219Y-22920388D01*
X18834215Y-22920385D01*
X18830199Y-22917315D01*
X18796665Y-22899334D01*
X18613635Y-22801195D01*
X18609174Y-22798803D01*
X18604393Y-22797157D01*
X18604389Y-22797155D01*
X18376833Y-22718801D01*
X18372044Y-22717152D01*
X18224014Y-22691583D01*
X18128820Y-22675140D01*
X18128814Y-22675139D01*
X18124910Y-22674465D01*
X18120949Y-22674285D01*
X18120948Y-22674285D01*
X18096269Y-22673164D01*
X18096250Y-22673164D01*
X18094850Y-22673100D01*
X17920185Y-22673100D01*
X17917677Y-22673302D01*
X17917672Y-22673302D01*
X17738256Y-22687737D01*
X17738251Y-22687738D01*
X17733215Y-22688143D01*
X17728307Y-22689348D01*
X17728304Y-22689349D01*
X17602715Y-22720197D01*
X17489661Y-22747966D01*
X17485009Y-22749941D01*
X17485005Y-22749942D01*
X17364261Y-22801195D01*
X17258804Y-22845959D01*
X17046585Y-22979600D01*
X16858462Y-23145453D01*
X16855252Y-23149361D01*
X16780070Y-23240889D01*
X16721376Y-23280832D01*
X16650404Y-23282702D01*
X16589688Y-23245905D01*
X16558504Y-23182123D01*
X16567423Y-23110062D01*
X16585252Y-23069641D01*
X16590591Y-23057538D01*
X16591665Y-23050602D01*
X16594350Y-23044120D01*
X16600559Y-22996961D01*
X16603707Y-22973045D01*
X16604113Y-22970210D01*
X16606890Y-22952278D01*
X16615088Y-22899334D01*
X16610735Y-22859252D01*
X16610000Y-22845665D01*
X16610000Y-12409843D01*
X16619591Y-12361625D01*
X16641990Y-12307550D01*
X16641991Y-12307547D01*
X16645150Y-12299920D01*
X16666046Y-12141200D01*
X16645150Y-11982480D01*
X16627719Y-11940396D01*
X16589950Y-11849215D01*
X16583887Y-11834577D01*
X16565417Y-11810506D01*
X16491456Y-11714120D01*
X16486430Y-11707570D01*
X16460840Y-11687934D01*
X16365976Y-11615141D01*
X16365974Y-11615140D01*
X16359423Y-11610113D01*
X16285472Y-11579482D01*
X16219150Y-11552010D01*
X16219147Y-11552009D01*
X16211520Y-11548850D01*
X16203332Y-11547772D01*
X16096734Y-11533738D01*
X16096733Y-11533738D01*
X16092647Y-11533200D01*
X15044420Y-11533200D01*
X14976299Y-11513198D01*
X14929806Y-11459542D01*
X14918420Y-11407200D01*
X14918420Y-7160428D01*
X14938422Y-7092307D01*
X14955325Y-7071333D01*
X15884959Y-6141699D01*
X15947271Y-6107673D01*
X16018086Y-6112738D01*
X16074922Y-6155285D01*
X16099733Y-6221805D01*
X16097391Y-6256556D01*
X16076359Y-6357233D01*
X16076130Y-6362282D01*
X16076129Y-6362288D01*
X16070972Y-6475851D01*
X16064982Y-6607768D01*
X16093808Y-6856899D01*
X16095187Y-6861773D01*
X16095188Y-6861777D01*
X16160716Y-7093348D01*
X16162094Y-7098217D01*
X16164228Y-7102792D01*
X16164230Y-7102799D01*
X16248712Y-7283970D01*
X16268084Y-7325513D01*
X16270926Y-7329694D01*
X16270926Y-7329695D01*
X16406205Y-7528752D01*
X16406208Y-7528756D01*
X16409051Y-7532939D01*
X16412528Y-7536616D01*
X16412529Y-7536617D01*
X16512838Y-7642691D01*
X16581367Y-7715159D01*
X16585393Y-7718237D01*
X16585394Y-7718238D01*
X16776581Y-7864412D01*
X16776585Y-7864415D01*
X16780601Y-7867485D01*
X17001626Y-7985997D01*
X17006407Y-7987643D01*
X17006411Y-7987645D01*
X17153945Y-8038445D01*
X17238756Y-8067648D01*
X17342289Y-8085531D01*
X17481980Y-8109660D01*
X17481986Y-8109661D01*
X17485890Y-8110335D01*
X17489851Y-8110515D01*
X17489852Y-8110515D01*
X17514531Y-8111636D01*
X17514550Y-8111636D01*
X17515950Y-8111700D01*
X17690615Y-8111700D01*
X17693123Y-8111498D01*
X17693128Y-8111498D01*
X17872544Y-8097063D01*
X17872549Y-8097062D01*
X17877585Y-8096657D01*
X17882493Y-8095452D01*
X17882496Y-8095451D01*
X18116225Y-8038041D01*
X18121139Y-8036834D01*
X18125791Y-8034859D01*
X18125795Y-8034858D01*
X18347341Y-7940817D01*
X18347342Y-7940817D01*
X18351996Y-7938841D01*
X18564215Y-7805200D01*
X18752338Y-7639347D01*
X18911524Y-7445551D01*
X19037678Y-7228796D01*
X19127555Y-6994661D01*
X19167194Y-6804921D01*
X19177806Y-6754121D01*
X19178841Y-6749167D01*
X19190218Y-6498632D01*
X19161392Y-6249501D01*
X19136785Y-6162539D01*
X19094484Y-6013052D01*
X19094483Y-6013050D01*
X19093106Y-6008183D01*
X19090972Y-6003608D01*
X19090970Y-6003601D01*
X18989253Y-5785469D01*
X18989251Y-5785465D01*
X18987116Y-5780887D01*
X18880673Y-5624261D01*
X18848995Y-5577648D01*
X18848992Y-5577644D01*
X18846149Y-5573461D01*
X18673833Y-5391241D01*
X18541043Y-5289715D01*
X18478619Y-5241988D01*
X18478615Y-5241985D01*
X18474599Y-5238915D01*
X18253574Y-5120403D01*
X18248793Y-5118757D01*
X18248789Y-5118755D01*
X18021233Y-5040401D01*
X18016444Y-5038752D01*
X17886836Y-5016365D01*
X17773220Y-4996740D01*
X17773214Y-4996739D01*
X17769310Y-4996065D01*
X17765349Y-4995885D01*
X17765348Y-4995885D01*
X17740669Y-4994764D01*
X17740650Y-4994764D01*
X17739250Y-4994700D01*
X17564585Y-4994700D01*
X17562077Y-4994902D01*
X17562072Y-4994902D01*
X17382656Y-5009337D01*
X17382651Y-5009338D01*
X17377615Y-5009743D01*
X17372707Y-5010948D01*
X17372704Y-5010949D01*
X17337724Y-5019541D01*
X17266798Y-5016365D01*
X17208849Y-4975348D01*
X17182274Y-4909513D01*
X17195512Y-4839761D01*
X17218574Y-4808083D01*
X17481652Y-4545005D01*
X17543964Y-4510979D01*
X17570747Y-4508100D01*
X18525734Y-4508100D01*
X18587916Y-4501345D01*
X18724305Y-4450215D01*
X18840861Y-4362861D01*
X18928215Y-4246305D01*
X18979345Y-4109916D01*
X18986100Y-4047734D01*
X18986100Y-2251466D01*
X18979345Y-2189284D01*
X18928215Y-2052895D01*
X18840861Y-1936339D01*
X18724305Y-1848985D01*
X18587916Y-1797855D01*
X18525734Y-1791100D01*
X16729466Y-1791100D01*
X16667284Y-1797855D01*
X16530895Y-1848985D01*
X16414339Y-1936339D01*
X16326985Y-2052895D01*
X16323833Y-2061303D01*
X16282519Y-2171507D01*
X16239877Y-2228271D01*
X16173316Y-2252971D01*
X16103967Y-2237763D01*
X16071343Y-2212076D01*
X16020751Y-2156475D01*
X16020742Y-2156466D01*
X16017270Y-2152651D01*
X16013219Y-2149452D01*
X16013215Y-2149448D01*
X15846014Y-2017400D01*
X15846010Y-2017398D01*
X15841959Y-2014198D01*
X15646389Y-1906238D01*
X15641520Y-1904514D01*
X15641516Y-1904512D01*
X15440687Y-1833395D01*
X15440683Y-1833394D01*
X15435812Y-1831669D01*
X15430719Y-1830762D01*
X15430716Y-1830761D01*
X15220973Y-1793400D01*
X15220967Y-1793399D01*
X15215884Y-1792494D01*
X15142052Y-1791592D01*
X14997681Y-1789828D01*
X14997679Y-1789828D01*
X14992511Y-1789765D01*
X14771691Y-1823555D01*
X14559356Y-1892957D01*
X14361207Y-1996107D01*
X14357074Y-1999210D01*
X14357071Y-1999212D01*
X14252603Y-2077649D01*
X14182565Y-2130235D01*
X14154872Y-2159214D01*
X14088880Y-2228271D01*
X14028229Y-2291738D01*
X13920801Y-2449221D01*
X13865893Y-2494221D01*
X13795368Y-2502392D01*
X13731621Y-2471138D01*
X13710924Y-2446654D01*
X13630422Y-2322217D01*
X13630420Y-2322214D01*
X13627614Y-2317877D01*
X13477270Y-2152651D01*
X13473219Y-2149452D01*
X13473215Y-2149448D01*
X13306014Y-2017400D01*
X13306010Y-2017398D01*
X13301959Y-2014198D01*
X13106389Y-1906238D01*
X13101520Y-1904514D01*
X13101516Y-1904512D01*
X12900687Y-1833395D01*
X12900683Y-1833394D01*
X12895812Y-1831669D01*
X12890719Y-1830762D01*
X12890716Y-1830761D01*
X12680973Y-1793400D01*
X12680967Y-1793399D01*
X12675884Y-1792494D01*
X12602052Y-1791592D01*
X12457681Y-1789828D01*
X12457679Y-1789828D01*
X12452511Y-1789765D01*
X12231691Y-1823555D01*
X12019356Y-1892957D01*
X11821207Y-1996107D01*
X11817074Y-1999210D01*
X11817071Y-1999212D01*
X11712603Y-2077649D01*
X11642565Y-2130235D01*
X11614872Y-2159214D01*
X11548880Y-2228271D01*
X11488229Y-2291738D01*
X11380801Y-2449221D01*
X11325893Y-2494221D01*
X11255368Y-2502392D01*
X11191621Y-2471138D01*
X11170924Y-2446654D01*
X11090422Y-2322217D01*
X11090420Y-2322214D01*
X11087614Y-2317877D01*
X10937270Y-2152651D01*
X10933219Y-2149452D01*
X10933215Y-2149448D01*
X10766014Y-2017400D01*
X10766010Y-2017398D01*
X10761959Y-2014198D01*
X10566389Y-1906238D01*
X10561520Y-1904514D01*
X10561516Y-1904512D01*
X10360687Y-1833395D01*
X10360683Y-1833394D01*
X10355812Y-1831669D01*
X10350719Y-1830762D01*
X10350716Y-1830761D01*
X10140973Y-1793400D01*
X10140967Y-1793399D01*
X10135884Y-1792494D01*
X10062052Y-1791592D01*
X9917681Y-1789828D01*
X9917679Y-1789828D01*
X9912511Y-1789765D01*
X9691691Y-1823555D01*
X9479356Y-1892957D01*
X9281207Y-1996107D01*
X9277074Y-1999210D01*
X9277071Y-1999212D01*
X9172603Y-2077649D01*
X9102565Y-2130235D01*
X9074872Y-2159214D01*
X9008880Y-2228271D01*
X8948229Y-2291738D01*
X8917986Y-2336072D01*
X8863077Y-2381073D01*
X8792553Y-2389244D01*
X8728805Y-2357990D01*
X8713100Y-2340666D01*
X8641292Y-2244922D01*
X8557448Y-2159214D01*
X8540955Y-2149448D01*
X8426805Y-2081858D01*
X8426803Y-2081857D01*
X8419696Y-2077649D01*
X8265526Y-2034518D01*
X8266019Y-2032755D01*
X8226382Y-2017645D01*
X8226013Y-2017400D01*
X8221959Y-2014198D01*
X8026389Y-1906238D01*
X8021520Y-1904514D01*
X8021516Y-1904512D01*
X7820687Y-1833395D01*
X7820683Y-1833394D01*
X7815812Y-1831669D01*
X7810719Y-1830762D01*
X7810716Y-1830761D01*
X7600973Y-1793400D01*
X7600967Y-1793399D01*
X7595884Y-1792494D01*
X7522052Y-1791592D01*
X7377681Y-1789828D01*
X7377679Y-1789828D01*
X7372511Y-1789765D01*
X7151691Y-1823555D01*
X6939356Y-1892957D01*
X6741207Y-1996107D01*
X6737074Y-1999210D01*
X6737071Y-1999212D01*
X6632603Y-2077649D01*
X6562565Y-2130235D01*
X6534872Y-2159214D01*
X6468880Y-2228271D01*
X6408229Y-2291738D01*
X6300801Y-2449221D01*
X6245893Y-2494221D01*
X6175368Y-2502392D01*
X6111621Y-2471138D01*
X6090924Y-2446654D01*
X6010422Y-2322217D01*
X6010420Y-2322214D01*
X6007614Y-2317877D01*
X5857270Y-2152651D01*
X5853219Y-2149452D01*
X5853215Y-2149448D01*
X5686014Y-2017400D01*
X5686010Y-2017398D01*
X5681959Y-2014198D01*
X5486389Y-1906238D01*
X5481520Y-1904514D01*
X5481516Y-1904512D01*
X5280687Y-1833395D01*
X5280683Y-1833394D01*
X5275812Y-1831669D01*
X5270719Y-1830762D01*
X5270716Y-1830761D01*
X5060973Y-1793400D01*
X5060967Y-1793399D01*
X5055884Y-1792494D01*
X4982052Y-1791592D01*
X4837681Y-1789828D01*
X4837679Y-1789828D01*
X4832511Y-1789765D01*
X4611691Y-1823555D01*
X4399356Y-1892957D01*
X4201207Y-1996107D01*
X4197074Y-1999210D01*
X4197071Y-1999212D01*
X4092603Y-2077649D01*
X4022565Y-2130235D01*
X3994872Y-2159214D01*
X3928880Y-2228271D01*
X3868229Y-2291738D01*
X3865320Y-2296003D01*
X3865314Y-2296011D01*
X3823035Y-2357990D01*
X3742343Y-2476280D01*
X3648288Y-2678905D01*
X3588589Y-2894170D01*
X3564851Y-3116295D01*
X3577710Y-3339315D01*
X3578847Y-3344361D01*
X3578848Y-3344367D01*
X3602904Y-3451108D01*
X3626822Y-3557239D01*
X3710866Y-3764216D01*
X3827587Y-3954688D01*
X3973850Y-4123538D01*
X4145726Y-4266232D01*
X4338600Y-4378938D01*
X4547292Y-4458630D01*
X4552360Y-4459661D01*
X4552363Y-4459662D01*
X4659979Y-4481557D01*
X4766197Y-4503167D01*
X4771372Y-4503357D01*
X4771374Y-4503357D01*
X4989437Y-4511353D01*
X4989372Y-4513139D01*
X5050724Y-4528158D01*
X5076589Y-4548047D01*
X5443951Y-4915409D01*
X5477974Y-4977718D01*
X5472910Y-5048533D01*
X5430363Y-5105369D01*
X5363843Y-5130180D01*
X5313833Y-5123636D01*
X5219637Y-5091202D01*
X5219633Y-5091201D01*
X5214844Y-5089552D01*
X5070143Y-5064558D01*
X4971620Y-5047540D01*
X4971614Y-5047539D01*
X4967710Y-5046865D01*
X4963749Y-5046685D01*
X4963748Y-5046685D01*
X4939069Y-5045564D01*
X4939050Y-5045564D01*
X4937650Y-5045500D01*
X4762985Y-5045500D01*
X4760477Y-5045702D01*
X4760472Y-5045702D01*
X4581056Y-5060137D01*
X4581051Y-5060138D01*
X4576015Y-5060543D01*
X4571107Y-5061748D01*
X4571104Y-5061749D01*
X4393517Y-5105369D01*
X4332461Y-5120366D01*
X4327809Y-5122341D01*
X4327805Y-5122342D01*
X4106259Y-5216383D01*
X4101604Y-5218359D01*
X3889385Y-5352000D01*
X3701262Y-5517853D01*
X3542076Y-5711649D01*
X3415922Y-5928404D01*
X3414109Y-5933127D01*
X3414108Y-5933129D01*
X3387056Y-6003601D01*
X3326045Y-6162539D01*
X3325012Y-6167485D01*
X3325010Y-6167491D01*
X3297265Y-6300301D01*
X3274759Y-6408033D01*
X3263382Y-6658568D01*
X3292208Y-6907699D01*
X3293587Y-6912573D01*
X3293588Y-6912577D01*
X3359116Y-7144148D01*
X3360494Y-7149017D01*
X3362628Y-7153592D01*
X3362630Y-7153599D01*
X3464347Y-7371731D01*
X3466484Y-7376313D01*
X3469326Y-7380494D01*
X3469326Y-7380495D01*
X3604605Y-7579552D01*
X3604608Y-7579556D01*
X3607451Y-7583739D01*
X3610928Y-7587416D01*
X3610929Y-7587417D01*
X3711238Y-7693491D01*
X3779767Y-7765959D01*
X3783793Y-7769037D01*
X3783794Y-7769038D01*
X3974981Y-7915212D01*
X3974985Y-7915215D01*
X3979001Y-7918285D01*
X4200026Y-8036797D01*
X4204807Y-8038443D01*
X4204811Y-8038445D01*
X4430538Y-8116169D01*
X4437156Y-8118448D01*
X4540689Y-8136331D01*
X4680380Y-8160460D01*
X4680386Y-8160461D01*
X4684290Y-8161135D01*
X4688251Y-8161315D01*
X4688252Y-8161315D01*
X4712931Y-8162436D01*
X4712950Y-8162436D01*
X4714350Y-8162500D01*
X4889015Y-8162500D01*
X4891523Y-8162298D01*
X4891528Y-8162298D01*
X5070944Y-8147863D01*
X5070949Y-8147862D01*
X5075985Y-8147457D01*
X5080893Y-8146252D01*
X5080896Y-8146251D01*
X5314625Y-8088841D01*
X5319539Y-8087634D01*
X5324191Y-8085659D01*
X5324195Y-8085658D01*
X5545741Y-7991617D01*
X5545742Y-7991617D01*
X5550396Y-7989641D01*
X5762615Y-7856000D01*
X5950738Y-7690147D01*
X6109924Y-7496351D01*
X6236078Y-7279596D01*
X6253900Y-7233170D01*
X6307972Y-7092307D01*
X6325955Y-7045461D01*
X6377241Y-6799967D01*
X6379778Y-6744112D01*
X6383662Y-6658568D01*
X6388618Y-6549432D01*
X6387315Y-6538164D01*
X6366379Y-6357233D01*
X6359792Y-6300301D01*
X6306390Y-6111582D01*
X6307088Y-6040591D01*
X6346057Y-5981246D01*
X6410925Y-5952389D01*
X6481096Y-5963184D01*
X6516723Y-5988180D01*
X7004396Y-6475853D01*
X7038420Y-6538164D01*
X7041300Y-6564947D01*
X7041300Y-11619813D01*
X7021298Y-11687934D01*
X6967642Y-11734427D01*
X6917472Y-11745794D01*
X6038370Y-11760951D01*
X6019758Y-11759892D01*
X5994400Y-11756554D01*
X5953867Y-11761890D01*
X5948112Y-11762507D01*
X5944078Y-11762577D01*
X5910822Y-11767540D01*
X5908770Y-11767828D01*
X5835680Y-11777450D01*
X5830760Y-11779488D01*
X5825492Y-11780274D01*
X5817921Y-11783564D01*
X5757876Y-11809657D01*
X5755882Y-11810503D01*
X5687777Y-11838713D01*
X5683551Y-11841955D01*
X5678667Y-11844078D01*
X5672207Y-11849215D01*
X5672206Y-11849215D01*
X5620957Y-11889963D01*
X5619292Y-11891264D01*
X5560770Y-11936170D01*
X5557528Y-11940396D01*
X5553359Y-11943710D01*
X5548445Y-11950348D01*
X5548444Y-11950349D01*
X5509514Y-12002937D01*
X5508205Y-12004673D01*
X5468344Y-12056619D01*
X5468340Y-12056625D01*
X5463313Y-12063177D01*
X5461275Y-12068097D01*
X5458106Y-12072378D01*
X5455079Y-12080059D01*
X5431081Y-12140943D01*
X5430267Y-12142956D01*
X5405210Y-12203450D01*
X5402050Y-12211080D01*
X5401355Y-12216361D01*
X5399402Y-12221315D01*
X5398465Y-12229523D01*
X5391040Y-12294566D01*
X5390775Y-12296721D01*
X5386400Y-12329953D01*
X5386400Y-12333978D01*
X5385882Y-12339747D01*
X5381245Y-12380372D01*
X5382464Y-12388539D01*
X5385020Y-12405669D01*
X5386400Y-12424266D01*
X5386400Y-22517146D01*
X5366398Y-22585267D01*
X5312742Y-22631760D01*
X5242468Y-22641864D01*
X5219378Y-22636281D01*
X5016433Y-22566401D01*
X5011644Y-22564752D01*
X4908111Y-22546869D01*
X4768420Y-22522740D01*
X4768414Y-22522739D01*
X4764510Y-22522065D01*
X4760549Y-22521885D01*
X4760548Y-22521885D01*
X4735869Y-22520764D01*
X4735850Y-22520764D01*
X4734450Y-22520700D01*
X4559785Y-22520700D01*
X4557277Y-22520902D01*
X4557272Y-22520902D01*
X4377856Y-22535337D01*
X4377851Y-22535338D01*
X4372815Y-22535743D01*
X4367907Y-22536948D01*
X4367904Y-22536949D01*
X4171191Y-22585267D01*
X4129261Y-22595566D01*
X4124609Y-22597541D01*
X4124605Y-22597542D01*
X3941796Y-22675140D01*
X3898404Y-22693559D01*
X3686185Y-22827200D01*
X3498062Y-22993053D01*
X3338876Y-23186849D01*
X3212722Y-23403604D01*
X3210909Y-23408327D01*
X3210908Y-23408329D01*
X3178359Y-23493121D01*
X3122845Y-23637739D01*
X3121812Y-23642685D01*
X3121810Y-23642691D01*
X3095033Y-23770868D01*
X3071559Y-23883233D01*
X3071330Y-23888282D01*
X3071329Y-23888288D01*
X3069302Y-23932934D01*
X3060182Y-24133768D01*
X792992Y-24133768D01*
X874894Y-17066709D01*
X1063591Y-784940D01*
X1084382Y-717055D01*
X1138572Y-671187D01*
X1189583Y-660400D01*
X21819895Y-660400D01*
X21888016Y-680402D01*
G37*
%TD.AperFunction*%
M02*
