  0
SECTION
  2
HEADER
  9
$ANGBASE
  50
0.0
  9
$ANGDIR
  70
1
  9
$MEASUREMENT
  70
0
  0
ENDSEC
  0
SECTION
  2
TABLES
  0
TABLE
  2
LTYPE
  70
4
  0
LTYPE
  5
40F
  2
CONTINUOUS
  70
0
  3
Solid line
  72
65
  73
0
  40
0.0
  0
LTYPE
  5
410
  2
DASHDOT
 70
0
  3
Dash Dot ____ _ ____ _
 72
65
 73
4
 40
2.0
 49
1.25
 49
-0.25
 49
0.25
 49
-0.25
  0
LTYPE
  5
411
  2
DASHED
 70
0
  3
Dashed __ __ __ __ __
 72
65
 73
2
 40
0.75
 49
0.5
 49
-0.25
  0
LTYPE
  5
43B
  2
DOTTED
 70
0
  3
Dotted .  .  .  .
 72
65
 73
2
 40
0.2
 49
0.0
 49
-0.2
  0
ENDTAB
  0
TABLE
  2
STYLE
  70
4
  0
STYLE
  2
KICAD
  70
0
  40
0
  41
1
  42
1
  50
0
  71
0
  3
isocp.shx
  0
STYLE
  2
KICADB
  70
0
  40
0
  41
1
  42
1
  50
0
  71
0
  3
isocp.shx
  0
STYLE
  2
KICADI
  70
0
  40
0
  41
1
  42
1
  50
15
  71
0
  3
isocp.shx
  0
STYLE
  2
KICADBI
  70
0
  40
0
  41
1
  42
1
  50
15
  71
0
  3
isocp.shx
  0
ENDTAB
  0
TABLE
  2
LAYER
  70
1
  0
LAYER
  2
BLACK
  70
0
  62
7
  6
CONTINUOUS
  0
ENDTAB
  0
ENDSEC
  0
SECTION
  2
ENTITIES
0
LINE
8
BLACK
6
CONTINUOUS
10
4.27772
20
-3.62079
11
4.27955
21
-3.6229
0
LINE
8
BLACK
6
CONTINUOUS
10
4.27955
20
-3.6229
11
4.28
21
-3.62496
0
LINE
8
BLACK
6
CONTINUOUS
10
4.28
20
-3.62496
11
4.28
21
-3.93035
0
LINE
8
BLACK
6
CONTINUOUS
10
4.28
20
-3.93035
11
4.27921
21
-3.93303
0
LINE
8
BLACK
6
CONTINUOUS
10
4.27921
20
-3.93303
11
4.27871
21
-3.93369
0
LINE
8
BLACK
6
CONTINUOUS
10
4.27871
20
-3.93369
11
4.20855
21
-4.01086
0
LINE
8
BLACK
6
CONTINUOUS
10
4.20855
20
-4.01086
11
4.20616
21
-4.01232
0
LINE
8
BLACK
6
CONTINUOUS
10
4.20616
20
-4.01232
11
4.20337
21
-4.01225
0
LINE
8
BLACK
6
CONTINUOUS
10
4.20337
20
-4.01225
11
4.20105
21
-4.01068
0
LINE
8
BLACK
6
CONTINUOUS
10
4.20105
20
-4.01068
11
4.19995
21
-4.00811
0
LINE
8
BLACK
6
CONTINUOUS
10
4.19995
20
-4.00811
11
4.19992
21
-4.00766
0
LINE
8
BLACK
6
CONTINUOUS
10
4.19992
20
-4.00766
11
4.19986
21
-4.00556
0
LINE
8
BLACK
6
CONTINUOUS
10
4.19986
20
-4.00556
11
4.19986
21
-4.00543
0
LINE
8
BLACK
6
CONTINUOUS
10
4.19986
20
-4.00543
11
4.19986
21
-3.75844
0
LINE
8
BLACK
6
CONTINUOUS
10
4.19986
20
-3.75844
11
4.20065
21
-3.75576
0
LINE
8
BLACK
6
CONTINUOUS
10
4.20065
20
-3.75576
11
4.20276
21
-3.75393
0
LINE
8
BLACK
6
CONTINUOUS
10
4.20276
20
-3.75393
11
4.20482
21
-3.75348
0
LINE
8
BLACK
6
CONTINUOUS
10
4.20482
20
-3.75348
11
4.20536
21
-3.75348
0
LINE
8
BLACK
6
CONTINUOUS
10
4.20536
20
-3.75348
11
4.20781
21
-3.75322
0
LINE
8
BLACK
6
CONTINUOUS
10
4.20781
20
-3.75322
11
4.21318
21
-3.75121
0
LINE
8
BLACK
6
CONTINUOUS
10
4.21318
20
-3.75121
11
4.21777
21
-3.74777
0
LINE
8
BLACK
6
CONTINUOUS
10
4.21777
20
-3.74777
11
4.22121
21
-3.74318
0
LINE
8
BLACK
6
CONTINUOUS
10
4.22121
20
-3.74318
11
4.22322
21
-3.73781
0
LINE
8
BLACK
6
CONTINUOUS
10
4.22322
20
-3.73781
11
4.22348
21
-3.73536
0
LINE
8
BLACK
6
CONTINUOUS
10
4.22348
20
-3.73536
11
4.22348
21
-3.66464
0
LINE
8
BLACK
6
CONTINUOUS
10
4.22348
20
-3.66464
11
4.22322
21
-3.66219
0
LINE
8
BLACK
6
CONTINUOUS
10
4.22322
20
-3.66219
11
4.22121
21
-3.65682
0
LINE
8
BLACK
6
CONTINUOUS
10
4.22121
20
-3.65682
11
4.21777
21
-3.65223
0
LINE
8
BLACK
6
CONTINUOUS
10
4.21777
20
-3.65223
11
4.21318
21
-3.64879
0
LINE
8
BLACK
6
CONTINUOUS
10
4.21318
20
-3.64879
11
4.20781
21
-3.64678
0
LINE
8
BLACK
6
CONTINUOUS
10
4.20781
20
-3.64678
11
4.20536
21
-3.64652
0
LINE
8
BLACK
6
CONTINUOUS
10
4.20536
20
-3.64652
11
4.13464
21
-3.64652
0
LINE
8
BLACK
6
CONTINUOUS
10
4.13464
20
-3.64652
11
4.13219
21
-3.64678
0
LINE
8
BLACK
6
CONTINUOUS
10
4.13219
20
-3.64678
11
4.12682
21
-3.64879
0
LINE
8
BLACK
6
CONTINUOUS
10
4.12682
20
-3.64879
11
4.12223
21
-3.65223
0
LINE
8
BLACK
6
CONTINUOUS
10
4.12223
20
-3.65223
11
4.11879
21
-3.65682
0
LINE
8
BLACK
6
CONTINUOUS
10
4.11879
20
-3.65682
11
4.11867
21
-3.65715
0
LINE
8
BLACK
6
CONTINUOUS
10
4.11867
20
-3.65715
11
4.11704
21
-3.66149
0
LINE
8
BLACK
6
CONTINUOUS
10
4.11704
20
-3.66149
11
4.11537
21
-3.66373
0
LINE
8
BLACK
6
CONTINUOUS
10
4.11537
20
-3.66373
11
4.11274
21
-3.6647
0
LINE
8
BLACK
6
CONTINUOUS
10
4.11274
20
-3.6647
11
4.11001
21
-3.6641
0
LINE
8
BLACK
6
CONTINUOUS
10
4.11001
20
-3.6641
11
4.10873
21
-3.66309
0
LINE
8
BLACK
6
CONTINUOUS
10
4.10873
20
-3.66309
11
4.10674
21
-3.6609
0
LINE
8
BLACK
6
CONTINUOUS
10
4.10674
20
-3.6609
11
4.10674
21
-3.6609
0
LINE
8
BLACK
6
CONTINUOUS
10
4.10674
20
-3.6609
11
4.1066
21
-3.66075
0
LINE
8
BLACK
6
CONTINUOUS
10
4.1066
20
-3.66075
11
4.10644
21
-3.66062
0
LINE
8
BLACK
6
CONTINUOUS
10
4.10644
20
-3.66062
11
4.10644
21
-3.66062
0
LINE
8
BLACK
6
CONTINUOUS
10
4.10644
20
-3.66062
11
4.09986
21
-3.65543
0
LINE
8
BLACK
6
CONTINUOUS
10
4.09986
20
-3.65543
11
4.09986
21
-3.65543
0
LINE
8
BLACK
6
CONTINUOUS
10
4.09986
20
-3.65543
11
4.0997
21
-3.6553
0
LINE
8
BLACK
6
CONTINUOUS
10
4.0997
20
-3.6553
11
4.092
21
-3.65105
0
LINE
8
BLACK
6
CONTINUOUS
10
4.092
20
-3.65105
11
4.09181
21
-3.65098
0
LINE
8
BLACK
6
CONTINUOUS
10
4.09181
20
-3.65098
11
4.09181
21
-3.65098
0
LINE
8
BLACK
6
CONTINUOUS
10
4.09181
20
-3.65098
11
4.0839
21
-3.64818
0
LINE
8
BLACK
6
CONTINUOUS
10
4.0839
20
-3.64818
11
4.0839
21
-3.64818
0
LINE
8
BLACK
6
CONTINUOUS
10
4.0839
20
-3.64818
11
4.08371
21
-3.64811
0
LINE
8
BLACK
6
CONTINUOUS
10
4.08371
20
-3.64811
11
4.08351
21
-3.64808
0
LINE
8
BLACK
6
CONTINUOUS
10
4.08351
20
-3.64808
11
4.08351
21
-3.64808
0
LINE
8
BLACK
6
CONTINUOUS
10
4.08351
20
-3.64808
11
4.07525
21
-3.64661
0
LINE
8
BLACK
6
CONTINUOUS
10
4.07525
20
-3.64661
11
4.07525
21
-3.64661
0
LINE
8
BLACK
6
CONTINUOUS
10
4.07525
20
-3.64661
11
4.07505
21
-3.64657
0
LINE
8
BLACK
6
CONTINUOUS
10
4.07505
20
-3.64657
11
4.07214
21
-3.64654
0
LINE
8
BLACK
6
CONTINUOUS
10
4.07214
20
-3.64654
11
4.06646
21
-3.64647
0
LINE
8
BLACK
6
CONTINUOUS
10
4.06646
20
-3.64647
11
4.06646
21
-3.64647
0
LINE
8
BLACK
6
CONTINUOUS
10
4.06646
20
-3.64647
11
4.06626
21
-3.64646
0
LINE
8
BLACK
6
CONTINUOUS
10
4.06626
20
-3.64646
11
4.05756
21
-3.64779
0
LINE
8
BLACK
6
CONTINUOUS
10
4.05756
20
-3.64779
11
4.0492
21
-3.65053
0
LINE
8
BLACK
6
CONTINUOUS
10
4.0492
20
-3.65053
11
4.0414
21
-3.65459
0
LINE
8
BLACK
6
CONTINUOUS
10
4.0414
20
-3.65459
11
4.04124
21
-3.65471
0
LINE
8
BLACK
6
CONTINUOUS
10
4.04124
20
-3.65471
11
4.04124
21
-3.65471
0
LINE
8
BLACK
6
CONTINUOUS
10
4.04124
20
-3.65471
11
4.03453
21
-3.65975
0
LINE
8
BLACK
6
CONTINUOUS
10
4.03453
20
-3.65975
11
4.03437
21
-3.65987
0
LINE
8
BLACK
6
CONTINUOUS
10
4.03437
20
-3.65987
11
4.03282
21
-3.66149
0
LINE
8
BLACK
6
CONTINUOUS
10
4.03282
20
-3.66149
11
4.03068
21
-3.66373
0
LINE
8
BLACK
6
CONTINUOUS
10
4.03068
20
-3.66373
11
4.02829
21
-3.66623
0
LINE
8
BLACK
6
CONTINUOUS
10
4.02829
20
-3.66623
11
4.02406
21
-3.67243
0
LINE
8
BLACK
6
CONTINUOUS
10
4.02406
20
-3.67243
11
4.0219
21
-3.6742
0
LINE
8
BLACK
6
CONTINUOUS
10
4.0219
20
-3.6742
11
4.01912
21
-3.67452
0
LINE
8
BLACK
6
CONTINUOUS
10
4.01912
20
-3.67452
11
4.01661
21
-3.67329
0
LINE
8
BLACK
6
CONTINUOUS
10
4.01661
20
-3.67329
11
4.0158
21
-3.67232
0
LINE
8
BLACK
6
CONTINUOUS
10
4.0158
20
-3.67232
11
4.01263
21
-3.66743
0
LINE
8
BLACK
6
CONTINUOUS
10
4.01263
20
-3.66743
11
4.01263
21
-3.66743
0
LINE
8
BLACK
6
CONTINUOUS
10
4.01263
20
-3.66743
11
4.01252
21
-3.66725
0
LINE
8
BLACK
6
CONTINUOUS
10
4.01252
20
-3.66725
11
4.0066
21
-3.66075
0
LINE
8
BLACK
6
CONTINUOUS
10
4.0066
20
-3.66075
11
4.00644
21
-3.66062
0
LINE
8
BLACK
6
CONTINUOUS
10
4.00644
20
-3.66062
11
4.00644
21
-3.66062
0
LINE
8
BLACK
6
CONTINUOUS
10
4.00644
20
-3.66062
11
3.99986
21
-3.65543
0
LINE
8
BLACK
6
CONTINUOUS
10
3.99986
20
-3.65543
11
3.99986
21
-3.65543
0
LINE
8
BLACK
6
CONTINUOUS
10
3.99986
20
-3.65543
11
3.9997
21
-3.6553
0
LINE
8
BLACK
6
CONTINUOUS
10
3.9997
20
-3.6553
11
3.992
21
-3.65105
0
LINE
8
BLACK
6
CONTINUOUS
10
3.992
20
-3.65105
11
3.99181
21
-3.65098
0
LINE
8
BLACK
6
CONTINUOUS
10
3.99181
20
-3.65098
11
3.99181
21
-3.65098
0
LINE
8
BLACK
6
CONTINUOUS
10
3.99181
20
-3.65098
11
3.9839
21
-3.64818
0
LINE
8
BLACK
6
CONTINUOUS
10
3.9839
20
-3.64818
11
3.9839
21
-3.64818
0
LINE
8
BLACK
6
CONTINUOUS
10
3.9839
20
-3.64818
11
3.98371
21
-3.64811
0
LINE
8
BLACK
6
CONTINUOUS
10
3.98371
20
-3.64811
11
3.98351
21
-3.64808
0
LINE
8
BLACK
6
CONTINUOUS
10
3.98351
20
-3.64808
11
3.98351
21
-3.64808
0
LINE
8
BLACK
6
CONTINUOUS
10
3.98351
20
-3.64808
11
3.97525
21
-3.64661
0
LINE
8
BLACK
6
CONTINUOUS
10
3.97525
20
-3.64661
11
3.97525
21
-3.64661
0
LINE
8
BLACK
6
CONTINUOUS
10
3.97525
20
-3.64661
11
3.97505
21
-3.64657
0
LINE
8
BLACK
6
CONTINUOUS
10
3.97505
20
-3.64657
11
3.97214
21
-3.64654
0
LINE
8
BLACK
6
CONTINUOUS
10
3.97214
20
-3.64654
11
3.96646
21
-3.64647
0
LINE
8
BLACK
6
CONTINUOUS
10
3.96646
20
-3.64647
11
3.96646
21
-3.64647
0
LINE
8
BLACK
6
CONTINUOUS
10
3.96646
20
-3.64647
11
3.96626
21
-3.64646
0
LINE
8
BLACK
6
CONTINUOUS
10
3.96626
20
-3.64646
11
3.95756
21
-3.64779
0
LINE
8
BLACK
6
CONTINUOUS
10
3.95756
20
-3.64779
11
3.9492
21
-3.65053
0
LINE
8
BLACK
6
CONTINUOUS
10
3.9492
20
-3.65053
11
3.9414
21
-3.65459
0
LINE
8
BLACK
6
CONTINUOUS
10
3.9414
20
-3.65459
11
3.94124
21
-3.65471
0
LINE
8
BLACK
6
CONTINUOUS
10
3.94124
20
-3.65471
11
3.94124
21
-3.65471
0
LINE
8
BLACK
6
CONTINUOUS
10
3.94124
20
-3.65471
11
3.93453
21
-3.65975
0
LINE
8
BLACK
6
CONTINUOUS
10
3.93453
20
-3.65975
11
3.93437
21
-3.65987
0
LINE
8
BLACK
6
CONTINUOUS
10
3.93437
20
-3.65987
11
3.93282
21
-3.66149
0
LINE
8
BLACK
6
CONTINUOUS
10
3.93282
20
-3.66149
11
3.93068
21
-3.66373
0
LINE
8
BLACK
6
CONTINUOUS
10
3.93068
20
-3.66373
11
3.92829
21
-3.66623
0
LINE
8
BLACK
6
CONTINUOUS
10
3.92829
20
-3.66623
11
3.92406
21
-3.67243
0
LINE
8
BLACK
6
CONTINUOUS
10
3.92406
20
-3.67243
11
3.9219
21
-3.6742
0
LINE
8
BLACK
6
CONTINUOUS
10
3.9219
20
-3.6742
11
3.91912
21
-3.67452
0
LINE
8
BLACK
6
CONTINUOUS
10
3.91912
20
-3.67452
11
3.91661
21
-3.67329
0
LINE
8
BLACK
6
CONTINUOUS
10
3.91661
20
-3.67329
11
3.9158
21
-3.67232
0
LINE
8
BLACK
6
CONTINUOUS
10
3.9158
20
-3.67232
11
3.91263
21
-3.66743
0
LINE
8
BLACK
6
CONTINUOUS
10
3.91263
20
-3.66743
11
3.91263
21
-3.66743
0
LINE
8
BLACK
6
CONTINUOUS
10
3.91263
20
-3.66743
11
3.91252
21
-3.66725
0
LINE
8
BLACK
6
CONTINUOUS
10
3.91252
20
-3.66725
11
3.9066
21
-3.66075
0
LINE
8
BLACK
6
CONTINUOUS
10
3.9066
20
-3.66075
11
3.90644
21
-3.66062
0
LINE
8
BLACK
6
CONTINUOUS
10
3.90644
20
-3.66062
11
3.90644
21
-3.66062
0
LINE
8
BLACK
6
CONTINUOUS
10
3.90644
20
-3.66062
11
3.89986
21
-3.65543
0
LINE
8
BLACK
6
CONTINUOUS
10
3.89986
20
-3.65543
11
3.89986
21
-3.65543
0
LINE
8
BLACK
6
CONTINUOUS
10
3.89986
20
-3.65543
11
3.8997
21
-3.6553
0
LINE
8
BLACK
6
CONTINUOUS
10
3.8997
20
-3.6553
11
3.892
21
-3.65105
0
LINE
8
BLACK
6
CONTINUOUS
10
3.892
20
-3.65105
11
3.89181
21
-3.65098
0
LINE
8
BLACK
6
CONTINUOUS
10
3.89181
20
-3.65098
11
3.89181
21
-3.65098
0
LINE
8
BLACK
6
CONTINUOUS
10
3.89181
20
-3.65098
11
3.8839
21
-3.64818
0
LINE
8
BLACK
6
CONTINUOUS
10
3.8839
20
-3.64818
11
3.8839
21
-3.64818
0
LINE
8
BLACK
6
CONTINUOUS
10
3.8839
20
-3.64818
11
3.88371
21
-3.64811
0
LINE
8
BLACK
6
CONTINUOUS
10
3.88371
20
-3.64811
11
3.88351
21
-3.64808
0
LINE
8
BLACK
6
CONTINUOUS
10
3.88351
20
-3.64808
11
3.88351
21
-3.64808
0
LINE
8
BLACK
6
CONTINUOUS
10
3.88351
20
-3.64808
11
3.87525
21
-3.64661
0
LINE
8
BLACK
6
CONTINUOUS
10
3.87525
20
-3.64661
11
3.87525
21
-3.64661
0
LINE
8
BLACK
6
CONTINUOUS
10
3.87525
20
-3.64661
11
3.87505
21
-3.64657
0
LINE
8
BLACK
6
CONTINUOUS
10
3.87505
20
-3.64657
11
3.87214
21
-3.64654
0
LINE
8
BLACK
6
CONTINUOUS
10
3.87214
20
-3.64654
11
3.86646
21
-3.64647
0
LINE
8
BLACK
6
CONTINUOUS
10
3.86646
20
-3.64647
11
3.86646
21
-3.64647
0
LINE
8
BLACK
6
CONTINUOUS
10
3.86646
20
-3.64647
11
3.86626
21
-3.64646
0
LINE
8
BLACK
6
CONTINUOUS
10
3.86626
20
-3.64646
11
3.85756
21
-3.64779
0
LINE
8
BLACK
6
CONTINUOUS
10
3.85756
20
-3.64779
11
3.8492
21
-3.65053
0
LINE
8
BLACK
6
CONTINUOUS
10
3.8492
20
-3.65053
11
3.8414
21
-3.65459
0
LINE
8
BLACK
6
CONTINUOUS
10
3.8414
20
-3.65459
11
3.84124
21
-3.65471
0
LINE
8
BLACK
6
CONTINUOUS
10
3.84124
20
-3.65471
11
3.84124
21
-3.65471
0
LINE
8
BLACK
6
CONTINUOUS
10
3.84124
20
-3.65471
11
3.83453
21
-3.65975
0
LINE
8
BLACK
6
CONTINUOUS
10
3.83453
20
-3.65975
11
3.83437
21
-3.65987
0
LINE
8
BLACK
6
CONTINUOUS
10
3.83437
20
-3.65987
11
3.83282
21
-3.66149
0
LINE
8
BLACK
6
CONTINUOUS
10
3.83282
20
-3.66149
11
3.83068
21
-3.66373
0
LINE
8
BLACK
6
CONTINUOUS
10
3.83068
20
-3.66373
11
3.82829
21
-3.66623
0
LINE
8
BLACK
6
CONTINUOUS
10
3.82829
20
-3.66623
11
3.82406
21
-3.67243
0
LINE
8
BLACK
6
CONTINUOUS
10
3.82406
20
-3.67243
11
3.8219
21
-3.6742
0
LINE
8
BLACK
6
CONTINUOUS
10
3.8219
20
-3.6742
11
3.81912
21
-3.67452
0
LINE
8
BLACK
6
CONTINUOUS
10
3.81912
20
-3.67452
11
3.81662
21
-3.67329
0
LINE
8
BLACK
6
CONTINUOUS
10
3.81662
20
-3.67329
11
3.8158
21
-3.67232
0
LINE
8
BLACK
6
CONTINUOUS
10
3.8158
20
-3.67232
11
3.81263
21
-3.66743
0
LINE
8
BLACK
6
CONTINUOUS
10
3.81263
20
-3.66743
11
3.81263
21
-3.66743
0
LINE
8
BLACK
6
CONTINUOUS
10
3.81263
20
-3.66743
11
3.81252
21
-3.66725
0
LINE
8
BLACK
6
CONTINUOUS
10
3.81252
20
-3.66725
11
3.8066
21
-3.66075
0
LINE
8
BLACK
6
CONTINUOUS
10
3.8066
20
-3.66075
11
3.80644
21
-3.66062
0
LINE
8
BLACK
6
CONTINUOUS
10
3.80644
20
-3.66062
11
3.80644
21
-3.66062
0
LINE
8
BLACK
6
CONTINUOUS
10
3.80644
20
-3.66062
11
3.79986
21
-3.65543
0
LINE
8
BLACK
6
CONTINUOUS
10
3.79986
20
-3.65543
11
3.79986
21
-3.65543
0
LINE
8
BLACK
6
CONTINUOUS
10
3.79986
20
-3.65543
11
3.7997
21
-3.6553
0
LINE
8
BLACK
6
CONTINUOUS
10
3.7997
20
-3.6553
11
3.792
21
-3.65105
0
LINE
8
BLACK
6
CONTINUOUS
10
3.792
20
-3.65105
11
3.79181
21
-3.65098
0
LINE
8
BLACK
6
CONTINUOUS
10
3.79181
20
-3.65098
11
3.79181
21
-3.65098
0
LINE
8
BLACK
6
CONTINUOUS
10
3.79181
20
-3.65098
11
3.7839
21
-3.64818
0
LINE
8
BLACK
6
CONTINUOUS
10
3.7839
20
-3.64818
11
3.7839
21
-3.64818
0
LINE
8
BLACK
6
CONTINUOUS
10
3.7839
20
-3.64818
11
3.78371
21
-3.64811
0
LINE
8
BLACK
6
CONTINUOUS
10
3.78371
20
-3.64811
11
3.78351
21
-3.64808
0
LINE
8
BLACK
6
CONTINUOUS
10
3.78351
20
-3.64808
11
3.78351
21
-3.64808
0
LINE
8
BLACK
6
CONTINUOUS
10
3.78351
20
-3.64808
11
3.77525
21
-3.64661
0
LINE
8
BLACK
6
CONTINUOUS
10
3.77525
20
-3.64661
11
3.77525
21
-3.64661
0
LINE
8
BLACK
6
CONTINUOUS
10
3.77525
20
-3.64661
11
3.77505
21
-3.64657
0
LINE
8
BLACK
6
CONTINUOUS
10
3.77505
20
-3.64657
11
3.77214
21
-3.64654
0
LINE
8
BLACK
6
CONTINUOUS
10
3.77214
20
-3.64654
11
3.76646
21
-3.64647
0
LINE
8
BLACK
6
CONTINUOUS
10
3.76646
20
-3.64647
11
3.76646
21
-3.64647
0
LINE
8
BLACK
6
CONTINUOUS
10
3.76646
20
-3.64647
11
3.76626
21
-3.64646
0
LINE
8
BLACK
6
CONTINUOUS
10
3.76626
20
-3.64646
11
3.75756
21
-3.64779
0
LINE
8
BLACK
6
CONTINUOUS
10
3.75756
20
-3.64779
11
3.7492
21
-3.65053
0
LINE
8
BLACK
6
CONTINUOUS
10
3.7492
20
-3.65053
11
3.7414
21
-3.65459
0
LINE
8
BLACK
6
CONTINUOUS
10
3.7414
20
-3.65459
11
3.74124
21
-3.65471
0
LINE
8
BLACK
6
CONTINUOUS
10
3.74124
20
-3.65471
11
3.74124
21
-3.65471
0
LINE
8
BLACK
6
CONTINUOUS
10
3.74124
20
-3.65471
11
3.73453
21
-3.65975
0
LINE
8
BLACK
6
CONTINUOUS
10
3.73453
20
-3.65975
11
3.73437
21
-3.65987
0
LINE
8
BLACK
6
CONTINUOUS
10
3.73437
20
-3.65987
11
3.73282
21
-3.66149
0
LINE
8
BLACK
6
CONTINUOUS
10
3.73282
20
-3.66149
11
3.73068
21
-3.66373
0
LINE
8
BLACK
6
CONTINUOUS
10
3.73068
20
-3.66373
11
3.72829
21
-3.66623
0
LINE
8
BLACK
6
CONTINUOUS
10
3.72829
20
-3.66623
11
3.72406
21
-3.67243
0
LINE
8
BLACK
6
CONTINUOUS
10
3.72406
20
-3.67243
11
3.7219
21
-3.6742
0
LINE
8
BLACK
6
CONTINUOUS
10
3.7219
20
-3.6742
11
3.71912
21
-3.67452
0
LINE
8
BLACK
6
CONTINUOUS
10
3.71912
20
-3.67452
11
3.71662
21
-3.67329
0
LINE
8
BLACK
6
CONTINUOUS
10
3.71662
20
-3.67329
11
3.7158
21
-3.67232
0
LINE
8
BLACK
6
CONTINUOUS
10
3.7158
20
-3.67232
11
3.71263
21
-3.66743
0
LINE
8
BLACK
6
CONTINUOUS
10
3.71263
20
-3.66743
11
3.71263
21
-3.66743
0
LINE
8
BLACK
6
CONTINUOUS
10
3.71263
20
-3.66743
11
3.71252
21
-3.66725
0
LINE
8
BLACK
6
CONTINUOUS
10
3.71252
20
-3.66725
11
3.7066
21
-3.66075
0
LINE
8
BLACK
6
CONTINUOUS
10
3.7066
20
-3.66075
11
3.70644
21
-3.66062
0
LINE
8
BLACK
6
CONTINUOUS
10
3.70644
20
-3.66062
11
3.70644
21
-3.66062
0
LINE
8
BLACK
6
CONTINUOUS
10
3.70644
20
-3.66062
11
3.69986
21
-3.65543
0
LINE
8
BLACK
6
CONTINUOUS
10
3.69986
20
-3.65543
11
3.69986
21
-3.65543
0
LINE
8
BLACK
6
CONTINUOUS
10
3.69986
20
-3.65543
11
3.6997
21
-3.6553
0
LINE
8
BLACK
6
CONTINUOUS
10
3.6997
20
-3.6553
11
3.692
21
-3.65105
0
LINE
8
BLACK
6
CONTINUOUS
10
3.692
20
-3.65105
11
3.69181
21
-3.65098
0
LINE
8
BLACK
6
CONTINUOUS
10
3.69181
20
-3.65098
11
3.69181
21
-3.65098
0
LINE
8
BLACK
6
CONTINUOUS
10
3.69181
20
-3.65098
11
3.6839
21
-3.64818
0
LINE
8
BLACK
6
CONTINUOUS
10
3.6839
20
-3.64818
11
3.6839
21
-3.64818
0
LINE
8
BLACK
6
CONTINUOUS
10
3.6839
20
-3.64818
11
3.68371
21
-3.64811
0
LINE
8
BLACK
6
CONTINUOUS
10
3.68371
20
-3.64811
11
3.68351
21
-3.64808
0
LINE
8
BLACK
6
CONTINUOUS
10
3.68351
20
-3.64808
11
3.68351
21
-3.64808
0
LINE
8
BLACK
6
CONTINUOUS
10
3.68351
20
-3.64808
11
3.67525
21
-3.64661
0
LINE
8
BLACK
6
CONTINUOUS
10
3.67525
20
-3.64661
11
3.67525
21
-3.64661
0
LINE
8
BLACK
6
CONTINUOUS
10
3.67525
20
-3.64661
11
3.67505
21
-3.64657
0
LINE
8
BLACK
6
CONTINUOUS
10
3.67505
20
-3.64657
11
3.67214
21
-3.64654
0
LINE
8
BLACK
6
CONTINUOUS
10
3.67214
20
-3.64654
11
3.66646
21
-3.64647
0
LINE
8
BLACK
6
CONTINUOUS
10
3.66646
20
-3.64647
11
3.66646
21
-3.64647
0
LINE
8
BLACK
6
CONTINUOUS
10
3.66646
20
-3.64647
11
3.66626
21
-3.64646
0
LINE
8
BLACK
6
CONTINUOUS
10
3.66626
20
-3.64646
11
3.65756
21
-3.64779
0
LINE
8
BLACK
6
CONTINUOUS
10
3.65756
20
-3.64779
11
3.6492
21
-3.65053
0
LINE
8
BLACK
6
CONTINUOUS
10
3.6492
20
-3.65053
11
3.6414
21
-3.65459
0
LINE
8
BLACK
6
CONTINUOUS
10
3.6414
20
-3.65459
11
3.64124
21
-3.65471
0
LINE
8
BLACK
6
CONTINUOUS
10
3.64124
20
-3.65471
11
3.64124
21
-3.65471
0
LINE
8
BLACK
6
CONTINUOUS
10
3.64124
20
-3.65471
11
3.63453
21
-3.65975
0
LINE
8
BLACK
6
CONTINUOUS
10
3.63453
20
-3.65975
11
3.63437
21
-3.65987
0
LINE
8
BLACK
6
CONTINUOUS
10
3.63437
20
-3.65987
11
3.63282
21
-3.66149
0
LINE
8
BLACK
6
CONTINUOUS
10
3.63282
20
-3.66149
11
3.63068
21
-3.66373
0
LINE
8
BLACK
6
CONTINUOUS
10
3.63068
20
-3.66373
11
3.62829
21
-3.66623
0
LINE
8
BLACK
6
CONTINUOUS
10
3.62829
20
-3.66623
11
3.62334
21
-3.67349
0
LINE
8
BLACK
6
CONTINUOUS
10
3.62334
20
-3.67349
11
3.61963
21
-3.68147
0
LINE
8
BLACK
6
CONTINUOUS
10
3.61963
20
-3.68147
11
3.61728
21
-3.68994
0
LINE
8
BLACK
6
CONTINUOUS
10
3.61728
20
-3.68994
11
3.61635
21
-3.69869
0
LINE
8
BLACK
6
CONTINUOUS
10
3.61635
20
-3.69869
11
3.61685
21
-3.70747
0
LINE
8
BLACK
6
CONTINUOUS
10
3.61685
20
-3.70747
11
3.6169
21
-3.70767
0
LINE
8
BLACK
6
CONTINUOUS
10
3.6169
20
-3.70767
11
3.6169
21
-3.70767
0
LINE
8
BLACK
6
CONTINUOUS
10
3.6169
20
-3.70767
11
3.61785
21
-3.71187
0
LINE
8
BLACK
6
CONTINUOUS
10
3.61785
20
-3.71187
11
3.61879
21
-3.71605
0
LINE
8
BLACK
6
CONTINUOUS
10
3.61879
20
-3.71605
11
3.6221
21
-3.7242
0
LINE
8
BLACK
6
CONTINUOUS
10
3.6221
20
-3.7242
11
3.62357
21
-3.7266
0
LINE
8
BLACK
6
CONTINUOUS
10
3.62357
20
-3.7266
11
3.62659
21
-3.73152
0
LINE
8
BLACK
6
CONTINUOUS
10
3.62659
20
-3.73152
11
3.62669
21
-3.7317
0
LINE
8
BLACK
6
CONTINUOUS
10
3.62669
20
-3.7317
11
3.63245
21
-3.73834
0
LINE
8
BLACK
6
CONTINUOUS
10
3.63245
20
-3.73834
11
3.63827
21
-3.74318
0
LINE
8
BLACK
6
CONTINUOUS
10
3.63827
20
-3.74318
11
3.63835
21
-3.74324
0
LINE
8
BLACK
6
CONTINUOUS
10
3.63835
20
-3.74324
11
3.63991
21
-3.74556
0
LINE
8
BLACK
6
CONTINUOUS
10
3.63991
20
-3.74556
11
3.64014
21
-3.74705
0
LINE
8
BLACK
6
CONTINUOUS
10
3.64014
20
-3.74705
11
3.64014
21
-4.12558
0
LINE
8
BLACK
6
CONTINUOUS
10
3.64014
20
-4.12558
11
3.63935
21
-4.12826
0
LINE
8
BLACK
6
CONTINUOUS
10
3.63935
20
-4.12826
11
3.63868
21
-4.12908
0
LINE
8
BLACK
6
CONTINUOUS
10
3.63868
20
-4.12908
11
3.59233
21
-4.17544
0
LINE
8
BLACK
6
CONTINUOUS
10
3.59233
20
-4.17544
11
3.59176
21
-4.17593
0
LINE
8
BLACK
6
CONTINUOUS
10
3.59176
20
-4.17593
11
3.5913
21
-4.17627
0
LINE
8
BLACK
6
CONTINUOUS
10
3.5913
20
-4.17627
11
3.5913
21
-4.17627
0
LINE
8
BLACK
6
CONTINUOUS
10
3.5913
20
-4.17627
11
3.59107
21
-4.17644
0
LINE
8
BLACK
6
CONTINUOUS
10
3.59107
20
-4.17644
11
3.59088
21
-4.17666
0
LINE
8
BLACK
6
CONTINUOUS
10
3.59088
20
-4.17666
11
3.59088
21
-4.17666
0
LINE
8
BLACK
6
CONTINUOUS
10
3.59088
20
-4.17666
11
3.58972
21
-4.17802
0
LINE
8
BLACK
6
CONTINUOUS
10
3.58972
20
-4.17802
11
3.58945
21
-4.17832
0
LINE
8
BLACK
6
CONTINUOUS
10
3.58945
20
-4.17832
11
3.58923
21
-4.17854
0
LINE
8
BLACK
6
CONTINUOUS
10
3.58923
20
-4.17854
11
3.58914
21
-4.17866
0
LINE
8
BLACK
6
CONTINUOUS
10
3.58914
20
-4.17866
11
3.58853
21
-4.17942
0
LINE
8
BLACK
6
CONTINUOUS
10
3.58853
20
-4.17942
11
3.58842
21
-4.17955
0
LINE
8
BLACK
6
CONTINUOUS
10
3.58842
20
-4.17955
11
3.58675
21
-4.18152
0
LINE
8
BLACK
6
CONTINUOUS
10
3.58675
20
-4.18152
11
3.58656
21
-4.18174
0
LINE
8
BLACK
6
CONTINUOUS
10
3.58656
20
-4.18174
11
3.58643
21
-4.182
0
LINE
8
BLACK
6
CONTINUOUS
10
3.58643
20
-4.182
11
3.5863
21
-4.1822
0
LINE
8
BLACK
6
CONTINUOUS
10
3.5863
20
-4.1822
11
3.58617
21
-4.1824
0
LINE
8
BLACK
6
CONTINUOUS
10
3.58617
20
-4.1824
11
3.58599
21
-4.18263
0
LINE
8
BLACK
6
CONTINUOUS
10
3.58599
20
-4.18263
11
3.58478
21
-4.18523
0
LINE
8
BLACK
6
CONTINUOUS
10
3.58478
20
-4.18523
11
3.5847
21
-4.18538
0
LINE
8
BLACK
6
CONTINUOUS
10
3.5847
20
-4.18538
11
3.58339
21
-4.18795
0
LINE
8
BLACK
6
CONTINUOUS
10
3.58339
20
-4.18795
11
3.58333
21
-4.18823
0
LINE
8
BLACK
6
CONTINUOUS
10
3.58333
20
-4.18823
11
3.58324
21
-4.18845
0
LINE
8
BLACK
6
CONTINUOUS
10
3.58324
20
-4.18845
11
3.58317
21
-4.18867
0
LINE
8
BLACK
6
CONTINUOUS
10
3.58317
20
-4.18867
11
3.58305
21
-4.18894
0
LINE
8
BLACK
6
CONTINUOUS
10
3.58305
20
-4.18894
11
3.58299
21
-4.18922
0
LINE
8
BLACK
6
CONTINUOUS
10
3.58299
20
-4.18922
11
3.58299
21
-4.18922
0
LINE
8
BLACK
6
CONTINUOUS
10
3.58299
20
-4.18922
11
3.58246
21
-4.19175
0
LINE
8
BLACK
6
CONTINUOUS
10
3.58246
20
-4.19175
11
3.58242
21
-4.19192
0
LINE
8
BLACK
6
CONTINUOUS
10
3.58242
20
-4.19192
11
3.58174
21
-4.19471
0
LINE
8
BLACK
6
CONTINUOUS
10
3.58174
20
-4.19471
11
3.58171
21
-4.19515
0
LINE
8
BLACK
6
CONTINUOUS
10
3.58171
20
-4.19515
11
3.58171
21
-4.19515
0
LINE
8
BLACK
6
CONTINUOUS
10
3.58171
20
-4.19515
11
3.5817
21
-4.19531
0
LINE
8
BLACK
6
CONTINUOUS
10
3.5817
20
-4.19531
11
3.58169
21
-4.19547
0
LINE
8
BLACK
6
CONTINUOUS
10
3.58169
20
-4.19547
11
3.58163
21
-4.19575
0
LINE
8
BLACK
6
CONTINUOUS
10
3.58163
20
-4.19575
11
3.58164
21
-4.19604
0
LINE
8
BLACK
6
CONTINUOUS
10
3.58164
20
-4.19604
11
3.58171
21
-4.1988
0
LINE
8
BLACK
6
CONTINUOUS
10
3.58171
20
-4.1988
11
3.58171
21
-4.19893
0
LINE
8
BLACK
6
CONTINUOUS
10
3.58171
20
-4.19893
11
3.58171
21
-4.52022
0
LINE
8
BLACK
6
CONTINUOUS
10
3.58171
20
-4.52022
11
3.5814
21
-4.52196
0
LINE
8
BLACK
6
CONTINUOUS
10
3.5814
20
-4.52196
11
3.58001
21
-4.52566
0
LINE
8
BLACK
6
CONTINUOUS
10
3.58001
20
-4.52566
11
3.57974
21
-4.5281
0
LINE
8
BLACK
6
CONTINUOUS
10
3.57974
20
-4.5281
11
3.57974
21
-4.59504
0
LINE
8
BLACK
6
CONTINUOUS
10
3.57974
20
-4.59504
11
3.57896
21
-4.59772
0
LINE
8
BLACK
6
CONTINUOUS
10
3.57896
20
-4.59772
11
3.57684
21
-4.59955
0
LINE
8
BLACK
6
CONTINUOUS
10
3.57684
20
-4.59955
11
3.57478
21
-4.6
0
LINE
8
BLACK
6
CONTINUOUS
10
3.57478
20
-4.6
11
3.52496
21
-4.6
0
LINE
8
BLACK
6
CONTINUOUS
10
3.52496
20
-4.6
11
3.52228
21
-4.59921
0
LINE
8
BLACK
6
CONTINUOUS
10
3.52228
20
-4.59921
11
3.52045
21
-4.5971
0
LINE
8
BLACK
6
CONTINUOUS
10
3.52045
20
-4.5971
11
3.52
21
-4.59504
0
LINE
8
BLACK
6
CONTINUOUS
10
3.52
20
-4.59504
11
3.52
21
-3.62496
0
LINE
8
BLACK
6
CONTINUOUS
10
3.52
20
-3.62496
11
3.52079
21
-3.62228
0
LINE
8
BLACK
6
CONTINUOUS
10
3.52079
20
-3.62228
11
3.5229
21
-3.62045
0
LINE
8
BLACK
6
CONTINUOUS
10
3.5229
20
-3.62045
11
3.52496
21
-3.62
0
LINE
8
BLACK
6
CONTINUOUS
10
3.52496
20
-3.62
11
4.27504
21
-3.62
0
LINE
8
BLACK
6
CONTINUOUS
10
4.27504
20
-3.62
11
4.27772
21
-3.62079
0
LINE
8
BLACK
6
CONTINUOUS
10
4.08081
20
-4.14146
11
4.08305
21
-4.14314
0
LINE
8
BLACK
6
CONTINUOUS
10
4.08305
20
-4.14314
11
4.08402
21
-4.14575
0
LINE
8
BLACK
6
CONTINUOUS
10
4.08402
20
-4.14575
11
4.08343
21
-4.14849
0
LINE
8
BLACK
6
CONTINUOUS
10
4.08343
20
-4.14849
11
4.08331
21
-4.14868
0
LINE
8
BLACK
6
CONTINUOUS
10
4.08331
20
-4.14868
11
4.08311
21
-4.14891
0
LINE
8
BLACK
6
CONTINUOUS
10
4.08311
20
-4.14891
11
4.08273
21
-4.14973
0
LINE
8
BLACK
6
CONTINUOUS
10
4.08273
20
-4.14973
11
4.08234
21
-4.1504
0
LINE
8
BLACK
6
CONTINUOUS
10
4.08234
20
-4.1504
11
4.08184
21
-4.15115
0
LINE
8
BLACK
6
CONTINUOUS
10
4.08184
20
-4.15115
11
4.08173
21
-4.15149
0
LINE
8
BLACK
6
CONTINUOUS
10
4.08173
20
-4.15149
11
4.08173
21
-4.15149
0
LINE
8
BLACK
6
CONTINUOUS
10
4.08173
20
-4.15149
11
4.08145
21
-4.15236
0
LINE
8
BLACK
6
CONTINUOUS
10
4.08145
20
-4.15236
11
4.08122
21
-4.15295
0
LINE
8
BLACK
6
CONTINUOUS
10
4.08122
20
-4.15295
11
4.08092
21
-4.15357
0
LINE
8
BLACK
6
CONTINUOUS
10
4.08092
20
-4.15357
11
4.08068
21
-4.15409
0
LINE
8
BLACK
6
CONTINUOUS
10
4.08068
20
-4.15409
11
4.08062
21
-4.15444
0
LINE
8
BLACK
6
CONTINUOUS
10
4.08062
20
-4.15444
11
4.08054
21
-4.15499
0
LINE
8
BLACK
6
CONTINUOUS
10
4.08054
20
-4.15499
11
4.08036
21
-4.15574
0
LINE
8
BLACK
6
CONTINUOUS
10
4.08036
20
-4.15574
11
4.08008
21
-4.1566
0
LINE
8
BLACK
6
CONTINUOUS
10
4.08008
20
-4.1566
11
4.08007
21
-4.15696
0
LINE
8
BLACK
6
CONTINUOUS
10
4.08007
20
-4.15696
11
4.08007
21
-4.15696
0
LINE
8
BLACK
6
CONTINUOUS
10
4.08007
20
-4.15696
11
4.08005
21
-4.15796
0
LINE
8
BLACK
6
CONTINUOUS
10
4.08005
20
-4.15796
11
4.08003
21
-4.15821
0
LINE
8
BLACK
6
CONTINUOUS
10
4.08003
20
-4.15821
11
4.08003
21
-4.15825
0
LINE
8
BLACK
6
CONTINUOUS
10
4.08003
20
-4.15825
11
4.08
21
-4.15844
0
LINE
8
BLACK
6
CONTINUOUS
10
4.08
20
-4.15844
11
4.08
21
-4.15961
0
LINE
8
BLACK
6
CONTINUOUS
10
4.08
20
-4.15961
11
4.08
21
-4.15974
0
LINE
8
BLACK
6
CONTINUOUS
10
4.08
20
-4.15974
11
4.07993
21
-4.16233
0
LINE
8
BLACK
6
CONTINUOUS
10
4.07993
20
-4.16233
11
4.07999
21
-4.16255
0
LINE
8
BLACK
6
CONTINUOUS
10
4.07999
20
-4.16255
11
4.08
21
-4.16279
0
LINE
8
BLACK
6
CONTINUOUS
10
4.08
20
-4.16279
11
4.08
21
-4.59504
0
LINE
8
BLACK
6
CONTINUOUS
10
4.08
20
-4.59504
11
4.07921
21
-4.59772
0
LINE
8
BLACK
6
CONTINUOUS
10
4.07921
20
-4.59772
11
4.0771
21
-4.59955
0
LINE
8
BLACK
6
CONTINUOUS
10
4.0771
20
-4.59955
11
4.07504
21
-4.6
0
LINE
8
BLACK
6
CONTINUOUS
10
4.07504
20
-4.6
11
3.84462
21
-4.6
0
LINE
8
BLACK
6
CONTINUOUS
10
3.84462
20
-4.6
11
3.84194
21
-4.59921
0
LINE
8
BLACK
6
CONTINUOUS
10
3.84194
20
-4.59921
11
3.84011
21
-4.5971
0
LINE
8
BLACK
6
CONTINUOUS
10
3.84011
20
-4.5971
11
3.83971
21
-4.59433
0
LINE
8
BLACK
6
CONTINUOUS
10
3.83971
20
-4.59433
11
3.83977
21
-4.59402
0
LINE
8
BLACK
6
CONTINUOUS
10
3.83977
20
-4.59402
11
3.83978
21
-4.59393
0
LINE
8
BLACK
6
CONTINUOUS
10
3.83978
20
-4.59393
11
3.83983
21
-4.59372
0
LINE
8
BLACK
6
CONTINUOUS
10
3.83983
20
-4.59372
11
3.83986
21
-4.59328
0
LINE
8
BLACK
6
CONTINUOUS
10
3.83986
20
-4.59328
11
3.83986
21
-4.53529
0
LINE
8
BLACK
6
CONTINUOUS
10
3.83986
20
-4.53529
11
3.83997
21
-4.53441
0
LINE
8
BLACK
6
CONTINUOUS
10
3.83997
20
-4.53441
11
3.83999
21
-4.53434
0
LINE
8
BLACK
6
CONTINUOUS
10
3.83999
20
-4.53434
11
3.84026
21
-4.5319
0
LINE
8
BLACK
6
CONTINUOUS
10
3.84026
20
-4.5319
11
3.84026
21
-4.45921
0
LINE
8
BLACK
6
CONTINUOUS
10
3.84026
20
-4.45921
11
3.83999
21
-4.45676
0
LINE
8
BLACK
6
CONTINUOUS
10
3.83999
20
-4.45676
11
3.83997
21
-4.4567
0
LINE
8
BLACK
6
CONTINUOUS
10
3.83997
20
-4.4567
11
3.83986
21
-4.45581
0
LINE
8
BLACK
6
CONTINUOUS
10
3.83986
20
-4.45581
11
3.83986
21
-4.38036
0
LINE
8
BLACK
6
CONTINUOUS
10
3.83986
20
-4.38036
11
3.84065
21
-4.37768
0
LINE
8
BLACK
6
CONTINUOUS
10
3.84065
20
-4.37768
11
3.84132
21
-4.37685
0
LINE
8
BLACK
6
CONTINUOUS
10
3.84132
20
-4.37685
11
4.07557
21
-4.1426
0
LINE
8
BLACK
6
CONTINUOUS
10
4.07557
20
-4.1426
11
4.07802
21
-4.14126
0
LINE
8
BLACK
6
CONTINUOUS
10
4.07802
20
-4.14126
11
4.08081
21
-4.14146
0
LINE
8
BLACK
6
CONTINUOUS
10
3.98034
20
-3.66817
11
3.98673
21
-3.67102
0
LINE
8
BLACK
6
CONTINUOUS
10
3.98673
20
-3.67102
11
3.99239
21
-3.67513
0
LINE
8
BLACK
6
CONTINUOUS
10
3.99239
20
-3.67513
11
3.99707
21
-3.68033
0
LINE
8
BLACK
6
CONTINUOUS
10
3.99707
20
-3.68033
11
4.00057
21
-3.68639
0
LINE
8
BLACK
6
CONTINUOUS
10
4.00057
20
-3.68639
11
4.00273
21
-3.69304
0
LINE
8
BLACK
6
CONTINUOUS
10
4.00273
20
-3.69304
11
4.00346
21
-3.7
0
LINE
8
BLACK
6
CONTINUOUS
10
4.00346
20
-3.7
11
4.00273
21
-3.70696
0
LINE
8
BLACK
6
CONTINUOUS
10
4.00273
20
-3.70696
11
4.00057
21
-3.71361
0
LINE
8
BLACK
6
CONTINUOUS
10
4.00057
20
-3.71361
11
3.99707
21
-3.71967
0
LINE
8
BLACK
6
CONTINUOUS
10
3.99707
20
-3.71967
11
3.99239
21
-3.72487
0
LINE
8
BLACK
6
CONTINUOUS
10
3.99239
20
-3.72487
11
3.98673
21
-3.72898
0
LINE
8
BLACK
6
CONTINUOUS
10
3.98673
20
-3.72898
11
3.98034
21
-3.73183
0
LINE
8
BLACK
6
CONTINUOUS
10
3.98034
20
-3.73183
11
3.97984
21
-3.73193
0
LINE
8
BLACK
6
CONTINUOUS
10
3.97984
20
-3.73193
11
3.97984
21
-4.06
0
LINE
8
BLACK
6
CONTINUOUS
10
3.97984
20
-4.06
11
3.97984
21
-4.06
0
LINE
8
BLACK
6
CONTINUOUS
10
3.97984
20
-4.06
11
3.97969
21
-4.06078
0
LINE
8
BLACK
6
CONTINUOUS
10
3.97969
20
-4.06078
11
3.97909
21
-4.06377
0
LINE
8
BLACK
6
CONTINUOUS
10
3.97909
20
-4.06377
11
3.97696
21
-4.06696
0
LINE
8
BLACK
6
CONTINUOUS
10
3.97696
20
-4.06696
11
3.97696
21
-4.06696
0
LINE
8
BLACK
6
CONTINUOUS
10
3.97696
20
-4.06696
11
3.73953
21
-4.30439
0
LINE
8
BLACK
6
CONTINUOUS
10
3.73953
20
-4.30439
11
3.73953
21
-4.4611
0
LINE
8
BLACK
6
CONTINUOUS
10
3.73953
20
-4.4611
11
3.7415
21
-4.4611
0
LINE
8
BLACK
6
CONTINUOUS
10
3.7415
20
-4.4611
11
3.7415
21
-4.53
0
LINE
8
BLACK
6
CONTINUOUS
10
3.7415
20
-4.53
11
3.73953
21
-4.53
0
LINE
8
BLACK
6
CONTINUOUS
10
3.73953
20
-4.53
11
3.73953
21
-4.58842
0
LINE
8
BLACK
6
CONTINUOUS
10
3.73953
20
-4.58842
11
3.73984
21
-4.59
0
LINE
8
BLACK
6
CONTINUOUS
10
3.73984
20
-4.59
11
3.73909
21
-4.59377
0
LINE
8
BLACK
6
CONTINUOUS
10
3.73909
20
-4.59377
11
3.73696
21
-4.59696
0
LINE
8
BLACK
6
CONTINUOUS
10
3.73696
20
-4.59696
11
3.73377
21
-4.59909
0
LINE
8
BLACK
6
CONTINUOUS
10
3.73377
20
-4.59909
11
3.73
21
-4.59984
0
LINE
8
BLACK
6
CONTINUOUS
10
3.73
20
-4.59984
11
3.72623
21
-4.59909
0
LINE
8
BLACK
6
CONTINUOUS
10
3.72623
20
-4.59909
11
3.72304
21
-4.59696
0
LINE
8
BLACK
6
CONTINUOUS
10
3.72304
20
-4.59696
11
3.72273
21
-4.59664
0
LINE
8
BLACK
6
CONTINUOUS
10
3.72273
20
-4.59664
11
3.72059
21
-4.59345
0
LINE
8
BLACK
6
CONTINUOUS
10
3.72059
20
-4.59345
11
3.71984
21
-4.58969
0
LINE
8
BLACK
6
CONTINUOUS
10
3.71984
20
-4.58969
11
3.71984
21
-4.53
0
LINE
8
BLACK
6
CONTINUOUS
10
3.71984
20
-4.53
11
3.71787
21
-4.53
0
LINE
8
BLACK
6
CONTINUOUS
10
3.71787
20
-4.53
11
3.71787
21
-4.4611
0
LINE
8
BLACK
6
CONTINUOUS
10
3.71787
20
-4.4611
11
3.71984
21
-4.4611
0
LINE
8
BLACK
6
CONTINUOUS
10
3.71984
20
-4.4611
11
3.71984
21
-4.30031
0
LINE
8
BLACK
6
CONTINUOUS
10
3.71984
20
-4.30031
11
3.72059
21
-4.29655
0
LINE
8
BLACK
6
CONTINUOUS
10
3.72059
20
-4.29655
11
3.72273
21
-4.29336
0
LINE
8
BLACK
6
CONTINUOUS
10
3.72273
20
-4.29336
11
3.96016
21
-4.05592
0
LINE
8
BLACK
6
CONTINUOUS
10
3.96016
20
-4.05592
11
3.96016
21
-3.73193
0
LINE
8
BLACK
6
CONTINUOUS
10
3.96016
20
-3.73193
11
3.95966
21
-3.73183
0
LINE
8
BLACK
6
CONTINUOUS
10
3.95966
20
-3.73183
11
3.95327
21
-3.72898
0
LINE
8
BLACK
6
CONTINUOUS
10
3.95327
20
-3.72898
11
3.94761
21
-3.72487
0
LINE
8
BLACK
6
CONTINUOUS
10
3.94761
20
-3.72487
11
3.94293
21
-3.71967
0
LINE
8
BLACK
6
CONTINUOUS
10
3.94293
20
-3.71967
11
3.93943
21
-3.71361
0
LINE
8
BLACK
6
CONTINUOUS
10
3.93943
20
-3.71361
11
3.93727
21
-3.70696
0
LINE
8
BLACK
6
CONTINUOUS
10
3.93727
20
-3.70696
11
3.93654
21
-3.7
0
LINE
8
BLACK
6
CONTINUOUS
10
3.93654
20
-3.7
11
3.93727
21
-3.69304
0
LINE
8
BLACK
6
CONTINUOUS
10
3.93727
20
-3.69304
11
3.93943
21
-3.68639
0
LINE
8
BLACK
6
CONTINUOUS
10
3.93943
20
-3.68639
11
3.94293
21
-3.68033
0
LINE
8
BLACK
6
CONTINUOUS
10
3.94293
20
-3.68033
11
3.94761
21
-3.67513
0
LINE
8
BLACK
6
CONTINUOUS
10
3.94761
20
-3.67513
11
3.95327
21
-3.67102
0
LINE
8
BLACK
6
CONTINUOUS
10
3.95327
20
-3.67102
11
3.95966
21
-3.66817
0
LINE
8
BLACK
6
CONTINUOUS
10
3.95966
20
-3.66817
11
3.9665
21
-3.66672
0
LINE
8
BLACK
6
CONTINUOUS
10
3.9665
20
-3.66672
11
3.9735
21
-3.66672
0
LINE
8
BLACK
6
CONTINUOUS
10
3.9735
20
-3.66672
11
3.98034
21
-3.66817
0
LINE
8
BLACK
6
CONTINUOUS
10
3.78034
20
-3.66817
11
3.78673
21
-3.67102
0
LINE
8
BLACK
6
CONTINUOUS
10
3.78673
20
-3.67102
11
3.79239
21
-3.67513
0
LINE
8
BLACK
6
CONTINUOUS
10
3.79239
20
-3.67513
11
3.79707
21
-3.68033
0
LINE
8
BLACK
6
CONTINUOUS
10
3.79707
20
-3.68033
11
3.80057
21
-3.68639
0
LINE
8
BLACK
6
CONTINUOUS
10
3.80057
20
-3.68639
11
3.80273
21
-3.69304
0
LINE
8
BLACK
6
CONTINUOUS
10
3.80273
20
-3.69304
11
3.80346
21
-3.7
0
LINE
8
BLACK
6
CONTINUOUS
10
3.80346
20
-3.7
11
3.80273
21
-3.70696
0
LINE
8
BLACK
6
CONTINUOUS
10
3.80273
20
-3.70696
11
3.80057
21
-3.71361
0
LINE
8
BLACK
6
CONTINUOUS
10
3.80057
20
-3.71361
11
3.79707
21
-3.71967
0
LINE
8
BLACK
6
CONTINUOUS
10
3.79707
20
-3.71967
11
3.79239
21
-3.72487
0
LINE
8
BLACK
6
CONTINUOUS
10
3.79239
20
-3.72487
11
3.78673
21
-3.72898
0
LINE
8
BLACK
6
CONTINUOUS
10
3.78673
20
-3.72898
11
3.78034
21
-3.73183
0
LINE
8
BLACK
6
CONTINUOUS
10
3.78034
20
-3.73183
11
3.77984
21
-3.73193
0
LINE
8
BLACK
6
CONTINUOUS
10
3.77984
20
-3.73193
11
3.77984
21
-4.12
0
LINE
8
BLACK
6
CONTINUOUS
10
3.77984
20
-4.12
11
3.77909
21
-4.12377
0
LINE
8
BLACK
6
CONTINUOUS
10
3.77909
20
-4.12377
11
3.77696
21
-4.12696
0
LINE
8
BLACK
6
CONTINUOUS
10
3.77696
20
-4.12696
11
3.65984
21
-4.24408
0
LINE
8
BLACK
6
CONTINUOUS
10
3.65984
20
-4.24408
11
3.65984
21
-4.4611
0
LINE
8
BLACK
6
CONTINUOUS
10
3.65984
20
-4.4611
11
3.66276
21
-4.4611
0
LINE
8
BLACK
6
CONTINUOUS
10
3.66276
20
-4.4611
11
3.66276
21
-4.53
0
LINE
8
BLACK
6
CONTINUOUS
10
3.66276
20
-4.53
11
3.65984
21
-4.53
0
LINE
8
BLACK
6
CONTINUOUS
10
3.65984
20
-4.53
11
3.65984
21
-4.59
0
LINE
8
BLACK
6
CONTINUOUS
10
3.65984
20
-4.59
11
3.65909
21
-4.59377
0
LINE
8
BLACK
6
CONTINUOUS
10
3.65909
20
-4.59377
11
3.65696
21
-4.59696
0
LINE
8
BLACK
6
CONTINUOUS
10
3.65696
20
-4.59696
11
3.65377
21
-4.59909
0
LINE
8
BLACK
6
CONTINUOUS
10
3.65377
20
-4.59909
11
3.65
21
-4.59984
0
LINE
8
BLACK
6
CONTINUOUS
10
3.65
20
-4.59984
11
3.64623
21
-4.59909
0
LINE
8
BLACK
6
CONTINUOUS
10
3.64623
20
-4.59909
11
3.64304
21
-4.59696
0
LINE
8
BLACK
6
CONTINUOUS
10
3.64304
20
-4.59696
11
3.64091
21
-4.59377
0
LINE
8
BLACK
6
CONTINUOUS
10
3.64091
20
-4.59377
11
3.64016
21
-4.59
0
LINE
8
BLACK
6
CONTINUOUS
10
3.64016
20
-4.59
11
3.64016
21
-4.53
0
LINE
8
BLACK
6
CONTINUOUS
10
3.64016
20
-4.53
11
3.63913
21
-4.53
0
LINE
8
BLACK
6
CONTINUOUS
10
3.63913
20
-4.53
11
3.63913
21
-4.4611
0
LINE
8
BLACK
6
CONTINUOUS
10
3.63913
20
-4.4611
11
3.64016
21
-4.4611
0
LINE
8
BLACK
6
CONTINUOUS
10
3.64016
20
-4.4611
11
3.64016
21
-4.24
0
LINE
8
BLACK
6
CONTINUOUS
10
3.64016
20
-4.24
11
3.64091
21
-4.23623
0
LINE
8
BLACK
6
CONTINUOUS
10
3.64091
20
-4.23623
11
3.64304
21
-4.23304
0
LINE
8
BLACK
6
CONTINUOUS
10
3.64304
20
-4.23304
11
3.76016
21
-4.11592
0
LINE
8
BLACK
6
CONTINUOUS
10
3.76016
20
-4.11592
11
3.76016
21
-3.73193
0
LINE
8
BLACK
6
CONTINUOUS
10
3.76016
20
-3.73193
11
3.75966
21
-3.73183
0
LINE
8
BLACK
6
CONTINUOUS
10
3.75966
20
-3.73183
11
3.75327
21
-3.72898
0
LINE
8
BLACK
6
CONTINUOUS
10
3.75327
20
-3.72898
11
3.74761
21
-3.72487
0
LINE
8
BLACK
6
CONTINUOUS
10
3.74761
20
-3.72487
11
3.74293
21
-3.71967
0
LINE
8
BLACK
6
CONTINUOUS
10
3.74293
20
-3.71967
11
3.73943
21
-3.71361
0
LINE
8
BLACK
6
CONTINUOUS
10
3.73943
20
-3.71361
11
3.73727
21
-3.70696
0
LINE
8
BLACK
6
CONTINUOUS
10
3.73727
20
-3.70696
11
3.73654
21
-3.7
0
LINE
8
BLACK
6
CONTINUOUS
10
3.73654
20
-3.7
11
3.73727
21
-3.69304
0
LINE
8
BLACK
6
CONTINUOUS
10
3.73727
20
-3.69304
11
3.73943
21
-3.68639
0
LINE
8
BLACK
6
CONTINUOUS
10
3.73943
20
-3.68639
11
3.74293
21
-3.68033
0
LINE
8
BLACK
6
CONTINUOUS
10
3.74293
20
-3.68033
11
3.74761
21
-3.67513
0
LINE
8
BLACK
6
CONTINUOUS
10
3.74761
20
-3.67513
11
3.75327
21
-3.67102
0
LINE
8
BLACK
6
CONTINUOUS
10
3.75327
20
-3.67102
11
3.75966
21
-3.66817
0
LINE
8
BLACK
6
CONTINUOUS
10
3.75966
20
-3.66817
11
3.7665
21
-3.66672
0
LINE
8
BLACK
6
CONTINUOUS
10
3.7665
20
-3.66672
11
3.7735
21
-3.66672
0
LINE
8
BLACK
6
CONTINUOUS
10
3.7735
20
-3.66672
11
3.78034
21
-3.66817
0
LINE
8
BLACK
6
CONTINUOUS
10
4.20346
20
-3.73346
11
4.17984
21
-3.73346
0
LINE
8
BLACK
6
CONTINUOUS
10
4.17984
20
-3.73346
11
4.17984
21
-4.00594
0
LINE
8
BLACK
6
CONTINUOUS
10
4.17984
20
-4.00594
11
4.17984
21
-4.00594
0
LINE
8
BLACK
6
CONTINUOUS
10
4.17984
20
-4.00594
11
4.17909
21
-4.0097
0
LINE
8
BLACK
6
CONTINUOUS
10
4.17909
20
-4.0097
11
4.17696
21
-4.0129
0
LINE
8
BLACK
6
CONTINUOUS
10
4.17696
20
-4.0129
11
3.81984
21
-4.37001
0
LINE
8
BLACK
6
CONTINUOUS
10
3.81984
20
-4.37001
11
3.81984
21
-4.4611
0
LINE
8
BLACK
6
CONTINUOUS
10
3.81984
20
-4.4611
11
3.82024
21
-4.4611
0
LINE
8
BLACK
6
CONTINUOUS
10
3.82024
20
-4.4611
11
3.82024
21
-4.53
0
LINE
8
BLACK
6
CONTINUOUS
10
3.82024
20
-4.53
11
3.81984
21
-4.53
0
LINE
8
BLACK
6
CONTINUOUS
10
3.81984
20
-4.53
11
3.81984
21
-4.59
0
LINE
8
BLACK
6
CONTINUOUS
10
3.81984
20
-4.59
11
3.81909
21
-4.59377
0
LINE
8
BLACK
6
CONTINUOUS
10
3.81909
20
-4.59377
11
3.81696
21
-4.59696
0
LINE
8
BLACK
6
CONTINUOUS
10
3.81696
20
-4.59696
11
3.81377
21
-4.59909
0
LINE
8
BLACK
6
CONTINUOUS
10
3.81377
20
-4.59909
11
3.81
21
-4.59984
0
LINE
8
BLACK
6
CONTINUOUS
10
3.81
20
-4.59984
11
3.80623
21
-4.59909
0
LINE
8
BLACK
6
CONTINUOUS
10
3.80623
20
-4.59909
11
3.80304
21
-4.59696
0
LINE
8
BLACK
6
CONTINUOUS
10
3.80304
20
-4.59696
11
3.80091
21
-4.59377
0
LINE
8
BLACK
6
CONTINUOUS
10
3.80091
20
-4.59377
11
3.80016
21
-4.59
0
LINE
8
BLACK
6
CONTINUOUS
10
3.80016
20
-4.59
11
3.80016
21
-4.53
0
LINE
8
BLACK
6
CONTINUOUS
10
3.80016
20
-4.53
11
3.79661
21
-4.53
0
LINE
8
BLACK
6
CONTINUOUS
10
3.79661
20
-4.53
11
3.79661
21
-4.4611
0
LINE
8
BLACK
6
CONTINUOUS
10
3.79661
20
-4.4611
11
3.80016
21
-4.4611
0
LINE
8
BLACK
6
CONTINUOUS
10
3.80016
20
-4.4611
11
3.80016
21
-4.36594
0
LINE
8
BLACK
6
CONTINUOUS
10
3.80016
20
-4.36594
11
3.80091
21
-4.36217
0
LINE
8
BLACK
6
CONTINUOUS
10
3.80091
20
-4.36217
11
3.80304
21
-4.35898
0
LINE
8
BLACK
6
CONTINUOUS
10
3.80304
20
-4.35898
11
4.16016
21
-4.00186
0
LINE
8
BLACK
6
CONTINUOUS
10
4.16016
20
-4.00186
11
4.16016
21
-3.73346
0
LINE
8
BLACK
6
CONTINUOUS
10
4.16016
20
-3.73346
11
4.13654
21
-3.73346
0
LINE
8
BLACK
6
CONTINUOUS
10
4.13654
20
-3.73346
11
4.13654
21
-3.66654
0
LINE
8
BLACK
6
CONTINUOUS
10
4.13654
20
-3.66654
11
4.20346
21
-3.66654
0
LINE
8
BLACK
6
CONTINUOUS
10
4.20346
20
-3.66654
11
4.20346
21
-3.73346
0
LINE
8
BLACK
6
CONTINUOUS
10
3.68034
20
-3.66817
11
3.68673
21
-3.67102
0
LINE
8
BLACK
6
CONTINUOUS
10
3.68673
20
-3.67102
11
3.69239
21
-3.67513
0
LINE
8
BLACK
6
CONTINUOUS
10
3.69239
20
-3.67513
11
3.69707
21
-3.68033
0
LINE
8
BLACK
6
CONTINUOUS
10
3.69707
20
-3.68033
11
3.70057
21
-3.68639
0
LINE
8
BLACK
6
CONTINUOUS
10
3.70057
20
-3.68639
11
3.70273
21
-3.69304
0
LINE
8
BLACK
6
CONTINUOUS
10
3.70273
20
-3.69304
11
3.70346
21
-3.7
0
LINE
8
BLACK
6
CONTINUOUS
10
3.70346
20
-3.7
11
3.70273
21
-3.70696
0
LINE
8
BLACK
6
CONTINUOUS
10
3.70273
20
-3.70696
11
3.70057
21
-3.71361
0
LINE
8
BLACK
6
CONTINUOUS
10
3.70057
20
-3.71361
11
3.69707
21
-3.71967
0
LINE
8
BLACK
6
CONTINUOUS
10
3.69707
20
-3.71967
11
3.69239
21
-3.72487
0
LINE
8
BLACK
6
CONTINUOUS
10
3.69239
20
-3.72487
11
3.68673
21
-3.72898
0
LINE
8
BLACK
6
CONTINUOUS
10
3.68673
20
-3.72898
11
3.68034
21
-3.73183
0
LINE
8
BLACK
6
CONTINUOUS
10
3.68034
20
-3.73183
11
3.67984
21
-3.73193
0
LINE
8
BLACK
6
CONTINUOUS
10
3.67984
20
-3.73193
11
3.67984
21
-4.14
0
LINE
8
BLACK
6
CONTINUOUS
10
3.67984
20
-4.14
11
3.67909
21
-4.14377
0
LINE
8
BLACK
6
CONTINUOUS
10
3.67909
20
-4.14377
11
3.67696
21
-4.14696
0
LINE
8
BLACK
6
CONTINUOUS
10
3.67696
20
-4.14696
11
3.62142
21
-4.2025
0
LINE
8
BLACK
6
CONTINUOUS
10
3.62142
20
-4.2025
11
3.62142
21
-4.53
0
LINE
8
BLACK
6
CONTINUOUS
10
3.62142
20
-4.53
11
3.62339
21
-4.53
0
LINE
8
BLACK
6
CONTINUOUS
10
3.62339
20
-4.53
11
3.62339
21
-4.5989
0
LINE
8
BLACK
6
CONTINUOUS
10
3.62339
20
-4.5989
11
3.59976
21
-4.5989
0
LINE
8
BLACK
6
CONTINUOUS
10
3.59976
20
-4.5989
11
3.59976
21
-4.53
0
LINE
8
BLACK
6
CONTINUOUS
10
3.59976
20
-4.53
11
3.60173
21
-4.53
0
LINE
8
BLACK
6
CONTINUOUS
10
3.60173
20
-4.53
11
3.60173
21
-4.19843
0
LINE
8
BLACK
6
CONTINUOUS
10
3.60173
20
-4.19843
11
3.60248
21
-4.19466
0
LINE
8
BLACK
6
CONTINUOUS
10
3.60248
20
-4.19466
11
3.60462
21
-4.19147
0
LINE
8
BLACK
6
CONTINUOUS
10
3.60462
20
-4.19147
11
3.66016
21
-4.13592
0
LINE
8
BLACK
6
CONTINUOUS
10
3.66016
20
-4.13592
11
3.66016
21
-3.73193
0
LINE
8
BLACK
6
CONTINUOUS
10
3.66016
20
-3.73193
11
3.65966
21
-3.73183
0
LINE
8
BLACK
6
CONTINUOUS
10
3.65966
20
-3.73183
11
3.65327
21
-3.72898
0
LINE
8
BLACK
6
CONTINUOUS
10
3.65327
20
-3.72898
11
3.64761
21
-3.72487
0
LINE
8
BLACK
6
CONTINUOUS
10
3.64761
20
-3.72487
11
3.64293
21
-3.71967
0
LINE
8
BLACK
6
CONTINUOUS
10
3.64293
20
-3.71967
11
3.63943
21
-3.71361
0
LINE
8
BLACK
6
CONTINUOUS
10
3.63943
20
-3.71361
11
3.63727
21
-3.70696
0
LINE
8
BLACK
6
CONTINUOUS
10
3.63727
20
-3.70696
11
3.63654
21
-3.7
0
LINE
8
BLACK
6
CONTINUOUS
10
3.63654
20
-3.7
11
3.63727
21
-3.69304
0
LINE
8
BLACK
6
CONTINUOUS
10
3.63727
20
-3.69304
11
3.63943
21
-3.68639
0
LINE
8
BLACK
6
CONTINUOUS
10
3.63943
20
-3.68639
11
3.64293
21
-3.68033
0
LINE
8
BLACK
6
CONTINUOUS
10
3.64293
20
-3.68033
11
3.64761
21
-3.67513
0
LINE
8
BLACK
6
CONTINUOUS
10
3.64761
20
-3.67513
11
3.65327
21
-3.67102
0
LINE
8
BLACK
6
CONTINUOUS
10
3.65327
20
-3.67102
11
3.65966
21
-3.66817
0
LINE
8
BLACK
6
CONTINUOUS
10
3.65966
20
-3.66817
11
3.6665
21
-3.66672
0
LINE
8
BLACK
6
CONTINUOUS
10
3.6665
20
-3.66672
11
3.6735
21
-3.66672
0
LINE
8
BLACK
6
CONTINUOUS
10
3.6735
20
-3.66672
11
3.68034
21
-3.66817
0
LINE
8
BLACK
6
CONTINUOUS
10
3.88034
20
-3.66817
11
3.88673
21
-3.67102
0
LINE
8
BLACK
6
CONTINUOUS
10
3.88673
20
-3.67102
11
3.89239
21
-3.67513
0
LINE
8
BLACK
6
CONTINUOUS
10
3.89239
20
-3.67513
11
3.89707
21
-3.68033
0
LINE
8
BLACK
6
CONTINUOUS
10
3.89707
20
-3.68033
11
3.90057
21
-3.68639
0
LINE
8
BLACK
6
CONTINUOUS
10
3.90057
20
-3.68639
11
3.90273
21
-3.69304
0
LINE
8
BLACK
6
CONTINUOUS
10
3.90273
20
-3.69304
11
3.90346
21
-3.7
0
LINE
8
BLACK
6
CONTINUOUS
10
3.90346
20
-3.7
11
3.90273
21
-3.70696
0
LINE
8
BLACK
6
CONTINUOUS
10
3.90273
20
-3.70696
11
3.90057
21
-3.71361
0
LINE
8
BLACK
6
CONTINUOUS
10
3.90057
20
-3.71361
11
3.89707
21
-3.71967
0
LINE
8
BLACK
6
CONTINUOUS
10
3.89707
20
-3.71967
11
3.89239
21
-3.72487
0
LINE
8
BLACK
6
CONTINUOUS
10
3.89239
20
-3.72487
11
3.88673
21
-3.72898
0
LINE
8
BLACK
6
CONTINUOUS
10
3.88673
20
-3.72898
11
3.88034
21
-3.73183
0
LINE
8
BLACK
6
CONTINUOUS
10
3.88034
20
-3.73183
11
3.87984
21
-3.73193
0
LINE
8
BLACK
6
CONTINUOUS
10
3.87984
20
-3.73193
11
3.87984
21
-4.09
0
LINE
8
BLACK
6
CONTINUOUS
10
3.87984
20
-4.09
11
3.87984
21
-4.09
0
LINE
8
BLACK
6
CONTINUOUS
10
3.87984
20
-4.09
11
3.87909
21
-4.09377
0
LINE
8
BLACK
6
CONTINUOUS
10
3.87909
20
-4.09377
11
3.87696
21
-4.09696
0
LINE
8
BLACK
6
CONTINUOUS
10
3.87696
20
-4.09696
11
3.87696
21
-4.09696
0
LINE
8
BLACK
6
CONTINUOUS
10
3.87696
20
-4.09696
11
3.70016
21
-4.27376
0
LINE
8
BLACK
6
CONTINUOUS
10
3.70016
20
-4.27376
11
3.70016
21
-4.53
0
LINE
8
BLACK
6
CONTINUOUS
10
3.70016
20
-4.53
11
3.70213
21
-4.53
0
LINE
8
BLACK
6
CONTINUOUS
10
3.70213
20
-4.53
11
3.70213
21
-4.5989
0
LINE
8
BLACK
6
CONTINUOUS
10
3.70213
20
-4.5989
11
3.6785
21
-4.5989
0
LINE
8
BLACK
6
CONTINUOUS
10
3.6785
20
-4.5989
11
3.6785
21
-4.53
0
LINE
8
BLACK
6
CONTINUOUS
10
3.6785
20
-4.53
11
3.68047
21
-4.53
0
LINE
8
BLACK
6
CONTINUOUS
10
3.68047
20
-4.53
11
3.68047
21
-4.26969
0
LINE
8
BLACK
6
CONTINUOUS
10
3.68047
20
-4.26969
11
3.68122
21
-4.26592
0
LINE
8
BLACK
6
CONTINUOUS
10
3.68122
20
-4.26592
11
3.68336
21
-4.26273
0
LINE
8
BLACK
6
CONTINUOUS
10
3.68336
20
-4.26273
11
3.86016
21
-4.08592
0
LINE
8
BLACK
6
CONTINUOUS
10
3.86016
20
-4.08592
11
3.86016
21
-3.73193
0
LINE
8
BLACK
6
CONTINUOUS
10
3.86016
20
-3.73193
11
3.85966
21
-3.73183
0
LINE
8
BLACK
6
CONTINUOUS
10
3.85966
20
-3.73183
11
3.85327
21
-3.72898
0
LINE
8
BLACK
6
CONTINUOUS
10
3.85327
20
-3.72898
11
3.84761
21
-3.72487
0
LINE
8
BLACK
6
CONTINUOUS
10
3.84761
20
-3.72487
11
3.84293
21
-3.71967
0
LINE
8
BLACK
6
CONTINUOUS
10
3.84293
20
-3.71967
11
3.83943
21
-3.71361
0
LINE
8
BLACK
6
CONTINUOUS
10
3.83943
20
-3.71361
11
3.83727
21
-3.70696
0
LINE
8
BLACK
6
CONTINUOUS
10
3.83727
20
-3.70696
11
3.83654
21
-3.7
0
LINE
8
BLACK
6
CONTINUOUS
10
3.83654
20
-3.7
11
3.83727
21
-3.69304
0
LINE
8
BLACK
6
CONTINUOUS
10
3.83727
20
-3.69304
11
3.83943
21
-3.68639
0
LINE
8
BLACK
6
CONTINUOUS
10
3.83943
20
-3.68639
11
3.84293
21
-3.68033
0
LINE
8
BLACK
6
CONTINUOUS
10
3.84293
20
-3.68033
11
3.84761
21
-3.67513
0
LINE
8
BLACK
6
CONTINUOUS
10
3.84761
20
-3.67513
11
3.85327
21
-3.67102
0
LINE
8
BLACK
6
CONTINUOUS
10
3.85327
20
-3.67102
11
3.85966
21
-3.66817
0
LINE
8
BLACK
6
CONTINUOUS
10
3.85966
20
-3.66817
11
3.8665
21
-3.66672
0
LINE
8
BLACK
6
CONTINUOUS
10
3.8665
20
-3.66672
11
3.8735
21
-3.66672
0
LINE
8
BLACK
6
CONTINUOUS
10
3.8735
20
-3.66672
11
3.88034
21
-3.66817
0
LINE
8
BLACK
6
CONTINUOUS
10
4.08034
20
-3.66817
11
4.08673
21
-3.67102
0
LINE
8
BLACK
6
CONTINUOUS
10
4.08673
20
-3.67102
11
4.09239
21
-3.67513
0
LINE
8
BLACK
6
CONTINUOUS
10
4.09239
20
-3.67513
11
4.09707
21
-3.68033
0
LINE
8
BLACK
6
CONTINUOUS
10
4.09707
20
-3.68033
11
4.10057
21
-3.68639
0
LINE
8
BLACK
6
CONTINUOUS
10
4.10057
20
-3.68639
11
4.10273
21
-3.69304
0
LINE
8
BLACK
6
CONTINUOUS
10
4.10273
20
-3.69304
11
4.10346
21
-3.7
0
LINE
8
BLACK
6
CONTINUOUS
10
4.10346
20
-3.7
11
4.10273
21
-3.70696
0
LINE
8
BLACK
6
CONTINUOUS
10
4.10273
20
-3.70696
11
4.10057
21
-3.71361
0
LINE
8
BLACK
6
CONTINUOUS
10
4.10057
20
-3.71361
11
4.09707
21
-3.71967
0
LINE
8
BLACK
6
CONTINUOUS
10
4.09707
20
-3.71967
11
4.09239
21
-3.72487
0
LINE
8
BLACK
6
CONTINUOUS
10
4.09239
20
-3.72487
11
4.08673
21
-3.72898
0
LINE
8
BLACK
6
CONTINUOUS
10
4.08673
20
-3.72898
11
4.08034
21
-3.73183
0
LINE
8
BLACK
6
CONTINUOUS
10
4.08034
20
-3.73183
11
4.07984
21
-3.73193
0
LINE
8
BLACK
6
CONTINUOUS
10
4.07984
20
-3.73193
11
4.07984
21
-4.04
0
LINE
8
BLACK
6
CONTINUOUS
10
4.07984
20
-4.04
11
4.07909
21
-4.04377
0
LINE
8
BLACK
6
CONTINUOUS
10
4.07909
20
-4.04377
11
4.07696
21
-4.04696
0
LINE
8
BLACK
6
CONTINUOUS
10
4.07696
20
-4.04696
11
4.07696
21
-4.04696
0
LINE
8
BLACK
6
CONTINUOUS
10
4.07696
20
-4.04696
11
3.7789
21
-4.34502
0
LINE
8
BLACK
6
CONTINUOUS
10
3.7789
20
-4.34502
11
3.7789
21
-4.53
0
LINE
8
BLACK
6
CONTINUOUS
10
3.7789
20
-4.53
11
3.78087
21
-4.53
0
LINE
8
BLACK
6
CONTINUOUS
10
3.78087
20
-4.53
11
3.78087
21
-4.5989
0
LINE
8
BLACK
6
CONTINUOUS
10
3.78087
20
-4.5989
11
3.75724
21
-4.5989
0
LINE
8
BLACK
6
CONTINUOUS
10
3.75724
20
-4.5989
11
3.75724
21
-4.53
0
LINE
8
BLACK
6
CONTINUOUS
10
3.75724
20
-4.53
11
3.75921
21
-4.53
0
LINE
8
BLACK
6
CONTINUOUS
10
3.75921
20
-4.53
11
3.75921
21
-4.34094
0
LINE
8
BLACK
6
CONTINUOUS
10
3.75921
20
-4.34094
11
3.75996
21
-4.33718
0
LINE
8
BLACK
6
CONTINUOUS
10
3.75996
20
-4.33718
11
3.7621
21
-4.33399
0
LINE
8
BLACK
6
CONTINUOUS
10
3.7621
20
-4.33399
11
4.06016
21
-4.03592
0
LINE
8
BLACK
6
CONTINUOUS
10
4.06016
20
-4.03592
11
4.06016
21
-3.73193
0
LINE
8
BLACK
6
CONTINUOUS
10
4.06016
20
-3.73193
11
4.05966
21
-3.73183
0
LINE
8
BLACK
6
CONTINUOUS
10
4.05966
20
-3.73183
11
4.05327
21
-3.72898
0
LINE
8
BLACK
6
CONTINUOUS
10
4.05327
20
-3.72898
11
4.04761
21
-3.72487
0
LINE
8
BLACK
6
CONTINUOUS
10
4.04761
20
-3.72487
11
4.04293
21
-3.71967
0
LINE
8
BLACK
6
CONTINUOUS
10
4.04293
20
-3.71967
11
4.03943
21
-3.71361
0
LINE
8
BLACK
6
CONTINUOUS
10
4.03943
20
-3.71361
11
4.03727
21
-3.70696
0
LINE
8
BLACK
6
CONTINUOUS
10
4.03727
20
-3.70696
11
4.03654
21
-3.7
0
LINE
8
BLACK
6
CONTINUOUS
10
4.03654
20
-3.7
11
4.03727
21
-3.69304
0
LINE
8
BLACK
6
CONTINUOUS
10
4.03727
20
-3.69304
11
4.03943
21
-3.68639
0
LINE
8
BLACK
6
CONTINUOUS
10
4.03943
20
-3.68639
11
4.04293
21
-3.68033
0
LINE
8
BLACK
6
CONTINUOUS
10
4.04293
20
-3.68033
11
4.04761
21
-3.67513
0
LINE
8
BLACK
6
CONTINUOUS
10
4.04761
20
-3.67513
11
4.05327
21
-3.67102
0
LINE
8
BLACK
6
CONTINUOUS
10
4.05327
20
-3.67102
11
4.05966
21
-3.66817
0
LINE
8
BLACK
6
CONTINUOUS
10
4.05966
20
-3.66817
11
4.0665
21
-3.66672
0
LINE
8
BLACK
6
CONTINUOUS
10
4.0665
20
-3.66672
11
4.0735
21
-3.66672
0
LINE
8
BLACK
6
CONTINUOUS
10
4.0735
20
-3.66672
11
4.08034
21
-3.66817
0
LINE
8
BLACK
6
CONTINUOUS
10
3.72323
20
-3.72658
11
3.72433
21
-3.72783
0
LINE
8
BLACK
6
CONTINUOUS
10
3.72433
20
-3.72783
11
3.72669
21
-3.7317
0
LINE
8
BLACK
6
CONTINUOUS
10
3.72669
20
-3.7317
11
3.73245
21
-3.73834
0
LINE
8
BLACK
6
CONTINUOUS
10
3.73245
20
-3.73834
11
3.73827
21
-3.74318
0
LINE
8
BLACK
6
CONTINUOUS
10
3.73827
20
-3.74318
11
3.73835
21
-3.74324
0
LINE
8
BLACK
6
CONTINUOUS
10
3.73835
20
-3.74324
11
3.73991
21
-3.74556
0
LINE
8
BLACK
6
CONTINUOUS
10
3.73991
20
-3.74556
11
3.74014
21
-3.74705
0
LINE
8
BLACK
6
CONTINUOUS
10
3.74014
20
-3.74705
11
3.74014
21
-4.10558
0
LINE
8
BLACK
6
CONTINUOUS
10
3.74014
20
-4.10558
11
3.73935
21
-4.10826
0
LINE
8
BLACK
6
CONTINUOUS
10
3.73935
20
-4.10826
11
3.73868
21
-4.10908
0
LINE
8
BLACK
6
CONTINUOUS
10
3.73868
20
-4.10908
11
3.70833
21
-4.13944
0
LINE
8
BLACK
6
CONTINUOUS
10
3.70833
20
-4.13944
11
3.70588
21
-4.14078
0
LINE
8
BLACK
6
CONTINUOUS
10
3.70588
20
-4.14078
11
3.70309
21
-4.14058
0
LINE
8
BLACK
6
CONTINUOUS
10
3.70309
20
-4.14058
11
3.70085
21
-4.1389
0
LINE
8
BLACK
6
CONTINUOUS
10
3.70085
20
-4.1389
11
3.69987
21
-4.13628
0
LINE
8
BLACK
6
CONTINUOUS
10
3.69987
20
-4.13628
11
3.69986
21
-4.13593
0
LINE
8
BLACK
6
CONTINUOUS
10
3.69986
20
-4.13593
11
3.69986
21
-3.74695
0
LINE
8
BLACK
6
CONTINUOUS
10
3.69986
20
-3.74695
11
3.70065
21
-3.74427
0
LINE
8
BLACK
6
CONTINUOUS
10
3.70065
20
-3.74427
11
3.70194
21
-3.74292
0
LINE
8
BLACK
6
CONTINUOUS
10
3.70194
20
-3.74292
11
3.70464
21
-3.74099
0
LINE
8
BLACK
6
CONTINUOUS
10
3.70464
20
-3.74099
11
3.71087
21
-3.73478
0
LINE
8
BLACK
6
CONTINUOUS
10
3.71087
20
-3.73478
11
3.71321
21
-3.73152
0
LINE
8
BLACK
6
CONTINUOUS
10
3.71321
20
-3.73152
11
3.716
21
-3.72764
0
LINE
8
BLACK
6
CONTINUOUS
10
3.716
20
-3.72764
11
3.71605
21
-3.72768
0
LINE
8
BLACK
6
CONTINUOUS
10
3.71605
20
-3.72768
11
3.7179
21
-3.72598
0
LINE
8
BLACK
6
CONTINUOUS
10
3.7179
20
-3.72598
11
3.72065
21
-3.7255
0
LINE
8
BLACK
6
CONTINUOUS
10
3.72065
20
-3.7255
11
3.72323
21
-3.72658
0
LINE
8
BLACK
6
CONTINUOUS
10
3.82323
20
-3.72658
11
3.82433
21
-3.72783
0
LINE
8
BLACK
6
CONTINUOUS
10
3.82433
20
-3.72783
11
3.82669
21
-3.7317
0
LINE
8
BLACK
6
CONTINUOUS
10
3.82669
20
-3.7317
11
3.83245
21
-3.73834
0
LINE
8
BLACK
6
CONTINUOUS
10
3.83245
20
-3.73834
11
3.83827
21
-3.74318
0
LINE
8
BLACK
6
CONTINUOUS
10
3.83827
20
-3.74318
11
3.83835
21
-3.74324
0
LINE
8
BLACK
6
CONTINUOUS
10
3.83835
20
-3.74324
11
3.83991
21
-3.74556
0
LINE
8
BLACK
6
CONTINUOUS
10
3.83991
20
-3.74556
11
3.84014
21
-3.74705
0
LINE
8
BLACK
6
CONTINUOUS
10
3.84014
20
-3.74705
11
3.84014
21
-4.07558
0
LINE
8
BLACK
6
CONTINUOUS
10
3.84014
20
-4.07558
11
3.83935
21
-4.07826
0
LINE
8
BLACK
6
CONTINUOUS
10
3.83935
20
-4.07826
11
3.83868
21
-4.07908
0
LINE
8
BLACK
6
CONTINUOUS
10
3.83868
20
-4.07908
11
3.80833
21
-4.10944
0
LINE
8
BLACK
6
CONTINUOUS
10
3.80833
20
-4.10944
11
3.80588
21
-4.11078
0
LINE
8
BLACK
6
CONTINUOUS
10
3.80588
20
-4.11078
11
3.80309
21
-4.11058
0
LINE
8
BLACK
6
CONTINUOUS
10
3.80309
20
-4.11058
11
3.80085
21
-4.1089
0
LINE
8
BLACK
6
CONTINUOUS
10
3.80085
20
-4.1089
11
3.79987
21
-4.10628
0
LINE
8
BLACK
6
CONTINUOUS
10
3.79987
20
-4.10628
11
3.79986
21
-4.10593
0
LINE
8
BLACK
6
CONTINUOUS
10
3.79986
20
-4.10593
11
3.79986
21
-3.74695
0
LINE
8
BLACK
6
CONTINUOUS
10
3.79986
20
-3.74695
11
3.80065
21
-3.74427
0
LINE
8
BLACK
6
CONTINUOUS
10
3.80065
20
-3.74427
11
3.80194
21
-3.74292
0
LINE
8
BLACK
6
CONTINUOUS
10
3.80194
20
-3.74292
11
3.80464
21
-3.74099
0
LINE
8
BLACK
6
CONTINUOUS
10
3.80464
20
-3.74099
11
3.81087
21
-3.73478
0
LINE
8
BLACK
6
CONTINUOUS
10
3.81087
20
-3.73478
11
3.81321
21
-3.73152
0
LINE
8
BLACK
6
CONTINUOUS
10
3.81321
20
-3.73152
11
3.816
21
-3.72764
0
LINE
8
BLACK
6
CONTINUOUS
10
3.816
20
-3.72764
11
3.81605
21
-3.72768
0
LINE
8
BLACK
6
CONTINUOUS
10
3.81605
20
-3.72768
11
3.8179
21
-3.72598
0
LINE
8
BLACK
6
CONTINUOUS
10
3.8179
20
-3.72598
11
3.82065
21
-3.7255
0
LINE
8
BLACK
6
CONTINUOUS
10
3.82065
20
-3.7255
11
3.82323
21
-3.72658
0
LINE
8
BLACK
6
CONTINUOUS
10
3.92323
20
-3.72658
11
3.92433
21
-3.72783
0
LINE
8
BLACK
6
CONTINUOUS
10
3.92433
20
-3.72783
11
3.92669
21
-3.7317
0
LINE
8
BLACK
6
CONTINUOUS
10
3.92669
20
-3.7317
11
3.93245
21
-3.73834
0
LINE
8
BLACK
6
CONTINUOUS
10
3.93245
20
-3.73834
11
3.93827
21
-3.74318
0
LINE
8
BLACK
6
CONTINUOUS
10
3.93827
20
-3.74318
11
3.93835
21
-3.74324
0
LINE
8
BLACK
6
CONTINUOUS
10
3.93835
20
-3.74324
11
3.93991
21
-3.74556
0
LINE
8
BLACK
6
CONTINUOUS
10
3.93991
20
-3.74556
11
3.94014
21
-3.74705
0
LINE
8
BLACK
6
CONTINUOUS
10
3.94014
20
-3.74705
11
3.94014
21
-4.04558
0
LINE
8
BLACK
6
CONTINUOUS
10
3.94014
20
-4.04558
11
3.93935
21
-4.04826
0
LINE
8
BLACK
6
CONTINUOUS
10
3.93935
20
-4.04826
11
3.93868
21
-4.04908
0
LINE
8
BLACK
6
CONTINUOUS
10
3.93868
20
-4.04908
11
3.90833
21
-4.07944
0
LINE
8
BLACK
6
CONTINUOUS
10
3.90833
20
-4.07944
11
3.90588
21
-4.08078
0
LINE
8
BLACK
6
CONTINUOUS
10
3.90588
20
-4.08078
11
3.90309
21
-4.08058
0
LINE
8
BLACK
6
CONTINUOUS
10
3.90309
20
-4.08058
11
3.90085
21
-4.0789
0
LINE
8
BLACK
6
CONTINUOUS
10
3.90085
20
-4.0789
11
3.89987
21
-4.07628
0
LINE
8
BLACK
6
CONTINUOUS
10
3.89987
20
-4.07628
11
3.89986
21
-4.07593
0
LINE
8
BLACK
6
CONTINUOUS
10
3.89986
20
-4.07593
11
3.89986
21
-3.74695
0
LINE
8
BLACK
6
CONTINUOUS
10
3.89986
20
-3.74695
11
3.90065
21
-3.74427
0
LINE
8
BLACK
6
CONTINUOUS
10
3.90065
20
-3.74427
11
3.90194
21
-3.74292
0
LINE
8
BLACK
6
CONTINUOUS
10
3.90194
20
-3.74292
11
3.90464
21
-3.74099
0
LINE
8
BLACK
6
CONTINUOUS
10
3.90464
20
-3.74099
11
3.91087
21
-3.73478
0
LINE
8
BLACK
6
CONTINUOUS
10
3.91087
20
-3.73478
11
3.91321
21
-3.73152
0
LINE
8
BLACK
6
CONTINUOUS
10
3.91321
20
-3.73152
11
3.916
21
-3.72764
0
LINE
8
BLACK
6
CONTINUOUS
10
3.916
20
-3.72764
11
3.91605
21
-3.72768
0
LINE
8
BLACK
6
CONTINUOUS
10
3.91605
20
-3.72768
11
3.9179
21
-3.72598
0
LINE
8
BLACK
6
CONTINUOUS
10
3.9179
20
-3.72598
11
3.92065
21
-3.7255
0
LINE
8
BLACK
6
CONTINUOUS
10
3.92065
20
-3.7255
11
3.92323
21
-3.72658
0
LINE
8
BLACK
6
CONTINUOUS
10
4.02323
20
-3.72658
11
4.02433
21
-3.72783
0
LINE
8
BLACK
6
CONTINUOUS
10
4.02433
20
-3.72783
11
4.02669
21
-3.7317
0
LINE
8
BLACK
6
CONTINUOUS
10
4.02669
20
-3.7317
11
4.03245
21
-3.73834
0
LINE
8
BLACK
6
CONTINUOUS
10
4.03245
20
-3.73834
11
4.03827
21
-3.74318
0
LINE
8
BLACK
6
CONTINUOUS
10
4.03827
20
-3.74318
11
4.03835
21
-3.74324
0
LINE
8
BLACK
6
CONTINUOUS
10
4.03835
20
-3.74324
11
4.03991
21
-3.74556
0
LINE
8
BLACK
6
CONTINUOUS
10
4.03991
20
-3.74556
11
4.04014
21
-3.74705
0
LINE
8
BLACK
6
CONTINUOUS
10
4.04014
20
-3.74705
11
4.04014
21
-4.02558
0
LINE
8
BLACK
6
CONTINUOUS
10
4.04014
20
-4.02558
11
4.03935
21
-4.02826
0
LINE
8
BLACK
6
CONTINUOUS
10
4.03935
20
-4.02826
11
4.03868
21
-4.02908
0
LINE
8
BLACK
6
CONTINUOUS
10
4.03868
20
-4.02908
11
4.00833
21
-4.05944
0
LINE
8
BLACK
6
CONTINUOUS
10
4.00833
20
-4.05944
11
4.00588
21
-4.06078
0
LINE
8
BLACK
6
CONTINUOUS
10
4.00588
20
-4.06078
11
4.00309
21
-4.06058
0
LINE
8
BLACK
6
CONTINUOUS
10
4.00309
20
-4.06058
11
4.00085
21
-4.0589
0
LINE
8
BLACK
6
CONTINUOUS
10
4.00085
20
-4.0589
11
3.99987
21
-4.05628
0
LINE
8
BLACK
6
CONTINUOUS
10
3.99987
20
-4.05628
11
3.99986
21
-4.05593
0
LINE
8
BLACK
6
CONTINUOUS
10
3.99986
20
-4.05593
11
3.99986
21
-3.74695
0
LINE
8
BLACK
6
CONTINUOUS
10
3.99986
20
-3.74695
11
4.00065
21
-3.74427
0
LINE
8
BLACK
6
CONTINUOUS
10
4.00065
20
-3.74427
11
4.00194
21
-3.74292
0
LINE
8
BLACK
6
CONTINUOUS
10
4.00194
20
-3.74292
11
4.00464
21
-3.74099
0
LINE
8
BLACK
6
CONTINUOUS
10
4.00464
20
-3.74099
11
4.01087
21
-3.73478
0
LINE
8
BLACK
6
CONTINUOUS
10
4.01087
20
-3.73478
11
4.01321
21
-3.73152
0
LINE
8
BLACK
6
CONTINUOUS
10
4.01321
20
-3.73152
11
4.016
21
-3.72764
0
LINE
8
BLACK
6
CONTINUOUS
10
4.016
20
-3.72764
11
4.01605
21
-3.72768
0
LINE
8
BLACK
6
CONTINUOUS
10
4.01605
20
-3.72768
11
4.0179
21
-3.72598
0
LINE
8
BLACK
6
CONTINUOUS
10
4.0179
20
-3.72598
11
4.02065
21
-3.7255
0
LINE
8
BLACK
6
CONTINUOUS
10
4.02065
20
-3.7255
11
4.02323
21
-3.72658
0
LINE
8
BLACK
6
CONTINUOUS
10
4.11414
20
-3.73561
11
4.11638
21
-3.73729
0
LINE
8
BLACK
6
CONTINUOUS
10
4.11638
20
-3.73729
11
4.11705
21
-3.73852
0
LINE
8
BLACK
6
CONTINUOUS
10
4.11705
20
-3.73852
11
4.11879
21
-3.74318
0
LINE
8
BLACK
6
CONTINUOUS
10
4.11879
20
-3.74318
11
4.12223
21
-3.74777
0
LINE
8
BLACK
6
CONTINUOUS
10
4.12223
20
-3.74777
11
4.12682
21
-3.75121
0
LINE
8
BLACK
6
CONTINUOUS
10
4.12682
20
-3.75121
11
4.13219
21
-3.75322
0
LINE
8
BLACK
6
CONTINUOUS
10
4.13219
20
-3.75322
11
4.13464
21
-3.75348
0
LINE
8
BLACK
6
CONTINUOUS
10
4.13464
20
-3.75348
11
4.13518
21
-3.75348
0
LINE
8
BLACK
6
CONTINUOUS
10
4.13518
20
-3.75348
11
4.13786
21
-3.75427
0
LINE
8
BLACK
6
CONTINUOUS
10
4.13786
20
-3.75427
11
4.13969
21
-3.75638
0
LINE
8
BLACK
6
CONTINUOUS
10
4.13969
20
-3.75638
11
4.14014
21
-3.75844
0
LINE
8
BLACK
6
CONTINUOUS
10
4.14014
20
-3.75844
11
4.14014
21
-3.99151
0
LINE
8
BLACK
6
CONTINUOUS
10
4.14014
20
-3.99151
11
4.13935
21
-3.99419
0
LINE
8
BLACK
6
CONTINUOUS
10
4.13935
20
-3.99419
11
4.13868
21
-3.99502
0
LINE
8
BLACK
6
CONTINUOUS
10
4.13868
20
-3.99502
11
4.10833
21
-4.02537
0
LINE
8
BLACK
6
CONTINUOUS
10
4.10833
20
-4.02537
11
4.10588
21
-4.02671
0
LINE
8
BLACK
6
CONTINUOUS
10
4.10588
20
-4.02671
11
4.10309
21
-4.02651
0
LINE
8
BLACK
6
CONTINUOUS
10
4.10309
20
-4.02651
11
4.10085
21
-4.02484
0
LINE
8
BLACK
6
CONTINUOUS
10
4.10085
20
-4.02484
11
4.09987
21
-4.02222
0
LINE
8
BLACK
6
CONTINUOUS
10
4.09987
20
-4.02222
11
4.09986
21
-4.02187
0
LINE
8
BLACK
6
CONTINUOUS
10
4.09986
20
-4.02187
11
4.09986
21
-3.74695
0
LINE
8
BLACK
6
CONTINUOUS
10
4.09986
20
-3.74695
11
4.10065
21
-3.74427
0
LINE
8
BLACK
6
CONTINUOUS
10
4.10065
20
-3.74427
11
4.10194
21
-3.74292
0
LINE
8
BLACK
6
CONTINUOUS
10
4.10194
20
-3.74292
11
4.10464
21
-3.74099
0
LINE
8
BLACK
6
CONTINUOUS
10
4.10464
20
-3.74099
11
4.1089
21
-3.73674
0
LINE
8
BLACK
6
CONTINUOUS
10
4.1089
20
-3.73674
11
4.11136
21
-3.73541
0
LINE
8
BLACK
6
CONTINUOUS
10
4.11136
20
-3.73541
11
4.11414
21
-3.73561
  0
ENDSEC
  0
EOF
